<?xml version="1.0" encoding="utf-8"?>
<!-- Generator: Adobe Illustrator 16.0.4, SVG Export Plug-In . SVG Version: 6.00 Build 0)  -->
<!DOCTYPE svg PUBLIC "-//W3C//DTD SVG 1.1//EN" "http://www.w3.org/Graphics/SVG/1.1/DTD/svg11.dtd">
<svg version="1.1" id="Layer_1" xmlns="http://www.w3.org/2000/svg" xmlns:xlink="http://www.w3.org/1999/xlink" x="0px" y="0px"
	 width="619px" height="331px" viewBox="283.775 255.445 619 331" enable-background="new 283.775 255.445 619 331"
	 xml:space="preserve">
<path d="M891.41,499.566c-4.479-0.562-11.046-1.447-19.436-2.285c-8.388-0.857-18.588-1.857-30.312-2.623
	c-11.725-0.814-24.973-1.564-39.44-1.932c-5.171-0.15-10.505-0.275-15.976-0.359c29.583-10.426,45.316-39.811,53.759-74.426
	c0.427-1.763,0.521-3.477,0.328-4.809c-0.287-1.997-1.479-3.188-2.811-2.997c-1.668,0.239-3.14,1.813-4.662,5.432
	c-6.695,14.906-18.511,53.335-50.163,57.888c-20.658,2.971-25.633-22.156-27.741-36.816c4.523,0.709,8.948,0.752,12.947,0.176
	c35.317-5.08,52.835-53.509,48.233-85.495c-2.35-16.327-10.5-28.079-24.733-27.73c-4.478-2.754-12.477-3.986-19.805-2.932
	c-32.209,4.632-51.208,63-48.447,110.971c-6.359,19.658-15.812,52.666-27.416,54.334c-4.663,0.674-7.384-4.039-8.676-13.033
	c-5.561-38.648,20.873-174.061,17.759-195.715c-1.775-12.328-12.729-17.554-21.06-16.355c-4.998,0.72-8.994,3.675-9.607,8.863
	c-2.361,19.044-5.711,50.133-8.203,82.459c-4.147-7.565-10.628-14.795-19.626-13.503c-32.548,4.684-50.784,62.77-51.071,111.194
	c-5.856,16.053-17.664,23.504-29.578,25.559c7.783-23.906,10.612-51.518,7.306-74.507c-4.123-28.654-18.376-49.729-45.03-45.895
	c-20.992,3.02-32.351,20.978-35.661,42.877c-8.521-0.133-13.034,8.679-14.838,15.059c-4.9,15.912-7.72,35.351-6.696,55.314
	c-10.051,24.424-24.286,52.523-51.034,56.373c-22.987,3.305-35.006-16.389-39.079-44.709
	c-8.676-60.305,18.076-160.394,52.965-166.094c2.146,3.093,3.386,6.996,3.962,10.993c3.786,26.32-19.354,71.138-15.76,96.128
	c0.958,6.663,9.481,9.174,17.812,7.979c8.33-1.197,16.083-6.395,15.221-14.773c-2.161-17.372,6.039-52.56,2.349-78.213
	c-2.012-13.996-7.353-25.129-19.83-29.115c-3.146-2.947-9.811-4.37-16.475-3.413c-51.31,7.382-80.63,108.522-70.564,178.488
	c4.765,33.127,18.379,59.273,42.301,65.654c-3.194,0.918-6.34,1.834-9.417,2.74c-13.888,4.02-26.522,8.031-37.681,11.697
	c-11.174,3.613-20.827,7.037-28.764,9.883c-7.942,2.818-14.111,5.244-18.329,6.852c-2.102,0.83-3.711,1.463-4.797,1.891
	c-0.477,0.186-0.834,0.324-1.104,0.43c-0.016,0.006-0.024,0.008-0.072,0.021c-0.035,0.014-0.08,0.027-0.132,0.047
	c-0.032-0.033-0.07,0.082-0.007,0.061l0.104-0.021c0.289-0.07,0.719-0.174,1.285-0.311c1.132-0.283,2.811-0.705,4.999-1.254
	c4.375-1.09,10.792-2.689,18.96-4.725c8.173-1.963,18.1-4.352,29.485-7.088c11.394-2.674,24.269-5.578,38.304-8.748
	c14.053-3.104,29.3-6.328,45.419-9.715c16.134-3.336,33.193-6.596,50.826-9.994c17.637-3.393,35.948-6.395,54.515-9.621
	c18.581-3.145,37.506-6.037,56.465-8.652c18.935-2.781,37.914-5.254,56.629-7.371c18.723-2.059,37.146-4.17,55.022-5.688
	c17.877-1.504,35.17-2.943,51.597-3.953c16.425-0.967,31.971-1.803,46.336-2.35c14.365-0.492,27.548-0.883,39.241-1.072
	c11.691-0.143,21.899-0.268,30.312-0.252c16.835,0.078,26.456,0.125,26.456,0.125S895.885,500.181,891.41,499.566z M786.463,331.785
	c4.995-0.719,6.478,4.85,7.244,10.18c3.738,25.986-17.009,82.703-36.667,85.533c-1,0.141-1.666,0.238-2.713,0.049
	C752.574,386.989,767.472,334.517,786.463,331.785z M751.211,492.455c-13.689,0.24-27.967,0.656-42.648,1.486
	c8.979-11.254,13.964-27.324,17.406-41.297C730.044,471.044,738.277,485.919,751.211,492.455z M654.101,357.285
	c7.331-1.054,9.859,4.705,10.812,8.984c-1.41,16.188-2.489,32.329-3.428,47.087c-4.243,41.418-12.442,76.604-25.772,78.522
	c-3.996,0.574-6.574-5.516-8.013-15.512C622.671,441.384,631.777,360.498,654.101,357.285z M527.77,367.978
	c7.996-1.15,12.818,11.079,15.31,28.403c3.116,21.658,2.098,52.41-1.829,77.119c-17.003-7.076-25.826-25.869-28.653-45.525
	C508.427,398.985,516.442,369.606,527.77,367.978z M500.815,454.833c7.633,15.225,19.595,27.445,38.113,30.902
	c-3.506,15.811-8.35,27.049-14.539,28.959c-0.949,0.479-1.95,0.621-2.949,0.766c-10.996,1.582-17.243-11.125-19.784-28.785
	C500.267,477.017,500.018,465.83,500.815,454.833z M478.934,525.789c-12.42,2.668-24.48,5.535-36.126,8.434
	c14.686-12.631,24.326-31.197,30.092-47.236c2.817,15.229,8.313,28.285,16.748,36.502
	C486.055,524.255,482.479,525.025,478.934,525.789z M590.469,505.523c-14.44,2.105-28.848,4.406-43.099,6.848
	c5.618-7.416,10.448-16.477,14.36-26.514c15.17-2.184,27.082-11.062,34.07-20.58c0.25,3.105,0.582,6.141,1.004,9.072
	c1.679,11.67,4.715,21.766,9.173,29.121C600.809,504.132,595.638,504.814,590.469,505.523z M648.104,498.589
	c4.155-7.197,7.965-16.377,11.202-27.107c-0.046,2.047,0.243,4.047,0.386,5.045c1.161,8.066,3.439,15.031,6.617,20.346
	C660.271,497.38,654.201,497.943,648.104,498.589z"/>
</svg>
