<?xml version="1.0" encoding="utf-8"?>
<!-- Generator: Adobe Illustrator 16.0.4, SVG Export Plug-In . SVG Version: 6.00 Build 0)  -->
<!DOCTYPE svg PUBLIC "-//W3C//DTD SVG 1.1//EN" "http://www.w3.org/Graphics/SVG/1.1/DTD/svg11.dtd">
<svg version="1.1" id="Layer_1" xmlns="http://www.w3.org/2000/svg" xmlns:xlink="http://www.w3.org/1999/xlink" x="0px" y="0px"
	 width="437px" height="437px" viewBox="-168.5 -188.071 437 437" enable-background="new -168.5 -188.071 437 437"
	 xml:space="preserve">
<g>
	<path d="M150.476,31.006c3.76-3.249,8.573-6.377,13.666-9.684c10.322-6.716,21.764-14.171,24.388-23.142
		C147.84,22.735,51.958,24.108,50.732,24.108c-1.239,0-98.747-1.396-138.831-26.556c0.26,1.375,0.827,2.718,1.787,4.047
		C-75.407,16.668-26.333,24.068,0.03,28.033c7.576,1.144,13.56,2.045,17.389,2.882c28.748,6.292,54.36,15.981,81.855,31.195
		c0.05,0.013,0.093,0,0.148,0.018c0.496,0.15,0.908,0.425,1.26,0.755c7.062,3.947,14.253,8.247,21.663,12.967
		c2.721-3.155,4.112-7.657,5.568-12.37c1.111-3.595,2.258-7.304,4.074-10.641C135.926,45.584,142.327,38.036,150.476,31.006z"/>
	<path d="M-34.507,4.04c32.209,6.464,68.625,8.811,85.243,8.811c51.865,0,144.49-13.376,144.49-40.03
		c0-30.37-59.342-64.205-144.49-64.205c-85.152,0-144.497,33.831-144.497,64.203C-93.761-14.907-72.167-3.523-34.507,4.04z
		 M113.89-72.878c2.521-2.895,8.48-1.829,13.327,2.379c4.839,4.208,6.723,9.967,4.21,12.862c-2.521,2.895-8.484,1.83-13.326-2.381
		C113.262-64.227,111.377-69.984,113.89-72.878z M83.324-63.634c3.255-2.029,8.641,0.74,12.036,6.186
		c3.392,5.443,3.507,11.502,0.246,13.528c-3.251,2.029-8.641-0.74-12.032-6.186C80.182-55.549,80.073-61.608,83.324-63.634z
		 M51.627-79.042c4.278,0,7.746,5.157,7.746,11.519c0,6.362-3.468,11.519-7.746,11.519c-4.274,0-7.739-5.157-7.739-11.519
		C43.888-73.884,47.354-79.042,51.627-79.042z M5.959-53.724c1.052-6.273,5.322-10.787,9.539-10.08
		c4.214,0.708,6.778,6.368,5.725,12.641s-5.324,10.787-9.539,10.078C7.47-41.792,4.907-47.451,5.959-53.724z M-25.741-70.51
		c4.838-4.21,10.803-5.278,13.32-2.385c2.517,2.895,0.634,8.654-4.204,12.864c-4.84,4.21-10.804,5.277-13.321,2.385
		C-32.463-60.541-30.582-66.298-25.741-70.51z"/>
	<path d="M-0.961,34.711c-29.264-4.408-78.243-11.786-90.812-29.154c-1.441-1.993-2.379-4.081-2.865-6.232
		c-6.967,5.613-8.119,12.921-8.252,16.221c-0.261,6.583,2.419,12.487,6.845,15.043c3.818,2.204,8.565,1.645,13.722-1.615
		c0.789-0.496,1.738-0.634,2.617-0.42c0.305,0.074,0.609,0.193,0.889,0.354c1.089,0.639,1.735,1.824,1.674,3.082
		c-0.044,0.94-0.042,1.844,0.002,2.723c0,0.048-0.002,0.097,0,0.146c0.323,6.229,2.795,10.979,7.116,13.553
		c4.23,2.514,9.836,2.763,15.572,0.945c1.749-0.554,3.508-1.286,5.248-2.224c0.486-0.264,0.974-0.494,1.454-0.785
		c1.074-0.647,2.419-0.655,3.493-0.003c1.08,0.64,1.704,1.828,1.636,3.08c-0.093,1.613,0.011,3.111,0.21,4.552
		c0.189,1.312,0.512,2.538,0.928,3.689c1.466,4.069,4.325,7.096,8.438,8.638c1.988,0.747,4.28,1.115,6.676,1.063
		c2.067-0.043,4.221-0.38,6.337-1.082c0.931-0.31,1.853-0.709,2.76-1.159c1.369-0.686,2.698-1.5,3.958-2.512
		c1.286-1.043,2.506-2.243,3.599-3.657c0.782-1.008,2.061-1.495,3.32-1.241c1.254,0.24,2.26,1.173,2.604,2.404
		c0.21,0.753,0.466,1.416,0.753,2.029c0.373,0.807,0.801,1.515,1.274,2.12c1.079,1.373,2.367,2.245,3.661,2.808
		c1.08,0.464,2.167,0.719,3.141,0.834c0.503,0.057,0.983,0.086,1.407,0.093c0.055,0,0.106,0,0.159,0
		c4.54,0,9.876-2.317,13.009-6.621c0.737-1.012,1.388-2.109,1.836-3.342c0.076-0.213,0.188-0.403,0.257-0.622
		c0.468-1.556,1.969-2.547,3.595-2.373c1.614,0.175,2.874,1.472,3.005,3.09c0.144,1.834,0.556,3.561,1.177,5.181
		c1.23,3.209,3.29,5.947,5.743,8.083l0.918,0.59l-0.1,0.08c-0.277-0.219-0.551-0.44-0.818-0.669
		c0.001,0.001,0.002,0.002,0.003,0.003c0.268,0.235,0.537,0.461,0.815,0.672c0.692,0.548,1.401,1.054,2.13,1.507
		c2.19,1.338,4.54,2.244,6.823,2.608c0.17,0.026,0.354,0.049,0.542,0.075c1.052,0.125,2.287,0.167,3.625-0.02
		c1.303-0.187,2.687-0.635,4.049-1.393c0.977-0.539,1.948-1.214,2.869-2.155c1.303-1.337,2.508-3.126,3.519-5.518
		c0.433-1.034,1.349-1.791,2.449-2.01c1.094-0.219,2.228,0.119,3.034,0.901c5.908,5.815,14.872,8.886,21.289,7.285
		c1.562-0.383,2.92-1.07,4.126-1.99c0.776-0.592,1.507-1.254,2.134-2.064c0.548-0.702,1.02-1.505,1.457-2.359
		C67.9,52.662,43.389,43.509,15.988,37.512C12.381,36.721,6.201,35.793-0.961,34.711z"/>
	<path d="M49.988-187.598c-120.68,0-218.511,97.831-218.511,218.512s97.831,218.511,218.511,218.511
		c120.681,0,218.512-97.83,218.512-218.511S170.668-187.598,49.988-187.598z M50.736,158.53
		c-75.214,0-155.574-13.892-155.574-52.871c0-4.062,0.56-8.438,4.641-12.906l0.713-0.772l8.868,7.555l-0.885,0.964
		c-1.643,1.799-2.445,3.493-2.445,5.165c0,23.823,60.846,41.105,144.678,41.105c83.832,0,144.678-17.282,144.678-41.105
		c0-0.803-0.208-1.659-0.62-2.551l-0.407-0.896l8.705-7.071l0.653,1.125c1.703,2.972,2.563,6.129,2.563,9.388
		C206.304,144.639,125.944,158.53,50.736,158.53z M-100.996,61.076c0-1.939,0.197-3.831,0.548-5.651l19.177,11.402l-15.241,9.564
		l-0.013,0.009c-0.749,1.345-1.114,2.612-1.048,3.76c0.155,3.05,3.37,5.577,5.72,7.428c2.052,1.612,4.42,1.927,7.16,2.283
		c2.966,0.399,6.324,0.849,9.386,2.979c2.806,1.957,4.011,4.821,4.979,7.121c1.301,3.095,1.74,3.617,3.136,3.719
		c0.691,0.042,1.782-1.227,2.782-2.343c1.912-2.144,4.533-5.076,8.841-5.17c7.529-0.152,10.83,6.651,13.471,12.122
		c2.699,5.581,4.594,8.977,8.185,8.993c0.002,0,0.002,0,0.006,0c1.421,0,4.056-3.828,5.797-6.37
		c3.126-4.55,6.667-9.712,11.974-10.051c3.257-0.194,6.347,1.393,9.467,4.886c1.704,1.896,2.699,5.301,4.171,10.678
		c1.445,5.271,3.635,13.237,6.401,14.555c0.204,0.097,0.634,0.305,1.632-0.128c1.81-0.79,2.192-5.306,2.527-9.287
		c0.632-7.529,1.5-17.843,12.614-19.396c3.716-0.534,7.741,1.638,11.296,3.548c1.651,0.883,3.213,1.723,4.366,2.097
		c4.613,1.477,5.445,0.984,8.528-0.866c0.976-0.585,2.076-1.247,3.434-1.939c9.295-4.762,15.734-0.36,20.899,3.179
		c3.62,2.479,6.748,4.613,10.556,3.863c1.404-0.281,2.937-2.212,4.413-4.071c1.694-2.126,3.438-4.316,5.918-5.606
		c5.33-2.775,11.633-2.419,19.264,1.095c3.013,1.384,4.812,3.931,6.393,6.172c1.918,2.716,2.852,3.828,4.413,3.828
		c1.979,0,3.879-1.188,6.073-2.563c3.417-2.13,7.665-4.787,13.161-2.657c3.693,1.435,6.682,4.758,9.567,7.979
		c1.99,2.216,5.017,5.619,6.332,5.415c0.099-0.013,1.027-0.178,2.529-2.792c0.756-1.307,1.139-2.869,1.542-4.524
		c0.793-3.209,1.769-7.215,5.983-10.194c3.06-2.165,6.468-2.733,9.469-3.243c2.292-0.382,4.448-0.738,6.073-1.749
		c0.654-0.407,1.427-0.865,2.279-1.375c4.211-2.512,15.382-9.167,15.22-13.479c-0.059-1.696-2.521-3.273-4.235-4.166
		c1.38-1.646,2.576-3.5,3.548-5.529c4.644,2.568,7.097,5.739,7.241,9.452c0.313,8.196-10.955,14.915-18.411,19.363
		c-0.815,0.488-1.559,0.929-2.182,1.312c-2.726,1.68-5.76,2.194-8.446,2.644c-2.538,0.42-4.932,0.827-6.77,2.126
		c-2.109,1.49-2.645,3.307-3.4,6.401c-0.475,1.927-1.009,4.111-2.228,6.229c-2.169,3.765-4.631,5.738-7.534,6.048
		c-4.668,0.489-8.34-3.603-11.892-7.559c-2.377-2.644-4.83-5.377-7.054-6.243c-2.326-0.904-4.198,0.157-7.313,2.105
		c-2.666,1.663-5.691,3.553-9.545,3.553c-5.119,0-7.699-3.659-9.778-6.596c-1.214-1.724-2.36-3.353-3.778-3.999
		c-5.747-2.647-10.029-3.038-13.487-1.239c-1.239,0.654-2.548,2.283-3.808,3.867c-2.114,2.656-4.508,5.67-8.271,6.421
		c-6.516,1.299-11.312-1.994-15.543-4.881c-5.348-3.666-8.646-5.603-14.201-2.754c-1.202,0.615-2.182,1.2-3.047,1.719
		c-4.011,2.406-6.825,3.769-13.917,1.486c-1.719-0.553-3.538-1.529-5.46-2.561c-2.404-1.295-5.704-3.068-7.285-2.839
		c-5.339,0.756-6.26,4.881-6.982,13.454c-0.512,6.099-1.044,12.402-6.443,14.753c-1.354,0.595-2.587,0.815-3.673,0.815
		c-1.401,0-2.56-0.365-3.414-0.781c-5.473-2.605-7.821-11.171-9.898-18.726c-0.83-3.031-1.969-7.182-2.735-8.056
		c-1.624-1.808-3.113-2.771-4.159-2.703c-2.125,0.14-4.818,4.065-6.98,7.219c-3.124,4.55-6.356,9.236-11.251,9.224
		c-7.939-0.047-11.33-7.067-14.053-12.704c-2.784-5.771-4.348-8.415-7.429-8.415c-1.382,0.029-2.447,1.149-4.079,2.982
		c-1.91,2.131-4.276,4.801-8.151,4.512c-5.641-0.411-7.494-4.809-8.713-7.721c-0.769-1.828-1.435-3.412-2.687-4.281
		c-1.748-1.223-3.944-1.511-6.487-1.847c-3.232-0.429-6.899-0.912-10.216-3.522c-3.103-2.445-8.058-6.341-8.368-12.364
		c-0.176-3.586,1.286-7.155,4.405-10.854v-0.004C-100.542,66.946-100.996,64.077-100.996,61.076z M-74.702,70.733l29.117,17.326
		h-31.182c-5.904,0-11.315-2.365-15.519-6.295L-74.702,70.733z M-31.246,88.06l18.683-11.832L5.883,88.06H-31.246z M82.042,88.06
		l14.863-12.576l19.604,12.576H82.042z M175.322,88.06h-39.268l14.574-15.197L175.322,88.06z M159.015,68.484l12.652-13.868
		l27.124,17.38c-0.321,0.901-0.695,1.762-1.104,2.608c-0.959,2.024-2.159,3.875-3.539,5.521c-2.189,2.61-4.83,4.7-7.784,6.061
		L159.015,68.484z M202.735,25.577c4.364,8.049,3.901,13.879,1.982,17.896c-0.543,1.146-1.201,2.147-1.91,3.011
		c-0.832,1.017-1.799,1.92-2.882,2.729c-0.42,0.317-0.912,0.574-1.379,0.858c1.353,3.363,2.126,7.079,2.126,11.003
		c0,1.171-0.09,2.315-0.226,3.454l-16.955-10.33c-3.68,0.15-7.432-0.148-10.988-0.894c-0.548-0.114-1.104-0.23-1.639-0.368
		c-0.696-0.175-1.392-0.368-2.071-0.578c-5.534,8.045-12.167,15.502-21.747,16.117c-0.416,0.027-0.836,0.064-1.272,0.064
		c-3.421,0-7.229-0.925-11.456-2.907c-1.948,6.287-3.985,12.769-9.452,17.129l-1.893,1.52l-2.038-1.313
		c-7.181-4.62-14.133-8.848-20.957-12.729c-3.209,6.203-8.12,8.734-11.998,9.696c-1.525,0.38-3.078,0.566-4.636,0.615
		c-0.959,0.022-1.914-0.019-2.869-0.104l-8.018,6.775l-13.11-8.409c-0.972,0.816-1.999,1.521-3.085,2.111
		c-1.209,0.648-2.487,1.155-3.82,1.52l8.752,5.619H27.066l9.552-7.704c-1.333-0.679-2.629-1.435-3.843-2.326
		c-0.708-0.527-1.369-1.107-2.023-1.696l-13.551,10.92l-27.223-18.711l0.027-0.049c-1.084,0.796-2.205,1.539-3.38,2.178
		c-2.392,1.296-4.944,2.223-7.554,2.81l-17.385,11.008l-29.928-17.803l19.063-11.96c-0.004-0.024-0.01-0.043-0.01-0.068
		c-3.606,1.536-7.254,2.368-10.785,2.567c-1.912,0.111-3.788,0.027-5.598-0.244l-9.234,5.792l-23.506-13.981
		c1.905-4.129,4.747-7.626,8.2-10.175c-0.776,0.04-1.543,0.04-2.292-0.017c-2.475-0.198-4.841-0.892-7.027-2.156
		c-6.57-3.792-10.585-12.107-10.22-21.168c0.387-9.635,5.537-18.152,13.96-23.454c-5.864-5.393-9.327-11.672-9.327-19.006
		c0-41.606,69.873-75.463,155.755-75.463c85.878,0,155.75,33.857,155.75,75.463c0,7.02-3.161,13.076-8.572,18.307
		c0.33,0.045,0.657,0.087,0.98,0.236c8.327,3.862,13.199,10.309,13.369,17.668C212.404,15.368,208.898,21.367,202.735,25.577z"/>
	<path d="M196.038-2.511c-0.148-0.068-0.233-0.187-0.369-0.27c-1.689,12.716-15.461,21.703-27.851,29.756
		c-4.897,3.179-9.516,6.186-12.937,9.136c-7.538,6.5-13.403,13.401-16.969,19.946c-0.534,0.988-0.993,2.054-1.426,3.153
		c0.654,0.325,1.307,0.639,1.931,0.903c4.011,1.682,7.415,2.02,10.522,1.215c5.321-1.371,9.766-6.14,14.766-13.499
		c0.309-0.461,0.615-0.902,0.929-1.375c0.893-1.34,2.581-1.863,4.066-1.276c2.147,0.848,4.438,1.42,6.757,1.813
		c0.279,0.047,0.552,0.129,0.836,0.171c7.245,1.06,14.659-0.053,19.022-2.977c0.488-0.323,0.96-0.652,1.363-1.025
		c0.326-0.299,0.636-0.611,0.908-0.942c1.554-1.897,1.938-4.159,1.646-6.506c-0.416-3.258-2.147-6.674-3.956-9.457
		c-0.518-0.802-0.67-1.78-0.429-2.704c0.237-0.921,0.853-1.698,1.702-2.135c5.713-2.969,9.058-7.542,8.946-12.234
		C205.392,4.494,201.941,0.229,196.038-2.511z"/>
</g>
</svg>
