<?xml version="1.0" encoding="utf-8"?>
<!-- Generator: Adobe Illustrator 16.0.4, SVG Export Plug-In . SVG Version: 6.00 Build 0)  -->
<!DOCTYPE svg PUBLIC "-//W3C//DTD SVG 1.1//EN" "http://www.w3.org/Graphics/SVG/1.1/DTD/svg11.dtd">
<svg version="1.1" id="Isolation_Mode" xmlns="http://www.w3.org/2000/svg" xmlns:xlink="http://www.w3.org/1999/xlink" x="0px"
	 y="0px" width="100px" height="100px" viewBox="0 0 100 100" enable-background="new 0 0 100 100" xml:space="preserve">
<path d="M97.232,30.962c-3.136-2.931-7.787-2.794-8.172-2.77L38.32,28.444c1.316-3.188,1.546-5.995,1.518-7.727
	c-0.042-1.829-0.745-8.256-8.079-14.247c-3.826-3.139-7.376-4.734-12.266-2.326c-4.557,2.262-2.314,7.497-0.973,10.626
	c0.519,1.214,1.304,3.043,1.284,3.723c-0.087,2.977-0.238,7.961-4.993,14.484c-4.378,6.013-9.692,7.699-9.823,7.738
	c-1.625,0.477-2.567,2.173-2.101,3.805c0.464,1.636,2.169,2.583,3.808,2.12c0.298-0.085,7.377-2.174,13.099-10.033
	c5.878-8.064,6.077-14.728,6.172-17.934c0.059-2.041-0.875-4.222-1.78-6.332c-0.372-0.869-0.936-2.184-1.163-3.029
	c1.164-0.417,2.234-0.205,4.833,1.926c5.435,4.437,5.801,8.784,5.82,9.594c0.036,2.235-0.529,5.652-3.445,9.222
	c-0.912,1.12-0.919,2.73-0.027,3.864c0.065,0.082,6.418,8.307,3.195,16.942c-2.648,7.135-8.717,8.445-8.948,8.491
	c-1.673,0.308-2.78,1.915-2.471,3.589c0.272,1.487,1.568,2.526,3.026,2.526c0.185,0,0.373-0.02,0.561-0.05
	c0.395-0.072,9.713-1.903,13.608-12.401c2.738-7.334,0.683-14.142-1.393-18.405l51.448-0.255c0.499-0.039,2.713,0.1,3.799,1.113
	c0.291,0.271,0.68,0.758,0.702,1.882c0.066,2.922-2.726,3.371-3.902,3.429c-0.067,0.002-0.138,0.005-0.208,0.015l-35.891,3.543
	c-1.695,0.167-2.932,1.678-2.766,3.369c0.158,1.593,1.498,2.782,3.064,2.782c0.101,0,0.203-0.007,0.306-0.016l7.668-0.757
	c-0.153,0.859,0.043,1.773,0.641,2.5c4.031,4.9,5.786,8.981,5.073,11.804c-0.553,2.214-2.692,3.514-4.389,4.206
	c-4.339,1.796-14.983,0.018-16.64-1.812c-0.525-0.581-1.195-2.947-0.418-4.314c0.907-1.589,4.221-1.115,5.601-0.837
	c1.678,0.331,3.295-0.746,3.631-2.412c0.336-1.668-0.745-3.294-2.414-3.631c-7.807-1.565-10.979,1.728-12.176,3.83
	c-0.717,1.262-1.067,2.693-1.137,4.135c-4.352,0.584-6.37,3.171-7.242,4.89c-0.892,1.763-1.203,3.811-1.096,5.785
	c-4.125,0.362-6.017,2.756-6.814,4.328c-0.868,1.712-1.097,3.738-0.887,5.634c-1.708,1.076-4.421,1.834-9.072-0.238
	c-6.948-3.115-8.206-9.752-8.253-10.014c-0.275-1.679-1.867-2.814-3.539-2.541c-1.68,0.276-2.819,1.863-2.542,3.542
	c0.066,0.413,1.769,10.134,11.817,14.644c2.942,1.311,5.525,1.824,7.77,1.824c2.543,0,4.638-0.667,6.327-1.569
	c2.36,2.162,6.766,3.435,10.938,3.435c2.104,0,4.147-0.323,5.843-1.018c3.091-1.269,4.546-4.312,5.231-6.741
	c2.203-0.072,4.317-0.43,6.072-1.152c4.02-1.655,5.66-6.038,6.321-8.993c1.938-0.166,3.686-0.516,5.028-1.068
	c4.25-1.746,7.099-4.731,8.023-8.407c1.171-4.658-0.732-10.175-5.642-16.404l22.075-2.18c4.053-0.174,9.915-2.879,9.764-9.72
	C99.841,34.702,98.924,32.538,97.232,30.962z M40.679,86.18c-3.129,1.288-9.046,0.102-10.299-1.28
	c-0.424-0.553-0.916-2.759-0.224-3.996c0.429-0.764,1.511-1.062,3.218-0.893c0.003,0,0.006,0,0.009,0
	c0.158,0.223,0.32,0.435,0.491,0.624c1.68,1.854,4.692,3.219,8.06,3.945C41.574,85.402,41.129,85.996,40.679,86.18z M51.976,78.293
	c-1.427,0.587-3.306,0.793-5.22,0.727c-0.222-0.077-0.452-0.137-0.695-0.161c-0.309-0.035-0.605-0.009-0.895,0.045
	c-2.928-0.327-5.673-1.243-6.719-2.399c-0.54-0.606-1.437-3.646-0.415-5.646c0.208-0.407,0.771-1.496,3.15-1.618
	c0.28,0.484,0.591,0.93,0.934,1.309c2.156,2.383,7.121,3.882,12.163,4.38C53.754,76.533,52.957,77.889,51.976,78.293z"/>
</svg>
