<?xml version="1.0" standalone="no"?>
<!DOCTYPE svg PUBLIC "-//W3C//DTD SVG 1.1//EN" "http://www.w3.org/Graphics/SVG/1.1/DTD/svg11.dtd" >
<svg xmlns="http://www.w3.org/2000/svg">
<metadata>Generated by IcoMoon</metadata>
<defs>
<font id="MoreThanIcons" horiz-adv-x="1024">
<font-face units-per-em="1024" ascent="960" descent="-64" />
<missing-glyph horiz-adv-x="1024" />
<glyph unicode="&#x20;" d="" horiz-adv-x="512" />
<glyph unicode="&#xe600;" d="M919.429 658.657c-5.417 11.049-15.555 19.036-27.535 21.74-247.767 55.849-509.962 55.869-757.811 0.010-11.991-2.714-22.118-10.701-27.515-21.729-5.427-11.039-5.55-23.931-0.348-35.082l169.943-364.513c7.66-16.415 25.18-25.743 43.121-22.979 32.461 5.069 65.147 8.837 97.935 11.325l26.368-78.879c5.663-17.009 21.504-27.75 38.523-27.75 4.25 0 8.602 0.666 12.892 2.099 21.268 7.117 32.758 30.136 25.651 51.415l-18.913 56.566c68.618 0.614 137.288-4.198 205.005-14.787 2.079-0.317 4.168-0.471 6.267-0.471 15.585 0 30.065 8.98 36.803 23.45l169.984 364.503c5.202 11.151 5.028 24.054-0.369 35.082zM337.080 320.778l-135.567 290.703c29.522 5.704 59.279 10.476 89.129 14.531l100.065-299.346c-17.91-1.649-35.809-3.523-53.627-5.888zM688.906 320.778c-58.327 7.731-117.381 11.653-175.954 11.653-12.728 0-25.508-0.256-38.277-0.645l-101.396 303.309c150.579 12.728 303.186 4.925 451.174-23.624l-135.547-290.693z" />
<glyph unicode="&#xe601;" d="M893.983 685.793h-26.378c-13.025 0-23.552-10.557-23.552-23.552v-76.964l-42.342 205.865c-7.537 38.185-46.479 67.011-83.466 67.011h-412.457c-36.987 0-76.431-31.16-83.476-67.011l-42.332-205.824v76.913c0 12.995-10.557 23.552-23.562 23.552h-26.399c-13.015 0-23.552-10.557-23.552-23.552v-81.132c0-13.025 10.537-23.583 23.552-23.583h26.399c8.653 0 16.159 4.741 20.244 11.735l-1.556-7.629c0 0-14.438-62.556-22.415-106.404h84.664v-0.174c0.532 0.031 1.014 0.174 1.556 0.174 23.419 0 42.414-18.985 42.414-42.414 0-23.409-18.995-42.394-42.414-42.394-0.543 0-1.034 0.123-1.556 0.154v-0.154h-89.836v-45.445c0-17.889 5.796-34.324 14.469-47.831v-86.897c0-27.31 22.149-49.439 49.459-49.439h14.428c27.31 0 49.459 22.129 49.459 49.439v52.296h473.375v-52.296c0-27.31 22.149-49.439 49.449-49.439h14.418c27.32 0 49.449 22.129 49.449 49.439v89.436c9.411 13.005 14.479 28.539 14.479 45.292v45.445h-89.846v0.154c-0.532-0.031-1.034-0.154-1.556-0.154-23.409 0-42.394 18.985-42.394 42.394 0 23.429 18.985 42.414 42.394 42.414 0.532 0 1.034-0.143 1.556-0.174v0.174h84.675c-7.977 43.858-22.436 106.414-22.436 106.414l-1.567 7.629c4.086-7.004 11.592-11.745 20.265-11.745h26.378c13.015 0 23.562 10.557 23.562 23.583v81.132c0.010 12.995-10.537 23.562-23.552 23.562zM602.532 342.589c-16.62 0-163.891 0-181.043 0-32.973 0-32.973 57.119-32.973 57.119h246.999c0 0 0-57.119-32.983-57.119zM236.206 533.862l32.461 144.425c5.775 29.338 38.052 54.856 68.332 54.856h350.71c30.28 0 62.157-23.613 68.332-54.856l31.775-144.394-551.608-0.031z" />
<glyph unicode="&#xe602;" d="M403.497 857.682h60.006c11.776 0 21.084-2.755 27.873-8.305 6.779-5.489 14.459-17.193 23.040-35l105.011-208.609c9.636-19.251 18.125-32.092 25.446-38.472 7.322-6.451 19.548-10.004 36.68-10.732l70.758-2.673c78.582-3.174 127.222-10.947 145.981-23.183 18.77-12.268 28.14-22.487 28.14-30.669 0-9.595-9.564-20.449-28.662-32.563-19.118-12.022-67.604-19.722-145.459-22.866l-70.758-2.703c-18.207-0.686-30.874-4.526-38.031-11.52-7.137-6.953-15.155-19.528-24.105-37.775l-105.001-208.957c-8.929-18.207-16.968-29.921-24.125-35.082-7.137-5.192-16.077-7.772-26.788-7.772h-60.006c-9.636 0-14.469 3.901-14.469 11.766 0 5.376 95.027 284.948 90.020 286.935-4.987 1.946-11.776 3.492-20.367 4.557l-175.739 21.965c-11.776 1.413-19.282 2.14-22.497 2.14-7.496 0-12.861-2.673-16.077-8.059-3.205-5.345-9.83-22.139-19.814-50.33-7.158-21.084-12.964-34.673-17.428-40.745-4.475-6.072-10.445-8.745-17.951-8.018l-29.614 4.28c-12.872 1.065-19.282 5.878-19.282 14.469 0 3.523 8.714 88.965 8.714 90.44 0 6.769-7.148 11.049-21.422 12.831-20.009 2.14-30.013 7.619-30.013 16.456 0 8.499 10.004 13.967 30.013 16.486 14.285 1.792 21.422 5.878 21.422 12.268 0 1.444-8.714 87.071-8.714 91.013 0 8.212 6.41 12.841 19.282 13.906l29.614 4.311c7.864 0.707 14.111-2.232 18.77-8.858 4.618-6.605 11.776-24.556 21.422-53.852 6.779-20.357 12.145-32.748 16.077-37.212 3.932-4.465 9.277-6.697 16.077-6.697 2.14 0 9.277 0.686 21.422 2.14l175.729 21.361c18.596 2.171 27.873 7.864 27.873 17.172 0 27.402-97.526 269.773-97.526 274.36 0 2.857 1.352 5.54 4.024 8.049 2.683 2.509 6.175 3.748 10.455 3.748z" />
<glyph unicode="&#xe603;" d="M877.752 772.413c-38.062 28.959-92.303 21.524-121.231-16.486l-309.903-407.398-173.629 132.076c-38.031 28.959-92.293 21.545-121.211-16.486-28.928-38.031-21.535-92.303 16.476-121.211l242.473-184.453c15.647-11.899 34.058-17.654 52.306-17.654 26.102 0 51.886 11.756 68.905 34.14l362.281 476.242c28.918 38.021 21.555 92.303-16.466 121.231z" />
<glyph unicode="&#xe604;" d="M113.367 518.267v-0.543l178.698-35.482-30.915-231.465c30.679 26.583 70.584 42.772 114.35 42.772 49.244 0 93.624-20.439 125.368-53.248 4.854-5.018 22.333-5.161 27.136-0.215 31.754 32.922 76.206 53.463 125.563 53.463 29.327 0 56.934-7.301 81.213-20.070l-27.331 204.698 120.74 23.962-13.507-295.342c0-15.575 12.636-28.211 28.211-28.211h27.587c15.575 0 28.221 12.626 28.221 28.211l-14.019 306.565 21.504 4.27 0.010 0.543c8.632 1.239 15.401 8.376 15.401 17.357 0 8.919-6.656 16.005-15.196 17.336v0.266l-375.439 73.001c-16.527 3.287-27.996 3.287-44.503 0l-373.248-73.349c-8.335-1.495-14.787-8.489-14.787-17.265 0-8.817 6.523-15.811 14.94-17.254z" />
<glyph unicode="&#xe605;" d="M789.207 632.545h-5.427c-23.685 128.604-136.428 226.417-271.8 226.417-135.352 0-248.095-97.812-271.8-226.417h-5.396c-29.706 0-53.791-24.095-53.791-53.811v-384.102c0-29.737 24.095-53.832 53.791-53.832h554.424c29.696 0 53.801 24.095 53.801 53.832v384.102c0 29.716-24.095 53.811-53.801 53.811zM562.186 359.895v-86.528c0-27.74-22.467-50.207-50.207-50.207-27.73 0-50.217 22.467-50.217 50.207v86.528c-30.792 17.521-51.589 50.555-51.589 88.525 0 56.218 45.568 101.796 101.796 101.796 56.238 0 101.827-45.588 101.827-101.796 0.010-37.98-20.808-71.014-51.61-88.525zM332.104 632.545c22.006 78.735 94.228 136.745 179.876 136.745 85.678 0 157.901-58.010 179.876-136.745h-359.752z" />
<glyph unicode="&#xe606;" d="M765.174 223.386l-135.793 235.192c43.827 42.291 71.188 101.519 71.188 167.24 0 128.43-104.11 232.52-232.52 232.52-128.42 0-232.53-104.079-232.53-232.52 0-128.42 104.11-232.53 232.53-232.53 12.39 0 24.443 1.249 36.28 3.123 2.253 0.205 4.997 0.625 8.172 1.239 1.116 0.215 2.243 0.379 3.369 0.614l138.025-239.114c10.148-17.541 32.604-23.572 50.156-13.425l47.657 27.525c17.572 10.148 23.583 32.604 13.466 50.135zM602.573 625.070c0-73.759-59.976-133.765-133.765-133.765-73.748 0-133.765 60.006-133.765 133.765 0 73.769 60.017 133.775 133.765 133.775 73.779-0.010 133.765-60.017 133.765-133.775z" />
<glyph unicode="&#xe607;" d="M507.884 859.914c-106.148 0-204.995-46.172-273.244-126.956l-59.802 30.638c-12.544-4.035-19.425-17.48-15.401-30.054l46.848-145.295c4.055-12.554 17.521-19.436 30.085-15.391l145.265 46.838c12.534 4.024 19.456 17.5 15.401 30.065l-48.937 25.078c43.254 40.131 99.635 62.884 159.775 62.884 129.915 0 235.622-105.718 235.622-235.663 0-129.925-105.708-235.622-235.622-235.622-96.666 0-182.467 57.887-218.624 147.487-12.626 31.314-48.22 46.438-79.555 33.812-31.293-12.626-46.418-48.261-33.792-79.534 54.897-136.069 185.18-223.969 331.96-223.969 197.315 0 357.837 160.522 357.837 357.827 0.020 197.315-160.512 357.857-357.816 357.857z" />
<glyph unicode="&#xe608;" d="M718.121 856.75h-304.579c-34.447 0-62.382-27.935-62.382-62.392v-149.156c73.165-9.032 134.779-59.453 157.993-129.26 23.511-11.059 39.803-34.959 39.803-62.607v-210.913c0-38.113-30.996-69.11-69.12-69.11h-120.74c10.629-19.302 30.904-32.512 54.446-32.512h402.166c34.478 0 62.413 27.945 62.413 62.382v497.695l-160 155.873zM771.564 314.767h-149.238c-12.042 0-21.821 9.759-21.821 21.801s9.779 21.811 21.821 21.811h149.228c12.042 0 21.842-9.769 21.842-21.811s-9.8-21.801-21.832-21.801zM771.564 446.73h-149.238c-12.042 0-21.821 9.769-21.821 21.842 0 12.042 9.779 21.801 21.821 21.801h149.228c12.042 0 21.842-9.769 21.842-21.801 0-12.073-9.8-21.842-21.832-21.842zM771.564 578.734h-244.193c-12.073 0-21.832 9.769-21.832 21.801 0 12.073 9.769 21.832 21.832 21.832h244.193c12.042 0 21.842-9.759 21.842-21.832-0.010-12.032-9.81-21.801-21.842-21.801zM752.466 691.302c-27.402 0-49.623 22.211-49.623 49.603v74.353l127.273-123.955h-77.65zM479.846 482.888h-2.959c-13.015 70.625-74.906 124.324-149.238 124.324-74.322 0-136.233-53.688-149.258-124.324h-2.97c-16.302 0-29.532-13.21-29.532-29.553v-210.913c0-16.333 13.23-29.542 29.532-29.542h304.425c16.323 0 29.542 13.21 29.542 29.542v210.913c0 16.343-13.22 29.553-29.542 29.553zM355.226 333.158v-47.503c0-15.227-12.37-27.576-27.576-27.576-15.227 0-27.587 12.349-27.587 27.576v47.503c-16.906 9.636-28.314 27.781-28.314 48.599 0 30.884 25.006 55.91 55.9 55.91 30.874 0 55.9-25.027 55.9-55.91 0.010-20.818-11.438-38.953-28.324-48.599zM228.864 482.888c12.083 43.233 51.763 75.090 98.785 75.090s86.682-31.857 98.785-75.090h-197.571z" />
<glyph unicode="&#xe609;" d="M344.852 858.757h350.474v-122.655h-350.474v122.655zM785.961 718.469h-535.552c-51.446 0-93.174-41.708-93.174-93.164v-209.94c0-51.436 41.718-93.153 93.174-93.153h53.627v208.425h432.077v-208.425h49.838c51.466 0 93.184 41.708 93.184 93.153v209.94c0.010 51.446-41.708 93.164-93.174 93.164zM236.288 621.23c-12.012 0-21.75 9.728-21.75 21.729 0 12.012 9.728 21.76 21.75 21.76 12.022 0 21.75-9.759 21.75-21.76-0.010-12.001-9.728-21.729-21.75-21.729zM302.961 621.23c-12.001 0-21.76 9.728-21.76 21.729 0 12.012 9.759 21.76 21.76 21.76 12.012 0 21.74-9.759 21.74-21.76 0-12.001-9.728-21.729-21.74-21.729zM344.852 496.343v-353.044h350.474v353.044h-350.474zM638.536 191.724h-236.933v28.805h236.943v-28.805zM638.536 264.294h-236.933v28.826h236.943v-28.826zM638.536 336.886h-236.933v28.805h236.943v-28.805zM638.536 409.467h-236.933v28.805h236.943v-28.805z" />
<glyph unicode="&#xe60a;" d="M775.127 665.917v34.191l-159.795 155.668h-304.138c-34.406 0-62.31-27.904-62.31-62.31v-590.367c0-34.406 27.914-62.3 62.31-62.3h401.623c34.406 0 62.31 27.894 62.31 62.3v241.49l-108.831-156.856c-10.107-14.541-113.736 57.354-103.66 71.905l212.49 306.278zM600.105 814.336l127.068-123.781h-77.496c-27.382 0-49.572 22.19-49.572 49.531v74.25zM324.004 424.53c0 12.032 9.748 21.78 21.791 21.78h201.83l-30.812-43.581h-171.008c-12.052 0-21.801 9.759-21.801 21.801zM639.365 257.608l-94.269-75.899c-8.376-7.055-20.695-8.049-30.147-1.495-9.421 6.533-12.841 18.412-9.175 28.713l-0.061 0.041 35.185 105.964c33.618-27.996 77.097-55.020 98.468-57.324zM345.805 550.267c-12.052 0-21.791 9.759-21.791 21.78 0 12.052 9.748 21.801 21.791 21.801h306.145l-30.802-43.581h-275.343z" />
<glyph unicode="&#xe60b;" d="M696.74 561.306c0 43.878-35.574 79.452-79.462 79.452h-37.775v-31.642c0-14.643-11.848-26.481-26.491-26.481h-78.387c-14.592 0-26.46 11.848-26.46 26.481v31.642h-32.85c-43.858 0-79.462-35.574-79.462-79.452l-132.434-244.552v-96.492c0-43.878 35.594-79.462 79.452-79.462h466.862c43.868 0 79.462 35.584 79.462 79.462v96.492l-132.454 244.552zM436.398 343.429h-33.075c-11.807 0-21.361 9.544-21.361 21.361 0 11.786 9.564 21.34 21.361 21.34h33.075c11.807 0 21.371-9.554 21.371-21.34 0.010-11.817-9.564-21.361-21.371-21.361zM436.398 408.566h-33.075c-11.807 0-21.361 9.533-21.361 21.34 0 11.796 9.564 21.361 21.361 21.361h33.075c11.807 0 21.371-9.564 21.371-21.361 0.010-11.807-9.564-21.34-21.371-21.34zM436.398 472.627h-33.075c-11.807 0-21.361 9.564-21.361 21.371 0 11.807 9.564 21.35 21.361 21.35h33.075c11.807 0 21.371-9.554 21.371-21.35 0.010-11.817-9.564-21.371-21.371-21.371zM527.657 343.429h-33.065c-11.796 0-21.371 9.544-21.371 21.361 0 11.786 9.585 21.34 21.371 21.34h33.065c11.796 0 21.371-9.554 21.371-21.34 0-11.817-9.564-21.361-21.371-21.361zM527.657 408.566h-33.065c-11.796 0-21.371 9.533-21.371 21.34 0 11.796 9.585 21.361 21.371 21.361h33.065c11.796 0 21.371-9.564 21.371-21.361 0-11.807-9.564-21.34-21.371-21.34zM527.657 472.627h-33.065c-11.796 0-21.371 9.564-21.371 21.371 0 11.807 9.585 21.35 21.371 21.35h33.065c11.796 0 21.371-9.554 21.371-21.35 0-11.817-9.564-21.371-21.371-21.371zM618.947 343.429h-33.075c-11.807 0-21.381 9.544-21.381 21.361 0 11.786 9.574 21.34 21.381 21.34h33.075c11.796 0 21.35-9.554 21.35-21.34 0-11.817-9.544-21.361-21.35-21.361zM618.947 408.566h-33.075c-11.807 0-21.381 9.533-21.381 21.34 0 11.796 9.574 21.361 21.381 21.361h33.075c11.796 0 21.35-9.564 21.35-21.361 0-11.807-9.544-21.34-21.35-21.34zM618.947 472.627h-33.075c-11.807 0-21.381 9.564-21.381 21.371 0 11.807 9.574 21.35 21.381 21.35h33.075c11.796 0 21.35-9.554 21.35-21.35 0-11.817-9.544-21.371-21.35-21.371zM104.069 604.344c-13.23 71.178 49.674 135.741 49.674 135.741s135.731 61.256 354.273 61.256c218.532 0 365.865-61.256 365.865-61.256s67.881-66.222 44.739-135.741c-137.431-28.16-205.292 36.413-205.292 36.413s6.595 68.116-205.312 68.116c-211.896 0-193.69-68.116-193.69-68.116s-61.983-61.184-210.258-36.413zM171.735 571.965c-22.108 0-45.517 2.058-69.499 5.919v-3.348c0-43.899 35.574-79.462 79.452-79.462h52.603c43.909 0 79.483 35.574 79.483 79.462v33.229c-23.542-14.817-69.386-35.799-142.039-35.799zM851.487 570.747c-70.523 0-116.756 23.163-139.602 38.236v-34.437c0-43.899 35.564-79.462 79.452-79.462h52.623c43.878 0 79.473 35.574 79.473 79.462v3.779c-24.607-5.018-48.814-7.578-71.946-7.578z" />
<glyph unicode="&#xe60c;" d="M719.831 350.075h0.84c0 0-110.295 81.162-110.295 156.662 0 75.52-196.751 75.059-196.751 0 0-75.049-110.418-156.795-110.418-156.795h0.819c-25.498-25.221-41.308-60.18-41.308-98.867v-6.277c0-76.82 62.31-103.997 139.131-103.997h220.283c76.861 0 139.141 27.177 139.141 103.997v6.287c0 38.769-15.882 73.769-41.441 98.99zM321.659 552.735c17.48-44.196-4.188-94.208-48.404-111.698v0c-44.165-17.48-94.208 4.198-111.677 48.394l-19.333 48.855c-17.49 44.206 4.188 94.228 48.384 111.688v0c44.206 17.48 94.239-4.178 111.718-48.394l19.313-48.845zM702.351 552.735c-17.48-44.196 4.178-94.208 48.404-111.698v0c44.175-17.48 94.198 4.198 111.677 48.394l19.302 48.855c17.5 44.206-4.157 94.228-48.364 111.688v0c-44.216 17.48-94.218-4.178-111.698-48.394l-19.323-48.845zM494.848 719.043c0-47.524-38.513-86.067-86.088-86.067v0c-47.524 0-86.057 38.554-86.057 86.067v52.541c0 47.534 38.533 86.067 86.057 86.067v0c47.575 0 86.088-38.533 86.088-86.067v-52.541zM701.286 719.043c0-47.524-38.543-86.067-86.077-86.067v0c-47.544 0-86.057 38.554-86.057 86.067v52.541c0 47.534 38.523 86.067 86.057 86.067v0c47.544 0 86.077-38.533 86.077-86.067v-52.541z" />
<glyph unicode="&#xe60d;" d="M3285.197-1306.685c0 30.188-24.545 54.753-54.753 54.753h-80.036c-30.198 0-54.753-24.556-54.753-54.753v-14.295h-30.249v-391.158h263.885v391.158h-44.093v14.295zM3125.524-1306.685c0 13.732 11.162 24.893 24.893 24.893h80.036c13.732 0 24.893-11.162 24.893-24.893v-14.295h-129.823v14.295zM3404.81-1320.98h-27.197v-391.158h27.197c28.959 0 52.449 23.48 52.449 52.449v286.259c0 28.969-23.491 52.449-52.449 52.449zM2923.602-1373.43v-286.259c0-28.969 23.491-52.449 52.449-52.449h41.042v391.158h-41.042c-28.959 0-52.449-23.48-52.449-52.449zM651.704 743.229c0 44.861-36.485 81.347-81.347 81.347h-118.938c-44.872 0-81.347-36.485-81.347-81.347v-21.228h-44.943v-581.202h392.079v581.192h-65.505v21.238zM414.444 743.229c0 20.398 16.589 36.977 36.987 36.977h118.927c20.398 0 36.977-16.579 36.977-36.977v-21.228h-192.891v21.228zM829.42 721.992h-40.407v-581.192h40.407c43.028 0 77.916 34.888 77.916 77.926v425.339c0 43.039-34.888 77.926-77.916 77.926zM114.422 644.065v-425.339c0-43.039 34.898-77.926 77.926-77.926h60.979v581.192h-60.979c-43.018 0-77.926-34.888-77.926-77.926z" />
<glyph unicode="&#xe60e;" d="M123.126 510.157c1.997 0 3.533-0.717 4.588-2.14 1.055-1.434 1.761-3.062 2.099-4.884l18.606-101.325c0.225-0.809 0.338-1.516 0.338-2.15 0-0.573 0-1.137 0-1.71 0-2.345-0.727-4.393-2.181-6.134s-3.471-2.621-6.042-2.621c-2.796 0-4.874 0.932-6.216 2.785-1.341 1.864-2.243 3.953-2.693 6.298l-13.885 73.042-25.989-60.754c-0.973-2.243-2.099-4.342-3.389-6.308-1.29-1.966-3.389-2.959-6.308-2.959-1.423 0-2.621 0.256-3.604 0.778-0.973 0.512-1.812 1.208-2.529 2.099-0.717 0.881-1.331 1.884-1.843 2.99-0.512 1.116-1.024 2.253-1.536 3.4l-26.665 60.774-11.233-73.042c-0.348-2.345-1.157-4.444-2.447-6.298s-3.389-2.785-6.298-2.785c-2.693 0-4.721 0.881-6.093 2.621s-2.058 3.789-2.058 6.134c0 0.911 0.031 1.577 0.082 2.007s0.143 1.044 0.256 1.853l16.886 101.499c0.225 1.823 0.87 3.43 1.925 4.803 1.065 1.372 2.591 2.058 4.588 2.058 2.232 0 3.789-0.645 4.669-1.925 0.881-1.29 1.731-2.816 2.529-4.588l33.864-76.902 33.352 76.728c0.85 1.71 1.741 3.256 2.652 4.628 0.952 1.341 2.468 2.028 4.577 2.028zM292.782 449.208c0 8.52-1.587 16.507-4.762 23.962-3.174 7.465-7.547 13.926-13.117 19.415-5.571 5.489-12.073 9.81-19.507 12.984-7.424 3.174-15.34 4.762-23.736 4.762-8.571 0-16.579-1.587-24.003-4.762-7.434-3.174-13.916-7.547-19.456-13.117-5.55-5.571-9.902-12.073-13.076-19.497-3.174-7.434-4.751-15.401-4.751-23.921 0-8.571 1.587-16.538 4.751-23.921 3.174-7.373 7.526-13.804 13.076-19.282 5.54-5.489 12.032-9.82 19.456-13.005 7.424-3.164 15.432-4.751 24.003-4.751 8.509 0 16.486 1.587 23.91 4.751 7.424 3.185 13.896 7.506 19.415 13.005 5.519 5.478 9.861 11.94 13.025 19.374s4.772 15.432 4.772 24.003zM275.036 449.382c0-6.226-1.147-12.032-3.43-17.408s-5.386-10.035-9.298-14.008c-3.912-3.983-8.52-7.127-13.804-9.482-5.284-2.345-10.895-3.512-16.845-3.512-6.001 0-11.633 1.157-16.886 3.512-5.263 2.345-9.871 5.499-13.844 9.482-3.973 3.973-7.107 8.643-9.39 14.008-2.284 5.366-3.43 11.059-3.43 17.060 0 6.287 1.147 12.134 3.43 17.531 2.284 5.407 5.386 10.086 9.298 14.060 3.912 3.973 8.499 7.096 13.763 9.39 5.253 2.284 10.936 3.42 17.060 3.42 5.939 0 11.551-1.147 16.845-3.42 5.294-2.294 9.892-5.386 13.804-9.308s7.014-8.561 9.298-13.926 3.43-11.172 3.43-17.398zM398.991 396.923c0 1.495-0.307 2.806-0.901 3.983-0.594 1.167-1.3 2.417-2.099 3.738l-24.095 38.4c7.25 1.772 13.148 5.263 17.664 10.455s6.769 12.196 6.769 21.002c0 5.366-1.034 10.373-3.082 15.002-2.058 4.628-4.936 8.346-8.653 11.141-3.543 2.683-7.711 4.608-12.513 5.775-4.803 1.178-10.578 1.761-17.316 1.761h-18.524c-2.796 0-4.813-0.174-6.042-0.512s-2.406-1.055-3.553-2.14c-0.973-0.911-1.659-2.079-2.058-3.471s-0.594-3.983-0.594-7.752v-94.802c0-3.379 0.881-5.939 2.652-7.68s3.83-2.621 6.175-2.621c2.693 0 4.813 0.932 6.39 2.785 1.567 1.864 2.355 4.362 2.355 7.506v93.778h12.943c3.881 0 7.148-0.358 9.769-1.075 2.632-0.717 4.946-1.7 6.943-2.959 2.345-1.659 4.188-3.85 5.53-6.605 1.341-2.744 2.017-5.745 2.017-9.001 0-3.205-0.471-5.837-1.413-7.926-0.942-2.089-2.15-3.901-3.635-5.448-1.669-1.659-3.338-2.826-5.018-3.512-1.69-0.686-3.338-1.28-4.936-1.751-1.597-0.481-3.154-1.024-4.669-1.587-1.516-0.573-2.836-1.464-3.983-2.662-0.399-0.338-0.891-0.983-1.454-1.925-0.573-0.942-0.86-2.212-0.86-3.809 0-1.772 0.532-3.533 1.587-5.274 1.065-1.751 2.335-3.85 3.82-6.298l24.433-39.69c1.894-3.205 4.465-4.803 7.721-4.803 2.458 0 4.506 0.768 6.175 2.324 1.628 1.536 2.458 3.42 2.458 5.652zM501.176 398.797c0 2.12-0.829 3.963-2.488 5.53-1.659 1.577-4.004 2.355-7.035 2.355h-39.864v38.154h38.492c3.031 0 5.356 0.788 6.984 2.355 1.628 1.577 2.447 3.41 2.447 5.53s-0.819 3.963-2.447 5.53c-1.628 1.577-3.953 2.355-6.984 2.355h-38.492v31.795h39.864c3.021 0 5.366 0.788 7.035 2.355 1.659 1.577 2.488 3.42 2.488 5.53 0 2.12-0.829 3.963-2.488 5.53-1.659 1.577-4.004 2.355-7.035 2.355h-45.087c-2.447 0-4.393-0.123-5.827-0.348s-2.775-1.004-4.035-2.314c-0.573-0.573-1.044-1.147-1.413-1.71-0.379-0.573-0.645-1.249-0.809-2.017-0.174-0.778-0.256-1.731-0.256-2.877 0-1.198 0-2.744 0-4.628v-91.3c0-3.154 0.297-5.356 0.901-6.646 0.604-1.28 1.188-2.212 1.751-2.775 1.311-1.321 2.673-2.089 4.065-2.314 1.403-0.236 3.338-0.348 5.786-0.348h44.923c3.021 0 5.366 0.778 7.035 2.355 1.659 1.608 2.488 3.441 2.488 5.55zM647.588 500.296c0 2.12-0.829 3.963-2.488 5.53-1.649 1.577-3.994 2.355-7.025 2.355h-66.529c-3.031 0-5.366-0.788-7.025-2.355-1.669-1.567-2.488-3.41-2.488-5.53 0-2.109 0.819-3.953 2.488-5.53 1.649-1.567 3.994-2.355 7.025-2.355h24.351v-92.918c0-3.379 0.881-5.939 2.662-7.68 1.772-1.741 3.82-2.621 6.175-2.621 2.345 0 4.393 0.881 6.134 2.621 1.751 1.741 2.611 4.301 2.611 7.68v92.918h24.607c3.031 0 5.366 0.788 7.025 2.355 1.649 1.577 2.478 3.42 2.478 5.53zM765.041 399.503v100.116c0 3.369-0.891 5.939-2.673 7.711-1.772 1.772-3.82 2.652-6.175 2.652-2.345 0-4.383-0.881-6.124-2.652-1.751-1.772-2.621-4.342-2.621-7.711v-39.004h-54.784v39.004c0 3.369-0.891 5.939-2.662 7.711s-3.799 2.652-6.083 2.652c-2.345 0-4.403-0.881-6.175-2.652-1.782-1.772-2.673-4.342-2.673-7.711v-100.116c0-3.604 0.891-6.216 2.673-7.854 1.772-1.628 3.82-2.447 6.175-2.447 2.57 0 4.68 0.881 6.298 2.621 1.628 1.741 2.437 4.301 2.437 7.68v45.855h54.784v-45.855c0-3.604 0.84-6.216 2.529-7.854s3.748-2.447 6.205-2.447c2.57 0 4.69 0.881 6.349 2.621 1.679 1.741 2.519 4.301 2.519 7.68zM884.019 451.359c0 1.833-0.379 3.41-1.116 4.751-0.737 1.341-1.69 2.55-2.857 3.604-1.178 1.065-2.509 1.997-4.004 2.836-1.485 0.829-2.847 1.7-4.106 2.611l-64.471 42.865c-1.823 1.311-3.738 1.966-5.745 1.966s-3.748-0.799-5.274-2.396c-1.505-1.597-2.273-3.4-2.273-5.396 0-1.946 0.625-3.502 1.843-4.68 1.239-1.167 2.243-2.068 3.052-2.693l64.635-43.295-64.983-46.889c-1.997-1.434-3.246-2.816-3.768-4.168-0.512-1.331-0.768-2.519-0.768-3.553 0-2.12 0.758-3.932 2.273-5.437 1.516-1.516 3.328-2.284 5.437-2.284 2.243 0 4.413 0.748 6.523 2.243l63.693 46.029c1.147 0.799 2.427 1.669 3.86 2.611s2.734 1.966 3.901 3.092c1.178 1.106 2.161 2.314 2.959 3.604 0.788 1.27 1.188 2.796 1.188 4.577zM1007.288 396.585v103.035c0 3.369-0.891 5.939-2.662 7.711-1.772 1.772-3.799 2.652-6.083 2.652-2.345 0-4.413-0.881-6.175-2.652-1.782-1.772-2.673-4.342-2.673-7.711v-74.67l-64.973 80.415c-0.584 0.635-1.444 1.556-2.611 2.785-1.178 1.229-2.939 1.843-5.284 1.843-1.597 0-2.867-0.358-3.809-1.065s-1.628-1.577-2.058-2.57-0.696-1.966-0.809-2.908c-0.123-0.942-0.184-1.649-0.184-2.109v-101.827c0-3.379 0.891-5.939 2.662-7.68s3.83-2.621 6.175-2.621 4.393 0.881 6.134 2.621c1.751 1.741 2.621 4.301 2.621 7.68v74.312l61.46-76.37c2.57-3.205 4.588-5.376 6.042-6.523 1.464-1.137 3.195-1.72 5.192-1.72 2.232 0 3.963 0.727 5.192 2.191 1.239 1.434 1.843 3.174 1.843 5.181z" />
<glyph unicode="&#xe60f;" d="M244.183 503.695c14.141 0 26.911 5.601 36.485 14.572l-80.169-183.439c-25.272-4.301-44.564-26.173-44.564-52.654 0-29.594 23.972-53.555 53.545-53.555 29.583 0 53.555 23.972 53.555 53.555 0 11.131-3.41 21.473-9.226 30.034l61.225 140.093c23.101-20.142 51.354-36.823 61.727-36.076l501.135 35.748c20.367 1.454 53.002 12.995 34.263 39.526-11.51 15.636-13.251 18.084-27.29 36.905-23.828 35.154-43.807 35.697-64.184 34.243 0 0-211.743-17.869-231.619-20.040-19.845-2.161-45.076 33.864-69.734 32.113l-155.679-11.1 17.408 39.803 34.181 0.532c15.995 0.266 28.744 13.425 28.498 29.409-0.256 15.985-13.445 28.744-29.43 28.498l-51.067-0.809c-8.817-0.143-16.548-4.28-21.76-10.568-3.052-2.662-5.632-5.97-7.404-9.912l-36.393-83.292c-0.020 29.573-23.982 53.535-53.545 53.535-29.542 0-29.542-107.121 0.041-107.121zM817.5 420.362c-65.72 0-120.781-46.162-134.717-107.735h-34.437l52.541 93c0 0 11.028 18.227-11.315 18.227s-324.782-27.331-324.782-27.331l94.792-155.556c0 0 4.618-12.739 30.812-12.339 15.78 0.236 117.535 5.878 195.942 10.353 18.196-55.071 70.083-94.986 131.185-94.986 76.186 0 138.168 61.993 138.168 138.199-0.020 76.175-62.003 138.168-138.189 138.168zM817.5 193.3c-34.54 0-64.461 19.825-79.145 48.65 24.914 1.454 41.247 2.386 41.247 2.386 9.687-9.697 23.081-15.718 37.898-15.718 29.563 0 53.545 23.972 53.545 53.555 0 29.583-23.992 53.545-53.545 53.545-18.248 0-34.335-9.175-44.012-23.112h-39.404c12.493 34.038 45.097 58.419 83.415 58.419 48.998 0 88.873-39.864 88.873-88.863s-39.875-88.863-88.873-88.863zM280.996 332.79c10.015-14.387 15.964-31.785 15.964-50.606 0-48.998-39.864-88.883-88.873-88.883-49.009 0-88.873 39.885-88.873 88.883 0 44.216 32.502 80.886 74.865 87.654l21.914 50.135c-2.632 0.154-5.222 0.399-7.895 0.399-76.196 0-138.189-61.993-138.189-138.179 0-76.206 61.993-138.199 138.189-138.199 76.196 0 138.189 61.993 138.189 138.199 0 39.547-16.804 75.162-43.52 100.403l-21.77-49.807z" />
<glyph unicode="&#xe610;" d="M452.035 350.464c0-9.073 3.103-16.62 9.236-22.6 6.185-6.001 13.814-9.011 22.876-9.011 4.608 0 9.134 0.901 13.496 2.703 4.383 1.792 8.356 3.901 11.95 6.308l182.938 132.577c4.25 3.246 8.653 6.41 13.22 9.503 4.516 3.092 8.745 6.533 12.564 10.404 3.86 3.84 7.035 8.079 9.513 12.728 2.478 4.618 3.758 9.759 3.758 15.391 0 5.847-1.444 11.203-4.27 16.189-2.816 4.987-6.134 9.472-10.004 13.496s-8.182 7.496-12.851 10.527c-4.71 3-8.888 5.693-12.483 8.11l-179.313 117.893c-6.011 3.779-11.325 6.717-16.056 8.888-4.721 2.14-9.728 3.215-15.032 3.215-9.103 0-16.282-3-21.576-9.011-5.294-6.001-7.967-13.005-7.967-21.084v-77.67h-281.027c-21.023 0-38.083-14.582-38.083-35.635v-87.992c0-21.053 17.060-34.396 38.083-34.396l281.016-0.553v-69.98zM822.139 856.556h-429.957c-34.724 0-62.833-28.129-62.833-62.822v-81.357c0-8.653 7.035-15.698 15.698-15.698h50.391c8.653 0 15.677 7.045 15.677 15.698v22.354c0 24.023 19.507 43.52 43.54 43.52h297.523c24.064 0 53.443-19.487 53.443-43.52v-468.695c0-24.023-29.379-43.5-53.443-43.5h-297.523c-24.044 0-43.54 19.476-43.54 43.5v59.105c0 8.673-7.035 15.698-15.677 15.698h-50.391c-8.673 0-15.698-7.035-15.698-15.698v-118.118c0-34.703 25.631-62.822 60.365-62.822h432.435c34.673 0 62.833 28.119 62.833 62.822v586.711c-0.010 34.703-28.17 62.822-62.843 62.822z" />
<glyph unicode="&#xe611;" d="M482.437 307.569c-11.991 18.217-18.012 36.516-18.012 54.886 0 20.787 5.427 39.219 16.026 55.45-5.325 0.266-10.629 0.625-16.026 0.625-126.095 0-234.199-76.892-280.095-186.286h359.434c-31.437 37.663-57.098 68.874-61.327 75.325zM676.076 416.42c13.937 9.677 25.58 16.292 34.918 19.845 9.339 3.574 20.101 5.335 32.358 5.335 26.563 0 48.845-7.905 66.765-23.798 17.9-15.913 26.839-35.031 26.839-57.334 0-14.735-4.465-28.918-13.343-42.506-8.929-13.578-147.773-177.162-147.773-177.162s-138.414 163.297-147.415 177.009c-9.032 13.691-13.537 27.464-13.537 41.267 0 23.491 9.011 43.131 27.095 58.89 18.043 15.759 40.284 23.644 66.744 23.644 11.817 0 22.436-1.71 31.898-5.151 9.452-3.482 21.279-10.148 35.451-20.040zM464.404 861.143c-101.437 0-183.685-82.258-183.685-183.695 0-101.448 82.248-183.706 183.685-183.706 101.478 0 183.736 82.258 183.736 183.706 0 101.427-82.258 183.695-183.736 183.695zM506.184 781.65c16.425 0 29.727-13.312 29.727-29.716s-13.312-29.727-29.727-29.727c-16.415 0-29.716 13.322-29.716 29.727-0.010 16.415 13.302 29.716 29.716 29.716zM414.935 781.65c16.415 0 29.727-13.312 29.727-29.716s-13.312-29.727-29.727-29.727-29.706 13.322-29.706 29.727c0 16.415 13.292 29.716 29.706 29.716zM464.404 556.626c-61.061 0-110.561 49.49-110.561 110.561h221.133c0-61.071-49.5-110.561-110.572-110.561z" />
<glyph unicode="&#xe612;" d="M642.642 447.16c23.695-53.955 77.609-91.617 140.319-91.617 63.447 0 115.927 36.649 139.203 91.617-6.513 0-20.091 0-37.673 0l-92.621 282.88 51.241 7.496v30.976h-669.676v-30.976l54.313-7.967-92.467-282.409c-14.162 0-25.958 0-33.444 0 23.695-53.955 77.619-91.617 140.329-91.617 63.447 0 115.937 36.649 139.203 91.617-6.513 0-20.091 0-37.673 0l-91.279 278.804 225.495-33.075-28.396-433.060h-105.892c-18.78 0-34.007-15.217-34.007-33.997l-97.382-31.171c-14.879 0-26.931-12.073-26.931-26.911 0-14.868 12.052-26.941 26.931-26.941h583.762c14.879 0 26.941 12.073 26.941 26.941 0 14.838-12.063 26.911-26.941 26.911h-18.412l-68.014 31.171c0 18.78-15.227 33.997-34.007 33.997h-108.831l-28.416 433.019 229.212 33.608-91.464-279.296c-14.152 0-25.938 0-33.423 0zM148.705 447.16l90.767 251.668 90.778-251.668c-52.040 0-129.249 0-181.545 0zM780.298 698.829l90.767-251.668c-52.050 0-129.27 0-181.545 0l90.778 251.668z" />
<glyph unicode="&#xe613;" d="M848.968 536.32c0.328 5.294-1.464 10.711-5.499 14.766l-314.409 314.419c-7.475 7.475-19.63 7.475-27.116 0l-104.243-104.233v66.744c0 17.070-13.844 30.925-30.915 30.925h-65.618c-17.080 0-30.945-13.855-30.945-30.925v-194.222l-82.708-82.708c-5.028-5.028-6.595-12.124-4.874-18.545 1.946-29.43 26.173-52.756 56.105-52.756h21.924v-281.641c0-31.201 25.293-56.484 56.474-56.484h396.739c31.181 0 56.474 25.283 56.474 56.484v281.641h22.221c31.191 0 56.474 25.272 56.474 56.474l-0.082 0.061zM592.179 300.339c0-19.507-15.841-35.359-35.359-35.359h-82.596c-19.548 0-35.369 15.852-35.369 35.359l20.429 154.327c-20.388 16.445-33.475 41.595-33.475 69.827 0 49.551 40.151 89.702 89.702 89.702 49.531 0 89.692-40.151 89.692-89.702 0-28.846-13.66-54.446-34.826-70.851l21.801-153.303z" />
<glyph unicode="&#xe614;" d="M750.899 443.269l152.535 227.164-276.736 185.846-159.672-237.793h-36.157l127.57 190.003-116.992 36.485-70.615-226.488h-27.761l38.574 123.709h-93.225v-123.709h-17.981c-43.162 0-51.456-60.078-55.91-92.344-5.366-38.902-8.325-90.921-8.325-146.504 0-238.838 41.779-238.838 64.236-238.838h365.916c60.457 0 109.65 49.183 109.65 109.64v65.075c20.285 0.717 36.536 17.275 36.536 37.714v52.808c0.010 18.78-13.701 34.263-31.642 37.233zM681.759 370.268c-0.205-6.984-5.847-12.605-12.872-12.605h-45.517c-7.148 0-12.964 5.796-12.964 12.954v18.053c0 7.148 5.806 12.964 12.964 12.964h45.517c7.025 0 12.667-5.632 12.872-12.595v-18.77zM636.365 205.046h-351.375c-19.466 57.426-19.466 291.758 0 349.174h351.375c25.037 0 45.404-20.347 45.404-45.394v-64.922h-70.205c-20.91 0-37.847-16.957-37.847-37.868v-52.808c0-20.89 16.937-37.847 37.847-37.847h70.205v-64.942c-0.010-25.016-20.367-45.394-45.404-45.394z" />
<glyph unicode="&#xe615;" d="M849.756 535.931c0.328 5.315-1.454 10.742-5.499 14.776l-314.778 314.798c-7.506 7.485-19.671 7.485-27.156 0l-104.366-104.346v66.806c0 17.091-13.865 30.966-30.956 30.966h-65.7c-17.101 0-30.986-13.865-30.986-30.966v-194.447l-82.801-82.821c-5.038-5.018-6.605-12.134-4.874-18.565 1.935-29.45 26.204-52.828 56.166-52.828h21.955v-281.979c0-31.212 25.324-56.535 56.535-56.535h137.728c-0.031 0.358-0.215 0.645-0.215 1.024v174.336c0 10.445 8.499 18.924 18.944 18.924h79.217c10.465 0 18.944-8.479 18.944-18.924v-174.326c0-0.369-0.195-0.655-0.215-1.024h142.807c31.222 0 56.535 25.334 56.535 56.535v281.989h22.252c31.232 0 56.535 25.324 56.535 56.535l-0.072 0.072z" />
<glyph unicode="&#xe616;" d="M717.015 773.335c0 0-25.815 9.359-30.525 13.773-46.961 44.298-110.121 71.506-179.814 71.506-69.632 0-132.803-27.187-179.732-71.455-4.731-4.434-30.597-13.834-30.597-13.834-33.71 0-61.041-27.331-61.041-61.071v-508.416c0-33.7 27.331-61.061 61.041-61.061h420.68c33.731 0 61.061 27.361 61.061 61.061v508.416c-0.010 33.741-27.341 61.082-61.071 61.082zM738.406 301.957c0 13.189-10.281 24.463-24.965 29.491 6.83 13.937 6.124 29.174-3.195 38.492-9.318 9.308-24.566 10.025-38.513 3.205-5.028 14.694-16.312 24.965-29.481 24.965-13.199 0-24.484-10.281-29.491-24.965-13.937 6.82-29.194 6.103-38.502-3.205-9.308-9.318-10.025-24.545-3.215-38.492-14.664-5.028-24.945-16.302-24.945-29.491 0-13.179 10.281-24.463 24.945-29.491-6.216-12.718-5.806-26.307 1.311-35.676-23.48-31.918-38.728-66.714-48.323-94.894 17.029-0.369 22.016 0.369 25.549-0.031 9.513 26.051 23.89 56.914 45.107 84.685 5.908 0.061 12.093 1.28 18.074 4.209 5.007-14.674 16.292-24.955 29.491-24.955 13.169 0 24.453 10.281 29.481 24.955 13.937-6.799 29.194-6.124 38.482 3.226 9.339 9.308 10.045 24.545 3.215 38.482 14.694 5.038 24.975 16.312 24.975 29.491zM642.253 262.984c-21.514 0-38.973 17.459-38.973 38.984s17.459 38.963 38.973 38.963c21.535 0 38.994-17.439 38.994-38.963s-17.469-38.984-38.994-38.984zM530.606 141.773c-4.198 12.933-26.624 75.694-77.261 120.648 4.147 2.796 7.752 6.236 9.779 10.865 5.315 12.063 0.471 26.522-10.947 37.048 11.889 10.015 17.388 24.238 12.616 36.516-4.762 12.268-18.412 19.087-33.935 18.483 1.341 15.452-4.813 29.409-16.865 34.744-12.052 5.335-26.522 0.471-37.048-10.936-10.004 11.889-24.248 17.388-36.516 12.636-12.308-4.782-19.108-18.442-18.483-33.946-15.483 1.331-29.43-4.854-34.755-16.896-5.315-12.042-0.451-26.532 10.936-37.038-11.868-10.004-17.367-24.218-12.626-36.506 4.782-12.298 18.432-19.118 33.946-18.493-1.331-15.473 4.823-29.42 16.886-34.744 12.052-5.304 26.542-0.461 37.069 10.936 9.984-11.868 24.228-17.367 36.495-12.616 11.121 4.301 17.459 16.056 18.156 29.706 45.169-35.267 68.977-89.047 77.056-110.326 10.476-0.010 23.726 0.133 25.498-0.082zM389.253 275.753c-20.070-7.782-42.67 2.202-50.452 22.272-7.762 20.060 2.202 42.639 22.272 50.432 20.070 7.772 42.65-2.191 50.422-22.252 7.772-20.091-2.191-42.68-22.241-50.452zM630.374 381.952c0 13.169-10.291 24.474-24.975 29.491 6.851 13.926 6.134 29.194-3.185 38.502-9.318 9.308-24.545 10.025-38.502 3.185-5.038 14.684-16.312 24.965-29.481 24.965-13.179 0-24.463-10.271-29.491-24.965-13.937 6.84-29.174 6.124-38.502-3.185s-10.025-24.576-3.205-38.502c-14.684-5.018-24.965-16.323-24.965-29.481 0-13.179 10.281-24.474 24.965-29.491-6.83-13.957-6.134-29.204 3.205-38.513 9.329-9.318 24.556-10.015 38.502-3.195 0.973-2.867 2.284-5.53 3.717-8.018-17.172-58.829-9.175-119.654 0.717-160.727 9.902 0.532 10.148-0.707 25.016 0-9.062 35.983-17.623 91.034-4.997 144.312 1.649-0.328 3.308-0.522 5.028-0.522 13.169 0 24.443 10.271 29.481 24.965 13.947-6.84 29.184-6.134 38.502 3.195 9.308 9.308 10.025 24.545 3.185 38.513 14.694 5.028 24.986 16.302 24.986 29.471zM534.211 342.979c-21.524 0-38.963 17.439-38.963 38.973 0 21.524 17.439 38.973 38.963 38.973 21.535 0 38.973-17.449 38.973-38.973 0-21.535-17.449-38.973-38.973-38.973z" />
<glyph unicode="&#xe617;" d="M717.64 649.216c0-113.572-92.068-205.64-205.64-205.64s-205.64 92.068-205.64 205.64c0 113.572 92.068 205.64 205.64 205.64 113.572 0 205.64-92.068 205.64-205.64zM546.478 403.139h-65.444v-218.491l32.236-43.848 33.208 43.848z" />
<glyph unicode="&#xe618;" d="M276.818 226.693c-26.092 0-47.247 21.146-47.247 47.227v298.619h-38.646c-26.081 0-47.237-21.146-47.237-47.247v-337.254c0-26.092 21.146-47.237 47.237-47.237h486.758c26.092 0 47.247 21.146 47.247 47.237v38.646h-448.113zM880.312 677.489c0 26.092-21.146 47.237-47.237 47.237h-486.748c-26.102 0-47.258-21.146-47.258-47.237v-337.254c0-26.102 21.146-47.237 47.258-47.237h486.748c26.092 0 47.237 21.135 47.237 47.237v337.254z" />
<glyph unicode="&#xe619;" d="M716.605 498.227c0-40.755-12.042-78.572-32.553-110.479l109.384-109.404c47.493 60.692 75.991 136.868 75.991 219.884 0 79.903-26.511 153.416-70.81 212.941l-110.008-109.978c17.715-30.29 27.996-65.372 27.996-102.963zM307.436 498.227c0 37.591 10.301 72.673 28.027 102.963l-110.008 109.978c-44.298-59.525-70.871-133.038-70.871-212.941 0-83.005 28.549-159.191 75.991-219.884l109.425 109.404c-20.552 31.908-32.563 69.724-32.563 110.479zM614.984 321.628c-30.269-17.705-65.382-27.996-102.973-27.996-37.56 0-72.673 10.301-102.932 27.996l-109.988-109.988c59.515-44.298 133.048-70.84 212.92-70.84 79.923 0 153.457 26.542 212.972 70.84l-109.998 109.988zM401.562 670.259c31.877 20.5 69.724 32.543 110.449 32.543s78.623-12.042 110.51-32.543l109.363 109.394c-60.682 47.452-136.858 76.001-219.873 76.001-82.975 0-159.15-28.549-219.843-76.001l109.394-109.394z" />
<glyph unicode="&#xe61a;" d="M825.385 703.898h-633.283c-34.437 0-62.351-27.914-62.351-62.341v-438.395c0-34.417 27.914-62.362 62.351-62.362h633.283c34.447 0 62.362 27.945 62.362 62.362v438.385c0 34.437-27.904 62.351-62.362 62.351zM830.218 587.674l-299.438-299.438c-6.083-6.072-14.060-9.155-22.036-9.155-0.338 0-0.645 0.205-0.993 0.205-0.328 0-0.635-0.205-0.973-0.205-7.967 0-15.974 3.082-22.036 9.155l-302.060 302.070c-12.186 12.165-12.186 31.918 0 44.083 12.175 12.175 31.908 12.175 44.083 0l280.986-281.006 278.374 278.374c12.186 12.175 31.908 12.175 44.104 0 12.155-12.175 12.155-31.918-0.010-44.083z" />
<glyph unicode="&#xe61b;" d="M702.351 593.92c-6.554 5.827-14.254 8.735-23.050 8.735-1.444 0-28.447 0-66.56 0v202.189c0 28.764-23.337 52.091-52.101 52.091h-99.799c-28.785 0-52.101-23.327-52.101-52.091v-202.189c-36.434 0-62.423 0-64.84 0-9.943 0-18.186-3.379-24.76-10.127-6.543-6.769-9.861-15.104-9.861-25.047 0-5.059 1.014-9.984 2.99-14.776 1.966-4.782 4.27-9.144 6.871-13.076l145.193-200.315c3.564-4.69 7.035-9.533 10.424-14.5 3.359-4.966 7.168-9.564 11.387-13.804 4.219-4.198 8.847-7.67 13.916-10.424 5.059-2.693 10.701-4.055 16.886-4.055 6.339 0 12.278 1.556 17.715 4.649 5.437 3.103 10.342 6.738 14.756 10.967 4.413 4.219 8.253 8.909 11.53 14.060 3.297 5.161 6.246 9.708 8.858 13.629l129.147 196.424c4.127 6.564 7.363 12.421 9.697 17.572 2.355 5.151 3.533 10.639 3.533 16.456 0.020 9.953-3.267 17.828-9.83 23.634zM770.58 140.8h-519.711c-77.619 0-140.759 63.15-140.759 140.769v123.761c0 25.917 21.012 46.92 46.92 46.92 25.917 0 46.93-21.002 46.93-46.92v-123.761c0-25.866 21.033-46.92 46.899-46.92h519.711c25.907 0 46.94 21.053 46.94 46.92v123.761c0 25.917 21.033 46.92 46.93 46.92 25.938 0 46.909-21.002 46.909-46.92v-123.761c0.010-77.619-63.109-140.769-140.769-140.769v0z" />
<glyph unicode="&#xe61c;" d="M898.56 743.158c13.261-11.745 19.886-27.679 19.886-47.79 0-11.745-2.365-22.845-7.096-33.28-4.751-10.435-11.284-22.282-19.63-35.564l-261.14-397.087c-5.304-7.967-11.274-17.162-17.92-27.597-6.615-10.424-14.397-19.896-23.316-28.426-8.899-8.54-18.862-15.954-29.85-22.2-11.008-6.257-22.968-9.39-35.85-9.39-12.513 0-23.89 2.755-34.13 8.274-10.24 5.489-19.63 12.513-28.16 21.043-8.53 8.54-16.21 17.828-23.040 27.894-6.83 10.025-13.844 19.794-21.053 29.266l-293.56 405.064c-5.315 7.956-9.964 16.783-13.937 26.45-3.973 9.677-5.98 19.63-5.98 29.87 0 20.091 6.646 36.977 19.917 50.637 13.271 13.65 29.962 20.48 50.063 20.48 17.818 0 32.041-5.509 42.66-16.497 10.629-10.998 20.101-22.19 28.457-33.567l279.9-385.72 242.35 362.394c6.072 9.103 12.063 17.92 17.92 26.45 5.888 8.53 12.052 16.312 18.493 23.337 6.441 7.014 13.548 12.687 21.32 17.060 7.782 4.362 16.794 6.543 27.034 6.543 17.838 0 33.393-5.888 46.664-17.644z" />
<glyph unicode="&#xe61d;" d="M818.227 166.738c-19.794-17.316-41.687-25.938-65.556-25.938-5.089 0-13.373 1.393-24.781 4.168-11.438 2.806-26.092 12.851-43.878 30.167-5.089 5.56-14.51 15.872-28.242 30.884-13.722 15.002-28.365 31.427-43.827 49.183-15.534 17.818-31.058 35.482-46.561 53.053-15.503 17.541-27.945 31.775-37.356 42.67-9.4 10.926-14.633 16.947-15.657 17.971-1.024-1.024-6.205-7.045-15.626-17.971-9.421-10.895-21.985-25.129-37.765-42.67-15.77-17.572-31.406-35.226-46.92-53.053-15.514-17.746-30.013-34.181-43.479-49.183-13.476-15.012-23.020-25.324-28.611-30.884-17.285-17.316-31.642-27.361-43.069-30.167-11.5-2.775-19.958-4.168-25.559-4.168-23.89 0-45.763 8.622-65.618 25.938-19.794 17.285-29.727 38.902-29.727 64.84 0 18.811 5.202 35.727 15.616 50.698 10.424 15.043 23.009 30.915 37.765 47.708l156.365 175.442-145.705 164.014c-14.213 16.271-26.532 32.031-36.966 47.278-10.445 15.299-15.657 32.297-15.657 51.098 0 25.948 9.789 47.442 29.368 64.481 19.61 17.009 41.585 25.549 66.017 25.549 5.069 0 13.312-1.27 24.76-3.809 11.438-2.56 26.061-12.708 43.878-30.525 6.083-6.093 18.033-19.067 35.82-38.902 17.797-19.835 36.004-40.172 54.559-61.010 18.565-20.869 42.086-47.299 70.554-79.35 27.976 32.051 51.374 58.481 70.185 79.35 18.831 20.828 36.987 41.175 54.559 61.010 17.541 19.845 29.614 32.809 36.25 38.902 17.265 17.818 31.58 27.965 43.090 30.525 11.438 2.54 19.917 3.809 25.539 3.809 23.9 0 45.763-8.54 65.608-25.549 19.835-17.050 29.737-38.533 29.737-64.481 0-18.79-5.253-35.799-15.657-51.098-10.404-15.247-22.999-31.007-37.765-47.278l-144.927-164.014 155.607-175.442c14.756-16.804 27.331-32.666 37.765-47.708 10.435-14.971 15.647-31.887 15.647-50.698 0.010-25.938-9.892-47.544-29.778-64.84z" />
<glyph unicode="&#xe61e;" d="M851.22 762.726h-38.492c-5.949 0-10.947-3.512-13.373-8.509-13.046 24.863-25.743 51.558-25.743 51.558-16.517 27.73-36.925 53.187-66.284 53.187h-301.261c-29.379 0-49.766-25.457-66.273-53.187 0 0-13.65-28.682-27.187-54.262-1.7 6.4-7.311 11.213-14.254 11.213h-38.502c-8.284 0-14.981-6.707-14.981-14.981v-12.442c0-8.284 6.697-15.002 14.981-15.002h34.836c-2.14-3.195-4.014-5.591-5.437-6.871-13.445-11.981-21.914-55.593-21.914-75.008v-73.615c0-27.116 16.507-50.391 40.018-60.293v-46.111c0-21.688 17.582-39.27 39.26-39.27h11.459c21.699 0 39.25 17.582 39.25 39.27v40.97h318.966v-40.97c0-21.688 17.582-39.27 39.24-39.27h11.459c21.699 0 39.24 17.582 39.24 39.27v46.182c23.429 9.984 39.823 33.188 39.823 60.221v73.615c0 19.415-8.428 63.037-21.903 75.018-1.423 1.28-3.297 3.676-5.437 6.861h32.512c8.305 0 15.002 6.717 15.002 15.002v12.442c0 8.284-6.697 14.981-15.002 14.981zM376.893 786.463c14.008 23.491 31.283 45.076 56.177 45.076h247.296c24.893 0 42.189-21.576 56.156-45.076 0 0 20.777-43.715 34.284-66.161-10.127 0.031-414.638 0.031-428.155 0.031 13.476 22.477 34.243 66.13 34.243 66.13zM344.197 671.355c20.347 0 36.823-16.476 36.823-36.813s-16.476-36.833-36.823-36.833c-20.337 0-36.833 16.497-36.833 36.833s16.497 36.813 36.833 36.813zM628.572 519.475h-143.739v52.326h143.739v-52.326zM769.444 597.719c-20.326 0-36.833 16.497-36.833 36.833s16.497 36.813 36.833 36.813 36.792-16.476 36.792-36.813-16.466-36.833-36.792-36.833zM924.498 319.089c-7.352 24.852-33.434 39.066-58.276 31.724l-210.043-58.726c0.461 2.509 0.778 5.059 0.778 7.68 0 23.941-19.405 43.315-43.305 43.315h-134.666c-27.044 11.674-66.724 19.077-111.114 19.077-35.994 0-68.516-5.048-94.085-13.087-5.632 17.51-21.903 30.331-41.267 30.331h-91.402c-24.003 0-43.52-19.528-43.52-43.53v-151.552c0-24.013 19.517-43.53 43.52-43.53h91.402c24.003 0 43.52 19.517 43.52 43.53v10.783h374.856c0.676 0 1.331 0.174 2.007 0.205 1.925 0.072 3.871 0.287 5.806 0.604 0.952 0.154 1.894 0.317 2.806 0.522 1.085 0.236 2.161 0.307 3.236 0.625l227.994 63.754c24.883 7.322 39.066 33.413 31.754 58.276zM258.642 184.33c0-14.418-11.715-26.122-26.112-26.122h-91.402c-14.397 0-26.112 11.704-26.112 26.122v151.552c0 14.387 11.715 26.122 26.112 26.122h91.402c14.397 0 26.112-11.735 26.112-26.122v-151.552z" />
<glyph unicode="&#xe61f;" d="M263.475 172.585c0-17.541 14.234-31.785 31.795-31.785h34.458c17.551 0 31.795 14.254 31.795 31.785v650.957c0 17.562-14.244 31.795-31.795 31.795h-34.458c-17.562 0-31.795-14.234-31.795-31.795v-650.957zM432.271 426.465c-13.199 0-23.91 14.223-23.91 31.734v318.638c0 17.521 10.711 31.744 23.91 31.744l428.585-185.201c9.073-0.911 10.957-29.194 0-31.744l-428.585-165.171z" />
<glyph unicode="&#xe620;" d="M924.672 625.316h-54.292c-8.366 0-15.452-4.946-18.872-12.001-18.391 35.062-36.301 72.704-36.301 72.704-23.276 39.107-52.040 75.008-93.46 75.008h-424.796c-41.411 0-70.164-35.901-93.46-75.008 0 0-19.251-40.448-38.349-76.544-2.376 9.042-10.271 15.841-20.070 15.841h-54.313c-11.684 0-21.146-9.472-21.146-21.125v-17.562c0-11.684 9.462-21.135 21.146-21.135h49.142c-3.052-4.516-5.673-7.895-7.7-9.697-18.944-16.886-30.874-78.397-30.874-105.759v-103.823c0-38.226 23.276-71.045 56.443-85.023v-65.024c0-30.566 24.801-55.357 55.368-55.357h16.148c30.556 0 55.368 24.791 55.368 55.357v57.815h449.751v-57.815c0-30.566 24.791-55.357 55.368-55.357h16.118c30.556 0 55.347 24.791 55.347 55.357v65.157c33.004 14.060 56.115 46.756 56.115 84.879v103.823c0 27.382-11.919 88.873-30.874 105.789-2.017 1.792-4.649 5.171-7.7 9.667h45.875c11.674 0 21.135 9.462 21.135 21.135v17.562c0.020 11.663-9.452 21.135-21.115 21.135zM255.764 658.79c19.732 33.126 44.104 63.56 79.206 63.56h348.754c35.103 0 59.484-30.423 79.206-63.56 0 0 29.266-61.655 48.302-93.307-14.285 0.031-584.684 0.031-603.75 0.031 19.016 31.693 48.282 93.276 48.282 93.276zM209.684 496.466c28.692 0 51.937-23.245 51.937-51.917s-23.245-51.927-51.937-51.927c-28.662 0-51.927 23.255-51.927 51.927s23.255 51.917 51.927 51.917zM610.683 282.255h-202.67v73.81h202.67v-73.81zM809.308 392.622c-28.682 0-51.907 23.255-51.907 51.927s23.235 51.917 51.907 51.917c28.692 0 51.927-23.245 51.927-51.917s-23.235-51.927-51.927-51.927z" />
<glyph unicode="&#xe621;" d="M546.447 218.747c0-43.055-34.903-77.957-77.957-77.957s-77.957 34.903-77.957 77.957c0 43.055 34.903 77.957 77.957 77.957 43.055 0 77.957-34.903 77.957-77.957zM954.532 261.284h-87.47c3.359 12.227 1.464 26.911-4.782 43.438l-139.11 313.754c-18.729 70.308-59.525 81.152-104.325 81.152h-434.739c-44.82 0-81.152-36.332-81.152-81.152v-313.754c0-44.81 36.332-81.152 81.152-81.152h20.398c-0.338 1.915-0.584 3.82-0.584 5.796v317.368c0 19.22 15.565 34.775 34.775 34.775h71.014c19.21 0 34.775-15.565 34.775-34.775v-317.368c0-1.976-0.266-3.891-0.594-5.796h27.034c2.54 51.794 45.189 93.010 97.577 93.010 52.398 0 95.027-41.216 97.567-93.010h388.475c6.431 0 11.602 5.202 11.602 11.612v14.51c-0.010 6.38-5.181 11.592-11.612 11.592zM541.542 484.434v62.3c0 19.22 15.585 34.775 34.785 34.775h63.212c30.044 0 42.568-34.775 42.568-34.775l26.982-62.3c6.953-22.835-15.575-34.785-34.785-34.785h-97.966c-19.21 0-34.796 15.575-34.796 34.785z" />
<glyph unicode="&#xe622;" d="M422.226 787.364c0-29.747-24.125-53.862-53.873-53.862v0c-29.757 0-53.883 24.115-53.883 53.862v17.961c0 29.757 24.125 53.873 53.883 53.873v0c29.747 0 53.873-24.115 53.873-53.873v-17.961zM706.632 787.364c0-29.747-24.105-53.862-53.883-53.862v0c-29.747 0-53.883 24.115-53.883 53.862v17.961c0 29.757 24.125 53.873 53.883 53.873v0c29.768 0 53.883-24.115 53.883-53.873v-17.961zM764.58 761.293h-28.498c-9.267-37.437-43.018-65.229-83.333-65.229s-74.035 27.781-83.323 65.229h-117.75c-9.277-37.437-43.018-65.229-83.333-65.229s-74.035 27.781-83.333 65.229h-25.559c-35.994 0-65.147-29.164-65.147-65.137v-490.24c0-35.963 29.164-65.116 65.147-65.116h505.129c35.963 0 65.116 29.164 65.116 65.116v490.24c0 35.973-29.153 65.137-65.116 65.137zM369.142 251.351c0-6.461-5.222-11.684-11.694-11.684h-82.637c-6.451 0-11.684 5.222-11.684 11.684v90.614c0 6.461 5.222 11.704 11.684 11.704h82.637c6.472 0 11.694-5.243 11.694-11.704v-90.614zM369.142 390.994c0-6.461-5.222-11.704-11.694-11.704h-82.637c-6.451 0-11.684 5.243-11.684 11.704v90.614c0 6.451 5.222 11.684 11.684 11.684h82.637c6.472 0 11.694-5.222 11.694-11.684v-90.614zM369.142 530.616c0-6.451-5.222-11.694-11.694-11.694h-82.637c-6.451 0-11.684 5.243-11.684 11.694v90.624c0 6.451 5.222 11.694 11.684 11.694h82.637c6.472 0 11.694-5.243 11.694-11.694v-90.624zM499.712 251.351c0-6.461-5.222-11.684-11.684-11.684h-82.647c-6.451 0-11.684 5.222-11.684 11.684v90.614c0 6.461 5.222 11.704 11.684 11.704h82.647c6.461 0 11.684-5.243 11.684-11.704v-90.614zM499.712 390.994c0-6.461-5.222-11.704-11.684-11.704h-82.647c-6.451 0-11.684 5.243-11.684 11.704v90.614c0 6.451 5.222 11.684 11.684 11.684h82.647c6.461 0 11.684-5.222 11.684-11.684v-90.614zM499.712 530.616c0-6.451-5.222-11.694-11.684-11.694h-82.647c-6.451 0-11.684 5.243-11.684 11.694v90.624c0 6.451 5.222 11.694 11.684 11.694h82.647c6.461 0 11.684-5.243 11.684-11.694v-90.624zM630.313 251.351c0-6.461-5.222-11.684-11.704-11.684h-82.637c-6.441 0-11.704 5.222-11.704 11.684v90.614c0 6.461 5.263 11.704 11.704 11.704h82.637c6.482 0 11.704-5.243 11.704-11.704v-90.614zM630.313 390.994c0-6.461-5.222-11.704-11.704-11.704h-82.637c-6.441 0-11.704 5.243-11.704 11.704v90.614c0 6.451 5.263 11.684 11.704 11.684h82.637c6.482 0 11.704-5.222 11.704-11.684v-90.614zM630.313 530.616c0-6.451-5.222-11.694-11.704-11.694h-82.637c-6.441 0-11.704 5.243-11.704 11.694v90.624c0 6.451 5.263 11.694 11.704 11.694h82.637c6.482 0 11.704-5.243 11.704-11.694v-90.624zM760.873 251.351c0-6.461-5.212-11.684-11.704-11.684h-82.616c-6.441 0-11.715 5.222-11.715 11.684v90.614c0 6.461 5.274 11.704 11.715 11.704h82.616c6.492 0 11.704-5.243 11.704-11.704v-90.614zM760.873 390.994c0-6.461-5.212-11.704-11.704-11.704h-82.616c-6.441 0-11.715 5.243-11.715 11.704v90.614c0 6.451 5.274 11.684 11.715 11.684h82.616c6.492 0 11.704-5.222 11.704-11.684v-90.614zM760.873 530.616c0-6.451-5.212-11.694-11.704-11.694h-82.616c-6.441 0-11.715 5.243-11.715 11.694v90.624c0 6.451 5.274 11.694 11.715 11.694h82.616c6.492 0 11.704-5.243 11.704-11.694v-90.624z" />
<glyph unicode="&#xe623;" d="M797.153 661.094h-159.099v19.005c0 40.141-32.645 72.817-72.806 72.817h-106.476c-40.161 0-72.817-32.666-72.817-72.817v-19.005h-159.109c-38.533 0-69.765-31.252-69.765-69.765v-380.754c0-38.543 31.242-69.765 69.765-69.765h570.296c38.543 0 69.765 31.232 69.765 69.765v380.754c0.010 38.513-31.222 69.765-69.755 69.765zM425.667 680.11c0 18.248 14.858 33.096 33.106 33.096h106.465c18.248 0 33.106-14.858 33.106-33.096v-19.005h-172.677v19.005zM746.721 230.697h-459.131c-14.141 0-25.6 11.438-25.6 25.61 0 14.131 11.459 25.6 25.6 25.6h459.121c14.141 0 25.6-11.469 25.6-25.6 0.010-14.172-11.448-25.61-25.59-25.61zM746.721 361.011h-459.131c-14.141 0-25.6 11.459-25.6 25.6 0 14.131 11.459 25.6 25.6 25.6h459.121c14.141 0 25.6-11.469 25.6-25.6 0.010-14.141-11.448-25.6-25.59-25.6zM746.721 491.305h-459.131c-14.141 0-25.6 11.469-25.6 25.6s11.459 25.6 25.6 25.6h459.121c14.141 0 25.6-11.469 25.6-25.6s-11.448-25.6-25.59-25.6z" />
<glyph unicode="&#xe624;" d="M302.623 222.034c0-44.864-36.37-81.234-81.234-81.234-44.864 0-81.234 36.37-81.234 81.234 0 44.864 36.37 81.234 81.234 81.234 44.864 0 81.234-36.37 81.234-81.234zM862.781 222.034c0-44.864-36.37-81.234-81.234-81.234s-81.234 36.37-81.234 81.234c0 44.864 36.37 81.234 81.234 81.234 44.864 0 81.234-36.37 81.234-81.234zM921.16 401.684c-15.319 8.458-198.124 200.868-202.025 204.462-45.138 41.349-93.225 38.083-131.727 38.083l-49.869 0.881c0 0-35.553 5.294-35.553-44.073l-0.809-137.882-357.335 216.678h-28.703v-103.731c-0.195-6.38 1.423-13.128 4.966-13.128 16.814 0 30.505-13.691 30.505-30.515s-13.691-30.505-30.505-30.505c-8.684 0-16.998 3.727-22.774 10.209-4.475 4.997-12.145 5.448-17.162 0.963-5.018-4.465-5.448-12.155-0.963-17.152 10.394-11.653 25.303-18.34 40.909-18.34 30.218 0 54.815 24.607 54.815 54.825 0 23.112-14.428 42.834-34.703 50.893v64.635l157-199.895h-194.202c-20.142 0-36.465-16.333-36.465-36.475v-153.098c0-20.142 16.323-36.475 36.465-36.475h12.298c0 58.573 47.493 106.066 106.066 106.066s106.056-47.503 106.056-106.066h208.036c1.219-0.123 2.386-0.369 3.625-0.369h136.612c0 0.133-0.020 0.236-0.020 0.369 0 58.45 47.401 105.841 105.841 105.841 58.46 0 105.841-47.391 105.841-105.841 0-0.133-0.020-0.236-0.020-0.369h28.989c21.627 0 39.137 17.521 39.137 39.127v77.117c0.020-0.010 5.089 37.376-34.324 63.764zM581.417 448.072c-13.445 0-24.32 10.895-24.32 24.3v90.604c0 13.414 10.885 24.31 24.32 24.31h85.996c7.025 0 13.292-3.021 17.715-7.782l0.031 0.123 129.905-131.523-233.646-0.031z" />
<glyph unicode="&#xe625;" d="M862.106 356.68l-734.884-56.986c-23.818-1.976-30.198-15.585-16.65-39.526 13.548-23.941 64.717-91.771 64.717-91.771s20.204-26.112 57.795-26.112h494.807c37.591 0 88.474 7.404 122.511 68.055l69.765 114.586c13.834 34.253-20.204 35.748-58.061 31.754zM228.096 358.697c64.993 4.997 170.926 13.148 170.926 13.148v372.081c0.010 0-37.335-195.42-179.272-353.331-21.053-22.272-10.363-33.331 8.346-31.898zM802.468 429.568c-80.189 237.414-355.901 314.358-355.901 314.358v-369.654c0 0 315.331 19.978 330.24 20.931 34.468 1.628 29.174 23.962 25.661 34.365z" />
<glyph unicode="&#xe626;" d="M881.603 243.333c-3.666 9.82-7.936 18.79-12.841 26.87l-270.316 411.279c-6.636 9.615-13.107 19.517-19.384 29.737-6.318 10.199-13.373 19.63-21.207 28.303-7.875 8.643-16.486 15.79-25.948 21.371-9.441 5.571-19.907 8.387-31.416 8.387-11.868 0-22.866-3.185-33.024-9.533-10.117-6.359-19.272-13.885-27.474-22.538-8.233-8.673-15.391-18.309-21.504-28.867-6.113-10.598-11.612-19.937-16.486-28.037l-240.435-403.159c-7.7-13.486-13.722-25.549-18.084-36.116-4.393-10.588-6.574-21.862-6.574-33.792 0-20.419 6.113-36.588 18.34-48.517 12.227-11.95 26.542-17.92 42.957-17.92 9.4 0 608.031 0 624.456 0 18.504 0 33.894 6.932 46.090 20.787 12.227 13.885 18.33 31.007 18.33 51.436 0.010 10.404-1.812 20.48-5.478 30.31zM462.592 568.986c0 8.684 0.85 15.872 2.601 21.545 1.731 5.673 5.007 10.732 9.861 15.165 3.052 3.092 6.984 5.642 11.827 7.66 4.813 2.038 9.923 3.041 15.319 3.041 11.203 0 20.244-3.584 27.167-10.701 5.601-5.591 9.083-11.561 10.445-17.92 1.331-6.359 1.976-12.616 1.976-18.79v-186.481c0-8.673-0.809-15.79-2.56-21.412-1.772-5.581-5.007-10.68-9.861-15.319-6.922-7.096-15.964-10.691-27.167-10.691-10.977 0-20.029 3.594-27.146 10.691-6.42 6.195-10.056 12.913-10.998 20.244-0.973 7.332-1.475 12.851-1.475 16.486v186.481zM536.586 222.484c-9.462-9.544-20.91-14.295-34.406-14.295-13.302 0-24.75 4.762-34.232 14.295-9.564 9.544-14.316 20.961-14.316 34.243 0 13.496 4.751 24.975 14.316 34.427 9.482 9.431 20.931 14.172 34.232 14.172 13.496 0 24.955-4.741 34.406-14.172 9.472-9.452 14.152-20.931 14.152-34.427 0-13.292-4.68-24.709-14.152-34.243z" />
</font>
</defs>
</svg>
