<?xml version="1.0" standalone="no"?>
<!DOCTYPE svg PUBLIC "-//W3C//DTD SVG 1.1//EN" "http://www.w3.org/Graphics/SVG/1.1/DTD/svg11.dtd" >
<svg xmlns="http://www.w3.org/2000/svg">
<metadata>
This is a custom SVG webfont generated by Font Squirrel.
Copyright   :  Royal  Sun Alliance 2001 All rights reserved
Designer    : Johnson Banks Design Ltd  Foundry Types Ltd
</metadata>
<defs>
<font id="webfontE3vHQfrE" horiz-adv-x="1114" >
<font-face units-per-em="2048" ascent="1638" descent="-410" />
<missing-glyph horiz-adv-x="471" />
<glyph unicode=" "  horiz-adv-x="471" />
<glyph unicode="&#x09;" horiz-adv-x="471" />
<glyph unicode="&#xa0;" horiz-adv-x="471" />
<glyph unicode="!" horiz-adv-x="594" d="M399 444v824q0 59 -30.5 90t-71.5 31t-71.5 -31t-30.5 -90v-824q0 -59 30.5 -89.5t71.5 -30.5t71.5 30.5t30.5 89.5zM424 106q0 54 -37 90.5t-90 36.5t-90 -36.5t-37 -90.5q0 -53 37 -89.5t90 -36.5t90 36.5t37 89.5z" />
<glyph unicode="&#x22;" horiz-adv-x="778" d="M629 983v324q0 53 -28 81.5t-66 28.5q-39 0 -67 -28.5t-28 -81.5v-324q0 -53 28 -82t67 -29q38 0 66 29t28 82zM342 983v324q0 53 -27.5 81.5t-66.5 28.5t-66.5 -28.5t-27.5 -81.5v-324q0 -53 27.5 -82t66.5 -29t66.5 29t27.5 82z" />
<glyph unicode="#" d="M1090 950q0 37 -26 58.5t-69 21.5h-125l33 252q0 4 1 13.5t1 13.5q0 32 -18.5 51.5t-52.5 19.5q-35 0 -53.5 -24.5t-22.5 -55.5l-37 -270h-244l35 252q0 4 1 13.5t1 13.5q0 32 -18.5 51.5t-53.5 19.5q-34 0 -52.5 -24.5t-22.5 -55.5l-37 -270h-148q-47 0 -70.5 -21.5 t-23.5 -58.5t25.5 -58.5t68.5 -21.5h125l-39 -280h-147q-47 0 -70.5 -21.5t-23.5 -58.5t25.5 -58.5t68.5 -21.5h125l-49 -352q-2 -10 -2 -19v-12q0 -29 18 -47q10 -10 24.5 -15t24.5 -5q33 0 55.5 19t26.5 58l51 373h242l-49 -352q-2 -10 -2 -19v-12q0 -29 18 -47 q10 -10 24.5 -15t24.5 -5q33 0 55.5 19t26.5 58l51 373h148q45 0 69.5 21.5t24.5 58.5t-25.5 58.5t-68.5 21.5h-125l39 280h147q45 0 70 21.5t25 58.5zM698 870l-39 -280h-241l37 280h243z" />
<glyph unicode="$" d="M973 397q0 107 -43 175.5t-106.5 113.5t-139.5 75t-139.5 60.5t-106.5 68.5t-43 101q0 39 16.5 71t44 54.5t62.5 33.5t72 11q53 0 89 -14t63.5 -31.5t48 -32t43.5 -14.5q34 0 56.5 20.5t22.5 57.5q0 22 -12 43.5t-31 40.5q-24 24 -54 41.5t-57.5 30t-52 18.5t-38.5 8v111 q0 53 -28 81.5t-67 28.5q-38 0 -66 -28.5t-28 -81.5v-115q-41 -10 -90 -33.5t-92 -64.5t-71.5 -101.5t-28.5 -142.5q0 -84 35.5 -143.5t92 -102.5t125 -74.5t134.5 -58.5q78 -33 133 -82t55 -141q0 -47 -17.5 -87t-46 -69.5t-69.5 -47t-86 -17.5q-86 0 -135 28.5t-81 64.5 l-57 65q-24 28 -63 28q-29 0 -52.5 -22.5t-23.5 -57.5q0 -37 24.5 -78t61.5 -77q60 -60 129.5 -85.5t116.5 -25.5v-121q0 -53 27.5 -81.5t66.5 -28.5t67 28.5t28 81.5v123q45 8 100 37t101 78t78 119.5t32 160.5z" />
<glyph unicode="%" horiz-adv-x="1624" d="M446 -33q29 0 48.5 15.5t31.5 37.5l717 1256q8 12 14.5 25.5t6.5 35.5q0 31 -20.5 51.5t-53.5 20.5q-29 0 -47.5 -14.5t-32.5 -38.5l-721 -1256q-18 -28 -18 -61t22.5 -52.5t52.5 -19.5zM664 983q0 170 -82 281q-43 57 -101.5 87.5t-128.5 30.5q-69 0 -126.5 -30.5 t-100.5 -87.5q-82 -111 -82 -281q0 -168 82 -278q43 -58 100.5 -89.5t126.5 -31.5q70 0 128.5 31.5t101.5 89.5q82 110 82 278zM510 981q0 -51 -12.5 -97t-34 -81t-50 -55.5t-61.5 -20.5q-35 0 -62.5 20.5t-49 54.5t-32.5 80t-11 99q0 51 11 98t32.5 83t49 56.5t62.5 20.5 q33 0 62.5 -20.5t50 -55.5t33 -82t12.5 -100zM1581 379q0 170 -82 280q-43 58 -101.5 88.5t-127.5 30.5q-70 0 -127.5 -30.5t-100.5 -88.5q-81 -110 -81 -280q0 -168 81 -279q43 -57 100.5 -88.5t127.5 -31.5q69 0 127.5 31.5t101.5 88.5q82 111 82 279zM1427 377 q0 -51 -12 -97.5t-33.5 -81t-50 -55t-61.5 -20.5q-35 0 -62.5 20.5t-49 54t-33 80t-11.5 99.5q0 51 11.5 98t33 83t49 56.5t62.5 20.5q33 0 62.5 -20.5t50 -55.5t32.5 -82t12 -100z" />
<glyph unicode="&#x26;" horiz-adv-x="1311" d="M481 -31q135 0 242.5 57.5t200.5 149.5l120 -149q17 -21 38.5 -34t47.5 -13q37 0 64 25.5t27 62.5q0 41 -31 77l-137 168l131 144q30 30 30 71q0 33 -24.5 57.5t-56.5 24.5q-23 0 -41.5 -11t-32.5 -28l-117 -131l-254 314q45 28 89 62t79 76t56.5 90t21.5 108 q0 67 -26.5 123.5t-71.5 96.5t-104.5 61.5t-125.5 21.5q-69 0 -129.5 -22.5t-105.5 -64.5t-71 -100.5t-26 -130.5q0 -92 42 -157.5t98 -131.5l-126 -82q-60 -40 -107.5 -89.5t-76 -112t-28.5 -150.5q0 -84 32.5 -154.5t88 -120.5t129 -79t155.5 -29zM760 1094 q0 -39 -16.5 -71t-42 -58.5t-56.5 -48.5l-59 -44q-19 21 -40.5 47.5t-40 55.5t-30.5 59.5t-12 59.5q0 65 43 106t106 41q66 0 107 -41t41 -106zM809 307q-31 -31 -65.5 -59.5t-71.5 -51t-79 -36t-87 -13.5q-47 0 -89 16.5t-75 46.5t-51.5 69.5t-18.5 89.5q0 49 25 92 t61.5 80t80.5 66.5t81 51.5z" />
<glyph unicode="'" horiz-adv-x="557" d="M373 983v324q0 53 -28 81.5t-66 28.5q-39 0 -67 -28.5t-28 -81.5v-324q0 -53 28 -82t67 -29q38 0 66 29t28 82z" />
<glyph unicode="(" horiz-adv-x="526" d="M328 131q-15 62 -39.5 206t-24.5 343t25.5 341t40.5 204q16 67 30.5 113t25.5 77l18 51q8 20 8 37q0 23 -15.5 45.5t-52.5 22.5q-35 0 -53.5 -23.5t-30.5 -46.5q-16 -28 -50 -122.5t-63 -260.5q-18 -110 -28 -220t-10 -220q0 -223 36 -440q29 -166 60 -257.5t49 -125.5 q10 -23 30.5 -46.5t49.5 -23.5q37 0 55.5 22.5t18.5 49.5q0 14 -7.5 34.5t-17.5 50.5l-25 78q-16 46 -30 111z" />
<glyph unicode=")" horiz-adv-x="526" d="M203 131q14 62 38.5 206t24.5 343t-25.5 341t-39.5 204q-17 67 -31 113t-26 77l-18 51q-7 20 -7 37q0 23 15.5 45.5t51.5 22.5q35 0 53.5 -23.5t30.5 -46.5q17 -28 50.5 -122.5t62.5 -260.5q18 -110 28.5 -220t10.5 -220q0 -223 -37 -440q-29 -166 -59.5 -257.5 t-49.5 -125.5q-10 -23 -30.5 -46.5t-48.5 -23.5q-37 0 -55.5 22.5t-18.5 49.5q0 15 7 35l18 50l24 77.5t31 111.5z" />
<glyph unicode="*" d="M838 942q0 27 -13.5 39t-29.5 23l-117 71l115 70q16 10 30.5 22.5t14.5 36.5q0 25 -16.5 43.5t-41.5 18.5q-18 0 -29.5 -5.5t-15.5 -9.5l-121 -69v139q0 27 -14 47.5t-43 20.5t-44 -20.5t-15 -47.5v-141l-121 71q-4 4 -15.5 9.5t-29.5 5.5q-25 0 -41.5 -18.5t-16.5 -43.5 q0 -24 14.5 -36.5t30.5 -22.5l115 -70l-117 -71q-16 -11 -29.5 -23t-13.5 -39q0 -29 19.5 -43t42.5 -14q12 0 26.5 7t20.5 11l115 68v-135q0 -17 10 -42.5t49 -25.5t48 25.5t9 42.5v135l115 -68q6 -4 20.5 -11t26.5 -7q23 0 42.5 14t19.5 43z" />
<glyph unicode="+" d="M1055 705q0 32 -23.5 55.5t-70.5 23.5h-322v351q0 47 -24.5 71.5t-57.5 24.5t-57.5 -24.5t-24.5 -71.5v-351h-323q-48 0 -71.5 -23.5t-23.5 -55.5q0 -33 23.5 -56.5t71.5 -23.5h323v-351q0 -47 24.5 -71.5t57.5 -24.5t57.5 24.5t24.5 71.5v351h322q47 0 70.5 23.5 t23.5 56.5z" />
<glyph unicode="," horiz-adv-x="557" d="M373 -201v324q0 53 -28 81.5t-66 28.5q-39 0 -67 -28.5t-28 -81.5v-324q0 -53 28 -81.5t67 -28.5q38 0 66 28.5t28 81.5z" />
<glyph unicode="-" d="M811 705q0 36 -23.5 57.5t-70.5 21.5h-322q-47 0 -70.5 -21.5t-23.5 -57.5q0 -37 23.5 -58.5t70.5 -21.5h322q47 0 70.5 21.5t23.5 58.5z" />
<glyph unicode="." horiz-adv-x="557" d="M408 106q0 54 -37 90.5t-90 36.5q-54 0 -90.5 -36.5t-36.5 -90.5q0 -53 36.5 -89.5t90.5 -36.5q53 0 90 36.5t37 89.5z" />
<glyph unicode="/" d="M322 -236q34 0 54.5 24t31.5 52l464 1424q7 18 7 39q0 36 -24 61t-60 25q-35 0 -56.5 -21.5t-31.5 -50.5l-465 -1426q-6 -18 -6 -38q0 -37 24.5 -63t61.5 -26z" />
<glyph unicode="0" d="M1061 684q0 154 -34 278.5t-99 221.5q-70 104 -164 159.5t-207 55.5t-206 -55.5t-163 -159.5q-65 -99 -99 -222.5t-34 -277.5t34 -277.5t99 -220.5q70 -104 164 -160.5t205 -56.5q113 0 207 56.5t164 160.5q65 99 99 221.5t34 276.5zM862 682q0 -115 -23.5 -211 t-64.5 -167t-97 -110.5t-120 -39.5q-65 0 -121.5 38.5t-97.5 109.5t-63.5 168t-22.5 212t22.5 213t63.5 169t96 110.5t121 39.5t122 -39.5t97 -110.5t64.5 -169t23.5 -213z" />
<glyph unicode="1" d="M711 100v1106q0 66 -7.5 90.5t-23.5 40.5q-23 23 -46.5 27t-66.5 4h-176q-53 0 -81.5 -27.5t-28.5 -64.5t28.5 -64.5t81.5 -27.5h115v-1084q0 -59 30.5 -89.5t71.5 -30.5t72 30.5t31 89.5z" />
<glyph unicode="2" d="M1001 92q0 37 -28.5 64.5t-81.5 27.5h-445l269 293l102 117q49 59 86 120.5t58.5 127t21.5 137.5q0 96 -34 174t-94 133t-141 86t-173 31q-86 0 -169 -28.5t-145 -92.5q-43 -43 -76.5 -109.5t-33.5 -128.5q0 -40 23.5 -72t68.5 -32q39 0 65 27q17 17 23 37l12 40 q27 80 83.5 125t150.5 45q100 0 168.5 -64.5t68.5 -166.5q0 -57 -23.5 -118.5t-62.5 -123t-89 -121.5l-101 -118l-340 -381q-12 -15 -30.5 -35t-18.5 -41q0 -18 8 -27.5t20.5 -13.5t24.5 -4h25h698q53 0 81.5 27.5t28.5 64.5z" />
<glyph unicode="3" d="M764 1016q0 -66 -34 -118t-93 -75q-29 -10 -53 -13l-52 -7q-30 -4 -52.5 -23.5t-22.5 -54.5t21.5 -54.5t53.5 -23.5q29 -4 55.5 -5t55.5 -11q72 -25 113 -88.5t41 -139.5q0 -112 -69 -185t-183 -73q-51 0 -90 14.5t-68 38t-48.5 51t-27.5 56.5q-6 19 -13 37t-22 35 q-26 26 -63 26q-43 0 -66.5 -28.5t-23.5 -69.5q0 -59 32.5 -120.5t75.5 -102.5q60 -59 146 -86t170 -27q92 0 174 30t142.5 84t95 132t34.5 174q0 115 -52 207t-163 133q39 23 66.5 43.5t52.5 56.5q59 91 59 201q0 90 -31.5 160t-86 117t-129 71.5t-160.5 24.5 q-82 0 -153.5 -26.5t-131.5 -86.5q-35 -37 -60.5 -83t-25.5 -99q0 -41 22.5 -69.5t63.5 -28.5q35 0 60 24q14 15 24 33l20 37l19 36q10 18 27 36q24 24 56 37.5t81 13.5q96 0 154.5 -57.5t58.5 -153.5z" />
<glyph unicode="4" d="M1090 324q0 36 -28 61t-75 25h-100v897q0 10 -2 26.5t-9.5 31.5t-22.5 26.5t-40 11.5q-59 0 -104 -70l-635 -952q-15 -21 -27 -43.5t-12 -40.5q0 -25 13 -37t31.5 -17t37.5 -5h28h549v-144q0 -55 28 -84.5t69 -29.5q40 0 68 29.5t28 84.5v144h100q47 0 75 24.5t28 61.5z M694 410h-405l405 606v-606z" />
<glyph unicode="5" d="M371 881v303h489q53 0 82 27.5t29 64.5t-29 64.5t-82 27.5h-567q-23 0 -29 -1t-28 -1q-37 0 -50.5 -25.5t-13.5 -54.5v-559q0 -16 3 -33.5t26 -17.5q10 0 33.5 10t59.5 21.5t81 21.5t98 10q66 0 125 -20.5t104.5 -58t72 -93t26.5 -125.5q0 -61 -20.5 -115.5t-57.5 -94 t-87 -63.5t-108 -24q-77 0 -124.5 22.5t-77.5 51.5q-35 31 -50.5 61.5t-42.5 57.5q-8 8 -21 15t-36 7q-41 0 -60.5 -25.5t-19.5 -58.5q0 -36 22.5 -87.5t80.5 -106.5q30 -31 70 -51.5t84 -34.5t89 -20.5t86 -6.5q95 0 182 34t153.5 95.5t106.5 148.5t40 193q0 113 -42 199 t-109.5 144.5t-152.5 88t-171 29.5q-29 0 -78 -5t-86 -15z" />
<glyph unicode="6" d="M1042 449q0 90 -31.5 170.5t-88 142t-135 98.5t-171.5 37q-88 0 -155 -33l289 398q24 34 24 69t-25.5 57.5t-60.5 22.5q-26 0 -48 -14.5t-38 -36.5l-373 -514q-67 -94 -114 -190.5t-47 -217.5q0 -102 37.5 -188t104 -147.5t155 -96.5t188.5 -35q102 0 191.5 36t156 99.5 t104 150.5t37.5 192zM842 438q0 -59 -22.5 -112.5t-62.5 -93t-92.5 -63.5t-113.5 -24q-59 0 -112.5 24t-92.5 63.5t-61.5 93t-22.5 112.5q0 60 22.5 113t61.5 93t92.5 63.5t112.5 23.5t112.5 -23.5t93.5 -63.5t62.5 -93t22.5 -113z" />
<glyph unicode="7" d="M1061 1305q0 22 -10.5 34.5t-25.5 18.5t-34.5 8t-36.5 2h-739q-53 0 -82 -27.5t-29 -64.5t29 -64.5t82 -27.5h582l-647 -1049q-21 -35 -21 -65q0 -37 25.5 -62.5t64.5 -25.5q29 0 51.5 18t38.5 43l709 1163l28 48q14 26 15 51z" />
<glyph unicode="8" d="M1028 385q0 139 -81 234.5t-210 134.5q99 39 162.5 112.5t63.5 184.5q0 73 -31 138.5t-85 113t-128 75t-158 27.5q-82 0 -154.5 -25.5t-128 -72.5t-88 -113t-32.5 -143q0 -105 61.5 -184t159.5 -113q-129 -41 -208 -135.5t-79 -233.5q0 -86 37 -162t99.5 -132t148.5 -89 t184 -33q96 0 181 33t148.5 89t100.5 132t37 162zM768 1047q0 -43 -16.5 -79t-44 -63.5t-66.5 -43t-82 -15.5q-90 0 -148.5 57.5t-58.5 143.5t58.5 143t148.5 57q88 0 148.5 -57t60.5 -143zM823 408q0 -56 -20.5 -104t-55 -84t-84 -55.5t-104.5 -19.5t-103 19.5t-84 55.5 t-55.5 84t-19.5 104q0 53 20.5 98t55.5 78.5t83 53t103 19.5t103.5 -19.5t84 -53t56 -78.5t20.5 -98z" />
<glyph unicode="9" d="M72 926q0 -90 31.5 -171t88 -142.5t135.5 -98.5t171 -37q88 0 155 33l-288 -397q-25 -35 -25 -70t25.5 -57.5t60.5 -22.5q27 0 48.5 14.5t37.5 36.5l373 514q67 95 114.5 191t47.5 217q0 102 -38 188t-104.5 147.5t-154.5 96.5t-189 35q-102 0 -191 -36t-156 -99.5 t-104.5 -150.5t-37.5 -191zM272 936q0 59 22.5 112.5t62.5 93.5t92.5 63.5t113.5 23.5q60 0 113 -23.5t92 -63.5t61.5 -93.5t22.5 -112.5t-22.5 -112.5t-61.5 -93.5t-92 -63.5t-113 -23.5q-59 0 -112.5 23.5t-93.5 63.5t-62.5 93.5t-22.5 112.5z" />
<glyph unicode=":" horiz-adv-x="557" d="M408 776q0 53 -37 90t-90 37q-54 0 -90.5 -37t-36.5 -90t36.5 -90t90.5 -37q53 0 90 37t37 90zM408 106q0 54 -37 90.5t-90 36.5q-54 0 -90.5 -36.5t-36.5 -90.5q0 -53 36.5 -89.5t90.5 -36.5q53 0 90 36.5t37 89.5z" />
<glyph unicode=";" horiz-adv-x="557" d="M377 -201v324q0 53 -27.5 81.5t-66.5 28.5t-67 -28.5t-28 -81.5v-324q0 -53 28 -81.5t67 -28.5t66.5 28.5t27.5 81.5zM408 776q0 53 -37 90t-90 37q-54 0 -90.5 -37t-36.5 -90t36.5 -90t90.5 -37q53 0 90 37t37 90z" />
<glyph unicode="&#x37e;" horiz-adv-x="557" d="M377 -201v324q0 53 -27.5 81.5t-66.5 28.5t-67 -28.5t-28 -81.5v-324q0 -53 28 -81.5t67 -28.5t66.5 28.5t27.5 81.5zM408 776q0 53 -37 90t-90 37q-54 0 -90.5 -37t-36.5 -90t36.5 -90t90.5 -37q53 0 90 37t37 90z" />
<glyph unicode="&#x3c;" d="M33 664q0 -33 13 -56.5t34 -41.5q20 -18 46 -34l48 -30l752 -500q32 -22 67 -22t61.5 27.5t26.5 62.5q0 34 -21.5 54.5t-35.5 31.5l-754 506l758 546q35 25 44 48.5t9 41.5q0 37 -26.5 64t-63.5 27q-39 0 -76 -27l-743 -537q-20 -16 -45 -31.5t-45.5 -35t-34.5 -42 t-14 -52.5z" />
<glyph unicode="=" d="M1057 874q0 33 -23.5 56.5t-70.5 23.5h-809q-48 0 -71.5 -23.5t-23.5 -56.5q0 -32 23.5 -55.5t71.5 -23.5h809q47 0 70.5 23.5t23.5 55.5zM1057 535q0 32 -23.5 55.5t-70.5 23.5h-809q-48 0 -71.5 -23.5t-23.5 -55.5q0 -33 23.5 -56.5t71.5 -23.5h809q47 0 70.5 23.5 t23.5 56.5z" />
<glyph unicode="&#x3e;" d="M1081 705q0 32 -13 55.5t-33.5 42t-46 33t-48.5 30.5l-752 500q-32 23 -67 23t-61.5 -28t-26.5 -63q0 -34 21.5 -54.5t35.5 -31.5l754 -505l-758 -547q-35 -25 -44 -48.5t-9 -41.5q0 -37 26.5 -63.5t63.5 -26.5q39 0 76 26l743 537l46 31q24 16 44.5 35.5t34.5 42 t14 53.5z" />
<glyph unicode="?" d="M430 682v-238q0 -59 31 -89.5t71 -30.5q41 0 72 30.5t31 89.5v211q70 9 124 34.5t91 62.5q57 57 79.5 124.5t22.5 139.5q0 98 -34.5 169.5t-91 118t-128 68t-147.5 21.5q-78 0 -153.5 -26t-131.5 -83q-39 -39 -68.5 -97.5t-29.5 -115.5q0 -39 20.5 -66.5t61.5 -27.5 q33 0 50 18.5t29.5 46t25 60.5t34 60.5t58 46t98.5 18.5q35 0 71.5 -12.5t66.5 -39t48.5 -66.5t18.5 -95q0 -47 -16.5 -87t-51.5 -65q-27 -18 -57.5 -28.5t-61.5 -18.5t-59.5 -19.5t-48.5 -31.5q-17 -16 -21 -37.5t-4 -44.5zM657 106q0 -53 -36.5 -89.5t-90.5 -36.5 q-53 0 -90 36.5t-37 89.5q0 54 37 90.5t90 36.5q54 0 90.5 -36.5t36.5 -90.5z" />
<glyph unicode="@" horiz-adv-x="1501" d="M1442 825q0 144 -51.5 250.5t-139.5 177t-205.5 105.5t-250.5 35q-160 0 -294 -56.5t-231.5 -155t-153 -233.5t-55.5 -293q0 -157 52.5 -285t146.5 -219.5t226 -141.5t294 -50q37 0 116 8t159 29.5t140 58.5t60 92q0 37 -22.5 56.5t-56.5 19.5q-37 0 -80 -16.5t-78 -26.5 q-47 -16 -110.5 -27.5t-127.5 -11.5q-121 0 -220 33t-171 98.5t-110.5 160.5t-38.5 222q0 117 42 222.5t115.5 183.5t176 124t223.5 46q100 0 187 -23.5t150.5 -74t99.5 -129t36 -189.5q0 -33 -6.5 -70.5t-18.5 -76.5t-31.5 -75t-46.5 -63q-28 -28 -60 -41.5t-60 -13.5 q-17 0 -22 10.5t-5 20.5t2 20l4 21l74 381q0 4 1 8t1 14q0 27 -15.5 51.5t-54.5 24.5q-22 0 -36.5 -10t-22.5 -24.5t-13.5 -31t-7.5 -30.5q-41 49 -96 70.5t-113 21.5q-84 0 -148.5 -30.5t-108.5 -84t-66.5 -123t-22.5 -149.5q0 -135 76 -218t213 -83q115 0 201 74 q6 -23 22.5 -38.5t38 -24.5t45 -13t43.5 -4q21 0 50.5 4t64.5 16t73 35t72 57q41 41 69 93.5t45 105.5t24.5 102.5t7.5 83.5zM903 733q0 -45 -12 -92t-37 -85t-62.5 -61.5t-89.5 -23.5q-86 0 -120.5 49t-34.5 127q0 45 14 88t40 76t65 52.5t88 19.5q149 0 149 -150z" />
<glyph unicode="A" horiz-adv-x="1194" d="M1196 76q0 14 -4 30.5t-8 26.5l-475 1165q-15 35 -36.5 63t-66.5 28q-47 0 -67.5 -29t-34.5 -64l-494 -1163q-4 -12 -8 -27.5t-4 -29.5q0 -41 27.5 -70t68.5 -29t65.5 26t37.5 54l114 277h574l112 -277q13 -28 37.5 -54t65.5 -26t68.5 29t27.5 70zM817 510h-438l221 539z " />
<glyph unicode="B" horiz-adv-x="1049" d="M981 373q0 135 -76 220t-203 114q107 24 152 105t45 183q0 86 -36 160t-97 121q-53 41 -127 66.5t-176 25.5h-193q-43 0 -67.5 -4t-46.5 -27q-11 -10 -17 -20t-9 -23.5t-3 -33.5v-54v-1065q0 -55 10 -77.5t21 -32.5q22 -23 46.5 -27t67.5 -4h265q94 0 175 25.5t140 72.5 t94 117t35 158zM709 977q0 -119 -64.5 -169t-175.5 -50h-139v438h143q117 0 176.5 -57.5t59.5 -161.5zM778 385q0 -72 -31.5 -114t-77.5 -64.5t-98.5 -28.5t-93.5 -6h-147v424h129q88 0 135 -9t86 -34q47 -29 72.5 -72t25.5 -96z" />
<glyph unicode="C" horiz-adv-x="1391" d="M55 678q0 -150 52.5 -279t145.5 -225t220 -151.5t279 -55.5q135 0 254.5 45t218.5 144q22 22 43.5 53t21.5 65q0 37 -25.5 65t-64.5 28q-29 0 -47 -15l-37 -30l-32 -29l-31 -29q-64 -53 -141.5 -80.5t-159.5 -27.5q-109 0 -199 42t-154.5 114.5t-100.5 167.5t-36 200 q0 102 36 197.5t101.5 168t154.5 115.5t198 43q57 0 104 -11t89 -32.5t80 -52.5t79 -70q20 -18 40.5 -31.5t49.5 -13.5q39 0 64.5 28t25.5 64q0 35 -22.5 66t-44.5 53q-99 99 -213.5 144t-251.5 45q-152 0 -279 -56.5t-220 -153t-145.5 -227.5t-52.5 -278z" />
<glyph unicode="D" horiz-adv-x="1282" d="M1229 686q0 166 -62.5 300t-179.5 228q-59 50 -117.5 79.5t-121 46t-131 22.5t-144.5 6h-203q-43 0 -67.5 -4t-46.5 -27q-11 -10 -17 -20t-9 -23.5t-3 -33.5v-54v-1065q0 -55 10 -77.5t21 -32.5q22 -23 46.5 -27t67.5 -4h183q94 0 169.5 8t139 26.5t118 49.5t107.5 74 q115 96 177.5 230t62.5 298zM1022 686q0 -39 -7 -86t-25.5 -96t-47.5 -97.5t-72 -91.5q-49 -49 -104 -75.5t-108.5 -39t-101.5 -14.5t-81 -2h-143v1002h133q74 0 130 -6t102 -19.5t85 -36t76 -53.5q80 -70 122 -168t42 -217z" />
<glyph unicode="E" horiz-adv-x="1012" d="M907 92q0 37 -28.5 64.5t-81.5 27.5h-465v445h448q54 0 82.5 27.5t28.5 64.5t-28.5 64.5t-82.5 27.5h-448v371h465q53 0 81.5 27.5t28.5 64.5t-28.5 64.5t-81.5 27.5h-527q-43 0 -67.5 -4t-46.5 -27q-11 -10 -17 -20t-9 -23.5t-3 -33.5v-54v-1065q0 -55 10 -77.5 t21 -32.5q22 -23 46.5 -27t67.5 -4h525q53 0 81.5 27.5t28.5 64.5z" />
<glyph unicode="F" horiz-adv-x="961" d="M872 1276q0 37 -28.5 64.5t-81.5 27.5h-492q-43 0 -67.5 -4t-46.5 -27q-11 -10 -17 -20t-9 -23.5t-3 -33.5v-54v-1106q0 -59 30.5 -89.5t71.5 -30.5t72 30.5t31 89.5v529h407q54 0 82.5 27.5t28.5 64.5t-28.5 64.5t-82.5 27.5h-407v371h430q53 0 81.5 27.5t28.5 64.5z " />
<glyph unicode="G" horiz-adv-x="1434" d="M745 -33q132 0 247.5 49.5t201.5 133t136 198.5t50 248q0 18 -4 38.5t-20 37.5q-25 24 -55.5 27t-59.5 3h-340q-51 0 -78.5 -26.5t-27.5 -61.5q0 -34 27.5 -61t78.5 -27h275q-5 -86 -40.5 -155.5t-94 -117.5t-134.5 -74.5t-157 -26.5q-111 0 -201 43t-154.5 115.5 t-99.5 168.5t-35 201q0 104 37 200.5t103.5 169t158.5 115.5t201 43q82 0 159.5 -28.5t139.5 -81.5l31 -29q16 -14 32 -31q19 -16 37.5 -29.5t44.5 -13.5q41 0 66.5 29t25.5 68q0 32 -20.5 61t-42.5 51q-96 99 -213 144t-252 45q-197 0 -353.5 -82t-256.5 -252 q-52 -86 -78.5 -183.5t-26.5 -197.5q0 -148 51.5 -278t143.5 -226t219 -151.5t278 -55.5z" />
<glyph unicode="H" horiz-adv-x="1303" d="M1176 100v1168q0 59 -31 90t-72 31t-71.5 -31t-30.5 -90v-455h-639v455q0 59 -31 90t-72 31t-71.5 -31t-30.5 -90v-1168q0 -63 30.5 -91.5t71.5 -28.5q45 0 74 30.5t29 89.5v535h639v-535q0 -63 29.5 -91.5t72.5 -28.5q45 0 74 30.5t29 89.5z" />
<glyph unicode="I" horiz-adv-x="459" d="M332 100v1168q0 59 -31 90t-72 31t-71.5 -31t-30.5 -90v-1168q0 -63 30.5 -91.5t71.5 -28.5q45 0 74 30.5t29 89.5z" />
<glyph unicode="J" horiz-adv-x="694" d="M573 420v848q0 59 -30.5 90t-71.5 31t-71.5 -31t-30.5 -90v-836q0 -149 -29 -219t-127 -70q-25 0 -40 3.5t-26 7.5q-47 14 -76.5 36.5t-70.5 22.5q-33 0 -53.5 -22.5t-20.5 -47.5q0 -28 11.5 -47.5t31.5 -40.5q6 -6 25.5 -20.5t51.5 -29.5t78 -26.5t103 -11.5 q88 0 165 41t118 109q35 57 49 127.5t14 175.5z" />
<glyph unicode="K" horiz-adv-x="1049" d="M127 100v1168q0 63 30.5 92t71.5 29q45 0 74 -31t29 -90v-496l520 567q22 23 40.5 37.5t53.5 14.5t59.5 -24t24.5 -58q0 -35 -16.5 -57.5t-38.5 -47.5l-434 -475l481 -569q16 -17 25.5 -39.5t9.5 -44.5q0 -41 -28 -68.5t-68 -27.5q-29 0 -53.5 13t-41.5 36l-469 563 l-65 -66v-426q0 -59 -29 -89.5t-74 -30.5q-41 0 -71.5 28.5t-30.5 91.5z" />
<glyph unicode="L" horiz-adv-x="850" d="M850 92q0 37 -28.5 64.5t-82.5 27.5h-407v1084q0 59 -31 90t-72 31t-71.5 -31t-30.5 -90v-1127q0 -55 10 -77.5t21 -32.5q22 -23 46.5 -27t67.5 -4h467q54 0 82.5 27.5t28.5 64.5z" />
<glyph unicode="M" horiz-adv-x="1606" d="M1268 1391q35 0 53 -25t25 -57l217 -1182q4 -14 4 -25v-20q0 -41 -25.5 -71.5t-71.5 -30.5q-49 0 -72.5 32.5t-31.5 73.5l-162 852l-303 -709q-16 -39 -38.5 -73.5t-74.5 -34.5q-24 0 -41.5 9t-29.5 24.5t-21.5 35t-17.5 39.5l-311 709l-131 -852q-7 -41 -29.5 -73.5 t-73.5 -32.5q-47 0 -70.5 30.5t-23.5 71.5q0 16 1 24l3 21l197 1184q4 32 22.5 56t52.5 24q39 0 54.5 -22.5t29.5 -53.5l396 -897l389 895q14 30 30.5 54t53.5 24z" />
<glyph unicode="N" horiz-adv-x="1389" d="M1262 66v1202q0 59 -31 90t-72 31t-71.5 -31t-30.5 -90v-871l-758 938l-31 33q-20 21 -61 21q-29 0 -45.5 -12.5t-23.5 -30t-9 -34t-2 -24.5v-1188q0 -59 30.5 -89.5t71.5 -30.5t72 30.5t31 89.5v867l717 -891q45 -56 70.5 -76t60.5 -20q39 0 60.5 25.5t21.5 60.5z" />
<glyph unicode="O" horiz-adv-x="1536" d="M1483 680q0 149 -55.5 279.5t-152.5 226.5t-227 151.5t-278 55.5q-149 0 -279.5 -55.5t-227.5 -153t-152.5 -227.5t-55.5 -279q0 -150 55.5 -279t152.5 -225t227.5 -151.5t279.5 -55.5q150 0 280 55.5t226 151.5t151.5 226t55.5 280zM1276 682q0 -109 -40 -203 t-108.5 -163.5t-161 -110.5t-196.5 -41t-196.5 41t-162 110.5t-109.5 163.5t-40 199q0 110 40 204.5t108.5 164t161 109.5t198.5 40q104 0 196.5 -40t161 -108.5t108.5 -162.5t40 -203z" />
<glyph unicode="P" horiz-adv-x="971" d="M930 963q0 98 -34 177t-93 128q-66 53 -152 76.5t-215 23.5h-166q-43 0 -66.5 -4t-45.5 -27q-17 -16 -24 -40.5t-7 -90.5v-1106q0 -59 30.5 -89.5t71.5 -30.5t72 30.5t31 89.5v455h145q209 0 331 106.5t122 301.5zM723 965q0 -111 -69.5 -171.5t-200.5 -60.5h-121v459 h117q274 0 274 -227z" />
<glyph unicode="Q" horiz-adv-x="1536" d="M1335 92l-71 72q98 92 158.5 227t60.5 289q0 149 -55.5 279.5t-152.5 226.5t-227 151.5t-278 55.5q-149 0 -279.5 -55.5t-227.5 -153t-152.5 -227.5t-55.5 -279q0 -150 55.5 -279t152.5 -225t227.5 -151.5t279.5 -55.5q92 0 178 21.5t162 62.5l92 -92q23 -22 42.5 -30.5 t39.5 -8.5q37 0 63.5 26.5t26.5 63.5q0 23 -8 41.5t-31 40.5zM961 201q-33 -17 -80 -27t-111 -10q-104 0 -196.5 41t-162 110.5t-109.5 163.5t-40 199q0 110 40 204.5t108.5 164t161 109.5t198.5 40q104 0 196.5 -40t161 -108.5t108.5 -162.5t40 -203q0 -55 -12.5 -110.5 t-33 -105.5t-49 -91t-61.5 -68l-94 94q-39 39 -82 39q-22 0 -36.5 -7t-26.5 -19q-27 -27 -27 -64q0 -24 9 -42.5t30 -39.5z" />
<glyph unicode="R" horiz-adv-x="1010" d="M989 76q0 37 -24 71l-324 453q158 23 244 122t86 253q0 94 -36 175t-101 130q-62 47 -146 67.5t-203 20.5h-215q-49 0 -70.5 -6t-41.5 -25q-17 -16 -24 -40.5t-7 -90.5v-1106q0 -63 30.5 -91.5t71.5 -28.5q45 0 74 30.5t29 89.5v478h100l369 -541q16 -23 39.5 -40 t52.5 -17q39 0 67.5 27.5t28.5 68.5zM766 971q0 -111 -74 -171.5t-209 -60.5h-151v461h151q68 0 114 -12t81 -35q41 -29 64.5 -77t23.5 -105z" />
<glyph unicode="S" horiz-adv-x="1006" d="M942 403q0 113 -45 184.5t-112.5 119t-146.5 79t-146.5 63.5t-112.5 73t-45 106q0 43 17.5 76t46 56.5t65.5 35.5t76 12q55 0 94 -15t67 -33l48 -34q22 -16 47 -16q36 0 60 21.5t24 60.5q0 25 -12.5 47.5t-32.5 42.5q-54 53 -135 82t-162 29q-82 0 -157 -26t-131 -74 t-90 -117.5t-34 -155.5q0 -88 38 -150.5t97 -107.5t132 -78l140 -61q41 -17 77 -38.5t63.5 -49t43 -63.5t15.5 -85t-18.5 -91t-49 -74t-72.5 -50t-91 -18q-90 0 -141.5 30.5t-84.5 67.5l-61 68q-27 30 -68 30q-30 0 -54.5 -24.5t-24.5 -59.5q0 -41 25.5 -82t66.5 -82 q63 -63 151 -98t180 -35q93 0 176 32t144 90.5t97 137t36 174.5z" />
<glyph unicode="T" horiz-adv-x="1024" d="M1012 1276q0 37 -29 64.5t-82 27.5h-776q-53 0 -82 -27.5t-29 -64.5t29 -64.5t82 -27.5h285v-1084q0 -59 30.5 -89.5t71.5 -30.5t71.5 30.5t30.5 89.5v1084h287q53 0 82 27.5t29 64.5z" />
<glyph unicode="U" horiz-adv-x="1260" d="M1143 508v760q0 59 -31 90t-72 31t-70.5 -31t-29.5 -90v-713q0 -55 -2 -94t-6 -67.5t-12.5 -51.5t-20.5 -45q-37 -66 -109.5 -104.5t-158.5 -38.5t-158 37.5t-106 103.5q-15 24 -23 47t-13 51.5t-7 67.5t-2 94v713q0 59 -30 90t-71 31t-71.5 -31t-30.5 -90v-760 q0 -123 20.5 -203t69.5 -145q70 -92 180.5 -142.5t239.5 -50.5t234.5 48t176.5 141q56 71 79.5 151t23.5 201z" />
<glyph unicode="V" horiz-adv-x="1184" d="M1118 1180l-416 -1078q-8 -22 -17 -44.5t-22.5 -41t-31 -31t-41.5 -12.5q-25 0 -41.5 12.5t-28.5 31t-21.5 41t-17.5 44.5l-405 1059l-30 74q-11 27 -11 55q0 43 30.5 72t75.5 29q31 0 50.5 -12.5t32 -30t19.5 -36t11 -30.5l340 -922l340 912q6 14 13 34.5t19.5 39t32 31 t50.5 12.5q45 0 72.5 -28t27.5 -69q0 -30 -13 -63z" />
<glyph unicode="W" horiz-adv-x="1927" d="M547 360l313 930q10 33 32.5 67t70.5 34q24 0 42.5 -11.5t31 -27t19.5 -32.5t11 -30l291 -930l325 912q9 22 16 43.5t19.5 38t30.5 27t47 10.5t47.5 -10.5t29.5 -25t15 -30.5t4 -29q0 -28 -10 -59t-20 -57l-408 -1114q-16 -46 -39.5 -69.5t-60.5 -23.5q-39 0 -61.5 25 t-37.5 68l-299 929l-321 -929q-4 -13 -10.5 -29.5t-18.5 -29.5t-29.5 -23.5t-41.5 -10.5q-39 0 -60.5 28t-36.5 67l-370 1093q-15 39 -24 66.5t-9 66.5q0 35 26.5 66t71.5 31q31 0 50.5 -12.5t31.5 -29t19.5 -36t11.5 -31.5z" />
<glyph unicode="X" horiz-adv-x="995" d="M391 717l-352 -572q-10 -16 -16.5 -34.5t-6.5 -36.5q0 -41 28 -69t69 -28q32 0 57 19.5t41 46.5l293 494l289 -494q16 -27 40.5 -46.5t57.5 -19.5q41 0 67.5 28t26.5 69q0 37 -20 71l-347 572l308 506q20 34 20 69q0 41 -27.5 69t-68.5 28q-35 0 -57.5 -18.5t-38.5 -45.5 l-248 -430l-236 412q-16 28 -44.5 55t-65.5 27q-39 0 -66.5 -29t-27.5 -68q0 -18 6 -35.5t16 -33.5z" />
<glyph unicode="Y" horiz-adv-x="1051" d="M625 612l368 611q11 16 17 33.5t6 35.5q0 41 -27.5 69t-68.5 28t-63.5 -20.5t-35.5 -43.5l-295 -498l-295 498q-16 27 -39.5 45.5t-58.5 18.5q-41 0 -69.5 -28t-28.5 -69q0 -35 20 -69l365 -613v-510q0 -47 25.5 -83.5t76.5 -36.5t77 36.5t26 83.5v512z" />
<glyph unicode="Z" horiz-adv-x="1051" d="M1026 92q0 37 -28.5 64.5t-82.5 27.5h-585l604 1022q16 27 28.5 51.5t12.5 47.5q0 22 -10.5 35.5t-25.5 19.5t-34.5 7t-36.5 1h-686q-53 0 -81.5 -27.5t-28.5 -64.5t28.5 -64.5t81.5 -27.5h514l-596 -1006q-22 -35 -36.5 -61.5t-14.5 -48.5q0 -48 37 -58t84 -10h745 q54 0 82.5 27.5t28.5 64.5z" />
<glyph unicode="[" horiz-adv-x="522" d="M481 -135q0 33 -23.5 54.5t-68.5 21.5h-110v1271h110q45 0 68.5 21.5t23.5 54.5q0 31 -23.5 55.5t-68.5 24.5h-160q-34 0 -54.5 -5t-39.5 -24q-10 -10 -18 -27.5t-8 -64.5v-1341q0 -47 8 -64.5t18 -27.5q19 -19 39.5 -24t54.5 -5h160q45 0 68.5 24.5t23.5 55.5z" />
<glyph unicode="\" horiz-adv-x="844" d="M645 -236q-35 0 -55.5 24t-30.5 52l-465 1424q-6 18 -6 39q0 36 23.5 61t60.5 25q35 0 56.5 -21.5t31.5 -50.5l465 -1426q6 -18 6 -38q0 -37 -24.5 -63t-61.5 -26z" />
<glyph unicode="]" horiz-adv-x="522" d="M41 -135q0 33 23.5 54.5t68.5 21.5h111v1271h-111q-45 0 -68.5 21.5t-23.5 54.5q0 31 23.5 55.5t68.5 24.5h160q35 0 55.5 -5t38.5 -24q10 -10 18.5 -27.5t8.5 -64.5v-1341q0 -47 -8.5 -64.5t-18.5 -27.5q-18 -19 -38.5 -24t-55.5 -5h-160q-45 0 -68.5 24.5t-23.5 55.5z " />
<glyph unicode="^" horiz-adv-x="1022" d="M1001 70q0 26 -10 46.5t-24 43.5l-281 448q127 31 206 122t79 245q0 94 -36 175t-101 130q-62 47 -146 67.5t-203 20.5h-215q-49 0 -70.5 -6t-41.5 -25q-17 -16 -24 -40.5t-7 -90.5v-1106q0 -59 30.5 -89.5t71.5 -30.5q47 0 75 32.5t28 87.5v1094h151q68 0 114 -12.5 t81 -34.5q41 -29 64.5 -77t23.5 -105q0 -56 -16.5 -92.5t-42.5 -63.5q-29 -29 -59 -41t-57.5 -20.5t-54 -18.5t-47.5 -31q-6 -6 -16 -22.5t-10 -44.5q1 -31 19 -61l44 -74l285 -463q33 -56 90 -56q43 0 71.5 27t28.5 66z" />
<glyph unicode="_" d="M1075 -139q0 76 -90 76h-858q-90 0 -90 -76t90 -76h858q90 0 90 76z" />
<glyph unicode="`" horiz-adv-x="926" d="M596 987q-16 0 -34.5 8.5t-33.5 18.5l-229 184q-16 14 -30.5 31.5t-14.5 46.5q0 33 22.5 54.5t53.5 21.5q18 0 35.5 -8.5t31.5 -18.5l203 -162l45 -39q27 -24 27 -61q0 -33 -22.5 -54.5t-53.5 -21.5z" />
<glyph unicode="a" horiz-adv-x="1069" d="M952 92v684q0 53 -28.5 83t-67.5 30q-41 0 -68.5 -30t-27.5 -83v-28q-60 71 -132.5 109t-166.5 38q-90 0 -166 -35t-131 -96.5t-86 -145t-31 -182.5q0 -100 32 -185t87 -147.5t132 -97.5t167 -35q92 0 167 39t128 111v-29q0 -53 27.5 -82.5t68.5 -29.5t68.5 29.5 t27.5 82.5zM770 436q0 -65 -19.5 -118.5t-55.5 -93.5t-84 -61.5t-105 -21.5t-105.5 22.5t-84 61.5t-55 92.5t-19.5 116.5q0 62 20.5 115t55 92t84 61.5t104.5 22.5q57 0 105 -21.5t84 -60.5t55.5 -92t19.5 -115z" />
<glyph unicode="b" horiz-adv-x="1071" d="M1026 436q0 99 -31.5 182.5t-87 145t-131.5 96.5t-164 35q-94 0 -166.5 -38t-132.5 -109v528q0 53 -28.5 83t-67.5 30t-67.5 -30t-28.5 -83v-1184q0 -53 28.5 -82.5t67.5 -29.5t67.5 29.5t28.5 82.5v29q54 -72 128.5 -111t166.5 -39q90 0 167 35t132.5 97.5t87 147.5 t31.5 185zM831 434q0 -63 -20 -116.5t-55 -92.5t-83 -61.5t-106 -22.5q-57 0 -105 21.5t-84 61.5t-55.5 93.5t-19.5 118.5q0 62 19.5 115t55.5 92t84 60.5t105 21.5q56 0 105 -22.5t84 -61.5t55 -92t20 -115z" />
<glyph unicode="c" horiz-adv-x="973" d="M895 193q0 30 -19.5 52.5t-52.5 22.5q-22 0 -37.5 -8t-37.5 -27q-7 -4 -24 -20t-47 -33.5t-69 -31t-84 -13.5q-61 0 -112.5 22.5t-88 61.5t-57 93.5t-20.5 117.5q0 139 72.5 220t195.5 81q45 0 84 -13t68.5 -30.5t47 -34t23.5 -20.5q41 -35 76 -35q14 0 27.5 6t21.5 14 q17 17 20 30.5t3 27.5q0 18 -13.5 41.5t-29.5 40.5l-36 32q-24 23 -66 46.5t-99 41t-131 17.5q-98 0 -183 -36t-146.5 -98.5t-97.5 -147.5t-36 -183q0 -96 37 -180t100.5 -145.5t149.5 -97.5t186 -36q74 0 131.5 17.5t99.5 41t66.5 46t34.5 33.5q43 43 43 84z" />
<glyph unicode="d" horiz-adv-x="1073" d="M952 92v1184q0 45 -23.5 79t-72.5 34q-41 0 -68.5 -30t-27.5 -83v-528q-60 71 -132.5 109t-166.5 38q-90 0 -166 -35t-131 -96.5t-86 -145t-31 -182.5q0 -100 32 -185t87 -147.5t132 -97.5t167 -35q92 0 167 39t128 111v-29q0 -53 27.5 -82.5t68.5 -29.5t68.5 29.5 t27.5 82.5zM770 436q0 -65 -19.5 -118.5t-55.5 -93.5t-84 -61.5t-105 -21.5t-105.5 22.5t-84 61.5t-55 92.5t-19.5 116.5q0 62 20.5 115t55 92t84 61.5t104.5 22.5q57 0 105 -21.5t84 -60.5t55.5 -92t19.5 -115z" />
<glyph unicode="e" horiz-adv-x="950" d="M903 457q0 63 -17.5 140t-64.5 143.5t-128 110.5t-208 44q-98 0 -179 -33t-138 -94t-89 -146t-32 -190q0 -102 32 -187t90 -145.5t140 -94.5t185 -34q73 0 130.5 17.5t99.5 41t66.5 46t34.5 33.5q41 41 41 79q0 15 -2 29t-18 31q-8 8 -21.5 14t-27.5 6q-35 0 -76 -35 q-6 -4 -23.5 -20t-47 -33.5t-68.5 -31t-84 -13.5q-119 0 -185.5 72t-68.5 196h592q14 0 29.5 2.5t27.5 14.5q8 8 9 17t1 20zM717 541h-465q22 98 80.5 152.5t150.5 54.5q95 0 156 -55.5t78 -151.5z" />
<glyph unicode="f" horiz-adv-x="717" d="M793 1233q0 37 -28 67.5t-70 52t-88 33t-83 11.5q-71 0 -126.5 -19.5t-102.5 -66.5q-80 -80 -80 -248v-195h-76q-47 0 -73.5 -24.5t-26.5 -59.5q0 -34 26.5 -60t73.5 -26h76v-606q0 -41 21.5 -76.5t74.5 -35.5q49 0 72 34.5t23 77.5v606h174q47 0 73.5 26t26.5 60 q0 35 -26.5 59.5t-73.5 24.5h-174v146q0 65 6 108t34.5 72t79.5 29q37 0 62.5 -9.5t45.5 -20.5l40 -21q20 -9 43 -9q37 0 56.5 22.5t19.5 47.5z" />
<glyph unicode="g" horiz-adv-x="1069" d="M948 53v723q0 53 -28.5 83t-67.5 30q-41 0 -68.5 -30t-27.5 -83v-28q-60 67 -124.5 107t-164.5 40q-90 0 -167 -35t-132 -97.5t-87 -148.5t-32 -186q0 -98 31 -180t84 -141.5t128 -93t165 -33.5q151 0 262 104q10 10 19.5 20.5t19.5 20.5v-109q0 -147 -65.5 -224 t-190.5 -77q-90 0 -144.5 26t-91.5 57.5t-63.5 57t-59.5 25.5q-32 0 -52.5 -22.5t-20.5 -53.5q0 -28 17 -56t52 -62q72 -72 167 -105t198 -33q114 0 204.5 41t149.5 117q27 33 44.5 68t27.5 74.5t14 89t4 114.5zM768 440q0 -65 -19.5 -118.5t-54.5 -93.5t-83 -61.5 t-105 -21.5t-105.5 21.5t-84 59.5t-55 91.5t-19.5 114.5q0 64 19.5 118t54 94t82.5 61.5t106 21.5q57 0 105 -21.5t84 -59.5t55.5 -91t19.5 -115z" />
<glyph unicode="h" horiz-adv-x="1001" d="M883 92v457q0 90 -12.5 141t-47.5 94q-39 52 -104.5 81.5t-140.5 29.5q-86 0 -153 -36t-114 -99v516q0 53 -27.5 83t-66.5 30t-67.5 -30t-28.5 -83v-1184q0 -53 28.5 -82.5t67.5 -29.5t66.5 29.5t27.5 82.5v352q0 150 50.5 219.5t154.5 69.5q49 0 91 -20.5t61 -55.5 q16 -28 20 -60t4 -93v-412q0 -53 29 -82.5t67 -29.5q39 0 67 29.5t28 82.5z" />
<glyph unicode="i" horiz-adv-x="475" d="M336 92v684q0 53 -27.5 83t-66.5 30t-68 -30t-29 -83v-684q0 -53 29 -82.5t68 -29.5t66.5 29.5t27.5 82.5zM367 1227q0 53 -37 90t-90 37q-54 0 -90.5 -37t-36.5 -90t36.5 -90t90.5 -37q53 0 90 37t37 90z" />
<glyph unicode="j" horiz-adv-x="475" d="M336 -307v1083q0 53 -27.5 83t-66.5 30t-68 -30t-29 -83v-1083q0 -39 22.5 -76t74.5 -37q51 0 72.5 36t21.5 77zM367 1227q0 53 -37 90t-90 37q-54 0 -90.5 -37t-36.5 -90t36.5 -90t90.5 -37q53 0 90 37t37 90z" />
<glyph unicode="k" horiz-adv-x="846" d="M813 147l-305 347l213 213q29 28 45 50.5t16 55.5q0 35 -25.5 55.5t-49.5 20.5q-31 0 -51.5 -14.5t-43.5 -36.5l-301 -301v739q0 53 -27.5 83t-66.5 30q-41 0 -68.5 -30t-27.5 -83v-1184q0 -53 27.5 -82.5t68.5 -29.5t67.5 29.5t26.5 82.5v230l54 53l305 -350 q16 -19 36.5 -32t47.5 -13q37 0 64.5 26.5t27.5 63.5q0 22 -9.5 41.5t-23.5 35.5z" />
<glyph unicode="l" horiz-adv-x="432" d="M311 92v1184q0 53 -27.5 83t-66.5 30t-67.5 -30t-28.5 -83v-1184q0 -53 28.5 -82.5t67.5 -29.5t66.5 29.5t27.5 82.5z" />
<glyph unicode="m" horiz-adv-x="1483" d="M1366 92v475q0 74 -10 121t-35 88q-35 58 -98.5 88.5t-137.5 30.5q-86 0 -151.5 -36t-122.5 -118q-88 154 -254 154q-74 0 -130 -26.5t-116 -92.5v6q0 54 -27.5 83.5t-66.5 29.5t-67.5 -29.5t-28.5 -83.5v-690q0 -53 28.5 -82.5t67.5 -29.5t66.5 29.5t27.5 82.5v369 q0 65 7.5 108t23.5 74q23 41 63.5 65.5t86.5 24.5q98 0 135 -88q12 -29 17 -63.5t5 -94.5v-395q0 -53 29 -82.5t67 -29.5q39 0 67 29.5t28 82.5v373q0 108 26 170q43 96 154 96q90 0 127 -72q16 -28 22.5 -62t6.5 -91v-414q0 -53 28.5 -82.5t67.5 -29.5t66.5 29.5t27.5 82.5 z" />
<glyph unicode="n" horiz-adv-x="1001" d="M883 92v457q0 90 -12.5 141t-47.5 94q-39 52 -104.5 81.5t-140.5 29.5q-86 0 -153 -36t-114 -99v16q0 53 -27.5 83t-66.5 30t-67.5 -30t-28.5 -83v-684q0 -53 28.5 -82.5t67.5 -29.5t66.5 29.5t27.5 82.5v352q0 150 50.5 219.5t154.5 69.5q49 0 91 -20.5t61 -55.5 q16 -28 20 -60t4 -93v-412q0 -53 29 -82.5t67 -29.5q39 0 67 29.5t28 82.5z" />
<glyph unicode="o" horiz-adv-x="1038" d="M993 434q0 98 -35.5 183t-99 147.5t-150.5 97.5t-188 35q-100 0 -187 -35t-150.5 -96t-99.5 -146t-36 -186q0 -100 36 -185t99.5 -146.5t150.5 -96.5t187 -35q101 0 188 35t150.5 97.5t99 147.5t35.5 183zM799 440q0 -63 -21.5 -116.5t-58.5 -93.5t-88 -62.5t-111 -22.5 q-59 0 -109.5 22.5t-87 61.5t-58 92.5t-21.5 114.5q0 62 21.5 115t58 92t87 60.5t109.5 21.5q60 0 111 -21.5t88 -60.5t58.5 -90t21.5 -113z" />
<glyph unicode="p" horiz-adv-x="1071" d="M1026 430q0 100 -31.5 185t-87 147.5t-132.5 97.5t-167 35q-92 0 -166.5 -39t-128.5 -111v31q0 53 -28.5 83t-67.5 30q-49 0 -72.5 -34t-23.5 -79v-1083q0 -53 26.5 -83t69.5 -30q41 0 68.5 30t27.5 83v426q60 -72 132.5 -110t166.5 -38q88 0 164 35t131.5 96.5t87 145.5 t31.5 182zM831 432q0 -61 -20 -114.5t-55 -92.5t-84 -61.5t-105 -22.5q-57 0 -105 21.5t-84 60.5t-55.5 92.5t-19.5 114.5q0 64 19.5 118t55.5 94t84 61.5t105 21.5q58 0 106 -22.5t83 -61.5t55 -92t20 -117z" />
<glyph unicode="q" horiz-adv-x="1073" d="M952 -307v1083q0 45 -23.5 79t-72.5 34q-41 0 -68.5 -30t-27.5 -83v-31q-53 72 -128 111t-167 39q-90 0 -167 -35t-132 -97.5t-87 -147.5t-32 -185q0 -98 31 -182t86 -145.5t131 -96.5t166 -35q94 0 166.5 38t132.5 110v-426q0 -53 27.5 -83t68.5 -30t68.5 30t27.5 83z M770 430q0 -61 -19.5 -114.5t-55.5 -92.5t-84 -60.5t-105 -21.5q-55 0 -104.5 22.5t-84 61.5t-55 92.5t-20.5 114.5q0 64 19.5 117t55 92t84 61.5t105.5 22.5t105 -21.5t84 -61.5t55.5 -94t19.5 -118z" />
<glyph unicode="r" horiz-adv-x="727" d="M727 780q0 54 -48 83.5t-110 29.5q-53 0 -94 -14.5t-73.5 -36t-55 -46t-35.5 -46.5v26q0 53 -27.5 83t-66.5 30t-67.5 -30t-28.5 -83v-684q0 -53 28.5 -82.5t67.5 -29.5t66.5 29.5t27.5 82.5v336q0 45 6.5 97.5t25.5 96.5t54 73.5t95 29.5q45 0 76.5 -13.5t68.5 -15.5h6 q42 0 63 25q21 27 21 59z" />
<glyph unicode="s" horiz-adv-x="737" d="M666 268q0 -67 -26 -121.5t-69 -93.5t-101 -60.5t-122 -21.5q-102 0 -160.5 33t-81.5 57q-16 19 -30.5 42.5t-14.5 52.5q0 26 16.5 46.5t47.5 20.5q29 0 47 -14l40 -31q21 -18 51 -32.5t83 -14.5q49 0 89 33t40 86q0 41 -28.5 67.5t-72.5 46t-94.5 38t-94.5 47 t-72.5 71.5t-28.5 111q0 61 22.5 109t61.5 83t90 53.5t111 18.5q69 0 130.5 -23.5t112.5 -74.5q29 -29 29 -70q0 -29 -22.5 -48.5t-51.5 -19.5q-28 0 -46.5 12.5t-39 28t-46 28.5t-64.5 13t-72 -24.5t-33 -65.5q0 -37 30 -60.5t74 -42t96 -37.5t96 -50t74 -76t30 -117z" />
<glyph unicode="t" horiz-adv-x="672" d="M668 784q0 35 -27 59.5t-74 24.5h-157v215q0 54 -28 83.5t-67 29.5t-67.5 -29.5t-28.5 -83.5v-215h-76q-47 0 -73.5 -24.5t-26.5 -59.5q0 -34 26.5 -60t73.5 -26h76v-606q0 -53 28.5 -82.5t67.5 -29.5t67 29.5t28 82.5v606h157q47 0 74 26t27 60z" />
<glyph unicode="u" horiz-adv-x="983" d="M870 334v448q0 54 -27.5 83.5t-66.5 29.5t-67.5 -29.5t-28.5 -83.5v-415q0 -117 -45 -170.5t-141 -53.5q-99 0 -144 53.5t-45 170.5v415q0 54 -27.5 83.5t-66.5 29.5t-67.5 -29.5t-28.5 -83.5v-448q0 -176 94 -264q51 -47 125 -73t160 -26q180 0 282 99q94 92 94 264z " />
<glyph unicode="v" horiz-adv-x="893" d="M856 805q0 -33 -12 -57l-344 -723q-11 -19 -21 -33.5t-33 -14.5q-22 0 -34.5 15.5t-20.5 32.5l-342 716q-6 13 -9 29t-3 31q0 39 28.5 66.5t69.5 27.5q35 0 57.5 -23.5t36.5 -52.5l220 -487l219 489q12 29 35.5 51.5t58.5 22.5q39 0 66.5 -25.5t27.5 -64.5z" />
<glyph unicode="w" horiz-adv-x="1452" d="M1008 324l-220 514q-8 18 -20 37.5t-41 19.5q-33 0 -43 -21l-18 -36l-220 -514l-217 495q-14 31 -39.5 53.5t-60.5 22.5q-41 0 -67.5 -28.5t-26.5 -67.5q0 -17 4 -29t10 -27l338 -718q10 -21 21.5 -34.5t33.5 -13.5q23 0 34 15.5t20 32.5l227 540l229 -542 q9 -17 19 -31.5t33 -14.5q20 0 32.5 14.5t20.5 31.5l346 722q14 29 14 56q0 39 -26.5 66.5t-65.5 27.5q-35 0 -58.5 -22.5t-35.5 -51.5z" />
<glyph unicode="x" horiz-adv-x="836" d="M836 68q0 20 -8.5 38.5t-20.5 34.5l-270 308l256 284q28 33 28 74q0 35 -25.5 61.5t-62.5 26.5q-26 0 -47.5 -14.5t-38.5 -32.5l-229 -260l-225 258q-17 18 -37.5 33.5t-46.5 15.5q-37 0 -65 -27.5t-28 -64.5q0 -43 29 -72l256 -282l-272 -308q-13 -16 -21 -34.5 t-8 -38.5q0 -37 25.5 -64t62.5 -27q27 0 49.5 15.5t38.5 34.5l242 284l241 -284q17 -21 39.5 -35.5t49.5 -14.5q36 0 62 27t26 64z" />
<glyph unicode="y" horiz-adv-x="952" d="M383 109l-186 -379q-4 -11 -11.5 -27t-7.5 -33q0 -39 25.5 -64.5t70.5 -25.5q33 0 55.5 19.5t39.5 50.5l532 1091q14 27 14 62q0 39 -25.5 65.5t-64.5 26.5q-32 0 -56 -20.5t-38 -49.5l-244 -506l-254 500q-12 25 -33.5 50.5t-64.5 25.5q-41 0 -69.5 -28.5t-28.5 -69.5 q0 -31 16 -60z" />
<glyph unicode="z" horiz-adv-x="864" d="M852 86q0 35 -25.5 59.5t-72.5 24.5h-441l467 598q27 33 27 57q0 29 -19.5 36t-42.5 7h-614q-47 0 -72.5 -24.5t-25.5 -59.5q0 -34 25.5 -59t72.5 -25h385l-467 -596q-20 -26 -27.5 -38.5t-7.5 -28.5q0 -27 23.5 -32t46.5 -5h670q47 0 72.5 25.5t25.5 60.5z" />
<glyph unicode="{" horiz-adv-x="494" d="M156 53q0 -106 51 -163.5t158 -57.5h77q44 0 63 15.5t19 46.5q0 30 -19 45.5t-63 15.5h-28q-41 0 -65.5 26t-24.5 72v324q0 84 -19 135.5t-47.5 81t-61 41t-59.5 14.5v4q27 3 59.5 15t61 41t47.5 81t19 136v323q0 47 24.5 73t65.5 26h28q44 0 63 15t19 46t-19 46t-63 15 h-77q-107 0 -158 -57t-51 -164v-250q0 -54 -1.5 -99t-10.5 -80t-29 -58.5t-56 -32.5q-46 -12 -68 -28t-22 -50t22 -49t68 -29q36 -11 56 -34t29 -57.5t10.5 -79.5t1.5 -99v-250z" />
<glyph unicode="|" horiz-adv-x="492" d="M342 -201v1479q0 53 -27.5 82t-66.5 29t-66.5 -29t-27.5 -82v-1479q0 -53 27.5 -81.5t66.5 -28.5t66.5 28.5t27.5 81.5z" />
<glyph unicode="}" horiz-adv-x="494" d="M338 1249q0 107 -51.5 164t-157.5 57h-78q-43 0 -62.5 -15t-19.5 -46t19.5 -46t62.5 -15h29q40 0 65 -26t25 -73v-323q0 -84 19 -136t47.5 -81t60.5 -41t59 -15v-4q-27 -3 -59 -14.5t-60.5 -41t-47.5 -81t-19 -135.5v-324q0 -46 -25 -72t-65 -26h-29q-43 0 -62.5 -15.5 t-19.5 -45.5q0 -31 19.5 -46.5t62.5 -15.5h78q106 0 157.5 57.5t51.5 163.5v250q0 54 1.5 99.5t10.5 80.5t28.5 58t55.5 32q47 13 68.5 28.5t21.5 49.5t-22 49t-68 29q-36 11 -55.5 34.5t-28.5 58t-10.5 79t-1.5 98.5v250z" />
<glyph unicode="~" d="M270 1221q-45 -45 -45 -109q0 -25 17.5 -44t50.5 -19q16 0 31.5 9t28 25.5t24.5 25.5t39 9q16 0 51 -10q53 -16 111.5 -35.5t117.5 -19.5q27 0 70 9t74 40q22 22 35.5 49t13.5 59q0 23 -15.5 44.5t-50.5 21.5q-22 0 -34.5 -10.5t-24.5 -26.5q-10 -14 -24.5 -24.5 t-41.5 -10.5q-16 0 -51 10l-113 38q-60 20 -120 20q-39 0 -77 -11.5t-67 -39.5z" />
<glyph d="M1102 260q0 35 -20.5 60.5t-63.5 25.5q-38 0 -64 -30l-59 -68q-33 -37 -82 -67.5t-135 -30.5q-62 0 -117 27.5t-99 71.5t-75 101.5t-43 116.5h313q95 0 95 80q0 37 -23.5 58.5t-71.5 21.5h-342q-2 14 -3 28.5t-1 28.5q0 16 1 27.5t3 27.5h342q95 0 95 80q0 37 -23.5 58.5 t-71.5 21.5h-313q14 62 46 117t76 98t97 68.5t115 25.5q67 0 114.5 -20.5t81.5 -54.5q19 -19 35.5 -40.5t32.5 -40t34.5 -29.5t43.5 -11q37 0 58.5 22.5t21.5 59.5q0 45 -30 90t-60 76q-64 63 -152 98t-180 35q-96 0 -181 -37t-155 -102.5t-119 -156.5t-76 -198h-49 q-47 0 -70.5 -21.5t-23.5 -58.5q0 -80 94 -80h27q-2 -16 -3 -27.5t-1 -27.5q0 -12 1 -27.5t3 -29.5h-27q-47 0 -70.5 -21.5t-23.5 -58.5q0 -80 94 -80h45q25 -111 75 -202t120 -157.5t156 -103.5t184 -37q94 0 182 35t152 98q35 35 62.5 79t27.5 81z" />
<glyph unicode="&#x20ac;" d="M1102 260q0 35 -20.5 60.5t-63.5 25.5q-38 0 -64 -30l-59 -68q-33 -37 -82 -67.5t-135 -30.5q-62 0 -117 27.5t-99 71.5t-75 101.5t-43 116.5h313q95 0 95 80q0 37 -23.5 58.5t-71.5 21.5h-342q-2 14 -3 28.5t-1 28.5q0 16 1 27.5t3 27.5h342q95 0 95 80q0 37 -23.5 58.5 t-71.5 21.5h-313q14 62 46 117t76 98t97 68.5t115 25.5q67 0 114.5 -20.5t81.5 -54.5q19 -19 35.5 -40.5t32.5 -40t34.5 -29.5t43.5 -11q37 0 58.5 22.5t21.5 59.5q0 45 -30 90t-60 76q-64 63 -152 98t-180 35q-96 0 -181 -37t-155 -102.5t-119 -156.5t-76 -198h-49 q-47 0 -70.5 -21.5t-23.5 -58.5q0 -80 94 -80h27q-2 -16 -3 -27.5t-1 -27.5q0 -12 1 -27.5t3 -29.5h-27q-47 0 -70.5 -21.5t-23.5 -58.5q0 -80 94 -80h45q25 -111 75 -202t120 -157.5t156 -103.5t184 -37q94 0 182 35t152 98q35 35 62.5 79t27.5 81z" />
<glyph unicode="&#xa1;" horiz-adv-x="594" d="M170 862q0 53 37 90t90 37t90 -37t37 -90t-37 -90t-90 -37t-90 37t-37 90zM195 -299v823q0 60 30.5 90.5t71.5 30.5t71.5 -30.5t30.5 -90.5v-823q0 -59 -30.5 -90t-71.5 -31t-71.5 31t-30.5 90z" />
<glyph unicode="&#xa2;" horiz-adv-x="1024" />
<glyph unicode="&#xa3;" d="M1067 199q0 26 -18.5 47.5t-55.5 21.5q-29 0 -45 -18l-34 -40q-18 -22 -45 -40t-78 -18q-33 0 -73 10t-80 24l-78 28q-38 13 -66 19q28 48 41.5 88.5t13.5 88.5q0 34 -8.5 69t-18.5 68h160q94 0 94 80q0 37 -23.5 58.5t-70.5 21.5h-219q-35 53 -70 116.5t-35 149.5 q0 51 19.5 94t53.5 75t79 50t94 18q60 0 99.5 -16t72.5 -49q28 -27 44 -63l31 -67q15 -32 36.5 -53.5t58.5 -21.5q41 0 62.5 27.5t21.5 68.5q0 56 -28.5 122.5t-79.5 117.5q-62 61 -146 89t-170 28q-92 0 -174 -31t-142.5 -86t-95 -134t-34.5 -173q0 -78 26.5 -138.5 t69.5 -123.5h-92q-47 0 -70.5 -21.5t-23.5 -58.5q0 -80 94 -80h164q14 -29 23 -69t9 -75q0 -53 -25.5 -87.5t-53.5 -61.5q-58 -4 -94.5 -20.5t-65.5 -45.5q-4 -4 -14.5 -16t-21.5 -32.5t-20.5 -46t-9.5 -54.5t20.5 -51.5t57.5 -22.5q29 1 45 19l35 40q18 22 45 40t78 18 q57 0 111.5 -17.5t108.5 -37t110.5 -37t117.5 -17.5q43 0 104.5 14.5t104.5 57.5l19 19q12 12 24.5 31.5t21.5 46t9 57.5z" />
<glyph unicode="&#xa4;" d="M1102 260q0 35 -20.5 60.5t-63.5 25.5q-38 0 -64 -30l-59 -68q-33 -37 -82 -67.5t-135 -30.5q-62 0 -117 27.5t-99 71.5t-75 101.5t-43 116.5h313q95 0 95 80q0 37 -23.5 58.5t-71.5 21.5h-342q-2 14 -3 28.5t-1 28.5q0 16 1 27.5t3 27.5h342q95 0 95 80q0 37 -23.5 58.5 t-71.5 21.5h-313q14 62 46 117t76 98t97 68.5t115 25.5q67 0 114.5 -20.5t81.5 -54.5q19 -19 35.5 -40.5t32.5 -40t34.5 -29.5t43.5 -11q37 0 58.5 22.5t21.5 59.5q0 45 -30 90t-60 76q-64 63 -152 98t-180 35q-96 0 -181 -37t-155 -102.5t-119 -156.5t-76 -198h-49 q-47 0 -70.5 -21.5t-23.5 -58.5q0 -80 94 -80h27q-2 -16 -3 -27.5t-1 -27.5q0 -12 1 -27.5t3 -29.5h-27q-47 0 -70.5 -21.5t-23.5 -58.5q0 -80 94 -80h45q25 -111 75 -202t120 -157.5t156 -103.5t184 -37q94 0 182 35t152 98q35 35 62.5 79t27.5 81z" />
<glyph unicode="&#xa5;" d="M1016 1303q0 36 -27.5 61t-64.5 25q-35 0 -54.5 -17.5t-33.5 -42.5l-279 -495l-270 493q-33 62 -92 62q-39 0 -67 -26t-28 -65q0 -32 19 -63l221 -383h-115q-86 0 -86 -72q0 -71 86 -71h183l51 -93h-234q-86 0 -86 -71q0 -72 86 -72h232v-383q0 -41 22.5 -75.5 t69.5 -34.5t69.5 34.5t22.5 75.5v383h236q86 0 86 72q0 71 -86 71h-240l55 93h185q86 0 86 71q0 72 -86 72h-107l229 389q17 29 17 62z" />
<glyph unicode="&#xa6;" horiz-adv-x="1024" />
<glyph unicode="&#xa7;" d="M956 668q0 102 -41 166.5t-101 106.5t-132 69.5t-132.5 56.5t-101 65.5t-40.5 96.5q0 37 15 67.5t40.5 51t59.5 32t69 11.5q51 0 85 -13q33 -14 59 -32l46 -30q20 -13 41 -13q35 0 55.5 19t20.5 54q0 23 -11 43.5t-30 38.5q-47 47 -120.5 72.5t-147.5 25.5t-140.5 -23.5 t-117.5 -66.5t-81 -105.5t-30 -139.5q0 -109 54.5 -176.5t132.5 -108.5q-86 -35 -142.5 -114t-56.5 -193q0 -80 35 -136.5t89 -97.5q55 -41 119 -69l123 -54q74 -30 126.5 -78.5t52.5 -134.5q0 -88 -60.5 -148.5t-148.5 -60.5q-82 0 -129 28t-77 59.5t-52.5 59.5t-55.5 28 q-34 0 -54.5 -19.5t-20.5 -54.5q0 -37 25.5 -77t56.5 -71q57 -57 136 -87.5t163 -30.5t157.5 28.5t129 80.5t88 124t32.5 158q0 104 -42 168.5t-105 107.5q71 54 115 134.5t44 181.5zM772 631q0 -60 -31.5 -114t-85.5 -89q-47 14 -93 29.5t-85 39t-62.5 59.5t-23.5 91 q0 66 41 130.5t129 99.5q27 -11 64 -29.5t69.5 -48t55 -70.5t22.5 -98z" />
<glyph unicode="&#xa8;" horiz-adv-x="926" d="M408 1171q0 54 -37 90.5t-90 36.5q-54 0 -90.5 -36.5t-36.5 -90.5q0 -53 36.5 -90t90.5 -37q53 0 90 37t37 90zM770 1171q0 54 -37 90.5t-90 36.5t-90 -36.5t-37 -90.5q0 -53 37 -90t90 -37t90 37t37 90z" />
<glyph unicode="&#xa9;" horiz-adv-x="1495" d="M1454 686q0 148 -55.5 276t-151.5 224t-224 151.5t-275 55.5q-148 0 -276 -55.5t-224 -151.5t-151.5 -224t-55.5 -276q0 -147 55.5 -275t151.5 -224.5t224 -151.5t276 -55q147 0 275 55t224 151.5t151.5 224.5t55.5 275zM1290 686q0 -113 -42 -212t-115.5 -173t-173 -116 t-211.5 -42q-113 0 -212.5 42t-173 116t-115.5 173t-42 212t42 212t115.5 173t173 116t212.5 42q112 0 211.5 -42t173 -116t115.5 -173t42 -212zM1083 481q0 13 -1 24t-15 25q-6 7 -18.5 13t-24.5 6q-18 0 -31.5 -6t-31.5 -23q-5 -4 -20 -17.5t-39.5 -28.5t-56.5 -26.5 t-71 -11.5q-104 0 -168.5 71t-64.5 177q0 117 60.5 185.5t164.5 68.5q39 0 70.5 -11.5t56.5 -26.5t40 -28.5t19 -17.5q35 -29 64 -29q12 0 23.5 6.5t17.5 12.5q14 14 16 25.5t2 23.5q0 33 -35 68q-8 8 -29.5 27.5t-56 39t-83 33.5t-109.5 14q-82 0 -153.5 -29.5t-124 -83 t-82 -125t-29.5 -153.5t30.5 -151.5t84 -122t126 -82t156.5 -29.5q61 0 109.5 14.5t82.5 34.5q34 18 56 38l31 28q34 35 34 67z" />
<glyph unicode="&#xaa;" horiz-adv-x="1042" />
<glyph unicode="&#xab;" horiz-adv-x="889" d="M463 209q0 22 -10.5 36.5t-14.5 22.5l-227 305l227 306q4 8 14.5 22t10.5 37q0 27 -16.5 45t-45.5 18q-43 0 -71 -38l-254 -336q-21 -27 -21 -54q0 -26 21 -53l254 -336q28 -39 71 -39q29 0 45.5 18.5t16.5 45.5zM776 209q0 22 -10 36.5t-14 22.5l-228 305l228 306 q4 8 14 22t10 37q0 27 -16.5 45t-44.5 18q-43 0 -72 -38l-254 -336q-20 -27 -20 -54q0 -26 20 -53l254 -336q29 -39 72 -39q28 0 44.5 18.5t16.5 45.5z" />
<glyph unicode="&#xac;" horiz-adv-x="11747" d="M11645 66v1202q0 59 -31 90t-71 31q-41 0 -72 -31t-31 -90v-871l-758 938l-30 33q-20 22 -62 21q-28 0 -44.5 -12.5t-24 -30t-9.5 -34t-2 -24.5v-1188q0 -59 31 -89.5t72 -30.5t71.5 30.5t30.5 89.5v867l717 -891q45 -56 70.5 -76t60.5 -20q39 0 60.5 25.5t21.5 60.5z M10207 705q0 32 -13 55.5t-33.5 42t-46.5 33t-48 30.5l-752 500q-32 23 -67 23t-61.5 -28t-26.5 -63q0 -34 21.5 -54.5t35.5 -31.5l754 -505l-758 -547q-35 -25 -44 -48.5t-9 -41.5q0 -37 26.5 -63.5t63.5 -26.5q39 0 76 26l743 537l45 31q25 16 45.5 35.5t34.5 42t14 53.5z M8819 100v1168q0 59 -31 90t-72 31t-71.5 -31t-30.5 -90v-455h-639v455q0 59 -31 90t-71 31q-41 0 -72 -31t-31 -90v-1168q0 -63 31 -91.5t72 -28.5q45 0 73.5 30.5t28.5 89.5v535h639v-535q0 -63 29.5 -91.5t72.5 -28.5q45 0 74 30.5t29 89.5zM7449 1276q0 37 -29 64.5 t-82 27.5h-776q-53 0 -82 -27.5t-29 -64.5t29 -64.5t82 -27.5h284v-1084q0 -59 31 -89.5t72 -30.5t71.5 30.5t30.5 89.5v1084h287q53 0 82 27.5t29 64.5zM5741 92q0 37 -29 64.5t-82 27.5h-465v445h449q53 0 81.5 27.5t28.5 64.5t-28.5 64.5t-81.5 27.5h-449v371h465 q53 0 82 27.5t29 64.5t-29 64.5t-82 27.5h-526q-43 0 -68 -4t-47 -27q-10 -10 -16.5 -20t-9.5 -23.5t-3 -33.5v-54v-1065q0 -55 10.5 -77.5t20.5 -32.5q23 -23 47.5 -27t67.5 -4h524q53 0 82 27.5t29 64.5zM3310 680q0 149 -55.5 279.5t-153 226.5t-227.5 151.5t-277 55.5 q-150 0 -280 -55.5t-227 -153t-152.5 -227.5t-55.5 -279q0 -150 55.5 -279t152.5 -225t227 -151.5t280 -55.5q149 0 279 55.5t226.5 151.5t152 226t55.5 280zM3103 682q0 -109 -40 -203t-108.5 -163.5t-161 -110.5t-196.5 -41q-105 0 -197 41t-161.5 110.5t-109.5 163.5 t-40 199q0 110 40 204.5t108.5 164t160.5 109.5t199 40q104 0 196.5 -40t161 -108.5t108.5 -162.5t40 -203zM4549 70q0 26 -10.5 46.5t-24.5 43.5l-281 448q127 31 206 122t79 245q0 94 -36 175t-101 130q-62 47 -146 67.5t-202 20.5h-216q-49 0 -70.5 -6t-41.5 -25 q-17 -16 -24 -40.5t-7 -90.5v-1106q0 -59 31 -89.5t72 -30.5q47 0 74.5 32.5t27.5 87.5v1094h151q68 0 114 -12.5t81 -34.5q41 -29 64.5 -77t23.5 -105q0 -56 -16.5 -92.5t-42.5 -63.5q-29 -29 -58.5 -41t-57.5 -20.5t-54.5 -18.5t-46.5 -31q-7 -6 -17 -22.5t-10 -44.5 q0 -31 18 -61l45 -74l285 -463q33 -56 90 -56q43 0 72 27t29 66zM1331 1391q35 0 53.5 -25t24.5 -57l217 -1182q4 -14 4 -25v-20q0 -41 -25.5 -71.5t-70.5 -30.5q-49 0 -72.5 32.5t-31.5 73.5l-162 852l-303 -709q-17 -39 -39.5 -73.5t-73.5 -34.5q-25 0 -42 9t-29.5 24.5 t-21.5 35.5l-18 39l-311 709l-131 -852q-6 -41 -28.5 -73.5t-73.5 -32.5q-47 0 -71 30.5t-24 71.5q0 16 1 24l3 21l197 1184q4 32 22.5 56t53.5 24q39 0 54.5 -22.5t29.5 -53.5l395 -897l389 895q15 30 31 54t53 24z" />
<glyph unicode="&#xad;" d="M811 705q0 36 -23.5 57.5t-70.5 21.5h-322q-47 0 -70.5 -21.5t-23.5 -57.5q0 -37 23.5 -58.5t70.5 -21.5h322q47 0 70.5 21.5t23.5 58.5z" />
<glyph unicode="&#xae;" horiz-adv-x="799" d="M682 1075q0 68 -25.5 126.5t-68.5 101.5t-101.5 68.5t-126.5 25.5q-67 0 -125.5 -25.5t-101.5 -68.5t-68.5 -101.5t-25.5 -126.5q0 -67 25.5 -125.5t68.5 -101.5t101.5 -68.5t125.5 -25.5q68 0 126.5 25.5t101.5 68.5t68.5 101.5t25.5 125.5zM598 1075q0 -49 -18.5 -92 t-51 -76t-75.5 -51t-93 -18q-49 0 -92 18t-75.5 51t-51 76t-18.5 92t18.5 92t51 76t75.5 51.5t92 18.5q50 0 93 -18.5t75.5 -51.5t51 -76t18.5 -92zM479 954q0 11 -4 17t-20 26l-54 62q35 8 54.5 29.5t19.5 54.5q0 45 -37 71q-16 11 -37.5 15t-50.5 4h-53h-21q-8 0 -14 -6 q-8 -6 -8 -35v-231q0 -17 10 -26t25 -9q35 0 35 35v90h8l82 -109q12 -16 30 -16q17 0 26 9t9 19zM406 1143q0 -41 -56 -41h-26v80h26q17 0 26 -2t15 -6q15 -9 15 -31z" />
<glyph unicode="&#xaf;" horiz-adv-x="926" d="M795 1227q0 33 -23.5 54.5t-66.5 21.5h-484q-43 0 -66.5 -21.5t-23.5 -54.5t23.5 -54.5t66.5 -21.5h484q43 0 66.5 21.5t23.5 54.5z" />
<glyph unicode="&#x2c9;" horiz-adv-x="926" d="M795 1227q0 33 -23.5 54.5t-66.5 21.5h-484q-43 0 -66.5 -21.5t-23.5 -54.5t23.5 -54.5t66.5 -21.5h484q43 0 66.5 21.5t23.5 54.5z" />
<glyph unicode="&#xb0;" d="M866 1092q0 61 -23.5 116.5t-65.5 96.5t-98 64.5t-120 23.5q-65 0 -121.5 -23.5t-98.5 -64.5t-66.5 -96.5t-24.5 -116.5q0 -62 24.5 -116t66.5 -94t98.5 -63.5t121.5 -23.5q64 0 120 23.5t98 63.5t65.5 94t23.5 116zM729 1092q0 -78 -49 -128.5t-123 -50.5t-123 52.5 t-49 130.5t49 128t123 50t123 -52.5t49 -129.5z" />
<glyph unicode="&#xb1;" horiz-adv-x="1024" />
<glyph unicode="&#xb2;" horiz-adv-x="1024" />
<glyph unicode="&#xb3;" horiz-adv-x="1024" />
<glyph unicode="&#xb4;" horiz-adv-x="926" d="M330 987q16 0 34.5 8.5t32.5 18.5l230 184q16 14 30.5 31.5t14.5 46.5q0 33 -22.5 54.5t-53.5 21.5q-18 0 -35.5 -8.5t-32.5 -18.5l-202 -162l-46 -39q-27 -24 -26 -61q0 -33 22.5 -54.5t53.5 -21.5z" />
<glyph unicode="&#xb5;" horiz-adv-x="11747" d="M11645 66v1202q0 59 -31 90t-71 31q-41 0 -72 -31t-31 -90v-871l-758 938l-30 33q-20 22 -62 21q-28 0 -44.5 -12.5t-24 -30t-9.5 -34t-2 -24.5v-1188q0 -59 31 -89.5t72 -30.5t71.5 30.5t30.5 89.5v867l717 -891q45 -56 70.5 -76t60.5 -20q39 0 60.5 25.5t21.5 60.5z M10207 705q0 32 -13 55.5t-33.5 42t-46.5 33t-48 30.5l-752 500q-32 23 -67 23t-61.5 -28t-26.5 -63q0 -34 21.5 -54.5t35.5 -31.5l754 -505l-758 -547q-35 -25 -44 -48.5t-9 -41.5q0 -37 26.5 -63.5t63.5 -26.5q39 0 76 26l743 537l45 31q25 16 45.5 35.5t34.5 42t14 53.5z M8819 100v1168q0 59 -31 90t-72 31t-71.5 -31t-30.5 -90v-455h-639v455q0 59 -31 90t-71 31q-41 0 -72 -31t-31 -90v-1168q0 -63 31 -91.5t72 -28.5q45 0 73.5 30.5t28.5 89.5v535h639v-535q0 -63 29.5 -91.5t72.5 -28.5q45 0 74 30.5t29 89.5zM7449 1276q0 37 -29 64.5 t-82 27.5h-776q-53 0 -82 -27.5t-29 -64.5t29 -64.5t82 -27.5h284v-1084q0 -59 31 -89.5t72 -30.5t71.5 30.5t30.5 89.5v1084h287q53 0 82 27.5t29 64.5zM5741 92q0 37 -29 64.5t-82 27.5h-465v445h449q53 0 81.5 27.5t28.5 64.5t-28.5 64.5t-81.5 27.5h-449v371h465 q53 0 82 27.5t29 64.5t-29 64.5t-82 27.5h-526q-43 0 -68 -4t-47 -27q-10 -10 -16.5 -20t-9.5 -23.5t-3 -33.5v-54v-1065q0 -55 10.5 -77.5t20.5 -32.5q23 -23 47.5 -27t67.5 -4h524q53 0 82 27.5t29 64.5zM3310 680q0 149 -55.5 279.5t-153 226.5t-227.5 151.5t-277 55.5 q-150 0 -280 -55.5t-227 -153t-152.5 -227.5t-55.5 -279q0 -150 55.5 -279t152.5 -225t227 -151.5t280 -55.5q149 0 279 55.5t226.5 151.5t152 226t55.5 280zM3103 682q0 -109 -40 -203t-108.5 -163.5t-161 -110.5t-196.5 -41q-105 0 -197 41t-161.5 110.5t-109.5 163.5 t-40 199q0 110 40 204.5t108.5 164t160.5 109.5t199 40q104 0 196.5 -40t161 -108.5t108.5 -162.5t40 -203zM4549 70q0 26 -10.5 46.5t-24.5 43.5l-281 448q127 31 206 122t79 245q0 94 -36 175t-101 130q-62 47 -146 67.5t-202 20.5h-216q-49 0 -70.5 -6t-41.5 -25 q-17 -16 -24 -40.5t-7 -90.5v-1106q0 -59 31 -89.5t72 -30.5q47 0 74.5 32.5t27.5 87.5v1094h151q68 0 114 -12.5t81 -34.5q41 -29 64.5 -77t23.5 -105q0 -56 -16.5 -92.5t-42.5 -63.5q-29 -29 -58.5 -41t-57.5 -20.5t-54.5 -18.5t-46.5 -31q-7 -6 -17 -22.5t-10 -44.5 q0 -31 18 -61l45 -74l285 -463q33 -56 90 -56q43 0 72 27t29 66zM1331 1391q35 0 53.5 -25t24.5 -57l217 -1182q4 -14 4 -25v-20q0 -41 -25.5 -71.5t-70.5 -30.5q-49 0 -72.5 32.5t-31.5 73.5l-162 852l-303 -709q-17 -39 -39.5 -73.5t-73.5 -34.5q-25 0 -42 9t-29.5 24.5 t-21.5 35.5l-18 39l-311 709l-131 -852q-6 -41 -28.5 -73.5t-73.5 -32.5q-47 0 -71 30.5t-24 71.5q0 16 1 24l3 21l197 1184q4 32 22.5 56t53.5 24q39 0 54.5 -22.5t29.5 -53.5l395 -897l389 895q15 30 31 54t53 24z" />
<glyph unicode="&#x3bc;" horiz-adv-x="11747" d="M11645 66v1202q0 59 -31 90t-71 31q-41 0 -72 -31t-31 -90v-871l-758 938l-30 33q-20 22 -62 21q-28 0 -44.5 -12.5t-24 -30t-9.5 -34t-2 -24.5v-1188q0 -59 31 -89.5t72 -30.5t71.5 30.5t30.5 89.5v867l717 -891q45 -56 70.5 -76t60.5 -20q39 0 60.5 25.5t21.5 60.5z M10207 705q0 32 -13 55.5t-33.5 42t-46.5 33t-48 30.5l-752 500q-32 23 -67 23t-61.5 -28t-26.5 -63q0 -34 21.5 -54.5t35.5 -31.5l754 -505l-758 -547q-35 -25 -44 -48.5t-9 -41.5q0 -37 26.5 -63.5t63.5 -26.5q39 0 76 26l743 537l45 31q25 16 45.5 35.5t34.5 42t14 53.5z M8819 100v1168q0 59 -31 90t-72 31t-71.5 -31t-30.5 -90v-455h-639v455q0 59 -31 90t-71 31q-41 0 -72 -31t-31 -90v-1168q0 -63 31 -91.5t72 -28.5q45 0 73.5 30.5t28.5 89.5v535h639v-535q0 -63 29.5 -91.5t72.5 -28.5q45 0 74 30.5t29 89.5zM7449 1276q0 37 -29 64.5 t-82 27.5h-776q-53 0 -82 -27.5t-29 -64.5t29 -64.5t82 -27.5h284v-1084q0 -59 31 -89.5t72 -30.5t71.5 30.5t30.5 89.5v1084h287q53 0 82 27.5t29 64.5zM5741 92q0 37 -29 64.5t-82 27.5h-465v445h449q53 0 81.5 27.5t28.5 64.5t-28.5 64.5t-81.5 27.5h-449v371h465 q53 0 82 27.5t29 64.5t-29 64.5t-82 27.5h-526q-43 0 -68 -4t-47 -27q-10 -10 -16.5 -20t-9.5 -23.5t-3 -33.5v-54v-1065q0 -55 10.5 -77.5t20.5 -32.5q23 -23 47.5 -27t67.5 -4h524q53 0 82 27.5t29 64.5zM3310 680q0 149 -55.5 279.5t-153 226.5t-227.5 151.5t-277 55.5 q-150 0 -280 -55.5t-227 -153t-152.5 -227.5t-55.5 -279q0 -150 55.5 -279t152.5 -225t227 -151.5t280 -55.5q149 0 279 55.5t226.5 151.5t152 226t55.5 280zM3103 682q0 -109 -40 -203t-108.5 -163.5t-161 -110.5t-196.5 -41q-105 0 -197 41t-161.5 110.5t-109.5 163.5 t-40 199q0 110 40 204.5t108.5 164t160.5 109.5t199 40q104 0 196.5 -40t161 -108.5t108.5 -162.5t40 -203zM4549 70q0 26 -10.5 46.5t-24.5 43.5l-281 448q127 31 206 122t79 245q0 94 -36 175t-101 130q-62 47 -146 67.5t-202 20.5h-216q-49 0 -70.5 -6t-41.5 -25 q-17 -16 -24 -40.5t-7 -90.5v-1106q0 -59 31 -89.5t72 -30.5q47 0 74.5 32.5t27.5 87.5v1094h151q68 0 114 -12.5t81 -34.5q41 -29 64.5 -77t23.5 -105q0 -56 -16.5 -92.5t-42.5 -63.5q-29 -29 -58.5 -41t-57.5 -20.5t-54.5 -18.5t-46.5 -31q-7 -6 -17 -22.5t-10 -44.5 q0 -31 18 -61l45 -74l285 -463q33 -56 90 -56q43 0 72 27t29 66zM1331 1391q35 0 53.5 -25t24.5 -57l217 -1182q4 -14 4 -25v-20q0 -41 -25.5 -71.5t-70.5 -30.5q-49 0 -72.5 32.5t-31.5 73.5l-162 852l-303 -709q-17 -39 -39.5 -73.5t-73.5 -34.5q-25 0 -42 9t-29.5 24.5 t-21.5 35.5l-18 39l-311 709l-131 -852q-6 -41 -28.5 -73.5t-73.5 -32.5q-47 0 -71 30.5t-24 71.5q0 16 1 24l3 21l197 1184q4 32 22.5 56t53.5 24q39 0 54.5 -22.5t29.5 -53.5l395 -897l389 895q15 30 31 54t53 24z" />
<glyph unicode="&#xb6;" d="M786 -94v1286h-122v-1286q0 -60 -31 -90.5t-72 -30.5t-71.5 30.5t-30.5 90.5v647q-86 0 -158 27.5t-124 80t-81.5 128t-29.5 174.5q0 98 33.5 177t93.5 128q65 53 151 76.5t215 23.5h289q43 0 66.5 -4t46.5 -27q16 -16 23 -40.5t7 -90.5v-1300q0 -60 -30.5 -90.5 t-71.5 -30.5t-72 30.5t-31 90.5z" />
<glyph unicode="&#xb7;" horiz-adv-x="557" d="M281 879q-54 0 -90.5 -37t-36.5 -90q0 -54 36.5 -90.5t90.5 -36.5q53 0 90 36.5t37 90.5q0 53 -37 90t-90 37z" />
<glyph unicode="&#x22c5;" horiz-adv-x="557" d="M281 879q-54 0 -90.5 -37t-36.5 -90q0 -54 36.5 -90.5t90.5 -36.5q53 0 90 36.5t37 90.5q0 53 -37 90t-90 37z" />
<glyph unicode="&#x2219;" horiz-adv-x="557" d="M281 879q-54 0 -90.5 -37t-36.5 -90q0 -54 36.5 -90.5t90.5 -36.5q53 0 90 36.5t37 90.5q0 53 -37 90t-90 37z" />
<glyph unicode="&#xb8;" horiz-adv-x="926" d="M520 -88v88h-119v-121q0 -24 5.5 -37.5t15.5 -18.5t24.5 -6t30.5 -3q23 -4 39 -20.5t16 -41.5q0 -31 -18 -49q-4 -4 -16.5 -10t-32.5 -6q-31 0 -48.5 14t-29.5 31.5t-24.5 32t-32.5 14.5q-21 0 -34 -15.5t-13 -37.5q0 -25 15 -51.5t32 -43.5q26 -26 64 -38.5t73 -12.5 q31 0 62.5 10.5t57 32t42 53t16.5 72.5q0 66 -32.5 107t-92.5 57z" />
<glyph unicode="&#xb9;" horiz-adv-x="1102" d="M985 92v684q0 53 -27.5 83t-66.5 30t-67.5 -30t-28.5 -83v-684q0 -53 28.5 -82.5t67.5 -29.5t66.5 29.5t27.5 82.5zM793 1233q0 37 -28 67.5t-70 52t-88 33t-83 11.5q-71 0 -126.5 -19.5t-102.5 -66.5q-80 -80 -80 -248v-195h-76q-47 0 -73.5 -24.5t-26.5 -59.5 q0 -34 26.5 -60t73.5 -26h76v-606q0 -41 21.5 -76.5t74.5 -35.5q49 0 72 34.5t23 77.5v606h174q47 0 73.5 26t26.5 60q0 35 -26.5 59.5t-73.5 24.5h-174v146q0 65 6 108t34.5 72t79.5 29q37 0 62.5 -9.5t45.5 -20.5l40 -21q20 -10 43 -9q37 0 56.5 22.5t19.5 47.5z" />
<glyph unicode="&#xba;" horiz-adv-x="1102" d="M985 92v1184q0 53 -27.5 83t-66.5 30t-67.5 -30t-28.5 -83v-1184q0 -53 28.5 -82.5t67.5 -29.5t66.5 29.5t27.5 82.5zM727 1257q-1 31 -15 47l-24 25q-20 21 -78.5 42.5t-120.5 21.5q-55 0 -104 -17.5t-96 -64.5q-80 -80 -80 -248v-195h-70q-47 0 -73.5 -24.5 t-26.5 -59.5q0 -34 26.5 -60t73.5 -26h70v-606q0 -41 21.5 -76.5t74.5 -35.5q49 0 71.5 34.5t22.5 77.5v606h181q47 0 73.5 26t26.5 60q0 35 -26.5 59.5t-73.5 24.5h-181v146q0 65 4.5 109t32.5 73q17 16 34 20.5t32 4.5q18 0 35.5 -6.5t34 -13.5t34 -13t37.5 -6 q41 0 62.5 23.5t21.5 51.5z" />
<glyph unicode="&#xbb;" horiz-adv-x="889" d="M426 209q0 22 10 36.5t15 22.5l227 305l-227 306q-5 8 -15 22t-10 37q0 27 16.5 45t44.5 18q43 0 72 -38l254 -336q21 -27 21 -54q0 -26 -21 -53l-254 -336q-29 -39 -72 -39q-28 0 -44.5 18.5t-16.5 45.5zM113 209q0 22 10 36.5t14 22.5l228 305l-228 306q-4 8 -14 22 t-10 37q0 27 16 45t45 18q43 0 72 -38l254 -336q20 -27 20 -54q0 -26 -20 -53l-254 -336q-29 -39 -72 -39q-29 0 -45 18.5t-16 45.5z" />
<glyph unicode="&#xbc;" horiz-adv-x="1024" />
<glyph unicode="&#xbd;" horiz-adv-x="10355" />
<glyph unicode="&#xbe;" horiz-adv-x="1024" />
<glyph unicode="&#xbf;" d="M684 287v237q0 60 -30.5 90.5t-71.5 30.5t-72 -30.5t-31 -90.5v-211q-69 -8 -123.5 -33.5t-91.5 -62.5q-57 -57 -79.5 -124.5t-22.5 -139.5q0 -98 34.5 -170t91 -118t128 -67.5t147.5 -21.5q78 0 154 25.5t131 83.5q39 39 68.5 97t29.5 116q0 39 -20.5 66.5t-61.5 27.5 q-33 0 -50 -18.5t-29.5 -46t-24.5 -60.5t-33.5 -60.5t-58.5 -46t-99 -18.5q-34 0 -71 12.5t-67 39t-48 66.5t-18 95q0 47 16 87t51 64q27 19 57.5 29t61.5 18.5t58.5 18.5t49.5 33q17 16 21 37.5t4 44.5zM457 862q0 53 36.5 90t90.5 37q53 0 90 -37t37 -90t-37 -90t-90 -37 q-54 0 -90.5 37t-36.5 90z" />
<glyph unicode="&#xc0;" horiz-adv-x="1194" d="M1196 76q0 14 -4 30.5t-8 26.5l-475 1165q-15 35 -36.5 63t-66.5 28q-47 0 -67.5 -29t-34.5 -64l-494 -1163q-4 -12 -8 -27.5t-4 -29.5q0 -41 27.5 -70t68.5 -29t65.5 26t37.5 54l114 277h574l112 -277q13 -28 37.5 -54t65.5 -26t68.5 29t27.5 70zM817 510h-438l221 539z M760 1431q-16 0 -34.5 8.5t-33.5 18.5l-229 184q-16 14 -30.5 31.5t-14.5 46.5q0 33 22.5 54.5t53.5 21.5q18 0 35.5 -8.5t31.5 -18.5l203 -162l45 -39q27 -24 27 -61q0 -33 -22.5 -54.5t-53.5 -21.5z" />
<glyph unicode="&#xc1;" horiz-adv-x="1194" d="M1196 76q0 14 -4 30.5t-8 26.5l-475 1165q-15 35 -36.5 63t-66.5 28q-47 0 -67.5 -29t-34.5 -64l-494 -1163q-4 -12 -8 -27.5t-4 -29.5q0 -41 27.5 -70t68.5 -29t65.5 26t37.5 54l114 277h574l112 -277q13 -28 37.5 -54t65.5 -26t68.5 29t27.5 70zM817 510h-438l221 539z M498 1431q16 0 34.5 8.5t32.5 18.5l230 184q16 14 30.5 31.5t14.5 46.5q0 33 -22.5 54.5t-53.5 21.5q-18 0 -35.5 -8.5t-32.5 -18.5l-202 -162l-46 -39q-27 -24 -26 -61q0 -33 22.5 -54.5t53.5 -21.5z" />
<glyph unicode="&#xc2;" horiz-adv-x="1194" d="M1196 76q0 14 -4 30.5t-8 26.5l-475 1165q-15 35 -36.5 63t-66.5 28q-47 0 -67.5 -29t-34.5 -64l-494 -1163q-4 -12 -8 -27.5t-4 -29.5q0 -41 27.5 -70t68.5 -29t65.5 26t37.5 54l114 277h574l112 -277q13 -28 37.5 -54t65.5 -26t68.5 29t27.5 70zM817 510h-438l221 539z M608 1615l196 -157q15 -10 33.5 -18.5t34.5 -8.5q31 0 53.5 21.5t22.5 54.5q-1 37 -27 61l-45 39l-203 162q-12 10 -30.5 18.5t-34.5 8.5q-21 0 -35 -7.5t-31 -19.5l-202 -162l-45 -39q-26 -24 -27 -61q0 -33 22.5 -54.5t53.5 -21.5q16 0 34.5 8.5t32.5 18.5z" />
<glyph unicode="&#xc3;" horiz-adv-x="1194" d="M1196 76q0 14 -4 30.5t-8 26.5l-475 1165q-15 35 -36.5 63t-66.5 28q-47 0 -67.5 -29t-34.5 -64l-494 -1163q-4 -12 -8 -27.5t-4 -29.5q0 -41 27.5 -70t68.5 -29t65.5 26t37.5 54l114 277h574l112 -277q13 -28 37.5 -54t65.5 -26t68.5 29t27.5 70zM817 510h-438l221 539z M336 1667q-22 -23 -35.5 -48.5t-13.5 -60.5q0 -25 17.5 -44t50.5 -19q16 0 31.5 9t27.5 25.5t24.5 25.5t39.5 9q16 0 51 -10q53 -16 111.5 -35.5t117.5 -19.5q27 0 70 9t73 40q23 22 36.5 49t13.5 59q0 23 -15.5 44.5t-50.5 21.5q-22 0 -34.5 -10.5t-24.5 -26.5 q-11 -14 -25 -24.5t-41 -10.5q-16 0 -51 10l-111 36q-58 20 -118 20q-35 0 -75 -10.5t-69 -38.5z" />
<glyph unicode="&#xc4;" horiz-adv-x="1194" d="M1196 76q0 14 -4 30.5t-8 26.5l-475 1165q-15 35 -36.5 63t-66.5 28q-47 0 -67.5 -29t-34.5 -64l-494 -1163q-4 -12 -8 -27.5t-4 -29.5q0 -41 27.5 -70t68.5 -29t65.5 26t37.5 54l114 277h574l112 -277q13 -28 37.5 -54t65.5 -26t68.5 29t27.5 70zM817 510h-438l221 539z M553 1558q0 54 -37 90.5t-90 36.5q-54 0 -90.5 -36.5t-36.5 -90.5q0 -53 36.5 -90t90.5 -37q53 0 90 37t37 90zM915 1558q0 54 -37 90.5t-90 36.5t-90 -36.5t-37 -90.5q0 -53 37 -90t90 -37t90 37t37 90z" />
<glyph unicode="&#xc5;" horiz-adv-x="1194" d="M1196 76q0 14 -4 30.5t-8 26.5l-475 1165l-11 27q31 16 59.5 52t28.5 100q0 73 -53 125.5t-127 52.5t-126 -52.5t-52 -125.5q0 -37 11.5 -65t25.5 -46t28.5 -28.5t22.5 -12.5l-12 -29l-494 -1163q-4 -12 -8 -27.5t-4 -29.5q0 -41 27.5 -70t68.5 -29t65.5 26t37.5 54 l114 277h574l112 -277q13 -28 37.5 -54t65.5 -26t68.5 29t27.5 70zM696 1477q0 -37 -26.5 -62.5t-63.5 -25.5t-62.5 25.5t-25.5 62.5q0 36 25.5 63t62.5 27t63.5 -27t26.5 -63zM817 510h-438l221 539z" />
<glyph unicode="&#xc6;" horiz-adv-x="1755" d="M1016 0h524q43 0 77 23.5t34 68.5q0 49 -36 70.5t-75 21.5h-465v445h449q43 0 76.5 23.5t33.5 68.5q0 47 -34.5 69.5t-75.5 22.5h-449v371h465q43 0 77 23.5t34 68.5t-33 68.5t-78 23.5h-612q-62 0 -98.5 -8t-61.5 -33q-23 -22 -49.5 -62t-50.5 -81l-648 -1049 q-20 -35 -20 -65q0 -37 25.5 -62.5t64.5 -25.5q29 0 51.5 18t38.5 43l254 416h436v-318q0 -55 10.5 -77.5t20.5 -32.5q23 -23 47.5 -27t67.5 -4zM870 629h-331l331 557v-557z" />
<glyph unicode="&#xc7;" horiz-adv-x="1391" d="M55 678q0 -141 46 -266t130 -220.5t201 -155t260 -67.5v-90q0 -24 5 -37.5t15.5 -18.5t25 -6t30.5 -3q23 -4 39 -20.5t16 -41.5q0 -31 -18 -49q-4 -4 -16.5 -10t-32.5 -6q-31 0 -48.5 14t-29.5 31.5t-24.5 32t-32.5 14.5q-21 0 -34.5 -15.5t-13.5 -37.5q0 -25 15.5 -51.5 t32.5 -43.5q26 -26 64 -38.5t73 -12.5q30 0 62 10.5t57.5 32t42 53t16.5 72.5q0 66 -33 107t-92 57v57q240 13 414 187q22 22 43.5 53t21.5 65q0 37 -25.5 65t-64.5 28q-29 -1 -47 -15l-37 -30l-32 -29l-31 -29q-64 -53 -141.5 -80.5t-159.5 -27.5q-109 0 -199 42 t-154.5 114.5t-100.5 167.5t-36 200q0 102 36 197.5t101.5 168t154.5 115.5t198 43q57 0 104 -11t89 -32.5t80 -52.5t79 -70q20 -18 40.5 -31.5t49.5 -13.5q39 0 64.5 28t25.5 64q0 35 -22.5 66t-44.5 53q-99 99 -213.5 144t-251.5 45q-152 0 -279 -56.5t-220 -153 t-145.5 -227.5t-52.5 -278z" />
<glyph unicode="&#xc8;" horiz-adv-x="1012" d="M907 92q0 37 -28.5 64.5t-81.5 27.5h-465v445h448q54 0 82.5 27.5t28.5 64.5t-28.5 64.5t-82.5 27.5h-448v371h465q53 0 81.5 27.5t28.5 64.5t-28.5 64.5t-81.5 27.5h-527q-43 0 -67.5 -4t-46.5 -27q-11 -10 -17 -20t-9 -23.5t-3 -33.5v-54v-1065q0 -55 10 -77.5 t21 -32.5q22 -23 46.5 -27t67.5 -4h525q53 0 81.5 27.5t28.5 64.5zM616 1431q-16 0 -34.5 8.5t-33.5 18.5l-229 184q-16 14 -30.5 31.5t-14.5 46.5q0 33 22.5 54.5t53.5 21.5q18 0 35.5 -8.5t31.5 -18.5l203 -162l45 -39q27 -24 27 -61q0 -33 -22.5 -54.5t-53.5 -21.5z" />
<glyph unicode="&#xc9;" horiz-adv-x="1012" d="M907 92q0 37 -28.5 64.5t-81.5 27.5h-465v445h448q54 0 82.5 27.5t28.5 64.5t-28.5 64.5t-82.5 27.5h-448v371h465q53 0 81.5 27.5t28.5 64.5t-28.5 64.5t-81.5 27.5h-527q-43 0 -67.5 -4t-46.5 -27q-11 -10 -17 -20t-9 -23.5t-3 -33.5v-54v-1065q0 -55 10 -77.5 t21 -32.5q22 -23 46.5 -27t67.5 -4h525q53 0 81.5 27.5t28.5 64.5zM418 1431q16 0 34.5 8.5t32.5 18.5l230 184q16 14 30.5 31.5t14.5 46.5q0 33 -22.5 54.5t-53.5 21.5q-18 0 -35.5 -8.5t-32.5 -18.5l-202 -162l-46 -39q-27 -24 -26 -61q0 -33 22.5 -54.5t53.5 -21.5z" />
<glyph unicode="&#xca;" horiz-adv-x="1012" d="M907 92q0 37 -28.5 64.5t-81.5 27.5h-465v445h448q54 0 82.5 27.5t28.5 64.5t-28.5 64.5t-82.5 27.5h-448v371h465q53 0 81.5 27.5t28.5 64.5t-28.5 64.5t-81.5 27.5h-527q-43 0 -67.5 -4t-46.5 -27q-11 -10 -17 -20t-9 -23.5t-3 -33.5v-54v-1065q0 -55 10 -77.5 t21 -32.5q22 -23 46.5 -27t67.5 -4h525q53 0 81.5 27.5t28.5 64.5zM488 1615l196 -157q15 -10 33.5 -18.5t34.5 -8.5q31 0 53.5 21.5t22.5 54.5q-1 37 -27 61l-45 39l-203 162q-12 10 -30.5 18.5t-34.5 8.5q-21 0 -35 -7.5t-31 -19.5l-202 -162l-45 -39q-26 -24 -27 -61 q0 -33 22.5 -54.5t53.5 -21.5q16 0 34.5 8.5t32.5 18.5z" />
<glyph unicode="&#xcb;" horiz-adv-x="1012" d="M907 92q0 37 -28.5 64.5t-81.5 27.5h-465v445h448q54 0 82.5 27.5t28.5 64.5t-28.5 64.5t-82.5 27.5h-448v371h465q53 0 81.5 27.5t28.5 64.5t-28.5 64.5t-81.5 27.5h-527q-43 0 -67.5 -4t-46.5 -27q-11 -10 -17 -20t-9 -23.5t-3 -33.5v-54v-1065q0 -55 10 -77.5 t21 -32.5q22 -23 46.5 -27t67.5 -4h525q53 0 81.5 27.5t28.5 64.5zM431 1558q0 54 -37 90.5t-90 36.5q-54 0 -90.5 -36.5t-36.5 -90.5q0 -53 36.5 -90t90.5 -37q53 0 90 37t37 90zM793 1558q0 54 -37 90.5t-90 36.5t-90 -36.5t-37 -90.5q0 -53 37 -90t90 -37t90 37t37 90z " />
<glyph unicode="&#xcc;" horiz-adv-x="459" d="M332 100v1168q0 59 -31 90t-72 31t-71.5 -31t-30.5 -90v-1168q0 -63 30.5 -91.5t71.5 -28.5q45 0 74 30.5t29 89.5zM362 1432q-16 0 -34.5 8t-32.5 18l-229 184q-17 15 -31.5 32.5t-14.5 45.5q0 33 23 54.5t53 21.5q19 0 36.5 -8t31.5 -19l203 -161l45 -40q26 -24 26 -61 q0 -32 -22.5 -53.5t-53.5 -21.5z" />
<glyph unicode="&#xcd;" horiz-adv-x="459" d="M332 100v1168q0 59 -31 90t-72 31t-71.5 -31t-30.5 -90v-1168q0 -63 30.5 -91.5t71.5 -28.5q45 0 74 30.5t29 89.5zM96 1432q17 0 35.5 8t32.5 18l229 184q17 15 31 32.5t14 45.5q0 33 -22.5 54.5t-53.5 21.5q-18 0 -35.5 -8t-31.5 -19l-203 -161l-45 -40 q-27 -24 -27 -61q0 -32 23 -53.5t53 -21.5z" />
<glyph unicode="&#xce;" horiz-adv-x="459" d="M332 100v1168q0 59 -31 90t-72 31t-71.5 -31t-30.5 -90v-1168q0 -63 30.5 -91.5t71.5 -28.5q45 0 74 30.5t29 89.5zM229 1616l197 -158q14 -10 32.5 -18t35.5 -8q30 0 52.5 21.5t22.5 53.5q-1 37 -27 61l-44 40l-203 161q-12 11 -30.5 19t-35.5 8q-20 0 -34.5 -7 t-30.5 -20l-203 -161l-45 -40q-27 -24 -27 -61q0 -32 22.5 -53.5t53.5 -21.5q17 0 35 8t33 18z" />
<glyph unicode="&#xcf;" horiz-adv-x="459" d="M176 1559q0 53 -37 90t-90 37t-90 -37t-37 -90q0 -54 37 -90.5t90 -36.5t90 36.5t37 90.5zM537 1559q0 53 -37 90t-90 37q-54 0 -90.5 -37t-36.5 -90q0 -54 36.5 -90.5t90.5 -36.5q53 0 90 36.5t37 90.5zM332 100v1168q0 59 -31 90t-72 31t-71.5 -31t-30.5 -90v-1168 q0 -63 30.5 -91.5t71.5 -28.5q45 0 74 30.5t29 89.5z" />
<glyph unicode="&#xd0;" horiz-adv-x="1024" />
<glyph unicode="&#xd1;" horiz-adv-x="1389" d="M1262 66v1202q0 59 -31 90t-72 31t-71.5 -31t-30.5 -90v-871l-758 938l-31 33q-20 21 -61 21q-29 0 -45.5 -12.5t-23.5 -30t-9 -34t-2 -24.5v-1188q0 -59 30.5 -89.5t71.5 -30.5t72 30.5t31 89.5v867l717 -891q45 -56 70.5 -76t60.5 -20q39 0 60.5 25.5t21.5 60.5z M411 1661q-22 -23 -35.5 -48.5t-13.5 -60.5q0 -25 17.5 -44t50.5 -19q16 0 31.5 9t27.5 25.5t24.5 25.5t39.5 9q16 0 51 -10q53 -16 111.5 -35.5t117.5 -19.5q27 0 70 9t73 40q23 22 36.5 49t13.5 59q0 23 -15.5 44.5t-50.5 21.5q-22 0 -34.5 -10.5t-24.5 -26.5 q-11 -14 -25 -24.5t-41 -10.5q-16 0 -51 10l-111 36q-58 20 -118 20q-35 0 -75 -10.5t-69 -38.5z" />
<glyph unicode="&#xd2;" horiz-adv-x="1536" d="M1483 680q0 149 -55.5 279.5t-152.5 226.5t-227 151.5t-278 55.5q-149 0 -279.5 -55.5t-227.5 -153t-152.5 -227.5t-55.5 -279q0 -150 55.5 -279t152.5 -225t227.5 -151.5t279.5 -55.5q150 0 280 55.5t226 151.5t151.5 226t55.5 280zM1276 682q0 -109 -40 -203 t-108.5 -163.5t-161 -110.5t-196.5 -41t-196.5 41t-162 110.5t-109.5 163.5t-40 199q0 110 40 204.5t108.5 164t161 109.5t198.5 40q104 0 196.5 -40t161 -108.5t108.5 -162.5t40 -203zM891 1431q-16 0 -34.5 8.5t-33.5 18.5l-229 184q-16 14 -30.5 31.5t-14.5 46.5 q0 33 22.5 54.5t53.5 21.5q18 0 35.5 -8.5t31.5 -18.5l203 -162l45 -39q27 -24 27 -61q0 -33 -22.5 -54.5t-53.5 -21.5z" />
<glyph unicode="&#xd3;" horiz-adv-x="1536" d="M1483 680q0 149 -55.5 279.5t-152.5 226.5t-227 151.5t-278 55.5q-149 0 -279.5 -55.5t-227.5 -153t-152.5 -227.5t-55.5 -279q0 -150 55.5 -279t152.5 -225t227.5 -151.5t279.5 -55.5q150 0 280 55.5t226 151.5t151.5 226t55.5 280zM1276 682q0 -109 -40 -203 t-108.5 -163.5t-161 -110.5t-196.5 -41t-196.5 41t-162 110.5t-109.5 163.5t-40 199q0 110 40 204.5t108.5 164t161 109.5t198.5 40q104 0 196.5 -40t161 -108.5t108.5 -162.5t40 -203zM633 1431q16 0 34.5 8.5t32.5 18.5l230 184q16 14 30.5 31.5t14.5 46.5 q0 33 -22.5 54.5t-53.5 21.5q-18 0 -35.5 -8.5t-32.5 -18.5l-202 -162l-46 -39q-27 -24 -26 -61q0 -33 22.5 -54.5t53.5 -21.5z" />
<glyph unicode="&#xd4;" horiz-adv-x="1536" d="M1483 680q0 149 -55.5 279.5t-152.5 226.5t-227 151.5t-278 55.5q-149 0 -279.5 -55.5t-227.5 -153t-152.5 -227.5t-55.5 -279q0 -150 55.5 -279t152.5 -225t227.5 -151.5t279.5 -55.5q150 0 280 55.5t226 151.5t151.5 226t55.5 280zM1276 682q0 -109 -40 -203 t-108.5 -163.5t-161 -110.5t-196.5 -41t-196.5 41t-162 110.5t-109.5 163.5t-40 199q0 110 40 204.5t108.5 164t161 109.5t198.5 40q104 0 196.5 -40t161 -108.5t108.5 -162.5t40 -203zM778 1615l196 -157q15 -10 33.5 -18.5t34.5 -8.5q31 0 53.5 21.5t22.5 54.5 q-1 37 -27 61l-45 39l-203 162q-12 10 -30.5 18.5t-34.5 8.5q-21 0 -35 -7.5t-31 -19.5l-202 -162l-45 -39q-26 -24 -27 -61q0 -33 22.5 -54.5t53.5 -21.5q16 0 34.5 8.5t32.5 18.5z" />
<glyph unicode="&#xd5;" horiz-adv-x="1536" d="M1483 680q0 149 -55.5 279.5t-152.5 226.5t-227 151.5t-278 55.5q-149 0 -279.5 -55.5t-227.5 -153t-152.5 -227.5t-55.5 -279q0 -150 55.5 -279t152.5 -225t227.5 -151.5t279.5 -55.5q150 0 280 55.5t226 151.5t151.5 226t55.5 280zM1276 682q0 -109 -40 -203 t-108.5 -163.5t-161 -110.5t-196.5 -41t-196.5 41t-162 110.5t-109.5 163.5t-40 199q0 110 40 204.5t108.5 164t161 109.5t198.5 40q104 0 196.5 -40t161 -108.5t108.5 -162.5t40 -203zM483 1667q-22 -23 -35.5 -48.5t-13.5 -60.5q0 -25 17.5 -44t50.5 -19q16 0 31.5 9 t27.5 25.5t24.5 25.5t39.5 9q16 0 51 -10q53 -16 111.5 -35.5t117.5 -19.5q27 0 70 9t73 40q23 22 36.5 49t13.5 59q0 23 -15.5 44.5t-50.5 21.5q-22 0 -34.5 -10.5t-24.5 -26.5q-11 -14 -25 -24.5t-41 -10.5q-16 0 -51 10l-111 36q-58 20 -118 20q-35 0 -75 -10.5 t-69 -38.5z" />
<glyph unicode="&#xd6;" horiz-adv-x="1536" d="M1483 680q0 149 -55.5 279.5t-152.5 226.5t-227 151.5t-278 55.5q-149 0 -279.5 -55.5t-227.5 -153t-152.5 -227.5t-55.5 -279q0 -150 55.5 -279t152.5 -225t227.5 -151.5t279.5 -55.5q150 0 280 55.5t226 151.5t151.5 226t55.5 280zM1276 682q0 -109 -40 -203 t-108.5 -163.5t-161 -110.5t-196.5 -41t-196.5 41t-162 110.5t-109.5 163.5t-40 199q0 110 40 204.5t108.5 164t161 109.5t198.5 40q104 0 196.5 -40t161 -108.5t108.5 -162.5t40 -203zM715 1558q0 54 -37 90.5t-90 36.5q-54 0 -90.5 -36.5t-36.5 -90.5q0 -53 36.5 -90 t90.5 -37q53 0 90 37t37 90zM1077 1558q0 54 -37 90.5t-90 36.5t-90 -36.5t-37 -90.5q0 -53 37 -90t90 -37t90 37t37 90z" />
<glyph unicode="&#xd7;" d="M1014 1083q0 29 -24.5 53.5t-53.5 24.5q-21 0 -38 -10t-32 -25l-307 -307l-309 309q-14 15 -32.5 24t-39.5 9q-33 0 -55.5 -21.5t-22.5 -54.5q0 -20 9.5 -38.5t23.5 -32.5l309 -309l-307 -308q-14 -14 -24.5 -31.5t-10.5 -37.5q0 -29 25 -53.5t53 -24.5q23 0 39 10t31 25 l307 305l309 -307q15 -15 33 -24t39 -9q33 0 55.5 21.5t22.5 54.5q0 20 -9.5 38.5t-23.5 32.5l-309 310l307 307q14 14 24.5 31.5t10.5 37.5z" />
<glyph unicode="&#xd8;" horiz-adv-x="5843" d="M5741 92q0 37 -29 64.5t-82 27.5h-465v445h449q53 0 81.5 27.5t28.5 64.5t-28.5 64.5t-81.5 27.5h-449v371h465q53 0 82 27.5t29 64.5t-29 64.5t-82 27.5h-526q-43 0 -68 -4t-47 -27q-10 -10 -16.5 -20t-9.5 -23.5t-3 -33.5v-54v-1065q0 -55 10.5 -77.5t20.5 -32.5 q23 -23 47.5 -27t67.5 -4h524q53 0 82 27.5t29 64.5zM3310 680q0 149 -55.5 279.5t-153 226.5t-227.5 151.5t-277 55.5q-150 0 -280 -55.5t-227 -153t-152.5 -227.5t-55.5 -279q0 -150 55.5 -279t152.5 -225t227 -151.5t280 -55.5q149 0 279 55.5t226.5 151.5t152 226 t55.5 280zM3103 682q0 -109 -40 -203t-108.5 -163.5t-161 -110.5t-196.5 -41q-105 0 -197 41t-161.5 110.5t-109.5 163.5t-40 199q0 110 40 204.5t108.5 164t160.5 109.5t199 40q104 0 196.5 -40t161 -108.5t108.5 -162.5t40 -203zM4549 70q0 26 -10.5 46.5t-24.5 43.5 l-281 448q127 31 206 122t79 245q0 94 -36 175t-101 130q-62 47 -146 67.5t-202 20.5h-216q-49 0 -70.5 -6t-41.5 -25q-17 -16 -24 -40.5t-7 -90.5v-1106q0 -59 31 -89.5t72 -30.5q47 0 74.5 32.5t27.5 87.5v1094h151q68 0 114 -12.5t81 -34.5q41 -29 64.5 -77t23.5 -105 q0 -56 -16.5 -92.5t-42.5 -63.5q-29 -29 -58.5 -41t-57.5 -20.5t-54.5 -18.5t-46.5 -31q-7 -6 -17 -22.5t-10 -44.5q0 -31 18 -61l45 -74l285 -463q33 -56 90 -56q43 0 72 27t29 66zM1331 1391q35 0 53.5 -25t24.5 -57l217 -1182q4 -14 4 -25v-20q0 -41 -25.5 -71.5 t-70.5 -30.5q-49 0 -72.5 32.5t-31.5 73.5l-162 852l-303 -709q-17 -39 -39.5 -73.5t-73.5 -34.5q-25 0 -42 9t-29.5 24.5t-21.5 35.5l-18 39l-311 709l-131 -852q-6 -41 -28.5 -73.5t-73.5 -32.5q-47 0 -71 30.5t-24 71.5q0 16 1 24l3 21l197 1184q4 32 22.5 56t53.5 24 q39 0 54.5 -22.5t29.5 -53.5l395 -897l389 895q15 30 31 54t53 24z" />
<glyph unicode="&#xd9;" horiz-adv-x="1260" d="M1143 508v760q0 59 -31 90t-72 31t-70.5 -31t-29.5 -90v-713q0 -55 -2 -94t-6 -67.5t-12.5 -51.5t-20.5 -45q-37 -66 -109.5 -104.5t-158.5 -38.5t-158 37.5t-106 103.5q-15 24 -23 47t-13 51.5t-7 67.5t-2 94v713q0 59 -30 90t-71 31t-71.5 -31t-30.5 -90v-760 q0 -123 20.5 -203t69.5 -145q70 -92 180.5 -142.5t239.5 -50.5t234.5 48t176.5 141q56 71 79.5 151t23.5 201zM746 1431q-16 0 -34.5 8.5t-33.5 18.5l-229 184q-16 14 -30.5 31.5t-14.5 46.5q0 33 22.5 54.5t53.5 21.5q18 0 35.5 -8.5t31.5 -18.5l203 -162l45 -39 q27 -24 27 -61q0 -33 -22.5 -54.5t-53.5 -21.5z" />
<glyph unicode="&#xda;" horiz-adv-x="1260" d="M1143 508v760q0 59 -31 90t-72 31t-70.5 -31t-29.5 -90v-713q0 -55 -2 -94t-6 -67.5t-12.5 -51.5t-20.5 -45q-37 -66 -109.5 -104.5t-158.5 -38.5t-158 37.5t-106 103.5q-15 24 -23 47t-13 51.5t-7 67.5t-2 94v713q0 59 -30 90t-71 31t-71.5 -31t-30.5 -90v-760 q0 -123 20.5 -203t69.5 -145q70 -92 180.5 -142.5t239.5 -50.5t234.5 48t176.5 141q56 71 79.5 151t23.5 201zM533 1431q16 0 34.5 8.5t32.5 18.5l230 184q16 14 30.5 31.5t14.5 46.5q0 33 -22.5 54.5t-53.5 21.5q-18 0 -35.5 -8.5t-32.5 -18.5l-202 -162l-46 -39 q-27 -24 -26 -61q0 -33 22.5 -54.5t53.5 -21.5z" />
<glyph unicode="&#xdb;" horiz-adv-x="1260" d="M1143 508v760q0 59 -31 90t-72 31t-70.5 -31t-29.5 -90v-713q0 -55 -2 -94t-6 -67.5t-12.5 -51.5t-20.5 -45q-37 -66 -109.5 -104.5t-158.5 -38.5t-158 37.5t-106 103.5q-15 24 -23 47t-13 51.5t-7 67.5t-2 94v713q0 59 -30 90t-71 31t-71.5 -31t-30.5 -90v-760 q0 -123 20.5 -203t69.5 -145q70 -92 180.5 -142.5t239.5 -50.5t234.5 48t176.5 141q56 71 79.5 151t23.5 201zM637 1615l196 -157q15 -10 33.5 -18.5t34.5 -8.5q31 0 53.5 21.5t22.5 54.5q-1 37 -27 61l-45 39l-203 162q-12 10 -30.5 18.5t-34.5 8.5q-21 0 -35 -7.5 t-31 -19.5l-202 -162l-45 -39q-26 -24 -27 -61q0 -33 22.5 -54.5t53.5 -21.5q16 0 34.5 8.5t32.5 18.5z" />
<glyph unicode="&#xdc;" horiz-adv-x="1260" d="M1143 508v760q0 59 -31 90t-72 31t-70.5 -31t-29.5 -90v-713q0 -55 -2 -94t-6 -67.5t-12.5 -51.5t-20.5 -45q-37 -66 -109.5 -104.5t-158.5 -38.5t-158 37.5t-106 103.5q-15 24 -23 47t-13 51.5t-7 67.5t-2 94v713q0 59 -30 90t-71 31t-71.5 -31t-30.5 -90v-760 q0 -123 20.5 -203t69.5 -145q70 -92 180.5 -142.5t239.5 -50.5t234.5 48t176.5 141q56 71 79.5 151t23.5 201zM582 1558q0 54 -37 90.5t-90 36.5q-54 0 -90.5 -36.5t-36.5 -90.5q0 -53 36.5 -90t90.5 -37q53 0 90 37t37 90zM944 1558q0 54 -37 90.5t-90 36.5t-90 -36.5 t-37 -90.5q0 -53 37 -90t90 -37t90 37t37 90z" />
<glyph unicode="&#xdd;" horiz-adv-x="1024" />
<glyph unicode="&#xde;" horiz-adv-x="1024" />
<glyph unicode="&#xdf;" horiz-adv-x="1196" />
<glyph unicode="&#xe0;" horiz-adv-x="1069" d="M952 92v684q0 53 -28.5 83t-67.5 30q-41 0 -68.5 -30t-27.5 -83v-28q-60 71 -132.5 109t-166.5 38q-90 0 -166 -35t-131 -96.5t-86 -145t-31 -182.5q0 -100 32 -185t87 -147.5t132 -97.5t167 -35q92 0 167 39t128 111v-29q0 -53 27.5 -82.5t68.5 -29.5t68.5 29.5 t27.5 82.5zM770 436q0 -65 -19.5 -118.5t-55.5 -93.5t-84 -61.5t-105 -21.5t-105.5 22.5t-84 61.5t-55 92.5t-19.5 116.5q0 62 20.5 115t55 92t84 61.5t104.5 22.5q57 0 105 -21.5t84 -60.5t55.5 -92t19.5 -115zM651 987q-16 0 -34.5 8.5t-33.5 18.5l-229 184 q-16 14 -30.5 31.5t-14.5 46.5q0 33 22.5 54.5t53.5 21.5q18 0 35.5 -8.5t31.5 -18.5l203 -162l45 -39q27 -24 27 -61q0 -33 -22.5 -54.5t-53.5 -21.5z" />
<glyph unicode="&#xe1;" horiz-adv-x="1069" d="M952 92v684q0 53 -28.5 83t-67.5 30q-41 0 -68.5 -30t-27.5 -83v-28q-60 71 -132.5 109t-166.5 38q-90 0 -166 -35t-131 -96.5t-86 -145t-31 -182.5q0 -100 32 -185t87 -147.5t132 -97.5t167 -35q92 0 167 39t128 111v-29q0 -53 27.5 -82.5t68.5 -29.5t68.5 29.5 t27.5 82.5zM770 436q0 -65 -19.5 -118.5t-55.5 -93.5t-84 -61.5t-105 -21.5t-105.5 22.5t-84 61.5t-55 92.5t-19.5 116.5q0 62 20.5 115t55 92t84 61.5t104.5 22.5q57 0 105 -21.5t84 -60.5t55.5 -92t19.5 -115zM430 987q16 0 34.5 8.5t32.5 18.5l230 184q16 14 30.5 31.5 t14.5 46.5q0 33 -22.5 54.5t-53.5 21.5q-18 0 -35.5 -8.5t-32.5 -18.5l-202 -162l-46 -39q-27 -24 -26 -61q0 -33 22.5 -54.5t53.5 -21.5z" />
<glyph unicode="&#xe2;" horiz-adv-x="1069" d="M952 92v684q0 53 -28.5 83t-67.5 30q-41 0 -68.5 -30t-27.5 -83v-28q-60 71 -132.5 109t-166.5 38q-90 0 -166 -35t-131 -96.5t-86 -145t-31 -182.5q0 -100 32 -185t87 -147.5t132 -97.5t167 -35q92 0 167 39t128 111v-29q0 -53 27.5 -82.5t68.5 -29.5t68.5 29.5 t27.5 82.5zM770 436q0 -65 -19.5 -118.5t-55.5 -93.5t-84 -61.5t-105 -21.5t-105.5 22.5t-84 61.5t-55 92.5t-19.5 116.5q0 62 20.5 115t55 92t84 61.5t104.5 22.5q57 0 105 -21.5t84 -60.5t55.5 -92t19.5 -115zM537 1171l196 -157q15 -10 33.5 -18.5t34.5 -8.5 q31 0 53.5 21.5t22.5 54.5q-1 37 -27 61l-45 39l-203 162q-12 10 -30.5 18.5t-34.5 8.5q-21 0 -35 -7.5t-31 -19.5l-202 -162l-45 -39q-26 -24 -27 -61q0 -33 22.5 -54.5t53.5 -21.5q16 0 34.5 8.5t32.5 18.5z" />
<glyph unicode="&#xe3;" horiz-adv-x="1069" d="M952 92v684q0 53 -28.5 83t-67.5 30q-41 0 -68.5 -30t-27.5 -83v-28q-60 71 -132.5 109t-166.5 38q-90 0 -166 -35t-131 -96.5t-86 -145t-31 -182.5q0 -100 32 -185t87 -147.5t132 -97.5t167 -35q92 0 167 39t128 111v-29q0 -53 27.5 -82.5t68.5 -29.5t68.5 29.5 t27.5 82.5zM770 436q0 -65 -19.5 -118.5t-55.5 -93.5t-84 -61.5t-105 -21.5t-105.5 22.5t-84 61.5t-55 92.5t-19.5 116.5q0 62 20.5 115t55 92t84 61.5t104.5 22.5q57 0 105 -21.5t84 -60.5t55.5 -92t19.5 -115zM256 1221q-22 -23 -35.5 -48.5t-13.5 -60.5q0 -25 17.5 -44 t50.5 -19q16 0 31.5 9t27.5 25.5t24.5 25.5t39.5 9q16 0 51 -10q53 -16 111.5 -35.5t117.5 -19.5q27 0 70 9t73 40q23 22 36.5 49t13.5 59q0 23 -15.5 44.5t-50.5 21.5q-22 0 -34.5 -10.5t-24.5 -26.5q-11 -14 -25 -24.5t-41 -10.5q-16 0 -51 10l-111 36q-58 20 -118 20 q-35 0 -75 -10.5t-69 -38.5z" />
<glyph unicode="&#xe4;" horiz-adv-x="1069" d="M952 92v684q0 53 -28.5 83t-67.5 30q-41 0 -68.5 -30t-27.5 -83v-28q-60 71 -132.5 109t-166.5 38q-90 0 -166 -35t-131 -96.5t-86 -145t-31 -182.5q0 -100 32 -185t87 -147.5t132 -97.5t167 -35q92 0 167 39t128 111v-29q0 -53 27.5 -82.5t68.5 -29.5t68.5 29.5 t27.5 82.5zM770 436q0 -65 -19.5 -118.5t-55.5 -93.5t-84 -61.5t-105 -21.5t-105.5 22.5t-84 61.5t-55 92.5t-19.5 116.5q0 62 20.5 115t55 92t84 61.5t104.5 22.5q57 0 105 -21.5t84 -60.5t55.5 -92t19.5 -115zM476 1171q0 54 -37 90.5t-90 36.5q-54 0 -90.5 -36.5 t-36.5 -90.5q0 -53 36.5 -90t90.5 -37q53 0 90 37t37 90zM838 1171q0 54 -37 90.5t-90 36.5t-90 -36.5t-37 -90.5q0 -53 37 -90t90 -37t90 37t37 90z" />
<glyph unicode="&#xe5;" horiz-adv-x="1069" d="M952 92v684q0 53 -28.5 83t-67.5 30q-41 0 -68.5 -30t-27.5 -83v-28q-60 71 -132.5 109t-166.5 38q-90 0 -166 -35t-131 -96.5t-86 -145t-31 -182.5q0 -100 32 -185t87 -147.5t132 -97.5t167 -35q92 0 167 39t128 111v-29q0 -53 27.5 -82.5t68.5 -29.5t68.5 29.5 t27.5 82.5zM770 436q0 -65 -19.5 -118.5t-55.5 -93.5t-84 -61.5t-105 -21.5t-105.5 22.5t-84 61.5t-55 92.5t-19.5 116.5q0 62 20.5 115t55 92t84 61.5t104.5 22.5q57 0 105 -21.5t84 -60.5t55.5 -92t19.5 -115zM713 1176q0 73 -53 125.5t-127 52.5t-126 -52.5t-52 -125.5 q0 -74 52 -126.5t126 -52.5t127 52.5t53 126.5zM623 1176q0 -37 -26.5 -63t-63.5 -26t-62.5 26t-25.5 63q0 36 25.5 63t62.5 27t63.5 -27t26.5 -63z" />
<glyph unicode="&#xe6;" horiz-adv-x="1536" d="M1489 457q0 63 -17.5 140t-64.5 143.5t-128 110.5t-208 44q-108 0 -180 -35t-131 -108q-21 39 -54.5 66.5t-75.5 46t-89 26.5t-95 8q-73 0 -130.5 -16.5t-99.5 -39t-66.5 -44t-34.5 -31.5q-17 -16 -30 -41t-13 -43q0 -31 17 -53.5t54 -22.5q35 0 76 35q8 6 26.5 22.5 t46 33t64.5 29.5t84 13q111 0 154 -53t41 -139h-174q-88 0 -164 -19.5t-131 -57.5t-87 -93t-32 -127q0 -76 28.5 -129t78 -88t113 -51.5t132.5 -16.5q37 0 81 5t89 21.5t88 46.5t78 79q25 -29 56.5 -54.5t73.5 -47t95.5 -34t118.5 -12.5q74 0 131.5 17.5t99.5 41t66.5 46 t34.5 33.5q23 22 33 44.5t10 39.5q0 30 -20.5 52.5t-51.5 22.5q-34 0 -75 -35q-7 -4 -24 -20t-47 -33.5t-69 -31t-84 -13.5q-118 0 -185 72t-69 196h592q15 0 30 2.5t28 14.5q8 8 9 17t1 20zM1303 541h-465q22 98 80.5 152.5t150.5 54.5q94 0 155.5 -55.5t78.5 -151.5z M655 272q-12 -24 -35.5 -50.5t-54 -48t-69.5 -35t-82 -13.5q-13 0 -41.5 3t-58 16.5t-51 38t-21.5 67.5q0 74 64.5 117t193.5 43h133q0 -82 22 -138z" />
<glyph unicode="&#xe7;" horiz-adv-x="973" d="M895 193q0 30 -19.5 52.5t-52.5 22.5q-22 0 -37.5 -8t-37.5 -27q-7 -4 -24 -20t-47 -33.5t-69 -31t-84 -13.5q-61 0 -112.5 22.5t-88 61.5t-57 93.5t-20.5 117.5q0 139 72.5 220t195.5 81q45 0 84 -13t68.5 -30.5t47 -34t23.5 -20.5q41 -35 76 -35q14 0 27.5 6t21.5 14 q17 17 19 31.5t2 28.5q0 39 -41 80l-36 32q-24 22 -66 46t-99 41.5t-131 17.5q-98 0 -183 -36t-146.5 -98.5t-97.5 -147.5t-36 -183q0 -90 31 -168t85 -137t130 -98t166 -52v-96q0 -24 5 -37.5t15 -18.5t24.5 -6t31.5 -3q22 -4 38.5 -20.5t16.5 -41.5q0 -31 -19 -49 q-4 -4 -16 -10t-33 -6q-30 0 -47.5 14t-30 31.5t-24.5 32t-33 14.5q-20 0 -33.5 -15.5t-13.5 -37.5q0 -25 15.5 -51.5t31.5 -43.5q27 -26 64.5 -38.5t72.5 -12.5q31 0 62.5 10.5t57.5 32t42 53t16 72.5q0 66 -32.5 107t-91.5 57v63q59 7 106 24t81 38.5t55.5 41t31.5 30.5 q43 43 43 84z" />
<glyph unicode="&#xe8;" horiz-adv-x="950" d="M903 457q0 63 -17.5 140t-64.5 143.5t-128 110.5t-208 44q-98 0 -179 -33t-138 -94t-89 -146t-32 -190q0 -102 32 -187t90 -145.5t140 -94.5t185 -34q73 0 130.5 17.5t99.5 41t66.5 46t34.5 33.5q41 41 41 79q0 15 -2 29t-18 31q-8 8 -21.5 14t-27.5 6q-35 0 -76 -35 q-6 -4 -23.5 -20t-47 -33.5t-68.5 -31t-84 -13.5q-119 0 -185.5 72t-68.5 196h592q14 0 29.5 2.5t27.5 14.5q8 8 9 17t1 20zM717 541h-465q22 98 80.5 152.5t150.5 54.5q95 0 156 -55.5t78 -151.5zM616 987q-16 0 -34.5 8.5t-33.5 18.5l-229 184q-16 14 -30.5 31.5 t-14.5 46.5q0 33 22.5 54.5t53.5 21.5q18 0 35.5 -8.5t31.5 -18.5l203 -162l45 -39q27 -24 27 -61q0 -33 -22.5 -54.5t-53.5 -21.5z" />
<glyph unicode="&#xe9;" horiz-adv-x="950" d="M903 457q0 63 -17.5 140t-64.5 143.5t-128 110.5t-208 44q-98 0 -179 -33t-138 -94t-89 -146t-32 -190q0 -102 32 -187t90 -145.5t140 -94.5t185 -34q73 0 130.5 17.5t99.5 41t66.5 46t34.5 33.5q41 41 41 79q0 15 -2 29t-18 31q-8 8 -21.5 14t-27.5 6q-35 0 -76 -35 q-6 -4 -23.5 -20t-47 -33.5t-68.5 -31t-84 -13.5q-119 0 -185.5 72t-68.5 196h592q14 0 29.5 2.5t27.5 14.5q8 8 9 17t1 20zM717 541h-465q22 98 80.5 152.5t150.5 54.5q95 0 156 -55.5t78 -151.5zM393 987q16 0 34.5 8.5t32.5 18.5l230 184q16 14 30.5 31.5t14.5 46.5 q0 33 -22.5 54.5t-53.5 21.5q-18 0 -35.5 -8.5t-32.5 -18.5l-202 -162l-46 -39q-27 -24 -26 -61q0 -33 22.5 -54.5t53.5 -21.5z" />
<glyph unicode="&#xea;" horiz-adv-x="950" d="M903 457q0 63 -17.5 140t-64.5 143.5t-128 110.5t-208 44q-98 0 -179 -33t-138 -94t-89 -146t-32 -190q0 -102 32 -187t90 -145.5t140 -94.5t185 -34q73 0 130.5 17.5t99.5 41t66.5 46t34.5 33.5q41 41 41 79q0 15 -2 29t-18 31q-8 8 -21.5 14t-27.5 6q-35 0 -76 -35 q-6 -4 -23.5 -20t-47 -33.5t-68.5 -31t-84 -13.5q-119 0 -185.5 72t-68.5 196h592q14 0 29.5 2.5t27.5 14.5q8 8 9 17t1 20zM717 541h-465q22 98 80.5 152.5t150.5 54.5q95 0 156 -55.5t78 -151.5zM477 1171l196 -157q15 -10 33.5 -18.5t34.5 -8.5q31 0 53.5 21.5t22.5 54.5 q-1 37 -27 61l-45 39l-203 162q-12 10 -30.5 18.5t-34.5 8.5q-21 0 -35 -7.5t-31 -19.5l-202 -162l-45 -39q-26 -24 -27 -61q0 -33 22.5 -54.5t53.5 -21.5q16 0 34.5 8.5t32.5 18.5z" />
<glyph unicode="&#xeb;" horiz-adv-x="950" d="M903 457q0 63 -17.5 140t-64.5 143.5t-128 110.5t-208 44q-98 0 -179 -33t-138 -94t-89 -146t-32 -190q0 -102 32 -187t90 -145.5t140 -94.5t185 -34q73 0 130.5 17.5t99.5 41t66.5 46t34.5 33.5q41 41 41 79q0 15 -2 29t-18 31q-8 8 -21.5 14t-27.5 6q-35 0 -76 -35 q-6 -4 -23.5 -20t-47 -33.5t-68.5 -31t-84 -13.5q-119 0 -185.5 72t-68.5 196h592q14 0 29.5 2.5t27.5 14.5q8 8 9 17t1 20zM717 541h-465q22 98 80.5 152.5t150.5 54.5q95 0 156 -55.5t78 -151.5zM426 1171q0 54 -37 90.5t-90 36.5q-54 0 -90.5 -36.5t-36.5 -90.5 q0 -53 36.5 -90t90.5 -37q53 0 90 37t37 90zM788 1171q0 54 -37 90.5t-90 36.5t-90 -36.5t-37 -90.5q0 -53 37 -90t90 -37t90 37t37 90z" />
<glyph unicode="&#xec;" horiz-adv-x="475" d="M334 92v684q0 53 -27.5 83t-66.5 30t-68 -30t-29 -83v-684q0 -53 29 -82.5t68 -29.5t66.5 29.5t27.5 82.5zM356 987q-16 0 -34.5 8.5t-32.5 18.5l-230 184q-16 14 -30.5 31.5t-14.5 46.5q0 33 22.5 54.5t53.5 21.5q19 0 36 -8.5t32 -18.5l202 -162l46 -39q26 -24 26 -61 q0 -33 -22.5 -54.5t-53.5 -21.5z" />
<glyph unicode="&#xed;" horiz-adv-x="475" d="M334 92v684q0 53 -27.5 83t-66.5 30t-68 -30t-29 -83v-684q0 -53 29 -82.5t68 -29.5t66.5 29.5t27.5 82.5zM96 987q17 0 35.5 8.5t32.5 18.5l229 184q17 14 31 31.5t14 46.5q0 33 -22.5 54.5t-53.5 21.5q-18 0 -35.5 -8.5t-31.5 -18.5l-203 -162l-45 -39q-27 -24 -27 -61 q0 -33 23 -54.5t53 -21.5z" />
<glyph unicode="&#xee;" horiz-adv-x="475" d="M334 92v684q0 53 -27.5 83t-66.5 30t-68 -30t-29 -83v-684q0 -53 29 -82.5t68 -29.5t66.5 29.5t27.5 82.5zM238 1171l196 -157q15 -10 33 -18.5t35 -8.5q30 0 53 21.5t23 54.5q0 37 -27 61l-45 39l-203 162q-12 10 -30.5 18.5t-34.5 8.5q-21 0 -35.5 -7.5t-30.5 -19.5 l-203 -162l-45 -39q-26 -24 -26 -61q0 -33 22.5 -54.5t52.5 -21.5q17 0 35.5 8.5t32.5 18.5z" />
<glyph unicode="&#xef;" horiz-adv-x="475" d="M334 92v684q0 53 -27.5 83t-66.5 30t-68 -30t-29 -83v-684q0 -53 29 -82.5t68 -29.5t66.5 29.5t27.5 82.5zM184 1171q0 54 -36.5 90.5t-90.5 36.5q-53 0 -90 -36.5t-37 -90.5q0 -53 37 -90t90 -37q54 0 90.5 37t36.5 90zM547 1171q0 54 -37 90.5t-90 36.5t-90 -36.5 t-37 -90.5q0 -53 37 -90t90 -37t90 37t37 90z" />
<glyph unicode="&#xf0;" horiz-adv-x="1024" />
<glyph unicode="&#xf1;" horiz-adv-x="1001" d="M883 92v457q0 90 -12.5 141t-47.5 94q-39 52 -104.5 81.5t-140.5 29.5q-86 0 -153 -36t-114 -99v16q0 53 -27.5 83t-66.5 30t-67.5 -30t-28.5 -83v-684q0 -53 28.5 -82.5t67.5 -29.5t66.5 29.5t27.5 82.5v352q0 150 50.5 219.5t154.5 69.5q49 0 91 -20.5t61 -55.5 q16 -28 20 -60t4 -93v-412q0 -53 29 -82.5t67 -29.5q39 0 67 29.5t28 82.5zM225 1221q-22 -23 -35.5 -48.5t-13.5 -60.5q0 -25 17.5 -44t50.5 -19q16 0 31.5 9t27.5 25.5t24.5 25.5t39.5 9q16 0 51 -10q53 -16 111.5 -35.5t117.5 -19.5q27 0 70 9t73 40q23 22 36.5 49 t13.5 59q0 23 -15.5 44.5t-50.5 21.5q-22 0 -34.5 -10.5t-24.5 -26.5q-11 -14 -25 -24.5t-41 -10.5q-16 0 -51 10l-111 36q-58 20 -118 20q-35 0 -75 -10.5t-69 -38.5z" />
<glyph unicode="&#xf2;" horiz-adv-x="1038" d="M993 434q0 98 -35.5 183t-99 147.5t-150.5 97.5t-188 35q-100 0 -187 -35t-150.5 -96t-99.5 -146t-36 -186q0 -100 36 -185t99.5 -146.5t150.5 -96.5t187 -35q101 0 188 35t150.5 97.5t99 147.5t35.5 183zM799 440q0 -63 -21.5 -116.5t-58.5 -93.5t-88 -62.5t-111 -22.5 q-59 0 -109.5 22.5t-87 61.5t-58 92.5t-21.5 114.5q0 62 21.5 115t58 92t87 60.5t109.5 21.5q60 0 111 -21.5t88 -60.5t58.5 -90t21.5 -113zM647 987q-16 0 -34.5 8.5t-33.5 18.5l-229 184q-16 14 -30.5 31.5t-14.5 46.5q0 33 22.5 54.5t53.5 21.5q18 0 35.5 -8.5 t31.5 -18.5l203 -162l45 -39q27 -24 27 -61q0 -33 -22.5 -54.5t-53.5 -21.5z" />
<glyph unicode="&#xf3;" horiz-adv-x="1038" d="M993 434q0 98 -35.5 183t-99 147.5t-150.5 97.5t-188 35q-100 0 -187 -35t-150.5 -96t-99.5 -146t-36 -186q0 -100 36 -185t99.5 -146.5t150.5 -96.5t187 -35q101 0 188 35t150.5 97.5t99 147.5t35.5 183zM799 440q0 -63 -21.5 -116.5t-58.5 -93.5t-88 -62.5t-111 -22.5 q-59 0 -109.5 22.5t-87 61.5t-58 92.5t-21.5 114.5q0 62 21.5 115t58 92t87 60.5t109.5 21.5q60 0 111 -21.5t88 -60.5t58.5 -90t21.5 -113zM416 987q16 0 34.5 8.5t32.5 18.5l230 184q16 14 30.5 31.5t14.5 46.5q0 33 -22.5 54.5t-53.5 21.5q-18 0 -35.5 -8.5t-32.5 -18.5 l-202 -162l-46 -39q-27 -24 -26 -61q0 -33 22.5 -54.5t53.5 -21.5z" />
<glyph unicode="&#xf4;" horiz-adv-x="1038" d="M993 434q0 98 -35.5 183t-99 147.5t-150.5 97.5t-188 35q-100 0 -187 -35t-150.5 -96t-99.5 -146t-36 -186q0 -100 36 -185t99.5 -146.5t150.5 -96.5t187 -35q101 0 188 35t150.5 97.5t99 147.5t35.5 183zM799 440q0 -63 -21.5 -116.5t-58.5 -93.5t-88 -62.5t-111 -22.5 q-59 0 -109.5 22.5t-87 61.5t-58 92.5t-21.5 114.5q0 62 21.5 115t58 92t87 60.5t109.5 21.5q60 0 111 -21.5t88 -60.5t58.5 -90t21.5 -113zM524 1171l196 -157q15 -10 33.5 -18.5t34.5 -8.5q31 0 53.5 21.5t22.5 54.5q-1 37 -27 61l-45 39l-203 162q-12 10 -30.5 18.5 t-34.5 8.5q-21 0 -35 -7.5t-31 -19.5l-202 -162l-45 -39q-26 -24 -27 -61q0 -33 22.5 -54.5t53.5 -21.5q16 0 34.5 8.5t32.5 18.5z" />
<glyph unicode="&#xf5;" horiz-adv-x="1038" d="M993 434q0 98 -35.5 183t-99 147.5t-150.5 97.5t-188 35q-100 0 -187 -35t-150.5 -96t-99.5 -146t-36 -186q0 -100 36 -185t99.5 -146.5t150.5 -96.5t187 -35q101 0 188 35t150.5 97.5t99 147.5t35.5 183zM799 440q0 -63 -21.5 -116.5t-58.5 -93.5t-88 -62.5t-111 -22.5 q-59 0 -109.5 22.5t-87 61.5t-58 92.5t-21.5 114.5q0 62 21.5 115t58 92t87 60.5t109.5 21.5q60 0 111 -21.5t88 -60.5t58.5 -90t21.5 -113zM243 1221q-22 -23 -35.5 -48.5t-13.5 -60.5q0 -25 17.5 -44t50.5 -19q16 0 31.5 9t27.5 25.5t24.5 25.5t39.5 9q16 0 51 -10 q53 -16 111.5 -35.5t117.5 -19.5q27 0 70 9t73 40q23 22 36.5 49t13.5 59q0 23 -15.5 44.5t-50.5 21.5q-22 0 -34.5 -10.5t-24.5 -26.5q-11 -14 -25 -24.5t-41 -10.5q-16 0 -51 10l-111 36q-58 20 -118 20q-35 0 -75 -10.5t-69 -38.5z" />
<glyph unicode="&#xf6;" horiz-adv-x="1038" d="M993 434q0 98 -35.5 183t-99 147.5t-150.5 97.5t-188 35q-100 0 -187 -35t-150.5 -96t-99.5 -146t-36 -186q0 -100 36 -185t99.5 -146.5t150.5 -96.5t187 -35q101 0 188 35t150.5 97.5t99 147.5t35.5 183zM799 440q0 -63 -21.5 -116.5t-58.5 -93.5t-88 -62.5t-111 -22.5 q-59 0 -109.5 22.5t-87 61.5t-58 92.5t-21.5 114.5q0 62 21.5 115t58 92t87 60.5t109.5 21.5q60 0 111 -21.5t88 -60.5t58.5 -90t21.5 -113zM467 1171q0 54 -37 90.5t-90 36.5q-54 0 -90.5 -36.5t-36.5 -90.5q0 -53 36.5 -90t90.5 -37q53 0 90 37t37 90zM829 1171 q0 54 -37 90.5t-90 36.5t-90 -36.5t-37 -90.5q0 -53 37 -90t90 -37t90 37t37 90z" />
<glyph unicode="&#xf7;" d="M684 1104q0 53 -37 90t-90 37t-90 -37t-37 -90t37 -90t90 -37t90 37t37 90zM684 305q0 53 -37 90t-90 37t-90 -37t-37 -90t37 -90t90 -37t90 37t37 90zM1057 705q0 36 -23.5 57.5t-70.5 21.5h-809q-48 0 -71.5 -21.5t-23.5 -57.5q0 -37 23.5 -58.5t71.5 -21.5h809 q47 0 70.5 21.5t23.5 58.5z" />
<glyph unicode="&#xf8;" horiz-adv-x="5398" d="M5296 66v1202q0 59 -31 90t-71 31q-41 0 -72 -31t-31 -90v-871l-758 938l-31 33q-20 22 -61 21q-28 0 -44.5 -12.5t-24 -30t-9.5 -34t-2 -24.5v-1188q0 -59 31 -89.5t72 -30.5t71.5 30.5t30.5 89.5v867l717 -891q45 -56 70.5 -76t60.5 -20q39 0 60.5 25.5t21.5 60.5z M3858 705q0 32 -13 55.5t-33.5 42t-46.5 33t-48 30.5l-752 500q-32 23 -67 23t-61.5 -28t-26.5 -63q0 -34 21.5 -54.5t35.5 -31.5l754 -505l-758 -547q-35 -25 -44 -48.5t-9 -41.5q0 -37 26.5 -63.5t63.5 -26.5q39 0 76 26l743 537l45 31q25 16 45.5 35.5t34.5 42t14 53.5z M2470 100v1168q0 59 -31 90t-72 31t-71.5 -31t-30.5 -90v-455h-639v455q0 59 -31 90t-71 31q-41 0 -72 -31t-31 -90v-1168q0 -63 31 -91.5t72 -28.5q45 0 73.5 30.5t28.5 89.5v535h639v-535q0 -63 29.5 -91.5t72.5 -28.5q45 0 74 30.5t29 89.5zM1100 1276q0 37 -29 64.5 t-82 27.5h-776q-53 0 -82 -27.5t-29 -64.5t29 -64.5t82 -27.5h284v-1084q0 -59 31 -89.5t72 -30.5t71.5 30.5t30.5 89.5v1084h287q53 0 82 27.5t29 64.5z" />
<glyph unicode="&#xf9;" horiz-adv-x="983" d="M870 334v448q0 54 -27.5 83.5t-66.5 29.5t-67.5 -29.5t-28.5 -83.5v-415q0 -117 -45 -170.5t-141 -53.5q-99 0 -144 53.5t-45 170.5v415q0 54 -27.5 83.5t-66.5 29.5t-67.5 -29.5t-28.5 -83.5v-448q0 -176 94 -264q51 -47 125 -73t160 -26q180 0 282 99q94 92 94 264z M606 987q-16 0 -34.5 8.5t-33.5 18.5l-229 184q-16 14 -30.5 31.5t-14.5 46.5q0 33 22.5 54.5t53.5 21.5q18 0 35.5 -8.5t31.5 -18.5l203 -162l45 -39q27 -24 27 -61q0 -33 -22.5 -54.5t-53.5 -21.5z" />
<glyph unicode="&#xfa;" horiz-adv-x="983" d="M870 334v448q0 54 -27.5 83.5t-66.5 29.5t-67.5 -29.5t-28.5 -83.5v-415q0 -117 -45 -170.5t-141 -53.5q-99 0 -144 53.5t-45 170.5v415q0 54 -27.5 83.5t-66.5 29.5t-67.5 -29.5t-28.5 -83.5v-448q0 -176 94 -264q51 -47 125 -73t160 -26q180 0 282 99q94 92 94 264z M379 987q16 0 34.5 8.5t32.5 18.5l230 184q16 14 30.5 31.5t14.5 46.5q0 33 -22.5 54.5t-53.5 21.5q-18 0 -35.5 -8.5t-32.5 -18.5l-202 -162l-46 -39q-27 -24 -26 -61q0 -33 22.5 -54.5t53.5 -21.5z" />
<glyph unicode="&#xfb;" horiz-adv-x="983" d="M870 334v448q0 54 -27.5 83.5t-66.5 29.5t-67.5 -29.5t-28.5 -83.5v-415q0 -117 -45 -170.5t-141 -53.5q-99 0 -144 53.5t-45 170.5v415q0 54 -27.5 83.5t-66.5 29.5t-67.5 -29.5t-28.5 -83.5v-448q0 -176 94 -264q51 -47 125 -73t160 -26q180 0 282 99q94 92 94 264z M498 1171l196 -157q15 -10 33.5 -18.5t34.5 -8.5q31 0 53.5 21.5t22.5 54.5q-1 37 -27 61l-45 39l-203 162q-12 10 -30.5 18.5t-34.5 8.5q-21 0 -35 -7.5t-31 -19.5l-202 -162l-45 -39q-26 -24 -27 -61q0 -33 22.5 -54.5t53.5 -21.5q16 0 34.5 8.5t32.5 18.5z" />
<glyph unicode="&#xfc;" horiz-adv-x="983" d="M870 334v448q0 54 -27.5 83.5t-66.5 29.5t-67.5 -29.5t-28.5 -83.5v-415q0 -117 -45 -170.5t-141 -53.5q-99 0 -144 53.5t-45 170.5v415q0 54 -27.5 83.5t-66.5 29.5t-67.5 -29.5t-28.5 -83.5v-448q0 -176 94 -264q51 -47 125 -73t160 -26q180 0 282 99q94 92 94 264z M439 1171q0 54 -37 90.5t-90 36.5q-54 0 -90.5 -36.5t-36.5 -90.5q0 -53 36.5 -90t90.5 -37q53 0 90 37t37 90zM801 1171q0 54 -37 90.5t-90 36.5t-90 -36.5t-37 -90.5q0 -53 37 -90t90 -37t90 37t37 90z" />
<glyph unicode="&#xfd;" horiz-adv-x="1024" />
<glyph unicode="&#xfe;" horiz-adv-x="1024" />
<glyph unicode="&#xff;" horiz-adv-x="952" d="M383 109l-186 -379q-4 -11 -11.5 -27t-7.5 -33q0 -39 25.5 -64.5t70.5 -25.5q33 0 55.5 19.5t39.5 50.5l532 1091q14 27 14 62q0 39 -25.5 65.5t-64.5 26.5q-32 0 -56 -20.5t-38 -49.5l-244 -506l-254 500q-12 25 -33.5 50.5t-64.5 25.5q-41 0 -69.5 -28.5t-28.5 -69.5 q0 -31 16 -60zM424 1171q0 54 -37 90.5t-90 36.5q-54 0 -90.5 -36.5t-36.5 -90.5q0 -53 36.5 -90t90.5 -37q53 0 90 37t37 90zM786 1171q0 54 -37 90.5t-90 36.5t-90 -36.5t-37 -90.5q0 -53 37 -90t90 -37t90 37t37 90z" />
<glyph unicode="&#x152;" horiz-adv-x="1776" d="M811 0h750q53 0 81.5 27.5t28.5 64.5t-28.5 64.5t-81.5 27.5h-465v445h448q53 0 82 27.5t29 64.5t-29 64.5t-82 27.5h-448v371h465q53 0 81.5 27.5t28.5 64.5t-28.5 64.5t-81.5 27.5h-732q-94 0 -169.5 -8t-139 -26.5t-119 -49.5t-106.5 -74q-115 -96 -177.5 -230 t-62.5 -298q0 -166 62.5 -300t179.5 -228q59 -50 117.5 -79.5t121 -46t130 -22.5t145.5 -6zM811 1184h80v-1000h-70q-73 0 -129.5 6.5t-102.5 19.5t-85 35.5t-76 53.5q-164 141 -164 383q0 39 7.5 86t25.5 96t47 97.5t72 91.5q49 49 104 75.5t108.5 39t100.5 14.5t82 2z" />
<glyph unicode="&#x153;" horiz-adv-x="1690" d="M1642 457q0 63 -17 140t-64.5 143.5t-128 110.5t-207.5 44q-72 0 -127.5 -17.5t-98.5 -43t-72.5 -56t-49.5 -57.5l-45 51q-28 31 -70.5 58.5t-102 47t-139.5 19.5q-100 0 -187 -35t-150.5 -96t-99.5 -146t-36 -186q0 -100 36 -185t99.5 -146.5t150.5 -96.5t187 -35 q74 0 133.5 17.5t104.5 42t75.5 51.5t47.5 47q10 -12 35.5 -39t68.5 -52.5t103.5 -46t144.5 -20.5q74 0 131 17.5t99 41t66.5 46t35.5 33.5q41 41 41 79q0 15 -2 29t-19 31q-8 8 -21.5 14t-27.5 6q-35 0 -76 -35q-6 -4 -23.5 -20t-47 -33.5t-68.5 -31t-84 -13.5 q-119 0 -185.5 72t-68.5 196h592q14 0 29.5 2.5t27.5 14.5q8 8 9 17t1 20zM1456 541h-465q23 98 81 152.5t151 54.5q94 0 155.5 -55.5t77.5 -151.5zM799 440q0 -63 -21.5 -116.5t-58.5 -93.5t-88 -62.5t-111 -22.5q-59 0 -109.5 22.5t-87 61.5t-58 92.5t-21.5 114.5 q0 62 21.5 115t58 92t87 60.5t109.5 21.5q60 0 111 -21.5t88 -60.5t58.5 -90t21.5 -113z" />
<glyph unicode="&#x178;" horiz-adv-x="1051" d="M625 612l368 611q11 16 17 33.5t6 35.5q0 41 -27.5 69t-68.5 28t-63.5 -20.5t-35.5 -43.5l-295 -498l-295 498q-16 27 -39.5 45.5t-58.5 18.5q-41 0 -69.5 -28t-28.5 -69q0 -35 20 -69l365 -613v-510q0 -47 25.5 -83.5t76.5 -36.5t77 36.5t26 83.5v512zM476 1562 q0 54 -37 90.5t-90 36.5q-54 0 -90.5 -36.5t-36.5 -90.5q0 -53 36.5 -90t90.5 -37q53 0 90 37t37 90zM838 1562q0 54 -37 90.5t-90 36.5t-90 -36.5t-37 -90.5q0 -53 37 -90t90 -37t90 37t37 90z" />
<glyph unicode="&#x2c6;" horiz-adv-x="926" d="M463 1171l196 -157q15 -10 33.5 -18.5t34.5 -8.5q31 0 53.5 21.5t22.5 54.5q-1 37 -27 61l-45 39l-203 162q-12 10 -30.5 18.5t-34.5 8.5q-21 0 -35 -7.5t-31 -19.5l-202 -162l-45 -39q-26 -24 -27 -61q0 -33 22.5 -54.5t53.5 -21.5q16 0 34.5 8.5t32.5 18.5z" />
<glyph unicode="&#x2da;" horiz-adv-x="926" d="M643 1176q0 73 -53 125.5t-127 52.5t-126 -52.5t-52 -125.5q0 -74 52 -126.5t126 -52.5t127 52.5t53 126.5zM553 1176q0 -37 -26.5 -63t-63.5 -26t-62.5 26t-25.5 63q0 36 25.5 63t62.5 27t63.5 -27t26.5 -63z" />
<glyph unicode="&#x2dc;" horiz-adv-x="926" d="M180 1221q-22 -23 -35.5 -48.5t-13.5 -60.5q0 -25 17.5 -44t50.5 -19q16 0 31.5 9t27.5 25.5t24.5 25.5t39.5 9q16 0 51 -10q53 -16 111.5 -35.5t117.5 -19.5q27 0 70 9t73 40q23 22 36.5 49t13.5 59q0 23 -15.5 44.5t-50.5 21.5q-22 0 -34.5 -10.5t-24.5 -26.5 q-11 -14 -25 -24.5t-41 -10.5q-16 0 -51 10l-111 36q-58 20 -118 20q-35 0 -75 -10.5t-69 -38.5z" />
<glyph unicode="&#x2000;" horiz-adv-x="898" />
<glyph unicode="&#x2001;" horiz-adv-x="1796" />
<glyph unicode="&#x2002;" horiz-adv-x="898" />
<glyph unicode="&#x2003;" horiz-adv-x="1796" />
<glyph unicode="&#x2004;" horiz-adv-x="598" />
<glyph unicode="&#x2005;" horiz-adv-x="449" />
<glyph unicode="&#x2006;" horiz-adv-x="299" />
<glyph unicode="&#x2007;" horiz-adv-x="299" />
<glyph unicode="&#x2008;" horiz-adv-x="224" />
<glyph unicode="&#x2009;" horiz-adv-x="359" />
<glyph unicode="&#x200a;" horiz-adv-x="99" />
<glyph unicode="&#x2010;" d="M811 705q0 36 -23.5 57.5t-70.5 21.5h-322q-47 0 -70.5 -21.5t-23.5 -57.5q0 -37 23.5 -58.5t70.5 -21.5h322q47 0 70.5 21.5t23.5 58.5z" />
<glyph unicode="&#x2011;" d="M811 705q0 36 -23.5 57.5t-70.5 21.5h-322q-47 0 -70.5 -21.5t-23.5 -57.5q0 -37 23.5 -58.5t70.5 -21.5h322q47 0 70.5 21.5t23.5 58.5z" />
<glyph unicode="&#x2012;" d="M811 705q0 36 -23.5 57.5t-70.5 21.5h-322q-47 0 -70.5 -21.5t-23.5 -57.5q0 -37 23.5 -58.5t70.5 -21.5h322q47 0 70.5 21.5t23.5 58.5z" />
<glyph unicode="&#x2013;" d="M1016 705q0 36 -23.5 57.5t-70.5 21.5h-729q-48 0 -71.5 -21.5t-23.5 -57.5q0 -37 23.5 -58.5t71.5 -21.5h729q47 0 70.5 21.5t23.5 58.5z" />
<glyph unicode="&#x2014;" horiz-adv-x="1464" d="M1413 705q0 36 -23.5 57.5t-70.5 21.5h-1174q-47 0 -70.5 -21.5t-23.5 -57.5q0 -37 23.5 -58.5t70.5 -21.5h1174q47 0 70.5 21.5t23.5 58.5z" />
<glyph unicode="&#x2018;" horiz-adv-x="492" d="M342 983v324q0 53 -27.5 81.5t-66.5 28.5t-66.5 -28.5t-27.5 -81.5v-324q0 -53 27.5 -82t66.5 -29t66.5 29t27.5 82z" />
<glyph unicode="&#x2019;" horiz-adv-x="492" d="M342 983v324q0 53 -27.5 81.5t-66.5 28.5t-66.5 -28.5t-27.5 -81.5v-324q0 -53 27.5 -82t66.5 -29t66.5 29t27.5 82z" />
<glyph unicode="&#x201a;" horiz-adv-x="492" d="M342 -201v324q0 53 -27.5 81.5t-66.5 28.5t-66.5 -28.5t-27.5 -81.5v-324q0 -53 27.5 -81.5t66.5 -28.5t66.5 28.5t27.5 81.5z" />
<glyph unicode="&#x201c;" horiz-adv-x="778" d="M629 983v324q0 53 -28 81.5t-66 28.5q-39 0 -67 -28.5t-28 -81.5v-324q0 -53 28 -82t67 -29q38 0 66 29t28 82zM342 983v324q0 53 -27.5 81.5t-66.5 28.5t-66.5 -28.5t-27.5 -81.5v-324q0 -53 27.5 -82t66.5 -29t66.5 29t27.5 82z" />
<glyph unicode="&#x201d;" horiz-adv-x="778" d="M629 983v324q0 53 -28 81.5t-66 28.5q-39 0 -67 -28.5t-28 -81.5v-324q0 -53 28 -82t67 -29q38 0 66 29t28 82zM342 983v324q0 53 -27.5 81.5t-66.5 28.5t-66.5 -28.5t-27.5 -81.5v-324q0 -53 27.5 -82t66.5 -29t66.5 29t27.5 82z" />
<glyph unicode="&#x201e;" horiz-adv-x="778" d="M629 -201v324q0 53 -28 81.5t-66 28.5q-39 0 -67 -28.5t-28 -81.5v-324q0 -53 28 -81.5t67 -28.5q38 0 66 28.5t28 81.5zM342 -201v324q0 53 -27.5 81.5t-66.5 28.5t-66.5 -28.5t-27.5 -81.5v-324q0 -53 27.5 -81.5t66.5 -28.5t66.5 28.5t27.5 81.5z" />
<glyph unicode="&#x2022;" d="M557 942q-39 0 -73.5 -15.5t-60.5 -41t-41 -60t-15 -73.5t15 -74t41 -60.5t60.5 -41t73.5 -15.5t74 15.5t60.5 41t41 60.5t15.5 74t-15.5 73.5t-41 60t-60.5 41t-74 15.5z" />
<glyph unicode="&#x2026;" horiz-adv-x="1642" d="M1493 106q0 54 -37 90.5t-90 36.5t-90 -36.5t-37 -90.5q0 -53 37 -89.5t90 -36.5t90 36.5t37 89.5zM952 106q0 54 -36.5 90.5t-90.5 36.5q-53 0 -90 -36.5t-37 -90.5q0 -53 37 -89.5t90 -36.5q54 0 90.5 36.5t36.5 89.5zM408 106q0 54 -37 90.5t-90 36.5 q-54 0 -90.5 -36.5t-36.5 -90.5q0 -53 36.5 -89.5t90.5 -36.5q53 0 90 36.5t37 89.5z" />
<glyph unicode="&#x202f;" horiz-adv-x="359" />
<glyph unicode="&#x2039;" horiz-adv-x="575" d="M463 209q0 22 -10.5 36.5t-14.5 22.5l-227 305l227 306q4 8 14.5 22t10.5 37q0 27 -16.5 45t-45.5 18q-43 0 -71 -38l-254 -336q-21 -27 -21 -54q0 -26 21 -53l254 -336q28 -39 71 -39q29 0 45.5 18.5t16.5 45.5z" />
<glyph unicode="&#x203a;" horiz-adv-x="575" d="M113 209q0 22 10 36.5t14 22.5l228 305l-228 306q-4 8 -14 22t-10 37q0 27 16 45t45 18q43 0 72 -38l254 -336q20 -27 20 -54q0 -26 -20 -53l-254 -336q-29 -39 -72 -39q-29 0 -45 18.5t-16 45.5z" />
<glyph unicode="&#x205f;" horiz-adv-x="449" />
<glyph unicode="&#x2122;" horiz-adv-x="1395" d="M1305 694q34 0 51.5 22.5t17.5 49.5q0 4 -1 10t-1 10l-88 557q-4 19 -17.5 37.5t-41.5 18.5q-27 0 -39 -13.5t-23 -33.5l-184 -383l-178 383q-10 20 -21.5 33.5t-38.5 13.5q-28 0 -41.5 -17.5t-17.5 -35.5l-98 -562q0 -4 -1 -11t-1 -11q0 -27 17 -47.5t50 -20.5 t50.5 21.5t21.5 44.5l55 338l127 -275q10 -24 24.5 -43.5t49.5 -19.5q24 0 39.5 13t25.5 32q20 35 40 78l38 84l35 75l27 56l51 -336q4 -23 20.5 -45.5t51.5 -22.5zM524 1264q33 0 54.5 16t21.5 45q0 27 -20.5 45.5t-55.5 18.5h-428q-35 0 -55.5 -18.5t-20.5 -45.5 q0 -29 21.5 -45t54.5 -16h142v-494q0 -35 20.5 -55.5t50.5 -20.5q31 0 51.5 20.5t20.5 55.5v494h143z" />
<glyph unicode="&#xe000;" horiz-adv-x="895" d="M0 895h895v-895h-895v895z" />
<glyph unicode="&#xfb01;" horiz-adv-x="1102" d="M985 92v684q0 53 -27.5 83t-66.5 30t-67.5 -30t-28.5 -83v-684q0 -53 28.5 -82.5t67.5 -29.5t66.5 29.5t27.5 82.5zM793 1233q0 37 -28 67.5t-70 52t-88 33t-83 11.5q-71 0 -126.5 -19.5t-102.5 -66.5q-80 -80 -80 -248v-195h-76q-47 0 -73.5 -24.5t-26.5 -59.5 q0 -34 26.5 -60t73.5 -26h76v-606q0 -41 21.5 -76.5t74.5 -35.5q49 0 72 34.5t23 77.5v606h174q47 0 73.5 26t26.5 60q0 35 -26.5 59.5t-73.5 24.5h-174v146q0 65 6 108t34.5 72t79.5 29q37 0 62.5 -9.5t45.5 -20.5l40 -21q20 -10 43 -9q37 0 56.5 22.5t19.5 47.5z" />
<glyph unicode="&#xfb02;" horiz-adv-x="1102" d="M985 92v1184q0 53 -27.5 83t-66.5 30t-67.5 -30t-28.5 -83v-1184q0 -53 28.5 -82.5t67.5 -29.5t66.5 29.5t27.5 82.5zM727 1257q-1 31 -15 47l-24 25q-20 21 -78.5 42.5t-120.5 21.5q-55 0 -104 -17.5t-96 -64.5q-80 -80 -80 -248v-195h-70q-47 0 -73.5 -24.5 t-26.5 -59.5q0 -34 26.5 -60t73.5 -26h70v-606q0 -41 21.5 -76.5t74.5 -35.5q49 0 71.5 34.5t22.5 77.5v606h181q47 0 73.5 26t26.5 60q0 35 -26.5 59.5t-73.5 24.5h-181v146q0 65 4.5 109t32.5 73q17 16 34 20.5t32 4.5q18 0 35.5 -6.5t34 -13.5t34 -13t37.5 -6 q41 0 62.5 23.5t21.5 51.5z" />
<glyph unicode="&#xfb03;" horiz-adv-x="1909" d="M1770 92v684q0 53 -27.5 83t-66.5 30t-68 -30t-29 -83v-684q0 -53 29 -82.5t68 -29.5t66.5 29.5t27.5 82.5zM1801 1227q0 53 -37 90t-90 37q-54 0 -90.5 -37t-36.5 -90t36.5 -90t90.5 -37q53 0 90 37t37 90zM1510 1233q0 37 -28 67.5t-70 52t-88 33t-83 11.5 q-71 0 -126.5 -19.5t-102.5 -66.5q-80 -80 -80 -248v-195h-76q-47 0 -73.5 -24.5t-26.5 -59.5q0 -34 26.5 -60t73.5 -26h76v-606q0 -41 21.5 -76.5t74.5 -35.5q49 0 72 34.5t23 77.5v606h174q47 0 73.5 26t26.5 60q0 35 -26.5 59.5t-73.5 24.5h-174v146q0 65 6 108t34.5 72 t79.5 29q37 0 62.5 -9.5t45.5 -20.5l40 -21q20 -9 43 -9q37 0 56.5 22.5t19.5 47.5zM793 1233q0 37 -28 67.5t-70 52t-88 33t-83 11.5q-71 0 -126.5 -19.5t-102.5 -66.5q-80 -80 -80 -248v-195h-76q-47 0 -73.5 -24.5t-26.5 -59.5q0 -34 26.5 -60t73.5 -26h76v-606 q0 -41 21.5 -76.5t74.5 -35.5q49 0 72 34.5t23 77.5v606h174q47 0 73.5 26t26.5 60q0 35 -26.5 59.5t-73.5 24.5h-174v146q0 65 6 108t34.5 72t79.5 29q37 0 62.5 -9.5t45.5 -20.5l40 -21q20 -9 43 -9q37 0 56.5 22.5t19.5 47.5z" />
<glyph unicode="&#xfb04;" horiz-adv-x="1866" d="M1745 92v1184q0 53 -27.5 83t-66.5 30t-67.5 -30t-28.5 -83v-1184q0 -53 28.5 -82.5t67.5 -29.5t66.5 29.5t27.5 82.5zM1510 1233q0 37 -28 67.5t-70 52t-88 33t-83 11.5q-71 0 -126.5 -19.5t-102.5 -66.5q-80 -80 -80 -248v-195h-76q-47 0 -73.5 -24.5t-26.5 -59.5 q0 -34 26.5 -60t73.5 -26h76v-606q0 -41 21.5 -76.5t74.5 -35.5q49 0 72 34.5t23 77.5v606h174q47 0 73.5 26t26.5 60q0 35 -26.5 59.5t-73.5 24.5h-174v146q0 65 6 108t34.5 72t79.5 29q37 0 62.5 -9.5t45.5 -20.5l40 -21q20 -9 43 -9q37 0 56.5 22.5t19.5 47.5zM793 1233 q0 37 -28 67.5t-70 52t-88 33t-83 11.5q-71 0 -126.5 -19.5t-102.5 -66.5q-80 -80 -80 -248v-195h-76q-47 0 -73.5 -24.5t-26.5 -59.5q0 -34 26.5 -60t73.5 -26h76v-606q0 -41 21.5 -76.5t74.5 -35.5q49 0 72 34.5t23 77.5v606h174q47 0 73.5 26t26.5 60q0 35 -26.5 59.5 t-73.5 24.5h-174v146q0 65 6 108t34.5 72t79.5 29q37 0 62.5 -9.5t45.5 -20.5l40 -21q20 -9 43 -9q37 0 56.5 22.5t19.5 47.5z" />
</font>
</defs>
</svg>
