<?xml version="1.0" standalone="no"?>
<!DOCTYPE svg PUBLIC "-//W3C//DTD SVG 1.1//EN" "http://www.w3.org/Graphics/SVG/1.1/DTD/svg11.dtd" >
<svg xmlns="http://www.w3.org/2000/svg">
<metadata>
This is a custom SVG webfont generated by Font Squirrel.
Copyright   : Royal  Sun Alliance 2001 All rights reserved
Designer    : Johnson Banks Design Ltd  Foundry Types Ltd
</metadata>
<defs>
<font id="webfont9k8odXl7" horiz-adv-x="1139" >
<font-face units-per-em="2048" ascent="1638" descent="-410" />
<missing-glyph horiz-adv-x="524" />
<glyph unicode=" "  horiz-adv-x="524" />
<glyph unicode="&#x09;" horiz-adv-x="524" />
<glyph unicode="&#xa0;" horiz-adv-x="524" />
<glyph unicode="!" horiz-adv-x="618" d="M446 580v645q0 32 -7 65t-36 62q-36 37 -94 37q-28 0 -53 -10.5t-41 -26.5q-25 -23 -34 -52.5t-9 -74.5v-645q0 -19 5 -57t38 -70q37 -37 94 -37q58 0 94 37q25 24 34 53t9 74zM477 145q0 70 -49 119t-119 49q-69 0 -118.5 -49t-49.5 -119q0 -69 49.5 -118.5t118.5 -49.5 q70 0 119 49.5t49 118.5z" />
<glyph unicode="&#x22;" horiz-adv-x="975" d="M809 1030v230q0 30 -7 63t-34 59q-35 35 -90 35t-90 -35q-23 -22 -32 -50.5t-9 -71.5v-230q0 -43 9 -71.5t32 -51.5q16 -16 39.5 -25.5t50.5 -9.5q29 0 51.5 9.5t38.5 25.5q27 27 34 59.5t7 63.5zM428 1030v230q0 30 -7 63t-34 59q-35 35 -90 35t-90 -35 q-23 -22 -32 -50.5t-9 -71.5v-230q0 -43 9 -71.5t32 -51.5q16 -16 39.5 -25.5t50.5 -9.5q29 0 51.5 9.5t38.5 25.5q27 27 34 59.5t7 63.5z" />
<glyph unicode="#" d="M1122 944q0 37 -26 64q-23 22 -50.5 27t-62.5 5h-78l31 224q0 6 1 14t1 12q0 41 -24.5 65.5t-67.5 24.5q-47 0 -69.5 -30.5t-26.5 -63.5l-35 -246h-203l33 224q0 6 1 14t1 12q0 41 -24.5 65.5t-67.5 24.5q-47 0 -70 -30.5t-27 -63.5l-34 -246h-105q-35 0 -62.5 -5 t-50.5 -27q-26 -27 -26 -64q0 -16 8 -34.5t18 -28.5q23 -23 50.5 -28t62.5 -5h78l-35 -238h-104q-35 0 -62.5 -5t-50.5 -27q-27 -27 -27 -64q0 -16 8.5 -34.5t18.5 -28.5q23 -23 50.5 -28t62.5 -5h78l-48 -320q-2 -10 -2 -20v-12q0 -35 26 -60.5t62 -25.5q41 0 69 23.5 t34 68.5l49 346h201l-47 -320q-2 -10 -2 -20v-12q0 -35 25.5 -60.5t62.5 -25.5q41 0 68.5 23.5t33.5 68.5l49 346h105q34 0 62 5t50 28q10 10 18.5 28.5t8.5 34.5q0 37 -27 64q-22 22 -50 27t-62 5h-80l37 238h104q35 0 62.5 5t50.5 28q10 10 18 28.5t8 34.5zM688 848 l-35 -238h-200l32 238h203z" />
<glyph unicode="$" d="M1006 408q0 100 -36 166.5t-92.5 112.5t-129 79t-146.5 63q-22 11 -49 23t-49.5 28.5t-37.5 39t-15 51.5q0 55 38.5 90t100.5 35q47 0 79.5 -14.5t59.5 -32t51.5 -31.5t59.5 -14q41 0 73.5 31.5t32.5 78.5q0 35 -14 60.5t-37 48t-50.5 40t-54 30t-48 18.5t-33.5 8v74 q0 30 -7.5 63t-33.5 60q-35 34 -90 34q-56 0 -91 -34q-22 -23 -31.5 -51.5t-9.5 -71.5v-84q-26 -6 -70 -27.5t-87 -63.5t-74 -104.5t-31 -150.5q0 -66 21.5 -117t57.5 -91t84 -71t102 -55q38 -19 88.5 -37.5t95.5 -44t74.5 -61t29.5 -91.5q0 -71 -49 -122.5t-121 -51.5 q-80 0 -123 27.5t-71.5 61.5t-55 62.5t-73.5 28.5q-45 0 -79 -32.5t-34 -79.5t28.5 -93t65.5 -83q31 -31 66 -52.5t65.5 -36t54 -21.5t35.5 -9v-68q0 -43 9.5 -71.5t31.5 -51.5q35 -34 91 -34q28 0 50.5 9t39.5 25q26 27 33.5 60t7.5 63v80q41 12 92 42t97 79t77 118.5 t31 162.5z" />
<glyph unicode="%" horiz-adv-x="1731" d="M676 983q0 166 -82 277q-43 59 -104.5 90.5t-135.5 31.5q-73 0 -133.5 -31.5t-103.5 -90.5q-82 -111 -82 -277q0 -164 82 -274q43 -60 104.5 -92.5t132.5 -32.5q74 0 135.5 32.5t104.5 92.5q82 110 82 274zM487 981q0 -104 -42 -162.5t-91 -58.5q-51 0 -91 58.5 t-40 162.5t41 164.5t90 60.5q52 0 92.5 -60.5t40.5 -164.5zM1313 1225q8 14 17 32.5t9 47.5q0 47 -31.5 75.5t-78.5 28.5q-43 0 -68.5 -20.5t-42.5 -49.5l-692 -1187q-8 -15 -15.5 -35.5t-7.5 -42.5q0 -49 34 -78t77 -29t69.5 22.5t41.5 47.5zM1696 379q0 166 -82 276 q-43 60 -104.5 91.5t-135.5 31.5t-134 -31.5t-103 -91.5q-82 -110 -82 -276q0 -164 82 -275q43 -59 104.5 -91.5t132.5 -32.5q74 0 135.5 32.5t104.5 91.5q82 111 82 275zM1507 377q0 -105 -42 -163t-91 -58q-51 0 -91 58t-40 163q0 104 41 164.5t90 60.5q51 0 92 -60.5 t41 -164.5z" />
<glyph unicode="&#x26;" horiz-adv-x="1309" d="M1249 92q1 39 -29 78l-59 74l-74 86l95 94q28 29 46.5 57.5t18.5 59.5q0 39 -28.5 69.5t-75.5 30.5q-33 0 -57.5 -18.5t-51.5 -44.5l-84 -84l-205 247q46 31 86.5 64t72.5 73t51.5 86t19.5 103q0 74 -28.5 134.5t-78 103.5t-114 65.5t-133.5 22.5q-74 0 -139.5 -23.5 t-115 -69t-77 -108t-27.5 -137.5q0 -45 13.5 -85t34 -73t44 -60.5t43.5 -48.5q-67 -38 -125.5 -77t-103.5 -87.5t-70.5 -109.5t-25.5 -143q0 -88 34.5 -162t94 -127t136.5 -83t163 -30q133 0 236.5 57.5t185.5 135.5l73 -90q29 -35 63 -65t75 -30q53 0 84.5 33t31.5 82z M745 1075q0 -31 -13 -57.5t-34.5 -49t-47.5 -40.5l-48 -35q-35 41 -65.5 88t-30.5 94q0 53 33.5 85t87.5 32q55 0 86.5 -32t31.5 -85zM778 326q-59 -54 -121.5 -92.5t-134.5 -38.5q-41 0 -77.5 14t-63.5 39.5t-42 60.5t-15 74q0 41 19 76t48 65.5t65 56t70 46.5z" />
<glyph unicode="'" horiz-adv-x="594" d="M428 1030v230q0 30 -7 63t-34 59q-35 35 -90 35t-90 -35q-23 -22 -32 -50.5t-9 -71.5v-230q0 -43 9 -71.5t32 -51.5q16 -16 39.5 -25.5t50.5 -9.5q29 0 51.5 9.5t38.5 25.5q27 27 34 59.5t7 63.5z" />
<glyph unicode="(" horiz-adv-x="551" d="M399 1178q-14 -58 -38.5 -187t-24.5 -311t24.5 -313t38.5 -189q15 -55 29 -97t26.5 -74t20.5 -56.5t8 -46.5q0 -19 -7 -39.5t-22.5 -39t-39 -29.5t-58.5 -11q-59 0 -104 54.5t-79 138t-55.5 187t-34.5 203t-19.5 182.5t-6.5 128t6.5 128t19.5 182t34.5 202.5t55.5 187.5 t79 138.5t104 54.5q35 0 58.5 -11.5t39 -30t22.5 -39t7 -38.5q0 -22 -8 -47t-20.5 -56.5t-26.5 -73.5t-29 -97z" />
<glyph unicode=")" horiz-adv-x="551" d="M152 1178q14 -58 38.5 -187t24.5 -311t-24.5 -313t-38.5 -189q-15 -55 -29 -97t-26.5 -74t-20.5 -56.5t-8 -46.5q0 -19 7 -39.5t22.5 -39t39 -29.5t58.5 -11q59 0 104 54.5t79 138t55.5 187t34.5 203t19.5 182.5t6.5 128t-6.5 128t-19.5 182t-34.5 202.5t-55.5 187.5 t-79 138.5t-104 54.5q-35 0 -58.5 -11.5t-39 -30t-22.5 -39t-7 -38.5q0 -22 8 -47t20.5 -56.5t26.5 -73.5t29 -97z" />
<glyph unicode="*" horiz-adv-x="1249" d="M874 938q0 29 -17 45t-36 27l-108 65l108 64q19 10 36 26.5t17 44.5q0 29 -19 51.5t-48 22.5q-23 0 -36 -6t-19 -10l-113 -66v131q0 31 -15.5 56.5t-54.5 25.5t-55 -25.5t-16 -56.5v-131l-113 66q-6 4 -19.5 10t-35.5 6q-29 0 -48.5 -22.5t-19.5 -51.5q0 -28 17.5 -44.5 t35.5 -26.5l107 -64l-107 -65q-18 -11 -35.5 -27t-17.5 -45t19.5 -51.5t48.5 -22.5q22 0 35.5 6.5t19.5 10.5l113 65v-123q0 -10 2 -24.5t9 -26.5t21.5 -21.5t38.5 -9.5q25 0 38.5 9.5t20.5 21.5t9 26.5t2 24.5v123l113 -65q6 -4 19 -10.5t36 -6.5q29 0 48 22.5t19 51.5z " />
<glyph unicode="+" d="M1087 729q0 19 -6 37t-22 35q-29 28 -59.5 33.5t-71.5 5.5h-252v303q0 37 -6 68.5t-31 56.5q-29 28 -70 28t-69 -28q-27 -27 -32 -56.5t-5 -68.5v-303h-252q-41 0 -71.5 -5.5t-59.5 -33.5q-17 -17 -23 -35t-6 -37q0 -18 8.5 -38.5t20.5 -33.5q26 -26 59 -32.5t72 -6.5 h252v-303q0 -39 5 -68.5t32 -56.5q28 -28 69 -28q19 0 38.5 8t31.5 20q25 25 31 57t6 68v303h252q39 0 71.5 6.5t59.5 32.5q12 13 20 33.5t8 38.5z" />
<glyph unicode="," horiz-adv-x="594" d="M428 -154v230q0 30 -7 63t-34 60q-16 16 -38.5 25t-51.5 9q-55 0 -90 -34q-23 -23 -32 -51.5t-9 -71.5v-230q0 -43 9 -71.5t32 -50.5q35 -35 90 -35t90 35q27 26 34 59t7 63z" />
<glyph unicode="-" d="M852 729q0 19 -6 37t-23 35q-28 28 -59 33.5t-72 5.5h-248q-41 0 -71.5 -5.5t-59.5 -33.5q-16 -17 -22 -35t-6 -37q0 -18 8 -38.5t20 -33.5q27 -26 60 -32.5t71 -6.5h248q39 0 72 6.5t59 32.5q13 13 21 33.5t8 38.5z" />
<glyph unicode="." horiz-adv-x="582" d="M461 145q0 70 -49.5 119t-118.5 49q-70 0 -119 -49t-49 -119q0 -69 49 -118.5t119 -49.5q69 0 118.5 49.5t49.5 118.5z" />
<glyph unicode="/" d="M915 1268q0 51 -33.5 86t-86.5 35q-54 0 -81.5 -32t-43.5 -77l-439 -1343q-4 -11 -7 -27t-3 -33q0 -45 35 -79t92 -34q35 0 57.5 14.5t37 38t23.5 51.5l17 52l424 1299q4 12 6 23t2 26z" />
<glyph unicode="0" d="M1092 684q0 299 -134 494q-71 104 -169.5 162.5t-219.5 58.5q-120 0 -217.5 -58.5t-169.5 -162.5q-133 -195 -133 -494q0 -297 133 -491q72 -105 170.5 -164.5t216.5 -59.5q121 0 219.5 59.5t169.5 164.5q134 194 134 491zM823 682q0 -109 -21.5 -194t-57 -144t-82 -91 t-93.5 -32q-49 0 -95 31t-81 90t-56.5 145t-21.5 195t21.5 195t56.5 146t80 92t94 32t95.5 -32t82 -92t57 -146t21.5 -195z" />
<glyph unicode="1" d="M754 141v1041q0 53 -4.5 87t-32.5 62q-31 29 -69 33t-93 4h-111q-32 0 -73 -4t-76 -39q-21 -20 -27 -42.5t-6 -39.5q0 -22 8.5 -43.5t24.5 -38.5q27 -26 58.5 -34.5t90.5 -8.5h35v-977q0 -18 5 -56t38 -71q37 -37 94 -37q58 0 95 37q24 25 33.5 53.5t9.5 73.5z" />
<glyph unicode="2" d="M1028 125q0 22 -9 45t-24 37q-30 31 -67 37t-82 6h-303l198 213q52 55 100 112.5t86 119t60.5 129t22.5 141.5q0 100 -37 181t-99.5 138t-147.5 88t-181 31q-90 0 -175 -28.5t-151 -94.5q-49 -47 -86 -118.5t-37 -149.5q0 -54 30 -89.5t91 -35.5q45 0 70.5 22.5t43 55 t34 68.5t45.5 65q22 22 55 37.5t86 15.5q33 0 65.5 -11.5t59 -35t43 -58t16.5 -79.5q0 -47 -20.5 -99.5t-56.5 -106.5q-36 -55 -82 -111l-95 -111l-327 -361q-21 -22 -40.5 -47t-19.5 -53q0 -29 11.5 -45.5t29 -23.5t35.5 -8t35 -1h641q47 0 83 6t66 37q17 16 25 37.5 t8 44.5z" />
<glyph unicode="3" d="M1028 406q0 49 -11 100t-36 96t-62.5 79t-91.5 50q95 45 129.5 124t34.5 157q0 96 -33.5 168.5t-92 122t-137.5 75t-167 25.5q-186 0 -299 -113q-59 -61 -85.5 -122.5t-26.5 -116.5q0 -17 5 -34.5t17 -32.5t32.5 -25.5t49.5 -10.5q35 0 53.5 11.5t28.5 21.5q12 13 20 27 l18 30q9 16 21.5 32.5t32.5 37.5q29 29 68 42t73 13q74 0 117 -46t43 -120q0 -39 -12 -64.5t-29 -41.5q-29 -29 -58.5 -39t-59 -14t-56.5 -11.5t-49 -29.5q-14 -15 -22.5 -31t-8.5 -43q0 -18 5 -36.5t24 -37.5q24 -24 53 -29.5t59.5 -9.5t64.5 -14t67 -43q24 -25 38.5 -61.5 t14.5 -73.5q0 -90 -54.5 -147.5t-140.5 -57.5q-59 0 -103 22.5t-69 47.5q-28 28 -44.5 60t-34 57.5t-41 43t-64.5 17.5q-33 0 -68 -29t-35 -90q0 -63 30 -127.5t85 -120.5q70 -69 161 -97t177 -28q96 0 181 31t149.5 87t101.5 137t37 182z" />
<glyph unicode="4" d="M1120 338q0 45 -30 76q-29 28 -62 33.5t-74 5.5h-32v817q0 14 -3.5 36.5t-14.5 44t-31.5 37t-55.5 15.5q-53 0 -86 -30t-61 -73l-580 -856q-22 -34 -42.5 -70t-20.5 -69q0 -31 17 -48t41 -24.5t48.5 -8.5t40.5 -1h494v-96q0 -16 6 -52t35 -65q32 -33 86 -33q53 0 86 33 q22 23 31.5 49.5t9.5 67.5v96h32q41 0 74 5t62 34q12 12 21 33.5t9 42.5zM668 453h-312l312 469v-469z" />
<glyph unicode="5" d="M1042 453q0 116 -40.5 205.5t-108.5 149.5t-153 91t-173 31q-22 0 -65 -4t-74 -17v209h395q45 0 82 6t68 37q14 15 23.5 37.5t9.5 44.5q0 23 -8.5 44.5t-24.5 37.5q-31 31 -67 37t-83 6h-508q-41 0 -70.5 -2t-49.5 -23q-17 -16 -26 -37.5t-9 -54.5v-551q0 -32 19.5 -48.5 t45.5 -16.5q17 0 34 6t42 16q37 15 82 28t111 13q55 0 104 -17t86 -49t58.5 -77t21.5 -100q0 -56 -19.5 -101t-52.5 -76.5t-73.5 -49t-86.5 -17.5q-81 0 -126.5 29.5t-77 64.5t-63.5 64.5t-87 29.5q-43 0 -74.5 -31.5t-31.5 -72.5t19.5 -85t72.5 -97q72 -72 174 -109 t209 -37q94 0 184 35t158.5 98.5t110.5 152.5t42 200z" />
<glyph unicode="6" d="M1075 461q0 92 -31.5 176t-88 146.5t-133.5 100.5t-165 38q-55 0 -94 -17l201 273q33 45 48 71.5t15 59.5q0 41 -31.5 76.5t-88.5 35.5q-29 0 -51.5 -10t-40 -25.5t-31.5 -33.5l-25 -35l-336 -457q-33 -45 -62.5 -91t-52 -96t-36 -104.5t-13.5 -115.5q0 -107 40 -195 t110 -151.5t161 -99.5t195 -36q107 0 199 37t161.5 101.5t109.5 154.5t40 197zM807 453q0 -50 -19.5 -95t-52.5 -77.5t-77 -52t-95 -19.5q-49 0 -93 19.5t-77 52t-52 77.5t-19 95q0 49 19 93t52 76.5t77 52t93 19.5t94 -19.5t78 -52t52.5 -76.5t19.5 -93z" />
<glyph unicode="7" d="M1114 1292q0 47 -33.5 61.5t-68.5 14.5h-733q-48 0 -83.5 -6t-66.5 -37q-16 -16 -24.5 -37.5t-8.5 -44.5q0 -22 9.5 -44.5t23.5 -37.5q31 -31 67.5 -37t82.5 -6h454l-563 -897q-25 -39 -39 -66.5t-14 -60.5q0 -51 36.5 -84t86.5 -33q30 0 51.5 10.5t38 26t31 36 t26.5 40.5l686 1108q10 19 25.5 44.5t15.5 49.5z" />
<glyph unicode="8" d="M1061 401q0 62 -17.5 118t-51.5 104.5t-81 82t-104 48.5q90 41 140 110.5t50 165.5q0 80 -33.5 148.5t-91 119t-134 79t-165.5 28.5q-84 0 -160.5 -26.5t-136 -76t-94.5 -119t-35 -153.5q0 -90 45.5 -166t141.5 -110q-123 -37 -186.5 -133.5t-63.5 -219.5 q0 -92 39 -170.5t105.5 -137t155.5 -91.5t189 -33q99 0 188 33t155.5 91.5t105.5 137t39 170.5zM743 1028q0 -65 -49 -113.5t-123 -48.5q-73 0 -121.5 47.5t-48.5 114.5q0 70 48.5 115t121.5 45q74 0 123 -46t49 -114zM795 422q0 -94 -63.5 -155.5t-160.5 -61.5 q-96 0 -158.5 61.5t-62.5 155.5q0 43 16.5 81t46 65.5t70.5 44t88 16.5t88 -16.5t71 -44t47.5 -65.5t17.5 -81z" />
<glyph unicode="9" d="M1079 922q0 106 -40 194t-109.5 151.5t-160.5 99.5t-196 36q-106 0 -199 -37t-162 -101.5t-109 -154.5t-40 -197q0 -92 32 -176t88.5 -146.5t133 -100t164.5 -37.5q56 0 94 16l-200 -272q-33 -45 -48.5 -72t-15.5 -59q0 -41 32 -77t89 -36t91 36t57 68l335 457 q66 88 115 186.5t49 221.5zM817 922q0 -50 -19.5 -94t-52 -76.5t-76.5 -52t-94 -19.5q-49 0 -94 19.5t-77.5 52t-52 76.5t-19.5 94q0 49 19.5 94t52 77.5t76.5 52t95 19.5q50 0 94 -19.5t76.5 -52t52 -77.5t19.5 -94z" />
<glyph unicode=":" horiz-adv-x="582" d="M461 754q0 69 -49.5 118.5t-118.5 49.5q-70 0 -119 -49.5t-49 -118.5q0 -70 49 -119t119 -49q69 0 118.5 49t49.5 119zM461 145q0 70 -49.5 119t-118.5 49q-70 0 -119 -49t-49 -119q0 -69 49 -118.5t119 -49.5q69 0 118.5 49.5t49.5 118.5z" />
<glyph unicode=";" horiz-adv-x="582" d="M461 754q0 69 -49.5 118.5t-118.5 49.5q-70 0 -119 -49.5t-49 -118.5q0 -70 49 -119t119 -49q69 0 118.5 49t49.5 119zM428 -154v230q0 30 -7 63t-34 60q-16 16 -38.5 25t-51.5 9q-55 0 -90 -34q-23 -23 -32 -51.5t-9 -71.5v-230q0 -43 9 -71.5t32 -50.5q35 -35 90 -35 t90 35q27 26 34 59t7 63z" />
<glyph unicode="&#x37e;" horiz-adv-x="582" d="M461 754q0 69 -49.5 118.5t-118.5 49.5q-70 0 -119 -49.5t-49 -118.5q0 -70 49 -119t119 -49q69 0 118.5 49t49.5 119zM428 -154v230q0 30 -7 63t-34 60q-16 16 -38.5 25t-51.5 9q-55 0 -90 -34q-23 -23 -32 -51.5t-9 -71.5v-230q0 -43 9 -71.5t32 -50.5q35 -35 90 -35 t90 35q27 26 34 59t7 63z" />
<glyph unicode="&#x3c;" d="M1122 84q0 27 -11 47.5t-29 37.5q-20 17 -42 33l-47 31l-637 426l678 492q31 23 59.5 50.5t28.5 74.5q0 53 -35.5 88t-89.5 35q-26 0 -51.5 -10.5t-46.5 -24.5l-713 -516q-24 -19 -50.5 -37t-49.5 -40.5t-37 -49.5t-14 -59q0 -35 16.5 -64t38.5 -52q24 -24 50 -42l48 -31 l699 -459q35 -22 62.5 -34.5t58.5 -12.5q53 0 83.5 35t30.5 82z" />
<glyph unicode="=" d="M1087 887q0 18 -6 36.5t-22 34.5q-29 29 -59.5 34t-71.5 5h-717q-41 0 -71.5 -5t-59.5 -34q-17 -16 -23 -34.5t-6 -36.5q0 -19 8.5 -39.5t20.5 -32.5q26 -27 59 -33t72 -6h717q39 0 71.5 6t59.5 33q12 12 20 32.5t8 39.5zM1087 522q0 19 -6 37.5t-22 34.5 q-29 29 -59.5 34t-71.5 5h-717q-41 0 -71.5 -5t-59.5 -34q-17 -16 -23 -34.5t-6 -37.5q0 -18 8.5 -38.5t20.5 -32.5q26 -27 59 -33t72 -6h717q39 0 71.5 6t59.5 33q12 12 20 32.5t8 38.5z" />
<glyph unicode="&#x3e;" d="M16 1282q0 -27 11.5 -47.5t30 -37.5t40.5 -33l47 -31l637 -426l-678 -492q-30 -22 -59 -50t-29 -75q0 -53 36 -88t89 -35q27 0 52.5 10.5t46.5 24.5l712 516q25 19 51.5 37t49 40.5t37 49.5t14.5 60q0 34 -16.5 63t-39 52.5t-50.5 41.5l-48 31l-698 459 q-35 22 -62.5 34.5t-58.5 12.5q-53 0 -84 -35t-31 -82z" />
<glyph unicode="?" horiz-adv-x="1116" d="M989 997q0 105 -38 179.5t-98 123t-136 71t-154 22.5q-82 0 -160.5 -27t-140.5 -88q-45 -45 -78.5 -109.5t-33.5 -136.5q0 -47 26.5 -80.5t83.5 -33.5q41 0 64.5 20t41 51t33 64.5t39.5 58.5q23 23 52.5 35t76.5 12q56 0 103 -43t47 -121q0 -39 -12.5 -60.5t-28.5 -37.5 q-35 -35 -81 -49t-87 -31.5t-69.5 -50.5t-28.5 -104v-82q0 -19 5 -57t38 -70q36 -37 94 -37q57 0 94 37q25 24 34 53t9 74v57q53 8 106.5 31.5t88.5 58.5q61 59 85.5 128t24.5 142zM715 145q0 70 -49.5 119t-118.5 49q-70 0 -119 -49t-49 -119q0 -69 49 -118.5t119 -49.5 q69 0 118.5 49.5t49.5 118.5z" />
<glyph unicode="@" horiz-adv-x="1528" d="M1305 446q43 43 73.5 94.5t51 101.5t29.5 97t9 82q0 144 -53 251.5t-144 177t-211 104.5t-253 35q-162 0 -299 -55.5t-236.5 -154t-156 -232.5t-56.5 -290q0 -155 53.5 -282t149.5 -218t231.5 -140.5t299.5 -49.5q51 0 134 10.5t161.5 34t136 60.5t57.5 92 q0 41 -22.5 66.5t-67.5 25.5q-23 0 -45.5 -5t-44.5 -11l-78 -24l-74 -21q-73 -19 -162 -19q-116 0 -211.5 31t-163 91t-104.5 149.5t-37 207.5q0 111 41 211.5t114 175t172 118.5t216 44q100 0 183 -22.5t143.5 -70.5t94.5 -122t34 -174q0 -37 -13.5 -91t-39 -104.5 t-63.5 -85t-87 -34.5q-14 0 -25.5 5t-11.5 30q0 10 2 16l4 20l68 347l4 22q4 22 4 31v16q-6 51 -65 51q-46 0 -67.5 -25.5t-31.5 -68.5q-82 74 -192 74q-82 0 -145.5 -30t-106.5 -82t-65.5 -121.5t-22.5 -147.5q0 -133 73.5 -214t208.5 -81q56 0 107 18.5t98 59.5 q6 -25 22.5 -41.5t37 -25.5t43 -13t43.5 -4q38 0 111 20.5t145 89.5zM766 848q119 0 119 -115q0 -43 -11.5 -83t-33 -70.5t-53 -50t-72.5 -19.5q-68 0 -95.5 37t-27.5 104q0 80 47 138.5t127 58.5z" />
<glyph unicode="A" horiz-adv-x="1219" d="M1225 106q0 29 -10.5 54.5t-14.5 38.5l-436 1056q-10 25 -21.5 49.5t-28 44t-40 32t-56.5 12.5q-34 0 -56.5 -12.5t-38 -32t-27 -44t-21.5 -49.5l-459 -1062q-14 -31 -18 -49.5t-4 -37.5q0 -53 38 -91t95 -38t89 34t46 67l90 215h514l90 -215q2 -4 9.5 -20.5t24 -34 t41 -32t61.5 -14.5q57 0 95 37t38 92zM778 539h-334l168 428z" />
<glyph unicode="B" horiz-adv-x="1071" d="M1014 391q0 70 -20.5 125t-54.5 95t-77 63.5t-90 34.5q82 20 122 90.5t40 177.5q0 86 -28.5 150.5t-78.5 113.5q-41 41 -89 65.5t-97 39t-97 18.5t-87 4h-144q-55 0 -93 -4t-68 -33q-29 -28 -33 -62t-4 -87v-996q0 -53 4 -86.5t33 -62.5q30 -29 68 -33t93 -4h193 q117 0 221 26.5t182 104.5q47 47 76 112.5t29 147.5zM674 961q0 -93 -47 -130.5t-144 -37.5h-94v337h98q97 0 142 -45t45 -124zM739 403q0 -57 -26.5 -88.5t-65.5 -48t-82 -20.5t-76 -4h-100v323h84q82 0 122 -8t69 -27q75 -47 75 -127z" />
<glyph unicode="C" horiz-adv-x="1415" d="M1317 299q0 47 -36 85t-89 38q-35 0 -59.5 -14.5t-49.5 -36.5q-36 -33 -71 -60.5t-73 -47t-82 -30t-97 -10.5q-96 0 -175 37t-135.5 99.5t-88 145.5t-31.5 175q0 90 31.5 173t89 145.5t136.5 100.5t173 38t153.5 -31t102.5 -69t81 -68.5t89 -30.5q31 0 53.5 11.5 t37.5 29.5t23.5 39.5t8.5 42.5q0 47 -26 84t-50 61q-98 99 -216 143t-257 44q-154 0 -284 -56.5t-223 -154t-146.5 -227.5t-53.5 -277q0 -148 53.5 -278t147.5 -226t223 -151.5t283 -55.5q137 0 261 46t222 145q29 28 51.5 61t22.5 80z" />
<glyph unicode="D" horiz-adv-x="1296" d="M1249 686q0 166 -63.5 300t-181.5 228q-121 97 -245 125.5t-274 28.5h-172q-55 0 -93 -4t-68 -33q-29 -28 -33 -62t-4 -87v-996q0 -53 4 -86.5t33 -62.5q30 -29 68 -33t93 -4h154q92 0 168 8t140.5 26.5t120.5 48.5t110 75q116 96 179.5 231t63.5 297zM975 686 q0 -35 -7 -76t-22.5 -84t-41 -86t-62.5 -80q-76 -73 -165 -92.5t-188 -19.5h-100v874h90q68 0 120 -5t93 -17.5t75 -30.5t64 -45q70 -59 107 -146t37 -192z" />
<glyph unicode="E" horiz-adv-x="1036" d="M944 125q0 22 -9 45t-24 37q-30 31 -67 37t-82 6h-373v340h356q48 0 83.5 6t66.5 37q33 33 33 80q0 22 -9.5 43.5t-23.5 36.5q-31 30 -67.5 36.5t-82.5 6.5h-356v282h373q47 0 83 6t66 37q17 17 25 38.5t8 43.5q0 23 -9 45.5t-24 36.5q-30 31 -67 37t-82 6h-449 q-55 0 -93 -4t-68 -33q-29 -28 -33 -62t-4 -87v-996q0 -53 4 -86.5t33 -62.5q30 -29 68 -33t93 -4h449q47 0 83 6t66 37q17 16 25 37.5t8 44.5z" />
<glyph unicode="F" horiz-adv-x="985" d="M909 1243q0 23 -9 45.5t-23 36.5q-31 31 -68 37t-82 6h-414q-55 0 -93 -4t-68 -33q-29 -28 -33 -62t-4 -87v-1041q0 -39 7 -69.5t36 -57.5q37 -37 94 -37t94 37q27 27 35 58.5t8 68.5v449h316q47 0 82.5 6t66.5 37q33 33 33 80q0 22 -9.5 43.5t-23.5 36.5 q-31 30 -67.5 36.5t-81.5 6.5h-316v282h338q47 0 83 6t67 37q16 17 24 38.5t8 43.5z" />
<glyph unicode="G" horiz-adv-x="1458" d="M1405 592q0 43 -13.5 70.5t-37 43t-55 20.5t-66.5 5h-293q-45 0 -81 -7t-64 -36q-31 -31 -31 -78q0 -20 8 -41.5t23 -36.5q28 -28 65 -35.5t80 -7.5h186q-26 -122 -126.5 -196t-239.5 -74q-96 0 -175 37t-136.5 100.5t-88 147.5t-30.5 176t32.5 176t91 147.5t137.5 100.5 t171 37q96 0 159.5 -31t109.5 -66l83 -67q37 -31 82 -31q57 0 93 38t36 89q0 39 -22.5 71t-49.5 58q-98 98 -218 144.5t-257 46.5q-198 0 -358 -82t-262 -252q-52 -86 -78.5 -183.5t-26.5 -197.5q0 -148 52.5 -277t145.5 -226t222 -152.5t283 -55.5q135 0 252.5 49.5 t206 134.5t139.5 198.5t51 242.5z" />
<glyph unicode="H" horiz-adv-x="1327" d="M1206 141v1084q0 32 -7 65t-36 62q-37 37 -94 37q-29 0 -53.5 -10.5t-40.5 -26.5q-25 -23 -34 -52.5t-9 -74.5v-381h-537v381q0 32 -7 65t-36 62q-37 37 -94 37q-29 0 -53.5 -10.5t-40.5 -26.5q-25 -23 -34 -52.5t-9 -74.5v-1080q0 -18 4 -57t39 -74q37 -37 94 -37t94 37 q25 25 34 53.5t9 73.5v457h537v-453q0 -18 4 -57t39 -74q37 -37 94 -37t94 37q25 25 34 53.5t9 73.5z" />
<glyph unicode="I" horiz-adv-x="483" d="M379 141v1084q0 32 -7 65t-36 62q-37 37 -94 37q-29 0 -53.5 -10.5t-41.5 -26.5q-24 -23 -33.5 -52.5t-9.5 -74.5v-1084q0 -18 5.5 -56t37.5 -71q37 -37 95 -37q57 0 94 37q24 25 33.5 53.5t9.5 73.5z" />
<glyph unicode="J" horiz-adv-x="719" d="M610 434v791q0 32 -7 65t-36 62q-37 37 -94 37q-29 0 -53.5 -10.5t-40.5 -26.5q-25 -23 -34 -52.5t-9 -74.5v-779q0 -135 -22.5 -184t-82.5 -49q-28 0 -53 10l-50 21q-26 12 -51.5 22t-53.5 10q-48 0 -79.5 -32.5t-31.5 -75.5q0 -55 38 -93t90 -62.5t107.5 -35 t92.5 -10.5q94 0 175 43t128 117q39 59 53 133t14 174z" />
<glyph unicode="K" horiz-adv-x="1184" d="M1102 106q0 41 -18.5 71t-53.5 67l-424 475l377 403q41 45 61.5 75t20.5 67q0 45 -30.5 85t-92.5 40q-53 0 -88 -36l-76 -81l-385 -426v379q0 32 -7 65t-36 62q-37 37 -94 37q-29 0 -53.5 -10.5t-40.5 -26.5q-25 -23 -34 -52.5t-9 -74.5v-1084q0 -18 5 -56t38 -71 q37 -37 94 -37t94 37q25 25 34 53.5t9 73.5v357l33 32l30 -34l78 -88l101 -116l104 -119l85 -97q36 -41 46 -49q39 -39 65 -44.5t36 -5.5q53 0 92 38t39 91z" />
<glyph unicode="L" horiz-adv-x="899" d="M887 125q0 22 -9.5 45t-23.5 37q-31 31 -67.5 37t-81.5 6h-316v975q0 32 -7 65t-36 62q-37 37 -94 37q-29 0 -53.5 -10.5t-40.5 -26.5q-25 -23 -34 -52.5t-9 -74.5v-1039q0 -53 4 -86.5t33 -62.5q30 -29 68 -33t93 -4h392q47 0 82.5 6t66.5 37q16 16 24.5 37.5t8.5 44.5z " />
<glyph unicode="M" horiz-adv-x="1624" d="M1589 109q0 18 -1 28t-3 23l-196 1108q-5 14 -11 36.5t-19 42t-33.5 34t-53.5 14.5q-47 0 -71.5 -27t-49.5 -80l-344 -766l-334 764q-16 39 -41.5 74t-83.5 35q-35 0 -55.5 -14.5t-32.5 -35t-17 -42t-7 -35.5l-193 -1084q-4 -16 -6 -41.5t-2 -36.5q0 -47 30.5 -88 t98.5 -41q72 0 99.5 39t37.5 99l119 673l237 -548q11 -25 23 -48.5t28.5 -42t39 -31t53.5 -12.5q30 0 53 11.5t39 31t28.5 43t22.5 48.5l244 548l133 -675q6 -29 15.5 -56.5t27.5 -46.5q33 -33 90 -33q59 0 97 36t38 96z" />
<glyph unicode="N" horiz-adv-x="1413" d="M1290 119v1106q0 32 -7 65t-36 62q-37 37 -94 37q-29 0 -53.5 -10.5t-40.5 -26.5q-25 -23 -34 -52.5t-9 -74.5v-727l-660 821q-18 22 -46.5 46t-71.5 24q-35 0 -51.5 -10.5t-26.5 -20.5q-23 -23 -30 -56.5t-7 -62.5v-1098q0 -18 5 -56t38 -71q37 -37 94 -37t94 37 q25 25 34 53.5t9 73.5v717l619 -774q41 -53 74.5 -80t80.5 -27q33 0 52.5 10.5t31.5 22.5q29 29 32 58.5t3 50.5z" />
<glyph unicode="O" horiz-adv-x="1561" d="M1505 680q0 149 -56 279.5t-154.5 226.5t-230.5 151.5t-282 55.5q-151 0 -283 -55.5t-230.5 -153t-155 -227.5t-56.5 -279q0 -150 56.5 -279t155 -225t230.5 -151.5t283 -55.5q152 0 284 55.5t229.5 151.5t153.5 226t56 280zM1229 682q0 -94 -35 -176t-96.5 -143.5 t-142.5 -96.5t-173 -35t-174 36t-142 96.5t-96 141.5t-36 173q0 96 34.5 178t95 142.5t142.5 95t176 34.5q92 0 174 -34.5t142.5 -94t95.5 -141.5t35 -176z" />
<glyph unicode="P" horiz-adv-x="1012" d="M979 946q0 98 -35 181t-100 137q-70 57 -160 80.5t-217 23.5h-154q-55 0 -93 -4t-68 -33q-29 -28 -33 -62t-4 -87v-1041q0 -39 7 -69.5t36 -57.5q37 -37 94 -37t94 37q27 27 35 58.5t8 68.5v381h76q51 0 104.5 4t105.5 17.5t102 40t93 69.5q66 66 87.5 148t21.5 145z M705 948q0 -86 -54.5 -136t-169.5 -50h-92v371h92q119 0 171.5 -49.5t52.5 -135.5z" />
<glyph unicode="Q" horiz-adv-x="1561" d="M1505 678q0 149 -56 279t-154.5 226.5t-230.5 153t-282 56.5q-151 0 -283 -56.5t-230.5 -153t-155 -227.5t-56.5 -280q0 -150 56.5 -279t155 -225t230.5 -151.5t283 -55.5q86 0 174 19.5t144 52.5l41 -41q20 -21 53 -48.5t84 -27.5q31 0 55.5 12.5t40 31t23.5 41t8 40.5 q0 41 -17.5 64.5t-39.5 46.5l-41 41q94 88 146 213t52 268zM1229 680q0 -86 -29 -171t-78 -134l-73 74q-19 18 -46.5 40.5t-74.5 22.5q-49 0 -90 -36t-41 -89q0 -43 18.5 -65.5t30.5 -34.5l49 -49q-4 -5 -41 -10t-72 -5q-92 0 -174 36t-142 98.5t-96 144.5t-36 174 q0 96 34.5 179t95 143.5t142.5 95t176 34.5q92 0 174 -34.5t142.5 -95t95.5 -142.5t35 -176z" />
<glyph unicode="R" horiz-adv-x="1106" d="M1032 92q0 43 -18.5 73t-42.5 62l-262 357q139 24 217 127.5t78 246.5q0 97 -38 181t-110 137q-65 51 -153.5 71.5t-204.5 20.5h-185q-55 0 -93 -4t-68 -33q-29 -28 -33 -62t-4 -87v-1041q0 -39 7 -69.5t36 -57.5q37 -37 94 -37t94 37q27 27 35 58.5t8 68.5v404h47 l320 -455q32 -47 65 -81t86 -34q54 0 89.5 35t35.5 82zM729 954q0 -84 -57.5 -132t-175.5 -48h-107v359h107q61 0 100 -11.5t66 -27.5q30 -23 48.5 -58t18.5 -82z" />
<glyph unicode="S" horiz-adv-x="1030" d="M977 418q0 104 -37 175t-97.5 119t-136.5 82l-153 66q-25 10 -52.5 23.5t-51 31t-40 41t-16.5 54.5q0 59 41 95t107 36q49 0 83.5 -15.5t62.5 -33.5l55 -32q26 -16 61 -16q43 0 77.5 33t34.5 84q0 35 -16 63.5t-39 51.5q-57 55 -142 86t-171 31q-84 0 -163 -27 t-139.5 -77t-96 -122.5t-35.5 -165.5q0 -69 22.5 -122.5t60 -96.5t89 -74.5t106.5 -58.5q43 -20 95.5 -39.5t98.5 -46t77.5 -64.5t31.5 -96q0 -75 -50 -128.5t-128 -53.5q-57 0 -94 14.5t-64.5 35t-46 45t-38 45t-42 35t-55.5 14.5q-47 0 -83 -34t-36 -85q0 -49 30 -97.5 t69 -87.5q65 -65 157.5 -101t188.5 -36t183 33t151.5 92.5t102.5 142t38 181.5z" />
<glyph unicode="T" horiz-adv-x="1085" d="M1061 1243q0 23 -8.5 44.5t-24.5 37.5q-31 31 -66.5 37t-82.5 6h-670q-47 0 -83 -6t-67 -37q-16 -16 -24 -37.5t-8 -44.5q0 -22 9 -44.5t23 -37.5q31 -31 68 -37t82 -6h197v-977q0 -45 9 -74.5t34 -52.5q16 -16 40.5 -26.5t53.5 -10.5q57 0 94 37q29 29 36 62t7 65v977 h199q45 0 81.5 6t67.5 37q14 15 23.5 37.5t9.5 44.5z" />
<glyph unicode="U" horiz-adv-x="1284" d="M1174 518v707q0 32 -7.5 65t-36.5 62q-36 37 -94 37q-28 0 -53 -10.5t-41 -26.5q-24 -23 -33.5 -52.5t-9.5 -74.5v-664q0 -51 -2 -86t-6 -60.5t-10.5 -43t-16.5 -35.5q-28 -53 -87.5 -84t-133.5 -31t-131 31t-86 82q-12 20 -19.5 38.5t-11.5 43t-6 58.5t-2 87v664 q0 32 -7 65t-36 62q-37 37 -94 37q-29 0 -53.5 -10.5t-40.5 -26.5q-25 -23 -34 -52.5t-9 -74.5v-707q0 -121 20.5 -204t73.5 -150q74 -96 188.5 -146.5t245.5 -50.5t241.5 48t184.5 145q59 76 83 156.5t24 201.5z" />
<glyph unicode="V" horiz-adv-x="1208" d="M1180 1264q0 53 -35 92t-96 39q-54 0 -85.5 -30t-54.5 -89l-303 -811l-291 786q-10 27 -21 52.5t-28.5 46t-41 33t-56.5 12.5q-59 0 -98 -38t-39 -97q0 -35 12 -69t29 -75l383 -991l23 -57q11 -27 27.5 -48.5t40 -34t58.5 -12.5t58.5 12.5t40 34t27.5 48.5l24 57 l393 1014q33 84 33 125z" />
<glyph unicode="W" horiz-adv-x="1952" d="M1909 1264q0 53 -35 92t-96 39q-101 0 -140 -119l-262 -817l-241 786l-17 45q-10 25 -28.5 48.5t-46 40t-70.5 16.5q-41 0 -67.5 -16.5t-44 -39t-28 -48t-16.5 -46.5l-262 -784l-229 790q-17 56 -48.5 100t-99.5 44q-59 0 -98 -38t-39 -97q0 -35 12.5 -69t24.5 -75 l313 -1003q6 -23 17.5 -47.5t30 -45t44 -34t60.5 -13.5q39 0 65.5 14.5t45 36t29.5 46t17 43.5l267 837l247 -837q9 -25 20 -50.5t29.5 -45t45 -32t61.5 -12.5q64 0 100.5 42t55.5 98l350 1028q16 45 24.5 72.5t8.5 50.5z" />
<glyph unicode="X" horiz-adv-x="1026" d="M1018 104q0 23 -8.5 47.5t-20.5 45.5l-317 518l280 459q29 45 29 92q0 57 -41 93t-90 36q-57 0 -86 -35t-47 -66l-199 -333l-199 333q-18 31 -46.5 66t-86.5 35q-49 0 -90 -36t-41 -93q0 -47 29 -92l278 -459l-321 -520q-33 -54 -33 -95q0 -57 36 -92t91 -35 q31 0 52.5 10.5t37 26t26.5 32.5l21 32l244 395l240 -395q6 -13 16 -29t25.5 -31.5t38 -27t53.5 -11.5q49 0 89 34t40 95z" />
<glyph unicode="Y" horiz-adv-x="1075" d="M1049 1264q0 61 -40 96t-89 35q-31 0 -53.5 -10.5t-38 -26t-25.5 -30.5t-17 -28l-247 -407l-248 405l-21 32q-12 18 -27.5 32t-36 23.5t-48.5 9.5q-49 0 -90 -36t-41 -93q0 -41 28 -92l342 -570v-463q0 -18 5.5 -56t37.5 -71q37 -37 95 -37q57 0 94 37q24 25 33.5 53.5 t9.5 73.5v465l348 568q12 20 20.5 43.5t8.5 46.5z" />
<glyph unicode="Z" horiz-adv-x="1098" d="M1059 125q0 22 -8.5 43.5t-24.5 38.5q-31 31 -66.5 37t-82.5 6h-457l545 907q16 25 30.5 53.5t14.5 59.5q0 33 -13.5 52t-34 29.5t-45 13.5t-49.5 3h-622q-47 0 -83 -6t-67 -37q-16 -16 -24.5 -37.5t-8.5 -44.5q0 -22 9.5 -44.5t23.5 -37.5q31 -31 68 -37t82 -6h389 l-539 -891l-36 -60q-19 -32 -19 -65q0 -63 46 -82.5t110 -19.5h680q45 0 81.5 6t67.5 37q14 14 23.5 36.5t9.5 45.5z" />
<glyph unicode="[" horiz-adv-x="580" d="M547 -139q0 41 -29 69q-26 27 -57 32t-70 5h-69v1188h69q39 0 70 5t57 32q29 29 29 70t-29 69q-26 27 -57 32t-70 5h-133q-47 0 -79 -3t-58 -28q-25 -24 -29 -53t-4 -74v-1298q0 -45 4 -73.5t29 -53.5q26 -25 58 -28t79 -3h133q41 0 71 5t56 32q29 29 29 70z" />
<glyph unicode="\" d="M918 -123q0 17 -3.5 33t-7.5 27l-438 1343q-16 45 -44 77t-81 32t-87 -35t-34 -86q0 -15 2 -26t6 -23l424 -1299q9 -24 18 -52t23.5 -51.5t37 -38t57.5 -14.5q57 0 92 34t35 79z" />
<glyph unicode="]" horiz-adv-x="580" d="M492 -88v1298q0 45 -4.5 74t-28.5 53q-27 25 -58.5 28t-78.5 3h-134q-41 0 -70.5 -5t-56.5 -32q-28 -28 -28 -69t28 -70q27 -27 58 -32t69 -5h70v-1188h-70q-38 0 -69 -5t-58 -32q-28 -28 -28 -69t28 -70q27 -27 58 -32t69 -5h134q47 0 78.5 3t58.5 28q24 25 28.5 53.5 t4.5 73.5z" />
<glyph unicode="^" horiz-adv-x="1004" />
<glyph unicode="_" d="M1106 -139q0 41 -29 69q-26 27 -56 32t-69 5h-768q-37 0 -67.5 -5t-57.5 -32q-28 -28 -28 -69q0 -19 8 -38.5t20 -31.5q25 -24 56.5 -30.5t68.5 -6.5h768q37 0 69 6.5t56 30.5q29 29 29 70z" />
<glyph unicode="`" horiz-adv-x="946" d="M702 1124q0 47 -55 95l-233 186q-17 12 -36.5 21.5t-41.5 9.5q-37 0 -62.5 -26t-25.5 -64q0 -33 16.5 -53.5t34.5 -35.5l238 -192q16 -12 36.5 -21.5t40.5 -9.5q37 0 62.5 25.5t25.5 64.5z" />
<glyph unicode="a" horiz-adv-x="1112" d="M999 137v611q0 30 -7 63t-34 59q-16 17 -38.5 26t-51.5 9q-55 0 -90 -35q-22 -20 -29.5 -40.5t-7.5 -36.5q-36 43 -108 81.5t-164 38.5q-88 0 -165 -36.5t-133 -99t-89 -148.5t-33 -185q0 -90 28.5 -175t82 -151.5t132.5 -107.5t177 -41q92 0 164 39t108 82 q0 -14 8.5 -33.5t23.5 -36t39 -28.5t56 -12q29 0 51.5 9t38.5 25q27 27 34 59.5t7 63.5zM748 446q0 -108 -61.5 -175.5t-154.5 -67.5q-45 0 -84.5 18.5t-70.5 50t-48.5 75.5t-17.5 97q0 52 17.5 96t48.5 75.5t70.5 50t84.5 18.5q46 0 85.5 -17.5t68.5 -49t45.5 -75.5 t16.5 -96z" />
<glyph unicode="b" horiz-adv-x="1112" d="M1063 444q0 99 -33 185t-90 148.5t-135 99t-166 36.5q-92 0 -160.5 -38.5t-103.5 -77.5v434q0 35 -7.5 65.5t-33.5 57.5q-35 35 -90 35q-56 0 -90 -35q-23 -23 -32 -51.5t-9 -71.5v-1096q0 -43 8 -70.5t33 -52.5q18 -18 42.5 -26.5t47.5 -8.5q28 0 50.5 9.5t39.5 25.5 q26 27 30.5 50.5t6.5 27.5q37 -43 106.5 -82t161.5 -39q98 0 177 41t134.5 107.5t84 151.5t28.5 175zM801 444q0 -53 -17.5 -97t-48 -75.5t-70.5 -50t-85 -18.5q-93 0 -154 67.5t-61 175.5q0 52 16 96t45 75.5t67.5 49t86.5 17.5q45 0 85 -18.5t70.5 -50t48 -75.5t17.5 -96z " />
<glyph unicode="c" horiz-adv-x="1010" d="M940 211q0 37 -23.5 69.5t-76.5 32.5q-39 0 -69 -18.5t-60.5 -40t-67.5 -39.5t-92 -18q-102 0 -169 67.5t-67 173.5q0 117 63.5 182.5t162.5 65.5q55 0 92 -18.5t66.5 -40t59 -40t70.5 -18.5q54 0 77.5 33t23.5 70q0 39 -33 82t-87 78.5t-126 58t-152 22.5 q-102 0 -191 -36.5t-153.5 -101t-101.5 -150.5t-37 -187q0 -98 38 -184t104.5 -149.5t156.5 -99.5t195 -36q80 0 151.5 22.5t125.5 58.5t87 78t33 83z" />
<glyph unicode="d" horiz-adv-x="1112" d="M999 135v1096q0 43 -9 71.5t-32 51.5q-34 35 -90 35q-55 0 -90 -35q-26 -27 -33.5 -57.5t-7.5 -65.5v-434q-35 39 -103.5 77.5t-160.5 38.5q-88 0 -166 -36.5t-135 -99t-90 -148.5t-33 -185q0 -90 28.5 -175t84 -151.5t134.5 -107.5t177 -41q92 0 162 39t106 82 q2 -4 6.5 -27.5t30.5 -50.5q35 -35 90 -35q23 0 47.5 8.5t42.5 26.5q25 25 33 52.5t8 70.5zM748 446q0 -108 -61.5 -175.5t-154.5 -67.5q-45 0 -84.5 18.5t-70.5 50t-48.5 75.5t-17.5 97q0 52 17.5 96t48.5 75.5t70.5 50t84.5 18.5q46 0 85.5 -17.5t68.5 -49t45.5 -75.5 t16.5 -96z" />
<glyph unicode="e" horiz-adv-x="997" d="M948 471q0 70 -22.5 147.5t-73.5 143t-135 108.5t-207 43q-102 0 -187 -34.5t-145.5 -97t-94.5 -149.5t-34 -192q0 -102 33 -188t93.5 -149.5t145.5 -98.5t189 -35q80 0 152.5 18.5t128 49.5t88 69.5t32.5 79.5q0 37 -23.5 70t-76.5 33q-41 0 -71.5 -16.5t-62.5 -36 t-70 -36t-93 -16.5q-37 0 -72.5 10.5t-65.5 33t-48.5 61.5t-22.5 94h539q47 0 75.5 18.5t28.5 69.5zM692 561h-375q11 41 32.5 71t47 48t55 26.5t56.5 8.5q63 0 118.5 -42t65.5 -112z" />
<glyph unicode="f" horiz-adv-x="756" d="M844 1208q0 43 -28 78t-71 59.5t-96 38t-102 13.5q-170 0 -253 -98.5t-83 -258.5v-149h-78q-27 0 -54.5 -7t-49.5 -30q-27 -27 -27 -76q0 -45 27 -76q20 -20 43.5 -28t60.5 -8h78v-531q0 -43 9 -71.5t32 -51.5q35 -35 90 -35q29 0 51.5 9.5t38.5 25.5q27 27 34 59.5 t7 63.5v531h143q37 0 60.5 8t44.5 28q27 31 27 76q0 49 -27 76q-23 23 -50.5 30t-54.5 7h-143v106q0 31 2 62t9.5 55.5t24.5 39.5t48 15q25 0 45.5 -9t41 -19.5t43 -19.5t48.5 -9q53 0 81 28.5t28 67.5z" />
<glyph unicode="g" horiz-adv-x="1102" d="M991 59v703q0 65 -38 104t-93 39q-33 0 -56.5 -11t-38.5 -28.5t-22.5 -37t-7.5 -35.5q-37 43 -107.5 81.5t-162.5 38.5q-88 0 -164 -36.5t-132 -99t-88 -148.5t-32 -185q0 -90 27.5 -174t82 -149.5t131.5 -105.5t175 -40q94 0 162.5 39t101.5 76v-74q0 -129 -55.5 -191.5 t-159.5 -62.5q-74 0 -120 26t-80 56l-65 54q-30 26 -71 26q-47 0 -78.5 -31.5t-31.5 -74.5q0 -41 21.5 -76t53.5 -68q62 -63 162.5 -101t218.5 -38q117 0 213.5 43t159.5 125q27 37 45.5 73t29.5 77t15 91t4 115zM741 449q0 -109 -60 -176.5t-153 -67.5q-45 0 -85 18.5 t-69.5 50t-47 75.5t-17.5 97q0 52 17.5 96t48.5 75.5t70.5 50t82.5 18.5q93 0 153 -66.5t60 -170.5z" />
<glyph unicode="h" horiz-adv-x="1026" d="M920 135v418q0 76 -14.5 143.5t-76.5 128.5q-34 35 -94.5 61.5t-132.5 26.5t-131 -31.5t-100 -84.5v434q0 31 -7.5 63.5t-33.5 59.5q-35 35 -90 35q-56 0 -90 -35q-23 -23 -32 -51.5t-9 -71.5v-1096q0 -43 9 -71.5t32 -51.5q34 -35 90 -35q28 0 50.5 9.5t39.5 25.5 q26 27 33.5 59.5t7.5 63.5v320q0 133 41 182t116 49q45 0 71 -13.5t39 -38t16 -56t3 -68.5v-375q0 -43 9.5 -71.5t31.5 -51.5q35 -35 90 -35q29 0 51.5 9.5t39.5 25.5q26 27 33.5 59.5t7.5 63.5z" />
<glyph unicode="i" horiz-adv-x="500" d="M412 1227q0 65 -48.5 113.5t-113.5 48.5q-66 0 -114 -48.5t-48 -113.5q0 -66 48 -114t114 -48q65 0 113.5 48t48.5 114zM381 135v621q0 30 -7 63t-34 60q-35 34 -90 34t-90 -34q-23 -23 -32 -51.5t-9 -71.5v-621q0 -43 9 -71.5t32 -51.5q35 -35 90 -35q29 0 51.5 9.5 t38.5 25.5q27 27 34 59.5t7 63.5z" />
<glyph unicode="j" horiz-adv-x="500" d="M414 1227q0 65 -48.5 113.5t-113.5 48.5q-66 0 -114 -48.5t-48 -113.5q0 -66 48 -114t114 -48q65 0 113.5 48t48.5 114zM383 -274v1030q0 30 -7 63t-34 60q-35 34 -90 34t-90 -34q-23 -23 -32 -51.5t-9 -71.5v-1030q0 -43 9 -72t32 -51q35 -35 90 -35t90 35q27 26 34 59 t7 64z" />
<glyph unicode="k" horiz-adv-x="940" d="M926 102q0 39 -20.5 70t-51.5 66l-242 272l162 162q35 35 52.5 63.5t17.5 67.5q0 53 -37 81.5t-74 28.5q-39 0 -66.5 -17t-52.5 -42l-243 -244v621q0 31 -7.5 63.5t-33.5 59.5q-35 35 -90 35q-56 0 -90 -35q-23 -23 -32 -51.5t-9 -71.5v-1096q0 -43 9 -71.5t32 -51.5 q34 -35 90 -35q28 0 50.5 9.5t39.5 25.5q26 27 33.5 59.5t7.5 63.5v168l43 43l39 -45l89 -103l96 -108q46 -51 60 -65q35 -35 61.5 -41.5t37.5 -6.5q51 0 90 36t39 89z" />
<glyph unicode="l" horiz-adv-x="459" d="M360 135v1096q0 31 -7 63.5t-34 59.5q-34 35 -90 35q-55 0 -90 -35q-22 -23 -31.5 -51.5t-9.5 -71.5v-1096q0 -43 9.5 -71.5t31.5 -51.5q35 -35 90 -35q29 0 51.5 9.5t38.5 25.5q27 27 34 59.5t7 63.5z" />
<glyph unicode="m" horiz-adv-x="1507" d="M1393 135v434q0 76 -15.5 140.5t-68.5 117.5q-35 35 -91.5 60.5t-121.5 25.5q-74 0 -140.5 -26.5t-130.5 -110.5q-32 55 -88.5 96t-134.5 41q-70 0 -127 -32.5t-98 -87.5q0 16 -8.5 35.5t-23.5 37t-38.5 28.5t-56.5 11q-55 0 -93 -39t-38 -104v-627q0 -43 9 -71.5 t32 -51.5q35 -35 90 -35q29 0 51.5 9.5t38.5 25.5q27 27 34 59.5t7 63.5v334q0 59 6 95t19 59q16 28 45.5 45.5t62.5 17.5q41 0 63.5 -19.5t34 -48t13.5 -62.5t2 -62v-359q0 -43 9 -71.5t32 -51.5q34 -35 90 -35q28 0 50.5 9.5t39.5 25.5q26 27 33.5 59.5t7.5 63.5v338 q0 33 3 71t16.5 68.5t40 51t73.5 20.5q39 0 60.5 -16.5t31.5 -41t13 -55t3 -59.5v-377q0 -43 9.5 -71.5t31.5 -51.5q35 -35 91 -35q28 0 50.5 9.5t39.5 25.5q26 27 33.5 59.5t7.5 63.5z" />
<glyph unicode="n" horiz-adv-x="1026" d="M920 135v418q0 76 -14.5 143.5t-76.5 128.5q-34 35 -94.5 61.5t-132.5 26.5q-70 0 -132 -31.5t-103 -88.5q0 16 -8.5 35.5t-24 37t-39 28.5t-55.5 11q-56 0 -93.5 -39t-37.5 -104v-627q0 -43 9 -71.5t32 -51.5q34 -35 90 -35q28 0 50.5 9.5t39.5 25.5q26 27 33.5 59.5 t7.5 63.5v320q0 133 41 182t116 49q45 0 71 -13.5t39 -38t16 -56t3 -68.5v-375q0 -43 9.5 -71.5t31.5 -51.5q35 -35 90 -35q29 0 51.5 9.5t39.5 25.5q26 27 33.5 59.5t7.5 63.5z" />
<glyph unicode="o" horiz-adv-x="1085" d="M1036 440q0 101 -37.5 188t-104.5 150.5t-157 99t-194 35.5q-105 0 -195 -35.5t-156.5 -98t-104.5 -149.5t-38 -190q0 -102 38 -189t104.5 -149.5t156.5 -98.5t195 -36q104 0 194 36t157 99.5t104.5 149.5t37.5 188zM774 446q0 -53 -17.5 -97t-49 -77.5t-73.5 -52 t-91 -18.5t-91 18.5t-73 51t-48.5 76.5t-17.5 95q0 52 17.5 96t48.5 75.5t73 50t91 18.5t91 -18.5t73.5 -50t49 -74.5t17.5 -93z" />
<glyph unicode="p" horiz-adv-x="1112" d="M1063 438q0 90 -28.5 175t-84 151.5t-134.5 107.5t-177 41q-92 0 -161.5 -38.5t-106.5 -81.5q-2 4 -6.5 27.5t-30.5 49.5q-35 35 -90 35q-23 0 -47.5 -8t-42.5 -27q-25 -24 -33 -51.5t-8 -70.5v-1022q0 -43 9 -72t32 -51q34 -35 90 -35q55 0 90 35q26 26 33.5 57t7.5 66 v360q35 -39 103.5 -78t160.5 -39q88 0 166 37t135 99.5t90 148.5t33 184zM801 438q0 -51 -17.5 -95t-48 -75.5t-70.5 -50t-85 -18.5q-48 0 -86.5 17t-67.5 49t-45 76t-16 95q0 109 61 176.5t154 67.5q45 0 85 -18.5t70.5 -50t48 -77t17.5 -96.5z" />
<glyph unicode="q" horiz-adv-x="1112" d="M999 -274v1022q0 43 -8 70.5t-33 51.5q-18 19 -42.5 27t-47.5 8q-55 0 -90 -35q-26 -26 -30.5 -49.5t-6.5 -27.5q-36 43 -106 81.5t-162 38.5q-98 0 -177 -41t-134.5 -107.5t-84 -151.5t-28.5 -175q0 -98 33 -184t90 -148.5t135 -99.5t166 -37q92 0 160.5 39t103.5 78 v-360q0 -35 7.5 -66t33.5 -57q35 -35 90 -35q27 0 50.5 9t39.5 26q23 22 32 51t9 72zM748 436q0 -51 -16.5 -95t-45.5 -76t-68.5 -49t-85.5 -17q-45 0 -84.5 18.5t-70.5 50t-48.5 75.5t-17.5 95t17.5 96.5t48.5 77t70.5 50t84.5 18.5q93 0 154.5 -67.5t61.5 -176.5z" />
<glyph unicode="r" horiz-adv-x="770" d="M756 782q0 35 -17.5 59.5t-43 41t-55.5 23.5t-54 7q-70 0 -125 -33.5t-94 -86.5q0 16 -8.5 35.5t-24 37t-39 28.5t-55.5 11q-56 0 -93.5 -39t-37.5 -104v-627q0 -43 9 -71.5t32 -51.5q34 -35 90 -35q28 0 50.5 9.5t39.5 25.5q26 27 33.5 59.5t7.5 63.5v314q0 28 3 71 t17.5 83t43 68.5t77.5 28.5q25 0 46.5 -7t43.5 -11q10 -2 18.5 -3t18.5 -1h7q54 0 81 30q29 33 29 74z" />
<glyph unicode="s" horiz-adv-x="762" d="M705 291q0 67 -30 112.5t-73 77t-95 51.5l-95 40q-43 18 -73 37.5t-30 47.5q0 31 22.5 45.5t57.5 14.5q37 0 63.5 -13.5t50 -30t48 -29.5t59.5 -13q11 0 25 4t26.5 14t21.5 27.5t9 44.5q0 22 -12 47t-41 53q-37 37 -108.5 64.5t-149.5 27.5q-62 0 -119 -20.5t-100 -58 t-68.5 -91t-25.5 -118.5q0 -70 28.5 -114t71.5 -72.5t93 -47t93 -37t72 -40t29 -58.5t-24.5 -59.5t-72.5 -22.5q-47 0 -75.5 14.5t-51 31t-45 30.5t-55.5 14q-29 0 -56.5 -23.5t-27.5 -70.5q0 -33 15.5 -59.5t33.5 -44.5q41 -41 105.5 -69t156.5 -28q64 0 125.5 21.5 t110.5 62.5t80 100.5t31 137.5z" />
<glyph unicode="t" horiz-adv-x="752" d="M735 778q0 47 -28 76q-25 25 -51.5 31t-53.5 6h-115v160q0 30 -7 63t-34 60q-34 34 -90 34q-55 0 -90 -34q-22 -23 -31.5 -51.5t-9.5 -71.5v-160h-75q-27 0 -54.5 -7t-50.5 -30q-29 -29 -29 -76q0 -22 8.5 -41.5t20.5 -34.5q21 -20 44.5 -28t60.5 -8h75v-531 q0 -43 9.5 -71.5t31.5 -51.5q35 -35 90 -35q29 0 51.5 9.5t38.5 25.5q27 27 34 59.5t7 63.5v531h115q37 0 59.5 7t45.5 29q12 15 20 34.5t8 41.5z" />
<glyph unicode="u" horiz-adv-x="1008" d="M907 346v410q0 35 -7 65.5t-34 57.5q-16 16 -38.5 25t-51.5 9q-55 0 -90 -34q-22 -23 -31.5 -51.5t-9.5 -71.5v-379q0 -98 -33.5 -134t-105.5 -36q-74 0 -107.5 36t-33.5 134v379q0 35 -6.5 64.5t-34.5 58.5q-35 34 -91 34q-55 0 -90 -34q-22 -23 -31.5 -51.5t-9.5 -71.5 v-410q0 -186 108.5 -282.5t295.5 -96.5q90 0 168 25.5t131 77t77.5 120t24.5 156.5z" />
<glyph unicode="v" horiz-adv-x="915" d="M893 788q0 52 -35 89.5t-86 37.5q-61 0 -91 -37.5t-46 -76.5l-174 -400l-178 400q-17 39 -46.5 76.5t-91.5 37.5q-51 0 -85.5 -37.5t-34.5 -89.5q0 -12 3 -32.5t13 -40.5l311 -668q4 -8 12.5 -21.5t20.5 -25.5t30.5 -21.5t43.5 -9.5q43 0 69.5 28t36.5 50l312 668 q10 20 13 40.5t3 32.5z" />
<glyph unicode="w" horiz-adv-x="1481" d="M1444 788q0 52 -35 89.5t-86 37.5q-61 0 -91 -37.5t-46 -76.5l-174 -400l-176 426q-11 27 -32.5 57.5t-62.5 30.5q-32 0 -53.5 -19t-42.5 -69q-2 -2 -15 -35l-34 -88l-44 -112l-46 -110l-33 -81l-178 400q-16 39 -46 76.5t-91 37.5q-52 0 -86.5 -37.5t-34.5 -89.5 q0 -12 3 -32.5t13 -40.5l309 -668q11 -20 35.5 -49t69.5 -29q39 0 61.5 22.5t32.5 51.5l176 457l176 -453q9 -20 30.5 -49t68.5 -29q45 0 68.5 25.5t35.5 52.5l311 668q11 20 14 40.5t3 32.5z" />
<glyph unicode="x" horiz-adv-x="909" d="M895 94q0 37 -20.5 66.5t-49.5 62.5l-204 230l190 215q29 32 49.5 62t20.5 67q0 51 -39 84.5t-86 33.5q-11 0 -33.5 -5t-56.5 -40q-13 -12 -48 -51l-71 -80l-65 -73l-27 -31l-28 31l-65 73l-71 80q-35 39 -47 51q-35 35 -57.5 40t-32.5 5q-48 0 -86.5 -33.5t-38.5 -84.5 q0 -37 20.5 -67t48.5 -62l191 -215l-205 -230q-29 -33 -49.5 -62.5t-20.5 -66.5q0 -51 39 -85t86 -34q11 0 33.5 5.5t56.5 39.5q11 11 37 40l58 65l61 69l49 56q19 22 21 24q2 -2 21 -24l48 -56l62 -69l57 -65l37 -40q35 -34 57.5 -39.5t32.5 -5.5q47 0 86 34t39 85z" />
<glyph unicode="y" horiz-adv-x="999" d="M985 793q0 51 -37 85.5t-88 34.5q-31 0 -52.5 -11t-37.5 -27.5t-27.5 -37t-19.5 -38.5l-221 -455l-228 455l-21 39q-11 20 -26.5 37.5t-37 27.5t-52.5 10q-51 0 -87 -36.5t-36 -85.5q0 -31 8 -49l11 -29l329 -660l-137 -284q-10 -23 -17 -41.5t-7 -44.5q0 -54 39 -84.5 t88 -30.5q61 0 89.5 38t47.5 77l498 1030q10 22 16 40.5t6 39.5z" />
<glyph unicode="z" horiz-adv-x="911" d="M897 115q0 49 -28.5 77.5t-54.5 32.5t-52 4h-344l407 510q11 15 23 35.5t12 42.5q0 47 -30.5 61.5t-67.5 14.5h-602q-29 0 -54.5 -6t-50.5 -31q-28 -29 -28 -78t28 -78q25 -24 46.5 -29t58.5 -5h303l-410 -512l-23 -36q-12 -20 -12 -42q0 -47 31 -61.5t68 -14.5h645 q37 0 60.5 7t45.5 30q29 29 29 78z" />
<glyph unicode="{" horiz-adv-x="682" d="M176 -47q0 -140 69 -204t204 -64h126q41 0 67 22.5t26 69.5q0 46 -26 69t-67 23h-51q-43 0 -66.5 28t-23.5 91v387q0 70 -24.5 110t-59 60.5t-72.5 27t-65 9.5v4q27 2 65 8.5t72.5 27t59 61t24.5 110.5v387q0 63 23.5 90.5t66.5 27.5h51q41 0 67 23t26 70q0 46 -26 69 t-67 23h-126q-135 0 -204 -64t-69 -205v-397q0 -46 -8 -73t-21.5 -40.5t-31.5 -17.5t-37 -4q-26 0 -44.5 -8.5t-30.5 -22t-17.5 -31.5t-5.5 -36t5.5 -36t17.5 -32t30.5 -22.5t44.5 -8.5q19 0 37 -4t31.5 -17.5t21.5 -40.5t8 -73v-397z" />
<glyph unicode="|" horiz-adv-x="459" d="M360 -154v1385q0 31 -7 63.5t-34 59.5q-34 35 -90 35q-55 0 -90 -35q-22 -23 -31.5 -51.5t-9.5 -71.5v-1385q0 -43 9.5 -71.5t31.5 -50.5q35 -35 90 -35q56 0 90 35q27 26 34 59t7 63z" />
<glyph unicode="}" horiz-adv-x="682" d="M506 1214q0 141 -69 205t-204 64h-127q-40 0 -66 -23t-26 -69q0 -47 26 -70t66 -23h52q43 0 66.5 -27.5t23.5 -90.5v-387q0 -70 24.5 -110.5t59 -61t72.5 -27t65 -8.5v-4q-27 -3 -65 -9.5t-72.5 -27t-59 -60.5t-24.5 -110v-387q0 -63 -23.5 -91t-66.5 -28h-52 q-40 0 -66 -23t-26 -69q0 -47 26 -69.5t66 -22.5h127q135 0 204 64t69 204v397q0 46 8 73t21.5 40.5t31.5 17.5t37 4q25 0 43.5 8.5t30.5 22.5t18 32t6 36t-6 36t-18 31.5t-30.5 22t-43.5 8.5q-19 0 -37 4t-31.5 17.5t-21.5 40.5t-8 73v397z" />
<glyph unicode="~" d="M856 1090q23 22 37 54t14 66q0 27 -17.5 52.5t-55.5 25.5q-25 0 -39.5 -11t-24.5 -24.5t-22.5 -24.5t-34.5 -11q-13 0 -24 3t-27 7q-58 16 -114 36.5t-116 20.5q-35 0 -75 -9t-74 -44q-25 -25 -38.5 -53.5t-13.5 -65.5q0 -29 19.5 -52.5t56.5 -23.5q19 0 37 11.5t30.5 28 t25 23.5t34.5 7q10 0 18.5 -3t24.5 -7q58 -17 114 -37.5t116 -20.5q26 0 70 8.5t79 43.5z" />
<glyph d="M1147 295q0 41 -23.5 74.5t-83.5 33.5q-44 1 -74 -29l-63 -65q-33 -35 -81 -64.5t-130 -29.5q-51 0 -95 19.5t-78 50t-56.5 71.5t-30.5 84h232q34 0 62 5.5t50 27.5q10 10 18.5 28.5t8.5 35.5q0 36 -27 63q-22 23 -50 28t-62 5h-265l-2 19q-2 20 -2 36q0 14 2 32l2 17 h265q34 0 62 5.5t50 27.5q10 10 18.5 28.5t8.5 35.5q0 36 -27 63q-22 23 -50 28t-62 5h-234q14 43 39 82t57.5 68.5t71.5 47t82 17.5q82 0 130 -28.5t83 -62.5l65 -62q30 -28 76 -29q56 0 83.5 35.5t27.5 76.5q0 47 -31 94.5t-67 83.5q-66 66 -167.5 103t-195.5 37 q-98 0 -182 -34t-151.5 -95.5t-117 -146.5t-75.5 -187h-47q-35 0 -63 -5t-50 -28q-10 -10 -18.5 -28.5t-8.5 -34.5q0 -17 8.5 -35.5t18.5 -28.5q22 -22 50 -27.5t63 -5.5h32l-2 -17q-2 -18 -2 -32q0 -16 2 -36l2 -19h-32q-35 0 -63 -5t-50 -28q-10 -10 -18.5 -28.5 t-8.5 -34.5q0 -17 8.5 -35.5t18.5 -28.5q22 -22 50 -27.5t63 -5.5h43q24 -102 72 -189t117 -150.5t156 -98.5t189 -35q117 0 208 37t151 96q100 101 100 195z" />
<glyph unicode="&#x20ac;" d="M1147 295q0 41 -23.5 74.5t-83.5 33.5q-44 1 -74 -29l-63 -65q-33 -35 -81 -64.5t-130 -29.5q-51 0 -95 19.5t-78 50t-56.5 71.5t-30.5 84h232q34 0 62 5.5t50 27.5q10 10 18.5 28.5t8.5 35.5q0 36 -27 63q-22 23 -50 28t-62 5h-265l-2 19q-2 20 -2 36q0 14 2 32l2 17 h265q34 0 62 5.5t50 27.5q10 10 18.5 28.5t8.5 35.5q0 36 -27 63q-22 23 -50 28t-62 5h-234q14 43 39 82t57.5 68.5t71.5 47t82 17.5q82 0 130 -28.5t83 -62.5l65 -62q30 -28 76 -29q56 0 83.5 35.5t27.5 76.5q0 47 -31 94.5t-67 83.5q-66 66 -167.5 103t-195.5 37 q-98 0 -182 -34t-151.5 -95.5t-117 -146.5t-75.5 -187h-47q-35 0 -63 -5t-50 -28q-10 -10 -18.5 -28.5t-8.5 -34.5q0 -17 8.5 -35.5t18.5 -28.5q22 -22 50 -27.5t63 -5.5h32l-2 -17q-2 -18 -2 -32q0 -16 2 -36l2 -19h-32q-35 0 -63 -5t-50 -28q-10 -10 -18.5 -28.5 t-8.5 -34.5q0 -17 8.5 -35.5t18.5 -28.5q22 -22 50 -27.5t63 -5.5h43q24 -102 72 -189t117 -150.5t156 -98.5t189 -35q117 0 208 37t151 96q100 101 100 195z" />
<glyph unicode="&#xa1;" horiz-adv-x="618" d="M477 811q0 70 -49 119t-119 49q-69 0 -118.5 -49t-49.5 -119t49.5 -119t118.5 -49q70 0 119 49t49 119zM446 -268v645q0 45 -9 73.5t-34 53.5q-36 37 -94 37q-57 0 -94 -37q-33 -33 -38 -71t-5 -56v-645q0 -45 9 -75t34 -52q16 -17 41 -27t53 -10q58 0 94 37q29 28 36 61 t7 66z" />
<glyph unicode="&#xa2;" horiz-adv-x="1024" />
<glyph unicode="&#xa3;" d="M1098 225q0 39 -28 72t-81 33q-37 0 -57.5 -17.5t-37.5 -38t-38.5 -38t-60.5 -17.5q-23 0 -54.5 7t-64.5 18q-34 10 -64 21l-55 20q16 26 30.5 53t14.5 82q0 31 -7 55.5t-17 46.5h88q36 0 68 6.5t57 30.5q28 29 28 70t-28 69q-27 27 -56.5 32t-68.5 5h-164 q-35 49 -59.5 103.5t-24.5 124.5q0 45 17.5 80.5t45 59t61 36t66.5 12.5q54 0 89.5 -15.5t58.5 -37.5q26 -29 43.5 -65t36 -68.5t43 -55t69.5 -22.5q58 0 86.5 37t28.5 88q0 78 -39 147.5t-88 116.5q-66 63 -148.5 89t-173.5 26q-96 0 -181 -31t-147.5 -88.5t-99 -138 t-36.5 -181.5q0 -71 29.5 -128.5t49.5 -88.5h-16q-39 0 -68.5 -5t-56.5 -32q-29 -28 -29 -69t29 -70q25 -24 56.5 -30.5t68.5 -6.5h113q8 -12 17 -41.5t9 -54.5q0 -41 -19.5 -64.5t-41.5 -46.5q-55 -4 -93 -22.5t-67 -46.5q-6 -6 -18.5 -20.5t-25.5 -37t-23.5 -52.5 t-10.5 -66q0 -39 28 -72t81 -33q37 0 57.5 17.5t37.5 38t37.5 38t61.5 17.5q56 0 107 -16l103 -36q52 -18 106.5 -34.5t115.5 -16.5q86 0 158 32t117 101q14 23 24.5 52.5t10.5 66.5z" />
<glyph unicode="&#xa4;" d="M1147 295q0 41 -23.5 74.5t-83.5 33.5q-44 1 -74 -29l-63 -65q-33 -35 -81 -64.5t-130 -29.5q-51 0 -95 19.5t-78 50t-56.5 71.5t-30.5 84h232q34 0 62 5.5t50 27.5q10 10 18.5 28.5t8.5 35.5q0 36 -27 63q-22 23 -50 28t-62 5h-265l-2 19q-2 20 -2 36q0 14 2 32l2 17 h265q34 0 62 5.5t50 27.5q10 10 18.5 28.5t8.5 35.5q0 36 -27 63q-22 23 -50 28t-62 5h-234q14 43 39 82t57.5 68.5t71.5 47t82 17.5q82 0 130 -29q48 -28 83 -62l65 -62q30 -28 76 -29q56 0 83.5 35.5t27.5 76.5q0 47 -31 94.5t-67 83.5q-66 66 -167.5 103t-195.5 37 q-98 0 -182 -34t-151.5 -95.5t-117 -146.5t-75.5 -187h-47q-35 0 -63 -5t-50 -28q-10 -10 -18.5 -28.5t-8.5 -34.5q0 -17 8.5 -35.5t18.5 -28.5q22 -22 50 -27.5t63 -5.5h32l-2 -17q-2 -18 -2 -32q0 -16 2 -36l2 -19h-32q-35 0 -63 -5t-50 -28q-10 -10 -18.5 -28.5 t-8.5 -34.5q0 -17 8.5 -35.5t18.5 -28.5q22 -22 50 -27.5t63 -5.5h43q24 -102 72 -189t117 -150.5t156 -98.5t189 -35q117 0 208 37t151 96q100 101 100 195z" />
<glyph unicode="&#xa5;" d="M1044 1264q0 59 -37.5 92t-84.5 33q-29 0 -50.5 -10.5t-37 -24t-25.5 -28.5t-16 -28l-226 -391l-219 389q-16 29 -44 61t-83 32q-47 0 -86 -34t-39 -89q0 -27 7.5 -47.5t19.5 -42.5l172 -302h-25q-37 0 -64.5 -5t-51.5 -29q-27 -27 -27 -66q0 -16 8 -35.5t19 -29.5 q22 -23 52 -29t64 -6h127l43 -88h-170q-37 0 -64.5 -5.5t-51.5 -29.5q-27 -27 -27 -66q0 -16 8 -35.5t19 -29.5q22 -23 52 -29t64 -6h162v-258q0 -16 5 -52t36 -65q33 -33 86 -33t86 33q23 23 32 49.5t9 67.5v258h166q35 0 64.5 6t52.5 29q10 10 18 29.5t8 35.5q0 39 -26 66 q-25 24 -52.5 29.5t-64.5 5.5h-174l53 88h121q35 0 64.5 6t52.5 29q10 10 18 29.5t8 35.5q0 39 -26 66q-25 24 -52.5 29t-64.5 5h-14l180 302q26 43 26 88z" />
<glyph unicode="&#xa6;" horiz-adv-x="1024" />
<glyph unicode="&#xa7;" d="M848 360q133 127 133 306q0 75 -21.5 130.5t-58.5 96.5t-83 70.5t-95 52t-96 42t-84 40t-62.5 46t-25.5 66.5q0 58 44 92.5t103 34.5q47 0 79 -14t54.5 -30.5t42 -29t47.5 -12.5q43 0 73 28t30 75q0 28 -14.5 53t-34.5 45q-50 51 -127.5 77.5t-151.5 26.5 q-76 0 -144.5 -24.5t-121.5 -69.5t-85 -111.5t-32 -148.5q0 -92 42 -158.5t108 -115.5q-76 -51 -118 -126t-42 -173q0 -62 19.5 -110t53 -87t78.5 -68.5t97 -54.5q18 -10 39.5 -17t44.5 -18q32 -12 66 -29.5t61.5 -41t45 -54t17.5 -73.5q0 -72 -50 -122t-122 -50 q-76 0 -116 26q-41 28 -67 58l-50 57q-24 27 -68 27q-45 0 -72.5 -29t-27.5 -78q0 -43 31.5 -88t56.5 -70q59 -59 139 -90.5t166 -31.5t162.5 29.5t134 84t91.5 129t34 164.5q0 92 -33 155.5t-90 112.5zM573 846q29 -12 61 -30.5t58.5 -44.5t44 -60.5t17.5 -79.5 q0 -99 -92 -172q-22 6 -40 12l-36 12q-58 21 -106 55.5t-48 106.5q0 53 34 109.5t107 91.5z" />
<glyph unicode="&#xa8;" horiz-adv-x="1114" d="M946 1237q0 70 -49 119t-119 49q-69 0 -118.5 -49t-49.5 -119t49.5 -119t118.5 -49q70 0 119 49t49 119zM502 1237q0 70 -49.5 119t-118.5 49q-70 0 -119 -49t-49 -119t49 -119t119 -49q69 0 118.5 49t49.5 119z" />
<glyph unicode="&#xa9;" horiz-adv-x="1520" d="M1286 686q0 -111 -41 -206t-112.5 -166.5t-167 -112.5t-205.5 -41q-111 0 -206 41t-167 112.5t-113 166.5t-41 206t41 206t113 166.5t167 112.5t206 41q110 0 205.5 -41t167 -112.5t112.5 -166.5t41 -206zM760 -20q147 0 276 55t226.5 151.5t152.5 224.5t55 275 q0 148 -55 276t-152.5 224t-226.5 151.5t-276 55.5q-148 0 -277 -55.5t-226 -151.5t-152.5 -224t-55.5 -276q0 -147 55.5 -275t152.5 -224.5t226 -151.5t277 -55zM1057 416q39 39 39 80q0 28 -19.5 49.5t-50.5 21.5q-30 0 -50 -16l-40 -33q-33 -26 -71 -42.5t-81 -16.5 q-96 0 -153.5 63.5t-57.5 161.5q0 111 54.5 172.5t148.5 61.5q43 0 82 -17.5t72 -44.5l38 -32q18 -16 50 -15q33 0 52.5 20.5t19.5 51.5q0 12 -9.5 33.5t-31.5 43.5q-9 9 -30.5 27.5t-55 37.5t-81.5 33.5t-110 14.5q-82 0 -151.5 -29.5t-120.5 -82t-81 -123t-30 -152.5 q0 -80 31 -149.5t83 -121t123.5 -80t153.5 -28.5q62 0 110 14.5t82 33t55.5 37t29.5 26.5z" />
<glyph unicode="&#xaa;" horiz-adv-x="1042" />
<glyph unicode="&#xab;" horiz-adv-x="958" d="M453 836l-205 -263l205 -262q18 -22 31.5 -42.5t13.5 -49.5q0 -24 -20.5 -52t-63.5 -28q-33 0 -51.5 15.5t-36.5 38.5l-254 317q-9 10 -18 27.5t-9 35.5q0 19 8 35.5t19 28.5l254 317q18 23 36.5 38.5t51.5 15.5q43 0 63.5 -28t20.5 -52q0 -29 -13.5 -49.5t-31.5 -42.5z M811 836l-205 -263l205 -262q18 -22 31.5 -42.5t13.5 -49.5q0 -24 -20.5 -52t-63.5 -28q-33 0 -51.5 15.5t-36.5 38.5l-254 317q-8 10 -17.5 27.5t-9.5 35.5q0 19 8.5 35.5t18.5 28.5l254 317q18 23 36.5 38.5t51.5 15.5q43 0 63.5 -28t20.5 -52q0 -29 -13.5 -49.5 t-31.5 -42.5z" />
<glyph unicode="&#xac;" horiz-adv-x="1073" />
<glyph unicode="&#xad;" d="M852 729q0 19 -6 37t-23 35q-28 28 -59 33.5t-72 5.5h-248q-41 0 -71.5 -5.5t-59.5 -33.5q-16 -17 -22 -35t-6 -37q0 -18 8 -38.5t20 -33.5q27 -26 60 -32.5t71 -6.5h248q39 0 72 6.5t59 32.5q13 13 21 33.5t8 38.5z" />
<glyph unicode="&#xae;" horiz-adv-x="823" d="M698 1075q0 68 -25.5 126.5t-69.5 101.5t-103.5 68.5t-126.5 25.5q-68 0 -127.5 -25.5t-103.5 -68.5t-69.5 -101.5t-25.5 -126.5q0 -67 25.5 -125.5t69.5 -101.5t103.5 -68.5t127.5 -25.5q67 0 126.5 25.5t103.5 68.5t69.5 101.5t25.5 125.5zM596 1075q0 -47 -17.5 -87 t-48 -70.5t-71.5 -48t-86 -17.5q-47 0 -87 17.5t-71 48t-48 70.5t-17 87q0 45 17 86t48 72t71 48t87 17q45 0 86 -17t71.5 -48t48 -72t17.5 -86zM346 1049l66 -99q4 -8 13 -17t28 -9q18 0 28.5 10t10.5 20q0 13 -6.5 24t-18.5 28l-39 53q27 4 43 26.5t16 53.5q0 22 -9 42.5 t-27 32.5q-17 13 -37.5 16t-48.5 3h-52q-28 0 -37.5 -7t-9.5 -40v-219q0 -21 12.5 -32t28.5 -11q17 0 28 12t11 31v82zM365 1169q16 0 30.5 -6t14.5 -24q0 -15 -8.5 -23t-36.5 -8h-19v61h19z" />
<glyph unicode="&#xaf;" horiz-adv-x="950" d="M817 1251q0 31 -26 58q-23 22 -46.5 27t-56.5 5h-426q-33 0 -56.5 -5t-45.5 -27q-27 -27 -27 -58q0 -16 8.5 -31.5t18.5 -25.5q22 -23 46.5 -28t55.5 -5h426q31 0 55.5 5t47.5 28q10 10 18 25.5t8 31.5z" />
<glyph unicode="&#x2c9;" horiz-adv-x="950" d="M817 1251q0 31 -26 58q-23 22 -46.5 27t-56.5 5h-426q-33 0 -56.5 -5t-45.5 -27q-27 -27 -27 -58q0 -16 8.5 -31.5t18.5 -25.5q22 -23 46.5 -28t55.5 -5h426q31 0 55.5 5t47.5 28q10 10 18 25.5t8 31.5z" />
<glyph unicode="&#xb0;" d="M909 1092q0 67 -26.5 127.5t-71.5 105.5t-107.5 71.5t-132.5 26.5q-71 0 -132.5 -26.5t-108.5 -71.5t-74 -105.5t-27 -127.5q0 -68 27 -128.5t74 -104.5t108.5 -69.5t132.5 -25.5q70 0 132.5 25.5t107.5 69.5t71.5 104.5t26.5 128.5zM725 1092q0 -70 -45 -115t-111 -45 q-65 0 -110 47t-45 117q0 69 45 114t110 45q66 0 111 -47t45 -116z" />
<glyph unicode="&#xb1;" horiz-adv-x="1024" />
<glyph unicode="&#xb2;" horiz-adv-x="1024" />
<glyph unicode="&#xb3;" horiz-adv-x="1024" />
<glyph unicode="&#xb4;" horiz-adv-x="950" d="M702 1346q0 38 -25.5 64t-62.5 26q-22 0 -41.5 -9.5t-35.5 -21.5l-234 -186q-55 -48 -55 -95q0 -39 25.5 -64.5t62.5 -25.5q20 0 40.5 9.5t37.5 21.5l237 192q19 15 35 35.5t16 53.5z" />
<glyph unicode="&#xb5;" horiz-adv-x="1446" />
<glyph unicode="&#x3bc;" horiz-adv-x="1446" />
<glyph unicode="&#xb6;" d="M1065 -55v1239q0 63 -8 93t-31 52q-29 29 -60.5 34t-74.5 5h-320q-131 0 -223 -23.5t-164 -80.5q-65 -54 -101 -135.5t-36 -180.5q0 -96 28.5 -171t79 -128t116 -83.5t139.5 -37.5v-583q0 -19 4 -55.5t37 -67.5q16 -17 39.5 -27t52.5 -10q28 0 51.5 10t40.5 27 q24 24 32.5 52t8.5 71v1194h123v-1194q0 -19 4 -55.5t37 -67.5q16 -17 39.5 -27t52.5 -10t52.5 10t39.5 27q25 24 33 52t8 71z" />
<glyph unicode="&#xb7;" horiz-adv-x="582" d="M461 752q0 69 -49.5 118.5t-118.5 49.5q-70 0 -119 -49.5t-49 -118.5q0 -70 49 -119t119 -49q69 0 118.5 49t49.5 119z" />
<glyph unicode="&#x22c5;" horiz-adv-x="582" d="M461 752q0 69 -49.5 118.5t-118.5 49.5q-70 0 -119 -49.5t-49 -118.5q0 -70 49 -119t119 -49q69 0 118.5 49t49.5 119z" />
<glyph unicode="&#x2219;" horiz-adv-x="582" d="M461 752q0 69 -49.5 118.5t-118.5 49.5q-70 0 -119 -49.5t-49 -118.5q0 -70 49 -119t119 -49q69 0 118.5 49t49.5 119z" />
<glyph unicode="&#xb8;" horiz-adv-x="950" d="M537 -66v86h-131v-122q0 -29 5 -42.5t16 -19.5t26.5 -7t33.5 -3q27 -4 44.5 -21.5t17.5 -46.5q0 -37 -19 -55q-6 -6 -19 -13t-36 -7q-35 0 -53.5 16t-31.5 34.5t-27.5 35t-38.5 16.5q-23 0 -37.5 -14.5t-14.5 -40.5q0 -56 52 -107q28 -29 71 -44t82 -15q33 0 69 12 t64.5 35.5t47 58.5t18.5 82q0 72 -37 119t-102 63z" />
<glyph unicode="&#xb9;" horiz-adv-x="1155" d="M1057 135v621q0 30 -7.5 63t-33.5 60q-17 16 -39.5 25t-50.5 9q-56 0 -90 -34q-23 -23 -32 -51.5t-9 -71.5v-621q0 -43 9 -71.5t32 -51.5q34 -35 90 -35q28 0 50.5 9.5t39.5 25.5q26 27 33.5 59.5t7.5 63.5zM844 1208q0 43 -28 78t-71 59.5t-96 38t-102 13.5 q-170 0 -253 -98.5t-83 -258.5v-149h-78q-27 0 -54.5 -7t-49.5 -30q-27 -27 -27 -76q0 -45 27 -76q20 -20 43.5 -28t60.5 -8h78v-531q0 -43 9 -71.5t32 -51.5q35 -35 90 -35q29 0 51.5 9.5t38.5 25.5q27 27 34 59.5t7 63.5v531h107q36 0 60 8t44 28q27 31 27 76q0 49 -27 76 q-22 23 -50 30t-54 7h-107v106q0 31 2 62t9.5 55.5t24.5 39.5t48 15q25 0 45.5 -9t41 -19.5t43 -19.5t48.5 -9q53 0 81 28.5t28 67.5z" />
<glyph unicode="&#xba;" horiz-adv-x="1155" d="M473 997v-106h107q26 0 54 -7t50 -30q27 -27 27 -76q0 -45 -27 -76q-20 -20 -44 -28t-60 -8h-107v-531q0 -31 -7 -63.5t-34 -59.5q-16 -16 -38.5 -25.5t-51.5 -9.5q-55 0 -90 35q-23 23 -32 51.5t-9 71.5v531h-78q-37 0 -60.5 8t-43.5 28q-27 31 -27 76q0 49 27 76 q22 23 49.5 30t54.5 7h78v149q0 86 20.5 153t67.5 112q51 49 105.5 68.5t115.5 19.5q35 0 86 -12.5t92 -53.5t41 -94q0 -41 -27.5 -72t-74.5 -31q-35 0 -60.5 10.5t-48.5 10.5q-43 0 -49 -42t-6 -112zM1057 135v1096q0 31 -7.5 63.5t-33.5 59.5q-35 35 -90 35q-56 0 -90 -35 q-23 -23 -32 -51.5t-9 -71.5v-1096q0 -43 9 -71.5t32 -51.5q34 -35 90 -35q28 0 50.5 9.5t39.5 25.5q26 27 33.5 59.5t7.5 63.5z" />
<glyph unicode="&#xbb;" horiz-adv-x="958" d="M506 836l205 -263l-205 -262q-19 -22 -32 -42.5t-13 -49.5q0 -24 20.5 -52t63.5 -28q33 0 51 15.5t37 38.5l254 317q8 10 17 27.5t9 35.5q0 19 -8 35.5t-18 28.5l-254 317q-19 23 -37 38.5t-51 15.5q-43 0 -63.5 -28t-20.5 -52q0 -29 13 -49.5t32 -42.5zM147 836 l205 -263l-205 -262q-18 -22 -31.5 -42.5t-13.5 -49.5q0 -24 20.5 -52t63.5 -28q33 0 51.5 15.5t36.5 38.5l254 317q9 10 18 27.5t9 35.5q0 19 -8 35.5t-19 28.5l-254 317q-18 23 -36.5 38.5t-51.5 15.5q-43 0 -63.5 -28t-20.5 -52q0 -29 13.5 -49.5t31.5 -42.5z" />
<glyph unicode="&#xbc;" horiz-adv-x="1024" />
<glyph unicode="&#xbd;" horiz-adv-x="10355" />
<glyph unicode="&#xbe;" horiz-adv-x="1024" />
<glyph unicode="&#xbf;" horiz-adv-x="1116" d="M737 811q0 70 -49 119t-119 49q-69 0 -118.5 -49t-49.5 -119t49.5 -119t118.5 -49q70 0 119 49t49 119zM967 -76q0 47 -27 81t-84 34q-41 0 -64.5 -20.5t-41 -51t-33 -64.5t-39.5 -59q-23 -22 -52.5 -34.5t-76.5 -12.5q-55 0 -102.5 43t-47.5 121q0 39 12.5 60.5 t28.5 37.5q35 35 81 49.5t87 32t70 50t29 104.5v82q0 18 -5.5 56t-37.5 71q-37 37 -95 37q-57 0 -94 -37q-24 -25 -33.5 -53.5t-9.5 -73.5v-58q-53 -8 -106.5 -31.5t-87.5 -58.5q-62 -59 -86.5 -127.5t-24.5 -142.5q0 -104 38 -179t98.5 -123t136 -70.5t153.5 -22.5 q82 0 161 26.5t140 87.5q45 46 79 110.5t34 135.5z" />
<glyph unicode="&#xc0;" horiz-adv-x="1219" d="M1225 106q0 29 -10.5 54.5t-14.5 38.5l-436 1056q-10 25 -21.5 49.5t-28 44t-40 32t-56.5 12.5q-34 0 -56.5 -12.5t-38 -32t-27 -44t-21.5 -49.5l-459 -1062q-14 -31 -18 -49.5t-4 -37.5q0 -53 38 -91t95 -38t89 34t46 67l90 215h514l90 -215q2 -4 9.5 -20.5t24 -34 t41 -32t61.5 -14.5q57 0 95 37t38 92zM778 539h-334l168 428zM866 1568q0 47 -55 95l-233 186q-17 12 -36.5 21.5t-41.5 9.5q-37 0 -62.5 -26t-25.5 -64q0 -33 16.5 -53.5t34.5 -35.5l238 -192q16 -12 36.5 -21.5t40.5 -9.5q37 0 62.5 25.5t25.5 64.5z" />
<glyph unicode="&#xc1;" horiz-adv-x="1219" d="M1225 106q0 29 -10.5 54.5t-14.5 38.5l-436 1056q-10 25 -21.5 49.5t-28 44t-40 32t-56.5 12.5q-34 0 -56.5 -12.5t-38 -32t-27 -44t-21.5 -49.5l-459 -1062q-14 -31 -18 -49.5t-4 -37.5q0 -53 38 -91t95 -38t89 34t46 67l90 215h514l90 -215q2 -4 9.5 -20.5t24 -34 t41 -32t61.5 -14.5q57 0 95 37t38 92zM778 539h-334l168 428zM870 1790q0 38 -25.5 64t-62.5 26q-22 0 -41.5 -9.5t-35.5 -21.5l-234 -186q-55 -48 -55 -95q0 -39 25.5 -64.5t62.5 -25.5q20 0 40.5 9.5t37.5 21.5l237 192q19 15 35 35.5t16 53.5z" />
<glyph unicode="&#xc2;" horiz-adv-x="1219" d="M1225 106q0 29 -10.5 54.5t-14.5 38.5l-436 1056q-10 25 -21.5 49.5t-28 44t-40 32t-56.5 12.5q-34 0 -56.5 -12.5t-38 -32t-27 -44t-21.5 -49.5l-459 -1062q-14 -31 -18 -49.5t-4 -37.5q0 -53 38 -91t95 -38t89 34t46 67l90 215h514l90 -215q2 -4 9.5 -20.5t24 -34 t41 -32t61.5 -14.5q57 0 95 37t38 92zM778 539h-334l168 428zM895 1478q36 0 63 25.5t27 64.5q0 31 -16.5 53.5t-39.5 41.5l-118 96l-115 90q-14 10 -34.5 20.5t-41.5 10.5q-22 0 -40.5 -8.5t-35.5 -22.5l-209 -168q-28 -23 -53.5 -47.5t-25.5 -65.5q0 -39 26.5 -64.5 t63.5 -25.5q20 0 39.5 9.5t35.5 21.5l199 158l199 -158q16 -12 35.5 -21.5t40.5 -9.5z" />
<glyph unicode="&#xc3;" horiz-adv-x="1219" d="M1225 106q0 29 -10.5 54.5t-14.5 38.5l-436 1056q-10 25 -21.5 49.5t-28 44t-40 32t-56.5 12.5q-34 0 -56.5 -12.5t-38 -32t-27 -44t-21.5 -49.5l-459 -1062q-14 -31 -18 -49.5t-4 -37.5q0 -53 38 -91t95 -38t89 34t46 67l90 215h514l90 -215q2 -4 9.5 -20.5t24 -34 t41 -32t61.5 -14.5q57 0 95 37t38 92zM778 539h-334l168 428zM918 1601q22 23 36.5 54.5t14.5 66.5q0 27 -17.5 52.5t-56.5 25.5q-24 0 -38.5 -11.5t-24.5 -24.5t-22.5 -24.5t-35.5 -11.5q-12 0 -23 3t-28 7q-57 17 -113.5 38.5t-115.5 21.5q-35 0 -75 -9.5t-75 -44.5 q-22 -22 -36.5 -53t-14.5 -67q0 -29 19.5 -52.5t56.5 -23.5q18 0 36.5 11t31 27.5t24.5 23.5t35 7q10 0 18.5 -3t24.5 -7q57 -16 113.5 -37.5t115.5 -21.5q27 0 71 9t79 44z" />
<glyph unicode="&#xc4;" horiz-adv-x="1219" d="M1225 106q0 29 -10.5 54.5t-14.5 38.5l-436 1056q-10 25 -21.5 49.5t-28 44t-40 32t-56.5 12.5q-34 0 -56.5 -12.5t-38 -32t-27 -44t-21.5 -49.5l-459 -1062q-14 -31 -18 -49.5t-4 -37.5q0 -53 38 -91t95 -38t89 34t46 67l90 215h514l90 -215q2 -4 9.5 -20.5t24 -34 t41 -32t61.5 -14.5q57 0 95 37t38 92zM778 539h-334l168 428zM1009 1665q0 70 -49 119t-119 49q-69 0 -118.5 -49t-49.5 -119t49.5 -119t118.5 -49q70 0 119 49t49 119zM565 1665q0 70 -49.5 119t-118.5 49q-70 0 -119 -49t-49 -119t49 -119t119 -49q69 0 118.5 49t49.5 119 z" />
<glyph unicode="&#xc5;" horiz-adv-x="1219" d="M1225 106q0 29 -10.5 54.5t-14.5 38.5l-436 1056q-16 41 -22 51l-13 21q8 4 21.5 16.5t27 31t22.5 44t9 58.5q0 39 -15.5 72.5t-42 59t-60.5 41t-73 15.5q-77 0 -132.5 -55.5t-55.5 -132.5q0 -35 10.5 -61.5t23.5 -45t26.5 -29t19.5 -14.5l-11 -21l-24 -51l-459 -1062 q-14 -31 -18 -49.5t-4 -37.5q0 -53 38 -91t95 -38t89 34t46 67l90 215h514l90 -215q2 -4 9.5 -20.5t24 -34t41 -32t61.5 -14.5q57 0 95 37t38 92zM700 1477q0 -35 -23.5 -57.5t-58.5 -22.5q-34 0 -56.5 22.5t-22.5 57.5q0 34 22.5 58t56.5 24q35 0 58.5 -24t23.5 -58z M778 539h-334l168 428z" />
<glyph unicode="&#xc6;" horiz-adv-x="1847" d="M1755 125q0 22 -9 45t-24 37q-30 31 -67 37t-82 6h-373v340h356q48 0 83.5 6t66.5 37q33 33 33 80q0 22 -9.5 43.5t-23.5 36.5q-31 30 -67.5 36.5t-82.5 6.5h-356v282h373q47 0 83 6t66 37q17 17 25 38.5t8 43.5q0 23 -9 45.5t-24 36.5q-30 31 -67 37t-82 6h-584 q-63 0 -105 -11t-74 -36t-58.5 -60.5t-57.5 -84.5l-600 -955l-38 -67q-14 -26 -15 -60q0 -51 37 -84t86 -33q31 0 52.5 10.5t37.5 26t30.5 36t26.5 40.5l211 342h404v-246q0 -53 4 -86.5t33 -62.5q30 -29 68 -33t93 -4h449q47 0 83 6t66 37q17 16 25 37.5t8 44.5zM926 670 h-269l269 448v-448z" />
<glyph unicode="&#xc7;" horiz-adv-x="1493" d="M1315 152q-103 -99 -219.5 -143t-225.5 -48v-39q66 -8 103 -52t37 -118q0 -47 -18.5 -82t-47.5 -58.5t-64.5 -35.5t-68.5 -12q-39 0 -82 15t-72 44q-51 51 -51 107q0 26 14.5 40.5t36.5 14.5q25 0 39.5 -16.5t27.5 -35t31.5 -34.5t53.5 -16q22 0 35.5 7t19.5 13 q19 18 19 55q0 29 -17.5 46.5t-44.5 21.5q-18 2 -33.5 3t-26.5 7t-16.5 19.5t-5.5 42.5v63q-139 6 -264 62.5t-218 152.5t-148.5 225t-55.5 281q0 149 56.5 282.5t157 232.5t237.5 156.5t299 57.5q147 0 272 -44t230 -146q26 -25 52.5 -63t26.5 -85q0 -20 -8 -42.5 t-24.5 -41t-40 -30t-56.5 -11.5q-55 0 -95 32l-86 70q-46 38 -108.5 69.5t-162.5 31.5q-98 0 -182 -38t-144.5 -102.5t-94.5 -149.5t-34 -177q0 -96 34 -180t93.5 -147.5t143 -100.5t184.5 -37q115 0 190.5 41t153.5 109q27 22 51.5 37.5t63.5 15.5q59 0 96 -40t37 -87 t-26 -81t-54 -62z" />
<glyph unicode="&#xc8;" horiz-adv-x="1036" d="M944 125q0 22 -9 45t-24 37q-30 31 -67 37t-82 6h-373v340h356q48 0 83.5 6t66.5 37q33 33 33 80q0 22 -9.5 43.5t-23.5 36.5q-31 30 -67.5 36.5t-82.5 6.5h-356v282h373q47 0 83 6t66 37q17 17 25 38.5t8 43.5q0 23 -9 45.5t-24 36.5q-30 31 -67 37t-82 6h-449 q-55 0 -93 -4t-68 -33q-29 -28 -33 -62t-4 -87v-996q0 -53 4 -86.5t33 -62.5q30 -29 68 -33t93 -4h449q47 0 83 6t66 37q17 16 25 37.5t8 44.5zM722 1568q0 47 -55 95l-233 186q-17 12 -36.5 21.5t-41.5 9.5q-37 0 -62.5 -26t-25.5 -64q0 -33 16.5 -53.5t34.5 -35.5 l238 -192q16 -12 36.5 -21.5t40.5 -9.5q37 0 62.5 25.5t25.5 64.5z" />
<glyph unicode="&#xc9;" horiz-adv-x="1036" d="M944 125q0 22 -9 45t-24 37q-30 31 -67 37t-82 6h-373v340h356q48 0 83.5 6t66.5 37q33 33 33 80q0 22 -9.5 43.5t-23.5 36.5q-31 30 -67.5 36.5t-82.5 6.5h-356v282h373q47 0 83 6t66 37q17 17 25 38.5t8 43.5q0 23 -9 45.5t-24 36.5q-30 31 -67 37t-82 6h-449 q-55 0 -93 -4t-68 -33q-29 -28 -33 -62t-4 -87v-996q0 -53 4 -86.5t33 -62.5q30 -29 68 -33t93 -4h449q47 0 83 6t66 37q17 16 25 37.5t8 44.5zM790 1790q0 38 -25.5 64t-62.5 26q-22 0 -41.5 -9.5t-35.5 -21.5l-234 -186q-55 -48 -55 -95q0 -39 25.5 -64.5t62.5 -25.5 q20 0 40.5 9.5t37.5 21.5l237 192q19 15 35 35.5t16 53.5z" />
<glyph unicode="&#xca;" horiz-adv-x="1036" d="M944 125q0 22 -9 45t-24 37q-30 31 -67 37t-82 6h-373v340h356q48 0 83.5 6t66.5 37q33 33 33 80q0 22 -9.5 43.5t-23.5 36.5q-31 30 -67.5 36.5t-82.5 6.5h-356v282h373q47 0 83 6t66 37q17 17 25 38.5t8 43.5q0 23 -9 45.5t-24 36.5q-30 31 -67 37t-82 6h-449 q-55 0 -93 -4t-68 -33q-29 -28 -33 -62t-4 -87v-996q0 -53 4 -86.5t33 -62.5q30 -29 68 -33t93 -4h449q47 0 83 6t66 37q17 16 25 37.5t8 44.5zM775 1478q36 0 63 25.5t27 64.5q0 31 -16.5 53.5t-39.5 41.5l-118 96l-115 90q-14 10 -34.5 20.5t-41.5 10.5q-22 0 -40.5 -8.5 t-35.5 -22.5l-209 -168q-28 -23 -53.5 -47.5t-25.5 -65.5q0 -39 26.5 -64.5t63.5 -25.5q20 0 39.5 9.5t35.5 21.5l199 158l199 -158q16 -12 35.5 -21.5t40.5 -9.5z" />
<glyph unicode="&#xcb;" horiz-adv-x="1036" d="M944 125q0 22 -9 45t-24 37q-30 31 -67 37t-82 6h-373v340h356q48 0 83.5 6t66.5 37q33 33 33 80q0 22 -9.5 43.5t-23.5 36.5q-31 30 -67.5 36.5t-82.5 6.5h-356v282h373q47 0 83 6t66 37q17 17 25 38.5t8 43.5q0 23 -9 45.5t-24 36.5q-30 31 -67 37t-82 6h-449 q-55 0 -93 -4t-68 -33q-29 -28 -33 -62t-4 -87v-996q0 -53 4 -86.5t33 -62.5q30 -29 68 -33t93 -4h449q47 0 83 6t66 37q17 16 25 37.5t8 44.5zM910 1665q0 70 -49 119t-119 49q-69 0 -118.5 -49t-49.5 -119t49.5 -119t118.5 -49q70 0 119 49t49 119zM466 1665 q0 70 -49.5 119t-118.5 49q-70 0 -119 -49t-49 -119t49 -119t119 -49q69 0 118.5 49t49.5 119z" />
<glyph unicode="&#xcc;" horiz-adv-x="483" d="M391 141v1084q0 32 -7 65t-36 62q-37 37 -94 37q-29 0 -53.5 -10.5t-40.5 -26.5q-25 -23 -34 -52.5t-9 -74.5v-1084q0 -18 5 -56t38 -71q37 -37 94 -37t94 37q25 25 34 53.5t9 73.5zM502 1569q0 47 -56 94l-233 186q-16 13 -35.5 22t-42.5 9q-37 0 -62.5 -25.5 t-25.5 -64.5q0 -33 16.5 -53.5t34.5 -34.5l238 -193q16 -12 36.5 -21t41.5 -9q37 0 62.5 25.5t25.5 64.5z" />
<glyph unicode="&#xcd;" horiz-adv-x="483" d="M391 141v1084q0 32 -7 65t-36 62q-37 37 -94 37q-29 0 -53.5 -10.5t-40.5 -26.5q-25 -23 -34 -52.5t-9 -74.5v-1084q0 -18 5 -56t38 -71q37 -37 94 -37t94 37q25 25 34 53.5t9 73.5zM506 1790q0 39 -25.5 64.5t-62.5 25.5q-23 0 -42.5 -9t-35.5 -22l-234 -186 q-55 -47 -55 -94q0 -39 25.5 -64.5t62.5 -25.5q21 0 41.5 9t36.5 21l238 193q18 14 34.5 34.5t16.5 53.5z" />
<glyph unicode="&#xce;" horiz-adv-x="483" d="M530 1479q37 0 64 25.5t27 64.5q0 30 -16.5 53t-39.5 41l-119 96l-114 90q-15 11 -35.5 21t-40.5 10q-23 0 -41 -8t-35 -23l-209 -168q-28 -22 -54 -46.5t-26 -65.5q0 -39 27 -64.5t64 -25.5q20 0 39.5 9t35.5 21l199 158l199 -158q16 -12 35.5 -21t39.5 -9zM391 141 v1084q0 32 -7 65t-36 62q-37 37 -94 37q-29 0 -53.5 -10.5t-40.5 -26.5q-25 -23 -34 -52.5t-9 -74.5v-1084q0 -18 5 -56t38 -71q37 -37 94 -37t94 37q25 25 34 53.5t9 73.5z" />
<glyph unicode="&#xcf;" horiz-adv-x="483" d="M391 141v1084q0 32 -7 65t-36 62q-37 37 -94 37q-29 0 -53.5 -10.5t-40.5 -26.5q-25 -23 -34 -52.5t-9 -74.5v-1084q0 -18 5 -56t38 -71q37 -37 94 -37t94 37q25 25 34 53.5t9 73.5zM651 1665q0 70 -49 119t-119 49q-69 0 -118.5 -49t-49.5 -119t49.5 -119t118.5 -49 q70 0 119 49t49 119zM207 1665q0 70 -49 119t-119 49t-119 -49t-49 -119t49 -119t119 -49t119 49t49 119z" />
<glyph unicode="&#xd0;" horiz-adv-x="1024" />
<glyph unicode="&#xd1;" horiz-adv-x="1413" d="M1290 119v1106q0 32 -7 65t-36 62q-37 37 -94 37q-29 0 -53.5 -10.5t-40.5 -26.5q-25 -23 -34 -52.5t-9 -74.5v-727l-660 821q-18 22 -46.5 46t-71.5 24q-35 0 -51.5 -10.5t-26.5 -20.5q-23 -23 -30 -56.5t-7 -62.5v-1098q0 -18 5 -56t38 -71q37 -37 94 -37t94 37 q25 25 34 53.5t9 73.5v717l619 -774q41 -53 74.5 -80t80.5 -27q33 0 52.5 10.5t31.5 22.5q29 29 32 58.5t3 50.5zM993 1595q22 23 36.5 54.5t14.5 66.5q0 27 -17.5 52.5t-56.5 25.5q-24 0 -38.5 -11.5t-24.5 -24.5t-22.5 -24.5t-35.5 -11.5q-12 0 -23 3t-28 7 q-57 17 -113.5 38.5t-115.5 21.5q-35 0 -75 -9.5t-75 -44.5q-22 -22 -36.5 -53t-14.5 -67q0 -29 19.5 -52.5t56.5 -23.5q18 0 36.5 11t31 27.5t24.5 23.5t35 7q10 0 18.5 -3t24.5 -7q57 -16 113.5 -37.5t115.5 -21.5q27 0 71 9t79 44z" />
<glyph unicode="&#xd2;" horiz-adv-x="1561" d="M1505 680q0 149 -56 279.5t-154.5 226.5t-230.5 151.5t-282 55.5q-151 0 -283 -55.5t-230.5 -153t-155 -227.5t-56.5 -279q0 -150 56.5 -279t155 -225t230.5 -151.5t283 -55.5q152 0 284 55.5t229.5 151.5t153.5 226t56 280zM1229 682q0 -94 -35 -176t-96.5 -143.5 t-142.5 -96.5t-173 -35t-174 36t-142 96.5t-96 141.5t-36 173q0 96 34.5 178t95 142.5t142.5 95t176 34.5q92 0 174 -34.5t142.5 -94t95.5 -141.5t35 -176zM997 1568q0 47 -55 95l-233 186q-17 12 -36.5 21.5t-41.5 9.5q-37 0 -62.5 -26t-25.5 -64q0 -33 16.5 -53.5 t34.5 -35.5l238 -192q16 -12 36.5 -21.5t40.5 -9.5q37 0 62.5 25.5t25.5 64.5z" />
<glyph unicode="&#xd3;" horiz-adv-x="1561" d="M1505 680q0 149 -56 279.5t-154.5 226.5t-230.5 151.5t-282 55.5q-151 0 -283 -55.5t-230.5 -153t-155 -227.5t-56.5 -279q0 -150 56.5 -279t155 -225t230.5 -151.5t283 -55.5q152 0 284 55.5t229.5 151.5t153.5 226t56 280zM1229 682q0 -94 -35 -176t-96.5 -143.5 t-142.5 -96.5t-173 -35t-174 36t-142 96.5t-96 141.5t-36 173q0 96 34.5 178t95 142.5t142.5 95t176 34.5q92 0 174 -34.5t142.5 -94t95.5 -141.5t35 -176zM1005 1790q0 38 -25.5 64t-62.5 26q-22 0 -41.5 -9.5t-35.5 -21.5l-234 -186q-55 -48 -55 -95q0 -39 25.5 -64.5 t62.5 -25.5q20 0 40.5 9.5t37.5 21.5l237 192q19 15 35 35.5t16 53.5z" />
<glyph unicode="&#xd4;" horiz-adv-x="1561" d="M1505 680q0 149 -56 279.5t-154.5 226.5t-230.5 151.5t-282 55.5q-151 0 -283 -55.5t-230.5 -153t-155 -227.5t-56.5 -279q0 -150 56.5 -279t155 -225t230.5 -151.5t283 -55.5q152 0 284 55.5t229.5 151.5t153.5 226t56 280zM1229 682q0 -94 -35 -176t-96.5 -143.5 t-142.5 -96.5t-173 -35t-174 36t-142 96.5t-96 141.5t-36 173q0 96 34.5 178t95 142.5t142.5 95t176 34.5q92 0 174 -34.5t142.5 -94t95.5 -141.5t35 -176zM1065 1478q36 0 63 25.5t27 64.5q0 31 -16.5 53.5t-39.5 41.5l-118 96l-115 90q-14 10 -34.5 20.5t-41.5 10.5 q-22 0 -40.5 -8.5t-35.5 -22.5l-209 -168q-28 -23 -53.5 -47.5t-25.5 -65.5q0 -39 26.5 -64.5t63.5 -25.5q20 0 39.5 9.5t35.5 21.5l199 158l199 -158q16 -12 35.5 -21.5t40.5 -9.5z" />
<glyph unicode="&#xd5;" horiz-adv-x="1561" d="M1505 680q0 149 -56 279.5t-154.5 226.5t-230.5 151.5t-282 55.5q-151 0 -283 -55.5t-230.5 -153t-155 -227.5t-56.5 -279q0 -150 56.5 -279t155 -225t230.5 -151.5t283 -55.5q152 0 284 55.5t229.5 151.5t153.5 226t56 280zM1229 682q0 -94 -35 -176t-96.5 -143.5 t-142.5 -96.5t-173 -35t-174 36t-142 96.5t-96 141.5t-36 173q0 96 34.5 178t95 142.5t142.5 95t176 34.5q92 0 174 -34.5t142.5 -94t95.5 -141.5t35 -176zM1065 1601q22 23 36.5 54.5t14.5 66.5q0 27 -17.5 52.5t-56.5 25.5q-24 0 -38.5 -11.5t-24.5 -24.5t-22.5 -24.5 t-35.5 -11.5q-12 0 -23 3t-28 7q-57 17 -113.5 38.5t-115.5 21.5q-35 0 -75 -9.5t-75 -44.5q-22 -22 -36.5 -53t-14.5 -67q0 -29 19.5 -52.5t56.5 -23.5q18 0 36.5 11t31 27.5t24.5 23.5t35 7q10 0 18.5 -3t24.5 -7q57 -16 113.5 -37.5t115.5 -21.5q27 0 71 9t79 44z" />
<glyph unicode="&#xd6;" horiz-adv-x="1561" d="M1505 680q0 149 -56 279.5t-154.5 226.5t-230.5 151.5t-282 55.5q-151 0 -283 -55.5t-230.5 -153t-155 -227.5t-56.5 -279q0 -150 56.5 -279t155 -225t230.5 -151.5t283 -55.5q152 0 284 55.5t229.5 151.5t153.5 226t56 280zM1229 682q0 -94 -35 -176t-96.5 -143.5 t-142.5 -96.5t-173 -35t-174 36t-142 96.5t-96 141.5t-36 173q0 96 34.5 178t95 142.5t142.5 95t176 34.5q92 0 174 -34.5t142.5 -94t95.5 -141.5t35 -176zM1171 1665q0 70 -49 119t-119 49q-69 0 -118.5 -49t-49.5 -119t49.5 -119t118.5 -49q70 0 119 49t49 119zM727 1665 q0 70 -49.5 119t-118.5 49q-70 0 -119 -49t-49 -119t49 -119t119 -49q69 0 118.5 49t49.5 119z" />
<glyph unicode="&#xd7;" d="M1061 336q0 35 -17.5 61.5t-44.5 53.5l-276 276l272 272q29 29 47.5 55.5t18.5 63.5q0 17 -8.5 37.5t-22.5 34.5q-31 31 -72 31q-38 0 -64 -18.5t-54 -47.5l-273 -272l-276 276q-27 27 -53.5 44.5t-61.5 17.5q-16 0 -36.5 -8.5t-33 -20.5t-20.5 -30.5t-8 -39.5 q0 -37 16.5 -61.5t44.5 -52.5l277 -277l-273 -272q-28 -29 -46.5 -54.5t-18.5 -64.5q0 -41 31 -72q14 -14 34.5 -22t36.5 -8q37 0 63.5 18t55.5 47l272 272l277 -276q29 -29 53.5 -45t61.5 -16q20 0 38.5 8t30.5 20.5t20.5 32.5t8.5 37z" />
<glyph unicode="&#xd8;" horiz-adv-x="1024" />
<glyph unicode="&#xd9;" horiz-adv-x="1284" d="M1174 518v707q0 32 -7.5 65t-36.5 62q-36 37 -94 37q-28 0 -53 -10.5t-41 -26.5q-24 -23 -33.5 -52.5t-9.5 -74.5v-664q0 -51 -2 -86t-6 -60.5t-10.5 -43t-16.5 -35.5q-28 -53 -87.5 -84t-133.5 -31t-131 31t-86 82q-12 20 -19.5 38.5t-11.5 43t-6 58.5t-2 87v664 q0 32 -7 65t-36 62q-37 37 -94 37q-29 0 -53.5 -10.5t-40.5 -26.5q-25 -23 -34 -52.5t-9 -74.5v-707q0 -121 20.5 -204t73.5 -150q74 -96 188.5 -146.5t245.5 -50.5t241.5 48t184.5 145q59 76 83 156.5t24 201.5zM852 1568q0 47 -55 95l-233 186q-17 12 -36.5 21.5 t-41.5 9.5q-37 0 -62.5 -26t-25.5 -64q0 -33 16.5 -53.5t34.5 -35.5l238 -192q16 -12 36.5 -21.5t40.5 -9.5q37 0 62.5 25.5t25.5 64.5z" />
<glyph unicode="&#xda;" horiz-adv-x="1284" d="M1174 518v707q0 32 -7.5 65t-36.5 62q-36 37 -94 37q-28 0 -53 -10.5t-41 -26.5q-24 -23 -33.5 -52.5t-9.5 -74.5v-664q0 -51 -2 -86t-6 -60.5t-10.5 -43t-16.5 -35.5q-28 -53 -87.5 -84t-133.5 -31t-131 31t-86 82q-12 20 -19.5 38.5t-11.5 43t-6 58.5t-2 87v664 q0 32 -7 65t-36 62q-37 37 -94 37q-29 0 -53.5 -10.5t-40.5 -26.5q-25 -23 -34 -52.5t-9 -74.5v-707q0 -121 20.5 -204t73.5 -150q74 -96 188.5 -146.5t245.5 -50.5t241.5 48t184.5 145q59 76 83 156.5t24 201.5zM905 1790q0 38 -25.5 64t-62.5 26q-22 0 -41.5 -9.5 t-35.5 -21.5l-234 -186q-55 -48 -55 -95q0 -39 25.5 -64.5t62.5 -25.5q20 0 40.5 9.5t37.5 21.5l237 192q19 15 35 35.5t16 53.5z" />
<glyph unicode="&#xdb;" horiz-adv-x="1284" d="M1174 518v707q0 32 -7.5 65t-36.5 62q-36 37 -94 37q-28 0 -53 -10.5t-41 -26.5q-24 -23 -33.5 -52.5t-9.5 -74.5v-664q0 -51 -2 -86t-6 -60.5t-10.5 -43t-16.5 -35.5q-28 -53 -87.5 -84t-133.5 -31t-131 31t-86 82q-12 20 -19.5 38.5t-11.5 43t-6 58.5t-2 87v664 q0 32 -7 65t-36 62q-37 37 -94 37q-29 0 -53.5 -10.5t-40.5 -26.5q-25 -23 -34 -52.5t-9 -74.5v-707q0 -121 20.5 -204t73.5 -150q74 -96 188.5 -146.5t245.5 -50.5t241.5 48t184.5 145q59 76 83 156.5t24 201.5zM924 1478q36 0 63 25.5t27 64.5q0 31 -16.5 53.5t-39.5 41.5 l-118 96l-115 90q-14 10 -34.5 20.5t-41.5 10.5q-22 0 -40.5 -8.5t-35.5 -22.5l-209 -168q-28 -23 -53.5 -47.5t-25.5 -65.5q0 -39 26.5 -64.5t63.5 -25.5q20 0 39.5 9.5t35.5 21.5l199 158l199 -158q16 -12 35.5 -21.5t40.5 -9.5z" />
<glyph unicode="&#xdc;" horiz-adv-x="1284" d="M1174 518v707q0 32 -7.5 65t-36.5 62q-36 37 -94 37q-28 0 -53 -10.5t-41 -26.5q-24 -23 -33.5 -52.5t-9.5 -74.5v-664q0 -51 -2 -86t-6 -60.5t-10.5 -43t-16.5 -35.5q-28 -53 -87.5 -84t-133.5 -31t-131 31t-86 82q-12 20 -19.5 38.5t-11.5 43t-6 58.5t-2 87v664 q0 32 -7 65t-36 62q-37 37 -94 37q-29 0 -53.5 -10.5t-40.5 -26.5q-25 -23 -34 -52.5t-9 -74.5v-707q0 -121 20.5 -204t73.5 -150q74 -96 188.5 -146.5t245.5 -50.5t241.5 48t184.5 145q59 76 83 156.5t24 201.5zM1038 1665q0 70 -49 119t-119 49q-69 0 -118.5 -49 t-49.5 -119t49.5 -119t118.5 -49q70 0 119 49t49 119zM594 1665q0 70 -49.5 119t-118.5 49q-70 0 -119 -49t-49 -119t49 -119t119 -49q69 0 118.5 49t49.5 119z" />
<glyph unicode="&#xdd;" horiz-adv-x="1024" />
<glyph unicode="&#xde;" horiz-adv-x="1024" />
<glyph unicode="&#xdf;" horiz-adv-x="1196" />
<glyph unicode="&#xe0;" horiz-adv-x="1112" d="M999 137v611q0 30 -7 63t-34 59q-16 17 -38.5 26t-51.5 9q-55 0 -90 -35q-22 -20 -29.5 -40.5t-7.5 -36.5q-36 43 -108 81.5t-164 38.5q-88 0 -165 -36.5t-133 -99t-89 -148.5t-33 -185q0 -90 28.5 -175t82 -151.5t132.5 -107.5t177 -41q92 0 164 39t108 82 q0 -14 8.5 -33.5t23.5 -36t39 -28.5t56 -12q29 0 51.5 9t38.5 25q27 27 34 59.5t7 63.5zM748 446q0 -108 -61.5 -175.5t-154.5 -67.5q-45 0 -84.5 18.5t-70.5 50t-48.5 75.5t-17.5 97q0 52 17.5 96t48.5 75.5t70.5 50t84.5 18.5q46 0 85.5 -17.5t68.5 -49t45.5 -75.5 t16.5 -96zM757 1124q0 47 -55 95l-233 186q-17 12 -36.5 21.5t-41.5 9.5q-37 0 -62.5 -26t-25.5 -64q0 -33 16.5 -53.5t34.5 -35.5l238 -192q16 -12 36.5 -21.5t40.5 -9.5q37 0 62.5 25.5t25.5 64.5z" />
<glyph unicode="&#xe1;" horiz-adv-x="1112" d="M999 137v611q0 30 -7 63t-34 59q-16 17 -38.5 26t-51.5 9q-55 0 -90 -35q-22 -20 -29.5 -40.5t-7.5 -36.5q-36 43 -108 81.5t-164 38.5q-88 0 -165 -36.5t-133 -99t-89 -148.5t-33 -185q0 -90 28.5 -175t82 -151.5t132.5 -107.5t177 -41q92 0 164 39t108 82 q0 -14 8.5 -33.5t23.5 -36t39 -28.5t56 -12q29 0 51.5 9t38.5 25q27 27 34 59.5t7 63.5zM748 446q0 -108 -61.5 -175.5t-154.5 -67.5q-45 0 -84.5 18.5t-70.5 50t-48.5 75.5t-17.5 97q0 52 17.5 96t48.5 75.5t70.5 50t84.5 18.5q46 0 85.5 -17.5t68.5 -49t45.5 -75.5 t16.5 -96zM802 1346q0 38 -25.5 64t-62.5 26q-22 0 -41.5 -9.5t-35.5 -21.5l-234 -186q-55 -48 -55 -95q0 -39 25.5 -64.5t62.5 -25.5q20 0 40.5 9.5t37.5 21.5l237 192q19 15 35 35.5t16 53.5z" />
<glyph unicode="&#xe2;" horiz-adv-x="1112" d="M999 137v611q0 30 -7 63t-34 59q-16 17 -38.5 26t-51.5 9q-55 0 -90 -35q-22 -20 -29.5 -40.5t-7.5 -36.5q-36 43 -108 81.5t-164 38.5q-88 0 -165 -36.5t-133 -99t-89 -148.5t-33 -185q0 -90 28.5 -175t82 -151.5t132.5 -107.5t177 -41q92 0 164 39t108 82 q0 -14 8.5 -33.5t23.5 -36t39 -28.5t56 -12q29 0 51.5 9t38.5 25q27 27 34 59.5t7 63.5zM748 446q0 -108 -61.5 -175.5t-154.5 -67.5q-45 0 -84.5 18.5t-70.5 50t-48.5 75.5t-17.5 97q0 52 17.5 96t48.5 75.5t70.5 50t84.5 18.5q46 0 85.5 -17.5t68.5 -49t45.5 -75.5 t16.5 -96zM824 1034q36 0 63 25.5t27 64.5q0 31 -16.5 53.5t-39.5 41.5l-118 96l-115 90q-14 10 -34.5 20.5t-41.5 10.5q-22 0 -40.5 -8.5t-35.5 -22.5l-209 -168q-28 -23 -53.5 -47.5t-25.5 -65.5q0 -39 26.5 -64.5t63.5 -25.5q20 0 39.5 9.5t35.5 21.5l199 158l199 -158 q16 -12 35.5 -21.5t40.5 -9.5z" />
<glyph unicode="&#xe3;" horiz-adv-x="1112" d="M999 137v611q0 30 -7 63t-34 59q-16 17 -38.5 26t-51.5 9q-55 0 -90 -35q-22 -20 -29.5 -40.5t-7.5 -36.5q-36 43 -108 81.5t-164 38.5q-88 0 -165 -36.5t-133 -99t-89 -148.5t-33 -185q0 -90 28.5 -175t82 -151.5t132.5 -107.5t177 -41q92 0 164 39t108 82 q0 -14 8.5 -33.5t23.5 -36t39 -28.5t56 -12q29 0 51.5 9t38.5 25q27 27 34 59.5t7 63.5zM748 446q0 -108 -61.5 -175.5t-154.5 -67.5q-45 0 -84.5 18.5t-70.5 50t-48.5 75.5t-17.5 97q0 52 17.5 96t48.5 75.5t70.5 50t84.5 18.5q46 0 85.5 -17.5t68.5 -49t45.5 -75.5 t16.5 -96zM838 1155q22 23 36.5 54.5t14.5 66.5q0 27 -17.5 52.5t-56.5 25.5q-24 0 -38.5 -11.5t-24.5 -24.5t-22.5 -24.5t-35.5 -11.5q-12 0 -23 3t-28 7q-57 17 -113.5 38.5t-115.5 21.5q-35 0 -75 -9.5t-75 -44.5q-22 -22 -36.5 -53t-14.5 -67q0 -29 19.5 -52.5 t56.5 -23.5q18 0 36.5 11t31 27.5t24.5 23.5t35 7q10 0 18.5 -3t24.5 -7q57 -16 113.5 -37.5t115.5 -21.5q27 0 71 9t79 44z" />
<glyph unicode="&#xe4;" horiz-adv-x="1112" d="M999 137v611q0 30 -7 63t-34 59q-16 17 -38.5 26t-51.5 9q-55 0 -90 -35q-22 -20 -29.5 -40.5t-7.5 -36.5q-36 43 -108 81.5t-164 38.5q-88 0 -165 -36.5t-133 -99t-89 -148.5t-33 -185q0 -90 28.5 -175t82 -151.5t132.5 -107.5t177 -41q92 0 164 39t108 82 q0 -14 8.5 -33.5t23.5 -36t39 -28.5t56 -12q29 0 51.5 9t38.5 25q27 27 34 59.5t7 63.5zM748 446q0 -108 -61.5 -175.5t-154.5 -67.5q-45 0 -84.5 18.5t-70.5 50t-48.5 75.5t-17.5 97q0 52 17.5 96t48.5 75.5t70.5 50t84.5 18.5q46 0 85.5 -17.5t68.5 -49t45.5 -75.5 t16.5 -96zM933 1237q0 70 -49 119t-119 49q-69 0 -118.5 -49t-49.5 -119t49.5 -119t118.5 -49q70 0 119 49t49 119zM489 1237q0 70 -49.5 119t-118.5 49q-70 0 -119 -49t-49 -119t49 -119t119 -49q69 0 118.5 49t49.5 119z" />
<glyph unicode="&#xe5;" horiz-adv-x="1112" d="M999 137v611q0 30 -7 63t-34 59q-16 17 -38.5 26t-51.5 9q-55 0 -90 -35q-22 -20 -29.5 -40.5t-7.5 -36.5q-36 43 -108 81.5t-164 38.5q-88 0 -165 -36.5t-133 -99t-89 -148.5t-33 -185q0 -90 28.5 -175t82 -151.5t132.5 -107.5t177 -41q92 0 164 39t108 82 q0 -14 8.5 -33.5t23.5 -36t39 -28.5t56 -12q29 0 51.5 9t38.5 25q27 27 34 59.5t7 63.5zM748 446q0 -108 -61.5 -175.5t-154.5 -67.5q-45 0 -84.5 18.5t-70.5 50t-48.5 75.5t-17.5 97q0 52 17.5 96t48.5 75.5t70.5 50t84.5 18.5q46 0 85.5 -17.5t68.5 -49t45.5 -75.5 t16.5 -96zM736 1237q0 39 -15.5 72.5t-42 59.5t-60.5 41t-73 15q-78 0 -133 -55t-55 -133t55 -133t133 -55q39 0 73 15t60.5 40.5t42 59.5t15.5 73zM627 1237q0 -35 -23.5 -57.5t-58.5 -22.5t-57.5 22.5t-22.5 57.5t22.5 58.5t57.5 23.5t58.5 -23.5t23.5 -58.5z" />
<glyph unicode="&#xe6;" horiz-adv-x="1602" d="M1552 471q0 70 -22.5 147.5t-73.5 143t-135 108.5t-207 43q-104 0 -181 -31.5t-153 -103.5q-59 70 -141 102.5t-170 32.5q-78 0 -149.5 -19.5t-126 -50t-86 -69.5t-31.5 -76q0 -34 22.5 -65t71.5 -31q39 0 69.5 16.5t62.5 37t70 37t91 16.5q84 0 129 -36t45 -108h-143 q-91 0 -170.5 -18.5t-141 -56t-97.5 -95t-36 -135.5q0 -80 33 -136t87 -92t122.5 -51.5t140.5 -15.5q35 0 79 4t90 19.5t93 44t88 78.5q68 -72 150 -107t186 -35q76 0 147.5 18.5t127 49.5t89.5 69.5t34 79.5q0 37 -24 70t-77 33q-41 0 -71.5 -16.5t-62.5 -36t-69.5 -36 t-93.5 -16.5q-37 0 -72.5 10.5t-65.5 33t-48.5 61.5t-22.5 94h539q47 0 75.5 18.5t28.5 69.5zM1296 561h-374q10 41 31.5 71t47 48t55 26.5t56.5 8.5q64 0 119 -42t65 -112zM668 285q-27 -43 -88.5 -81t-137.5 -38q-10 0 -33.5 2t-47 11t-42 28.5t-18.5 54.5q0 53 53.5 89 t177.5 36h115q2 -35 7 -59.5t14 -42.5z" />
<glyph unicode="&#xe7;" horiz-adv-x="1010" d="M940 211q0 37 -23.5 69.5t-76.5 32.5q-41 0 -71 -18.5t-59.5 -40t-66.5 -39.5t-92 -18q-102 0 -169 67.5t-67 173.5q0 117 63.5 182.5t162.5 65.5q55 0 92 -18.5t66.5 -40t59 -40t70.5 -18.5q54 0 77.5 33t23.5 70q0 39 -33 82t-87 78.5t-126 58t-152 22.5 q-102 0 -191 -36.5t-153.5 -101t-101.5 -150.5t-37 -187q0 -98 36 -180t96.5 -142.5t137 -97t158.5 -45.5v-75q0 -29 5 -42.5t16.5 -19.5t27 -7t33.5 -3q27 -4 44.5 -21.5t17.5 -46.5q0 -37 -19 -55q-6 -6 -19.5 -13t-35.5 -7q-35 0 -53.5 16t-31.5 34.5t-27.5 35 t-39.5 16.5q-22 0 -36.5 -14.5t-14.5 -40.5q0 -56 51 -107q29 -29 72 -44t82 -15q33 0 68.5 12t64.5 35.5t47.5 58.5t18.5 82q0 72 -37 119t-103 63v41q58 5 117 27.5t107.5 55t78 72.5t29.5 81z" />
<glyph unicode="&#xe8;" horiz-adv-x="997" d="M948 471q0 70 -22.5 147.5t-73.5 143t-135 108.5t-207 43q-102 0 -187 -34.5t-145.5 -97t-94.5 -149.5t-34 -192q0 -102 33 -188t93.5 -149.5t145.5 -98.5t189 -35q80 0 152.5 18.5t128 49.5t88 69.5t32.5 79.5q0 37 -23.5 70t-76.5 33q-41 0 -71.5 -16.5t-62.5 -36 t-70 -36t-93 -16.5q-37 0 -72.5 10.5t-65.5 33t-48.5 61.5t-22.5 94h539q47 0 75.5 18.5t28.5 69.5zM692 561h-375q11 41 32.5 71t47 48t55 26.5t56.5 8.5q63 0 118.5 -42t65.5 -112zM722 1124q0 47 -55 95l-233 186q-17 12 -36.5 21.5t-41.5 9.5q-37 0 -62.5 -26t-25.5 -64 q0 -33 16.5 -53.5t34.5 -35.5l238 -192q16 -12 36.5 -21.5t40.5 -9.5q37 0 62.5 25.5t25.5 64.5z" />
<glyph unicode="&#xe9;" horiz-adv-x="997" d="M948 471q0 70 -22.5 147.5t-73.5 143t-135 108.5t-207 43q-102 0 -187 -34.5t-145.5 -97t-94.5 -149.5t-34 -192q0 -102 33 -188t93.5 -149.5t145.5 -98.5t189 -35q80 0 152.5 18.5t128 49.5t88 69.5t32.5 79.5q0 37 -23.5 70t-76.5 33q-41 0 -71.5 -16.5t-62.5 -36 t-70 -36t-93 -16.5q-37 0 -72.5 10.5t-65.5 33t-48.5 61.5t-22.5 94h539q47 0 75.5 18.5t28.5 69.5zM692 561h-375q11 41 32.5 71t47 48t55 26.5t56.5 8.5q63 0 118.5 -42t65.5 -112zM765 1346q0 38 -25.5 64t-62.5 26q-22 0 -41.5 -9.5t-35.5 -21.5l-234 -186 q-55 -48 -55 -95q0 -39 25.5 -64.5t62.5 -25.5q20 0 40.5 9.5t37.5 21.5l237 192q19 15 35 35.5t16 53.5z" />
<glyph unicode="&#xea;" horiz-adv-x="997" d="M948 471q0 70 -22.5 147.5t-73.5 143t-135 108.5t-207 43q-102 0 -187 -34.5t-145.5 -97t-94.5 -149.5t-34 -192q0 -102 33 -188t93.5 -149.5t145.5 -98.5t189 -35q80 0 152.5 18.5t128 49.5t88 69.5t32.5 79.5q0 37 -23.5 70t-76.5 33q-41 0 -71.5 -16.5t-62.5 -36 t-70 -36t-93 -16.5q-37 0 -72.5 10.5t-65.5 33t-48.5 61.5t-22.5 94h539q47 0 75.5 18.5t28.5 69.5zM692 561h-375q11 41 32.5 71t47 48t55 26.5t56.5 8.5q63 0 118.5 -42t65.5 -112zM764 1034q36 0 63 25.5t27 64.5q0 31 -16.5 53.5t-39.5 41.5l-118 96l-115 90 q-14 10 -34.5 20.5t-41.5 10.5q-22 0 -40.5 -8.5t-35.5 -22.5l-209 -168q-28 -23 -53.5 -47.5t-25.5 -65.5q0 -39 26.5 -64.5t63.5 -25.5q20 0 39.5 9.5t35.5 21.5l199 158l199 -158q16 -12 35.5 -21.5t40.5 -9.5z" />
<glyph unicode="&#xeb;" horiz-adv-x="997" d="M948 471q0 70 -22.5 147.5t-73.5 143t-135 108.5t-207 43q-102 0 -187 -34.5t-145.5 -97t-94.5 -149.5t-34 -192q0 -102 33 -188t93.5 -149.5t145.5 -98.5t189 -35q80 0 152.5 18.5t128 49.5t88 69.5t32.5 79.5q0 37 -23.5 70t-76.5 33q-41 0 -71.5 -16.5t-62.5 -36 t-70 -36t-93 -16.5q-37 0 -72.5 10.5t-65.5 33t-48.5 61.5t-22.5 94h539q47 0 75.5 18.5t28.5 69.5zM692 561h-375q11 41 32.5 71t47 48t55 26.5t56.5 8.5q63 0 118.5 -42t65.5 -112zM884 1237q0 70 -49 119t-119 49q-69 0 -118.5 -49t-49.5 -119t49.5 -119t118.5 -49 q70 0 119 49t49 119zM440 1237q0 70 -49.5 119t-118.5 49q-70 0 -119 -49t-49 -119t49 -119t119 -49q69 0 118.5 49t49.5 119z" />
<glyph unicode="&#xec;" horiz-adv-x="500" d="M381 135v621q0 30 -7 63t-34 60q-35 34 -90 34t-90 -34q-23 -23 -32 -51.5t-9 -71.5v-621q0 -43 9 -71.5t32 -51.5q35 -35 90 -35q29 0 51.5 9.5t38.5 25.5q27 27 34 59.5t7 63.5zM463 1124q0 47 -55 95l-234 186q-16 12 -35.5 21.5t-42.5 9.5q-37 0 -62.5 -26t-25.5 -64 q0 -33 16.5 -53.5t34.5 -35.5l238 -192q16 -12 36.5 -21.5t41.5 -9.5q37 0 62.5 25.5t25.5 64.5z" />
<glyph unicode="&#xed;" horiz-adv-x="500" d="M381 135v621q0 30 -7 63t-34 60q-35 34 -90 34t-90 -34q-23 -23 -32 -51.5t-9 -71.5v-621q0 -43 9 -71.5t32 -51.5q35 -35 90 -35q29 0 51.5 9.5t38.5 25.5q27 27 34 59.5t7 63.5zM467 1346q0 38 -25.5 64t-62.5 26q-23 0 -42.5 -9.5t-35.5 -21.5l-233 -186 q-56 -48 -56 -95q0 -39 25.5 -64.5t62.5 -25.5q21 0 41.5 9.5t36.5 21.5l238 192q18 15 34.5 35.5t16.5 53.5z" />
<glyph unicode="&#xee;" horiz-adv-x="500" d="M381 135v621q0 30 -7 63t-34 60q-35 34 -90 34t-90 -34q-23 -23 -32 -51.5t-9 -71.5v-621q0 -43 9 -71.5t32 -51.5q35 -35 90 -35q29 0 51.5 9.5t38.5 25.5q27 27 34 59.5t7 63.5zM524 1034q37 0 63.5 25.5t26.5 64.5q0 31 -16 53.5t-39 41.5l-119 96l-114 90 q-15 10 -35.5 20.5t-40.5 10.5q-23 0 -41.5 -8.5t-34.5 -22.5l-209 -168q-28 -23 -54 -47.5t-26 -65.5q0 -39 27 -64.5t63 -25.5q21 0 40.5 9.5t35.5 21.5l199 158l199 -158q16 -12 35.5 -21.5t39.5 -9.5z" />
<glyph unicode="&#xef;" horiz-adv-x="500" d="M381 135v621q0 30 -7 63t-34 60q-35 34 -90 34t-90 -34q-23 -23 -32 -51.5t-9 -71.5v-621q0 -43 9 -71.5t32 -51.5q35 -35 90 -35q29 0 51.5 9.5t38.5 25.5q27 27 34 59.5t7 63.5zM639 1237q0 70 -49 119t-119 49t-119 -49t-49 -119t49 -119t119 -49t119 49t49 119z M195 1237q0 70 -49.5 119t-118.5 49q-70 0 -119 -49t-49 -119t49 -119t119 -49q69 0 118.5 49t49.5 119z" />
<glyph unicode="&#xf0;" horiz-adv-x="1024" />
<glyph unicode="&#xf1;" horiz-adv-x="1026" d="M920 135v418q0 76 -14.5 143.5t-76.5 128.5q-34 35 -94.5 61.5t-132.5 26.5q-70 0 -132 -31.5t-103 -88.5q0 16 -8.5 35.5t-24 37t-39 28.5t-55.5 11q-56 0 -93.5 -39t-37.5 -104v-627q0 -43 9 -71.5t32 -51.5q34 -35 90 -35q28 0 50.5 9.5t39.5 25.5q26 27 33.5 59.5 t7.5 63.5v320q0 133 41 182t116 49q45 0 71 -13.5t39 -38t16 -56t3 -68.5v-375q0 -43 9.5 -71.5t31.5 -51.5q35 -35 90 -35q29 0 51.5 9.5t39.5 25.5q26 27 33.5 59.5t7.5 63.5zM807 1155q22 23 36.5 54.5t14.5 66.5q0 27 -17.5 52.5t-56.5 25.5q-24 0 -38.5 -11.5 t-24.5 -24.5t-22.5 -24.5t-35.5 -11.5q-12 0 -23 3t-28 7q-57 17 -113.5 38.5t-115.5 21.5q-35 0 -75 -9.5t-75 -44.5q-22 -22 -36.5 -53t-14.5 -67q0 -29 19.5 -52.5t56.5 -23.5q18 0 36.5 11t31 27.5t24.5 23.5t35 7q10 0 18.5 -3t24.5 -7q57 -16 113.5 -37.5t115.5 -21.5 q27 0 71 9t79 44z" />
<glyph unicode="&#xf2;" horiz-adv-x="1085" d="M1036 440q0 101 -37.5 188t-104.5 150.5t-157 99t-194 35.5q-105 0 -195 -35.5t-156.5 -98t-104.5 -149.5t-38 -190q0 -102 38 -189t104.5 -149.5t156.5 -98.5t195 -36q104 0 194 36t157 99.5t104.5 149.5t37.5 188zM774 446q0 -53 -17.5 -97t-49 -77.5t-73.5 -52 t-91 -18.5t-91 18.5t-73 51t-48.5 76.5t-17.5 95q0 52 17.5 96t48.5 75.5t73 50t91 18.5t91 -18.5t73.5 -50t49 -74.5t17.5 -93zM753 1124q0 47 -55 95l-233 186q-17 12 -36.5 21.5t-41.5 9.5q-37 0 -62.5 -26t-25.5 -64q0 -33 16.5 -53.5t34.5 -35.5l238 -192 q16 -12 36.5 -21.5t40.5 -9.5q37 0 62.5 25.5t25.5 64.5z" />
<glyph unicode="&#xf3;" horiz-adv-x="1085" d="M1036 440q0 101 -37.5 188t-104.5 150.5t-157 99t-194 35.5q-105 0 -195 -35.5t-156.5 -98t-104.5 -149.5t-38 -190q0 -102 38 -189t104.5 -149.5t156.5 -98.5t195 -36q104 0 194 36t157 99.5t104.5 149.5t37.5 188zM774 446q0 -53 -17.5 -97t-49 -77.5t-73.5 -52 t-91 -18.5t-91 18.5t-73 51t-48.5 76.5t-17.5 95q0 52 17.5 96t48.5 75.5t73 50t91 18.5t91 -18.5t73.5 -50t49 -74.5t17.5 -93zM788 1346q0 38 -25.5 64t-62.5 26q-22 0 -41.5 -9.5t-35.5 -21.5l-234 -186q-55 -48 -55 -95q0 -39 25.5 -64.5t62.5 -25.5q20 0 40.5 9.5 t37.5 21.5l237 192q19 15 35 35.5t16 53.5z" />
<glyph unicode="&#xf4;" horiz-adv-x="1085" d="M1036 440q0 101 -37.5 188t-104.5 150.5t-157 99t-194 35.5q-105 0 -195 -35.5t-156.5 -98t-104.5 -149.5t-38 -190q0 -102 38 -189t104.5 -149.5t156.5 -98.5t195 -36q104 0 194 36t157 99.5t104.5 149.5t37.5 188zM774 446q0 -53 -17.5 -97t-49 -77.5t-73.5 -52 t-91 -18.5t-91 18.5t-73 51t-48.5 76.5t-17.5 95q0 52 17.5 96t48.5 75.5t73 50t91 18.5t91 -18.5t73.5 -50t49 -74.5t17.5 -93zM811 1034q36 0 63 25.5t27 64.5q0 31 -16.5 53.5t-39.5 41.5l-118 96l-115 90q-14 10 -34.5 20.5t-41.5 10.5q-22 0 -40.5 -8.5t-35.5 -22.5 l-209 -168q-28 -23 -53.5 -47.5t-25.5 -65.5q0 -39 26.5 -64.5t63.5 -25.5q20 0 39.5 9.5t35.5 21.5l199 158l199 -158q16 -12 35.5 -21.5t40.5 -9.5z" />
<glyph unicode="&#xf5;" horiz-adv-x="1085" d="M1036 440q0 101 -37.5 188t-104.5 150.5t-157 99t-194 35.5q-105 0 -195 -35.5t-156.5 -98t-104.5 -149.5t-38 -190q0 -102 38 -189t104.5 -149.5t156.5 -98.5t195 -36q104 0 194 36t157 99.5t104.5 149.5t37.5 188zM774 446q0 -53 -17.5 -97t-49 -77.5t-73.5 -52 t-91 -18.5t-91 18.5t-73 51t-48.5 76.5t-17.5 95q0 52 17.5 96t48.5 75.5t73 50t91 18.5t91 -18.5t73.5 -50t49 -74.5t17.5 -93zM825 1155q22 23 36.5 54.5t14.5 66.5q0 27 -17.5 52.5t-56.5 25.5q-24 0 -38.5 -11.5t-24.5 -24.5t-22.5 -24.5t-35.5 -11.5q-12 0 -23 3t-28 7 q-57 17 -113.5 38.5t-115.5 21.5q-35 0 -75 -9.5t-75 -44.5q-22 -22 -36.5 -53t-14.5 -67q0 -29 19.5 -52.5t56.5 -23.5q18 0 36.5 11t31 27.5t24.5 23.5t35 7q10 0 18.5 -3t24.5 -7q57 -16 113.5 -37.5t115.5 -21.5q27 0 71 9t79 44z" />
<glyph unicode="&#xf6;" horiz-adv-x="1085" d="M1036 440q0 101 -37.5 188t-104.5 150.5t-157 99t-194 35.5q-105 0 -195 -35.5t-156.5 -98t-104.5 -149.5t-38 -190q0 -102 38 -189t104.5 -149.5t156.5 -98.5t195 -36q104 0 194 36t157 99.5t104.5 149.5t37.5 188zM774 446q0 -53 -17.5 -97t-49 -77.5t-73.5 -52 t-91 -18.5t-91 18.5t-73 51t-48.5 76.5t-17.5 95q0 52 17.5 96t48.5 75.5t73 50t91 18.5t91 -18.5t73.5 -50t49 -74.5t17.5 -93zM924 1237q0 70 -49 119t-119 49q-69 0 -118.5 -49t-49.5 -119t49.5 -119t118.5 -49q70 0 119 49t49 119zM480 1237q0 70 -49.5 119t-118.5 49 q-70 0 -119 -49t-49 -119t49 -119t119 -49q69 0 118.5 49t49.5 119z" />
<glyph unicode="&#xf7;" d="M737 1112q0 70 -49 119t-119 49q-69 0 -118.5 -49t-49.5 -119t49.5 -119t118.5 -49q70 0 119 49t49 119zM1087 729q0 19 -6 37t-22 35q-29 28 -59.5 33.5t-71.5 5.5h-717q-41 0 -71.5 -5.5t-59.5 -33.5q-17 -17 -23 -35t-6 -37q0 -18 8.5 -38.5t20.5 -33.5 q26 -26 59 -32.5t72 -6.5h717q39 0 71.5 6.5t59.5 32.5q12 13 20 33.5t8 38.5zM737 346q0 70 -49 119t-119 49q-69 0 -118.5 -49t-49.5 -119t49.5 -119t118.5 -49q70 0 119 49t49 119z" />
<glyph unicode="&#xf8;" horiz-adv-x="1057" />
<glyph unicode="&#xf9;" horiz-adv-x="1008" d="M907 346v410q0 35 -7 65.5t-34 57.5q-16 16 -38.5 25t-51.5 9q-55 0 -90 -34q-22 -23 -31.5 -51.5t-9.5 -71.5v-379q0 -98 -33.5 -134t-105.5 -36q-74 0 -107.5 36t-33.5 134v379q0 35 -6.5 64.5t-34.5 58.5q-35 34 -91 34q-55 0 -90 -34q-22 -23 -31.5 -51.5t-9.5 -71.5 v-410q0 -186 108.5 -282.5t295.5 -96.5q90 0 168 25.5t131 77t77.5 120t24.5 156.5zM712 1124q0 47 -55 95l-233 186q-17 12 -36.5 21.5t-41.5 9.5q-37 0 -62.5 -26t-25.5 -64q0 -33 16.5 -53.5t34.5 -35.5l238 -192q16 -12 36.5 -21.5t40.5 -9.5q37 0 62.5 25.5t25.5 64.5z " />
<glyph unicode="&#xfa;" horiz-adv-x="1008" d="M907 346v410q0 35 -7 65.5t-34 57.5q-16 16 -38.5 25t-51.5 9q-55 0 -90 -34q-22 -23 -31.5 -51.5t-9.5 -71.5v-379q0 -98 -33.5 -134t-105.5 -36q-74 0 -107.5 36t-33.5 134v379q0 35 -6.5 64.5t-34.5 58.5q-35 34 -91 34q-55 0 -90 -34q-22 -23 -31.5 -51.5t-9.5 -71.5 v-410q0 -186 108.5 -282.5t295.5 -96.5q90 0 168 25.5t131 77t77.5 120t24.5 156.5zM751 1346q0 38 -25.5 64t-62.5 26q-22 0 -41.5 -9.5t-35.5 -21.5l-234 -186q-55 -48 -55 -95q0 -39 25.5 -64.5t62.5 -25.5q20 0 40.5 9.5t37.5 21.5l237 192q19 15 35 35.5t16 53.5z" />
<glyph unicode="&#xfb;" horiz-adv-x="1008" d="M907 346v410q0 35 -7 65.5t-34 57.5q-16 16 -38.5 25t-51.5 9q-55 0 -90 -34q-22 -23 -31.5 -51.5t-9.5 -71.5v-379q0 -98 -33.5 -134t-105.5 -36q-74 0 -107.5 36t-33.5 134v379q0 35 -6.5 64.5t-34.5 58.5q-35 34 -91 34q-55 0 -90 -34q-22 -23 -31.5 -51.5t-9.5 -71.5 v-410q0 -186 108.5 -282.5t295.5 -96.5q90 0 168 25.5t131 77t77.5 120t24.5 156.5zM785 1034q36 0 63 25.5t27 64.5q0 31 -16.5 53.5t-39.5 41.5l-118 96l-115 90q-14 10 -34.5 20.5t-41.5 10.5q-22 0 -40.5 -8.5t-35.5 -22.5l-209 -168q-28 -23 -53.5 -47.5t-25.5 -65.5 q0 -39 26.5 -64.5t63.5 -25.5q20 0 39.5 9.5t35.5 21.5l199 158l199 -158q16 -12 35.5 -21.5t40.5 -9.5z" />
<glyph unicode="&#xfc;" horiz-adv-x="1008" d="M907 346v410q0 35 -7 65.5t-34 57.5q-16 16 -38.5 25t-51.5 9q-55 0 -90 -34q-22 -23 -31.5 -51.5t-9.5 -71.5v-379q0 -98 -33.5 -134t-105.5 -36q-74 0 -107.5 36t-33.5 134v379q0 35 -6.5 64.5t-34.5 58.5q-35 34 -91 34q-55 0 -90 -34q-22 -23 -31.5 -51.5t-9.5 -71.5 v-410q0 -186 108.5 -282.5t295.5 -96.5q90 0 168 25.5t131 77t77.5 120t24.5 156.5zM896 1237q0 70 -49 119t-119 49q-69 0 -118.5 -49t-49.5 -119t49.5 -119t118.5 -49q70 0 119 49t49 119zM452 1237q0 70 -49.5 119t-118.5 49q-70 0 -119 -49t-49 -119t49 -119t119 -49 q69 0 118.5 49t49.5 119z" />
<glyph unicode="&#xfd;" horiz-adv-x="1024" />
<glyph unicode="&#xfe;" horiz-adv-x="1024" />
<glyph unicode="&#xff;" horiz-adv-x="999" d="M985 793q0 51 -37 85.5t-88 34.5q-31 0 -52.5 -11t-37.5 -27.5t-27.5 -37t-19.5 -38.5l-221 -455l-228 455l-21 39q-11 20 -26.5 37.5t-37 27.5t-52.5 10q-51 0 -87 -36.5t-36 -85.5q0 -31 8 -49l11 -29l329 -660l-137 -284q-10 -23 -17 -41.5t-7 -44.5q0 -54 39 -84.5 t88 -30.5q61 0 89.5 38t47.5 77l498 1030q10 22 16 40.5t6 39.5zM881 1237q0 70 -49 119t-119 49q-69 0 -118.5 -49t-49.5 -119t49.5 -119t118.5 -49q70 0 119 49t49 119zM437 1237q0 70 -49.5 119t-118.5 49q-70 0 -119 -49t-49 -119t49 -119t119 -49q69 0 118.5 49 t49.5 119z" />
<glyph unicode="&#x152;" horiz-adv-x="1767" d="M1675 125q0 22 -9 45t-24 37q-30 31 -67 37t-82 6h-373v340h357q47 0 82.5 6t66.5 37q33 33 33 80q0 22 -9.5 43.5t-23.5 36.5q-31 30 -67.5 36.5t-81.5 6.5h-357v282h373q47 0 83 6t66 37q17 17 25 38.5t8 43.5q0 23 -9 45.5t-24 36.5q-30 31 -67 37t-82 6h-664 q-92 0 -167.5 -8t-140 -26.5t-121 -48.5t-109.5 -75q-117 -96 -180.5 -231t-63.5 -297q0 -166 63.5 -300t182.5 -228q61 -50 121.5 -79.5t123 -46t130 -22.5t143.5 -6h682q47 0 83 6t66 37q17 16 25 37.5t8 44.5zM848 250h-31q-67 0 -119.5 5t-93.5 17.5t-74.5 31 t-64.5 44.5q-70 60 -106.5 146t-36.5 190q0 68 28.5 158t104 163.5t165 93t187.5 19.5h41v-868z" />
<glyph unicode="&#x153;" horiz-adv-x="1710" d="M1661 471q0 70 -22.5 147.5t-74 143t-135 108.5t-206.5 43q-105 0 -189 -35.5t-145 -115.5q-60 72 -151 111.5t-195 39.5q-105 0 -195 -35.5t-156.5 -98t-104.5 -149.5t-38 -190q0 -102 38 -189t104.5 -149.5t156.5 -98.5t195 -36q104 0 185 36t163 118 q70 -76 146.5 -114t189.5 -38q76 0 147.5 18.5t126.5 49.5t89 69.5t34 79.5q0 37 -23.5 70t-76.5 33q-41 0 -72 -16.5t-62.5 -36t-69.5 -36t-93 -16.5q-37 0 -73 10.5t-65.5 33t-48 61.5t-22.5 94h538q48 0 76.5 18.5t28.5 69.5zM1405 561h-375q10 41 31.5 71t47.5 48 t55.5 26.5t56.5 8.5q63 0 118.5 -42t65.5 -112zM774 446q0 -53 -17.5 -97t-49 -77.5t-73.5 -52t-91 -18.5t-91 18.5t-73 51t-48.5 76.5t-17.5 95q0 52 17.5 96t48.5 75.5t73 50t91 18.5t91 -18.5t73.5 -50t49 -74.5t17.5 -93z" />
<glyph unicode="&#x178;" horiz-adv-x="1075" d="M1049 1264q0 61 -40 96t-89 35q-31 0 -53.5 -10.5t-38 -26t-25.5 -30.5t-17 -28l-247 -407l-248 405l-21 32q-12 18 -27.5 32t-36 23.5t-48.5 9.5q-49 0 -90 -36t-41 -93q0 -41 28 -92l342 -570v-463q0 -18 5.5 -56t37.5 -71q37 -37 95 -37q57 0 94 37q24 25 33.5 53.5 t9.5 73.5v465l348 568q12 20 20.5 43.5t8.5 46.5zM931 1669q0 70 -49 119t-119 49q-69 0 -118.5 -49t-49.5 -119t49.5 -119t118.5 -49q70 0 119 49t49 119zM487 1669q0 70 -49.5 119t-118.5 49q-70 0 -119 -49t-49 -119t49 -119t119 -49q69 0 118.5 49t49.5 119z" />
<glyph unicode="&#x2c6;" horiz-adv-x="950" d="M750 1034q36 0 63 25.5t27 64.5q0 31 -16.5 53.5t-39.5 41.5l-118 96l-115 90q-14 10 -34.5 20.5t-41.5 10.5q-22 0 -40.5 -8.5t-35.5 -22.5l-209 -168q-28 -23 -53.5 -47.5t-25.5 -65.5q0 -39 26.5 -64.5t63.5 -25.5q20 0 39.5 9.5t35.5 21.5l199 158l199 -158 q16 -12 35.5 -21.5t40.5 -9.5z" />
<glyph unicode="&#x2da;" horiz-adv-x="950" d="M666 1237q0 39 -15.5 72.5t-42 59.5t-60.5 41t-73 15q-78 0 -133 -55t-55 -133t55 -133t133 -55q39 0 73 15t60.5 40.5t42 59.5t15.5 73zM557 1237q0 -35 -23.5 -57.5t-58.5 -22.5t-57.5 22.5t-22.5 57.5t22.5 58.5t57.5 23.5t58.5 -23.5t23.5 -58.5z" />
<glyph unicode="&#x2dc;" horiz-adv-x="950" d="M762 1155q22 23 36.5 54.5t14.5 66.5q0 27 -17.5 52.5t-56.5 25.5q-24 0 -38.5 -11.5t-24.5 -24.5t-22.5 -24.5t-35.5 -11.5q-12 0 -23 3t-28 7q-57 17 -113.5 38.5t-115.5 21.5q-35 0 -75 -9.5t-75 -44.5q-22 -22 -36.5 -53t-14.5 -67q0 -29 19.5 -52.5t56.5 -23.5 q18 0 36.5 11t31 27.5t24.5 23.5t35 7q10 0 18.5 -3t24.5 -7q57 -16 113.5 -37.5t115.5 -21.5q27 0 71 9t79 44z" />
<glyph unicode="&#x2000;" horiz-adv-x="940" />
<glyph unicode="&#x2001;" horiz-adv-x="1880" />
<glyph unicode="&#x2002;" horiz-adv-x="940" />
<glyph unicode="&#x2003;" horiz-adv-x="1880" />
<glyph unicode="&#x2004;" horiz-adv-x="626" />
<glyph unicode="&#x2005;" horiz-adv-x="470" />
<glyph unicode="&#x2006;" horiz-adv-x="313" />
<glyph unicode="&#x2007;" horiz-adv-x="313" />
<glyph unicode="&#x2008;" horiz-adv-x="235" />
<glyph unicode="&#x2009;" horiz-adv-x="376" />
<glyph unicode="&#x200a;" horiz-adv-x="104" />
<glyph unicode="&#x2010;" d="M852 729q0 19 -6 37t-23 35q-28 28 -59 33.5t-72 5.5h-248q-41 0 -71.5 -5.5t-59.5 -33.5q-16 -17 -22 -35t-6 -37q0 -18 8 -38.5t20 -33.5q27 -26 60 -32.5t71 -6.5h248q39 0 72 6.5t59 32.5q13 13 21 33.5t8 38.5z" />
<glyph unicode="&#x2011;" d="M852 729q0 19 -6 37t-23 35q-28 28 -59 33.5t-72 5.5h-248q-41 0 -71.5 -5.5t-59.5 -33.5q-16 -17 -22 -35t-6 -37q0 -18 8 -38.5t20 -33.5q27 -26 60 -32.5t71 -6.5h248q39 0 72 6.5t59 32.5q13 13 21 33.5t8 38.5z" />
<glyph unicode="&#x2012;" d="M852 729q0 19 -6 37t-23 35q-28 28 -59 33.5t-72 5.5h-248q-41 0 -71.5 -5.5t-59.5 -33.5q-16 -17 -22 -35t-6 -37q0 -18 8 -38.5t20 -33.5q27 -26 60 -32.5t71 -6.5h248q39 0 72 6.5t59 32.5q13 13 21 33.5t8 38.5z" />
<glyph unicode="&#x2013;" d="M1049 729q0 19 -6.5 37t-22.5 35q-29 28 -59.5 33.5t-71.5 5.5h-639q-41 0 -72 -5.5t-59 -33.5q-17 -17 -23 -35t-6 -37q0 -18 8 -38.5t21 -33.5q26 -26 59 -32.5t72 -6.5h639q39 0 71.5 6.5t59.5 32.5q12 13 20.5 33.5t8.5 38.5z" />
<glyph unicode="&#x2014;" horiz-adv-x="1493" d="M1440 729q0 19 -6.5 37t-22.5 35q-29 28 -59.5 33.5t-71.5 5.5h-1067q-41 0 -71.5 -5.5t-59.5 -33.5q-16 -17 -22.5 -35t-6.5 -37q0 -18 8.5 -38.5t20.5 -33.5q27 -26 59.5 -32.5t71.5 -6.5h1067q39 0 71.5 6.5t59.5 32.5q12 13 20.5 33.5t8.5 38.5z" />
<glyph unicode="&#x2018;" horiz-adv-x="594" d="M428 1030v230q0 30 -7 63t-34 59q-35 35 -90 35t-90 -35q-23 -22 -32 -50.5t-9 -71.5v-230q0 -43 9 -71.5t32 -51.5q16 -16 39.5 -25.5t50.5 -9.5q29 0 51.5 9.5t38.5 25.5q27 27 34 59.5t7 63.5z" />
<glyph unicode="&#x2019;" horiz-adv-x="594" d="M428 1030v230q0 30 -7 63t-34 59q-35 35 -90 35t-90 -35q-23 -22 -32 -50.5t-9 -71.5v-230q0 -43 9 -71.5t32 -51.5q16 -16 39.5 -25.5t50.5 -9.5q29 0 51.5 9.5t38.5 25.5q27 27 34 59.5t7 63.5z" />
<glyph unicode="&#x201a;" horiz-adv-x="594" d="M428 -154v230q0 30 -7 63t-34 60q-16 16 -38.5 25t-51.5 9q-55 0 -90 -34q-23 -23 -32 -51.5t-9 -71.5v-230q0 -43 9 -71.5t32 -50.5q35 -35 90 -35t90 35q27 26 34 59t7 63z" />
<glyph unicode="&#x201c;" horiz-adv-x="975" d="M809 1030v230q0 30 -7 63t-34 59q-35 35 -90 35t-90 -35q-23 -22 -32 -50.5t-9 -71.5v-230q0 -43 9 -71.5t32 -51.5q16 -16 39.5 -25.5t50.5 -9.5q29 0 51.5 9.5t38.5 25.5q27 27 34 59.5t7 63.5zM428 1030v230q0 30 -7 63t-34 59q-35 35 -90 35t-90 -35 q-23 -22 -32 -50.5t-9 -71.5v-230q0 -43 9 -71.5t32 -51.5q16 -16 39.5 -25.5t50.5 -9.5q29 0 51.5 9.5t38.5 25.5q27 27 34 59.5t7 63.5z" />
<glyph unicode="&#x201d;" horiz-adv-x="975" d="M809 1030v230q0 30 -7 63t-34 59q-35 35 -90 35t-90 -35q-23 -22 -32 -50.5t-9 -71.5v-230q0 -43 9 -71.5t32 -51.5q16 -16 39.5 -25.5t50.5 -9.5q29 0 51.5 9.5t38.5 25.5q27 27 34 59.5t7 63.5zM428 1030v230q0 30 -7 63t-34 59q-35 35 -90 35t-90 -35 q-23 -22 -32 -50.5t-9 -71.5v-230q0 -43 9 -71.5t32 -51.5q16 -16 39.5 -25.5t50.5 -9.5q29 0 51.5 9.5t38.5 25.5q27 27 34 59.5t7 63.5z" />
<glyph unicode="&#x201e;" horiz-adv-x="975" d="M809 -154v230q0 30 -7 63t-34 60q-16 16 -38.5 25t-51.5 9q-55 0 -90 -34q-23 -23 -32 -51.5t-9 -71.5v-230q0 -43 9 -71.5t32 -50.5q35 -35 90 -35q29 0 51.5 9t38.5 26q27 26 34 59t7 63zM428 -154v230q0 30 -7 63t-34 60q-16 16 -38.5 25t-51.5 9q-55 0 -90 -34 q-23 -23 -32 -51.5t-9 -71.5v-230q0 -43 9 -71.5t32 -50.5q35 -35 90 -35t90 35q27 26 34 59t7 63z" />
<glyph unicode="&#x2022;" d="M821 752q0 51 -19.5 97t-54 81t-80.5 54.5t-98 19.5q-53 0 -98 -19.5t-80 -54.5t-54.5 -81t-19.5 -97q0 -54 19.5 -99t54.5 -79.5t80 -54t98 -19.5q52 0 98 19.5t80.5 54t54 79.5t19.5 99z" />
<glyph unicode="&#x2026;" horiz-adv-x="1839" d="M1718 145q0 70 -49 119t-119 49q-69 0 -118.5 -49t-49.5 -119q0 -69 49.5 -118.5t118.5 -49.5q70 0 119 49.5t49 118.5zM1090 145q0 70 -49.5 119t-118.5 49q-70 0 -119 -49t-49 -119q0 -69 49 -118.5t119 -49.5q69 0 118.5 49.5t49.5 118.5zM461 145q0 70 -49.5 119 t-118.5 49q-70 0 -119 -49t-49 -119q0 -69 49 -118.5t119 -49.5q69 0 118.5 49.5t49.5 118.5z" />
<glyph unicode="&#x202f;" horiz-adv-x="376" />
<glyph unicode="&#x2039;" horiz-adv-x="600" d="M453 836l-205 -263l205 -262q18 -22 31.5 -42.5t13.5 -49.5q0 -24 -20.5 -52t-63.5 -28q-33 0 -51.5 15.5t-36.5 38.5l-254 317q-9 10 -18 27.5t-9 35.5q0 19 8 35.5t19 28.5l254 317q18 23 36.5 38.5t51.5 15.5q43 0 63.5 -28t20.5 -52q0 -29 -13.5 -49.5t-31.5 -42.5z " />
<glyph unicode="&#x203a;" horiz-adv-x="600" d="M147 836l205 -263l-205 -262q-18 -22 -31.5 -42.5t-13.5 -49.5q0 -24 20.5 -52t63.5 -28q33 0 51.5 15.5t36.5 38.5l254 317q9 10 18 27.5t9 35.5q0 19 -8 35.5t-19 28.5l-254 317q-18 23 -36.5 38.5t-51.5 15.5q-43 0 -63.5 -28t-20.5 -52q0 -29 13.5 -49.5t31.5 -42.5z " />
<glyph unicode="&#x205f;" horiz-adv-x="470" />
<glyph unicode="&#x2122;" horiz-adv-x="1440" d="M1419 764q0 10 -4 36.5t-10 61.5l-78 471q-4 21 -19.5 43.5t-50.5 22.5q-30 0 -45.5 -17.5t-25.5 -38.5l-174 -368l-168 368q-10 21 -23.5 38.5t-46.5 17.5q-35 0 -50 -21.5t-19 -42.5l-95 -506q-2 -8 -5 -31.5t-3 -31.5q0 -29 17.5 -52.5t58.5 -23.5q29 0 45 9.5 t24.5 22.5t11.5 30.5t5 33.5l51 314l111 -271q12 -28 27.5 -49.5t56.5 -21.5q43 0 59 24.5t27 46.5l112 271q2 -27 10 -81l18 -109q9 -56 15 -97l6 -41q5 -35 23 -57.5t57 -22.5t60.5 21.5t21.5 50.5zM625 1313q0 33 -26 54.5t-62 21.5h-428q-37 0 -61.5 -21.5t-24.5 -54.5 q0 -35 25.5 -53.5t60.5 -18.5h131v-461q0 -41 23.5 -63.5t58.5 -22.5q34 0 59 22.5t25 63.5v461h131q34 0 61 18.5t27 53.5z" />
<glyph unicode="&#xe000;" horiz-adv-x="915" d="M0 915h915v-915h-915v915z" />
<glyph unicode="&#xfb01;" horiz-adv-x="1155" d="M1057 135v621q0 30 -7.5 63t-33.5 60q-17 16 -39.5 25t-50.5 9q-56 0 -90 -34q-23 -23 -32 -51.5t-9 -71.5v-621q0 -43 9 -71.5t32 -51.5q34 -35 90 -35q28 0 50.5 9.5t39.5 25.5q26 27 33.5 59.5t7.5 63.5zM844 1208q0 43 -28 78t-71 59.5t-96 38t-102 13.5 q-170 0 -253 -98.5t-83 -258.5v-149h-78q-27 0 -54.5 -7t-49.5 -30q-27 -27 -27 -76q0 -45 27 -76q20 -20 43.5 -28t60.5 -8h78v-531q0 -43 9 -71.5t32 -51.5q35 -35 90 -35q29 0 51.5 9.5t38.5 25.5q27 27 34 59.5t7 63.5v531h107q36 0 60 8t44 28q27 31 27 76q0 49 -27 76 q-22 23 -50 30t-54 7h-107v106q0 31 2 62t9.5 55.5t24.5 39.5t48 15q25 0 45.5 -9t41 -19.5t43 -19.5t48.5 -9q53 0 81 28.5t28 67.5z" />
<glyph unicode="&#xfb02;" horiz-adv-x="1155" d="M473 997v-106h107q26 0 54 -7t50 -30q27 -27 27 -76q0 -45 -27 -76q-20 -20 -44 -28t-60 -8h-107v-531q0 -31 -7 -63.5t-34 -59.5q-16 -16 -38.5 -25.5t-51.5 -9.5q-55 0 -90 35q-23 23 -32 51.5t-9 71.5v531h-78q-37 0 -60.5 8t-43.5 28q-27 31 -27 76q0 49 27 76 q22 23 49.5 30t54.5 7h78v149q0 86 20.5 153t67.5 112q51 49 105.5 68.5t115.5 19.5q35 0 86 -12.5t92 -53.5t41 -94q0 -41 -27.5 -72t-74.5 -31q-35 0 -60.5 10.5t-48.5 10.5q-43 0 -49 -42t-6 -112zM1057 135v1096q0 31 -7.5 63.5t-33.5 59.5q-35 35 -90 35q-56 0 -90 -35 q-23 -23 -32 -51.5t-9 -71.5v-1096q0 -43 9 -71.5t32 -51.5q34 -35 90 -35q28 0 50.5 9.5t39.5 25.5q26 27 33.5 59.5t7.5 63.5z" />
<glyph unicode="&#xfb03;" horiz-adv-x="2012" d="M1924 1227q0 65 -48.5 113.5t-113.5 48.5q-66 0 -114 -48.5t-48 -113.5q0 -66 48 -114t114 -48q65 0 113.5 48t48.5 114zM1893 135v621q0 30 -7 63t-34 60q-35 34 -90 34t-90 -34q-23 -23 -32 -51.5t-9 -71.5v-621q0 -43 9 -71.5t32 -51.5q35 -35 90 -35q29 0 51.5 9.5 t38.5 25.5q27 27 34 59.5t7 63.5zM1600 1208q0 43 -28 78t-71 59.5t-96 38t-102 13.5q-170 0 -253 -98.5t-83 -258.5v-149h-78q-27 0 -54.5 -7t-49.5 -30q-27 -27 -27 -76q0 -45 27 -76q20 -20 43.5 -28t60.5 -8h78v-531q0 -43 9 -71.5t32 -51.5q35 -35 90 -35 q29 0 51.5 9.5t38.5 25.5q27 27 34 59.5t7 63.5v531h143q37 0 60.5 8t44.5 28q27 31 27 76q0 49 -27 76q-23 23 -50.5 30t-54.5 7h-143v106q0 31 2 62t9.5 55.5t24.5 39.5t48 15q25 0 45.5 -9t41 -19.5t43 -19.5t48.5 -9q53 0 81 28.5t28 67.5zM844 1208q0 43 -28 78 t-71 59.5t-96 38t-102 13.5q-170 0 -253 -98.5t-83 -258.5v-149h-78q-27 0 -54.5 -7t-49.5 -30q-27 -27 -27 -76q0 -45 27 -76q20 -20 43.5 -28t60.5 -8h78v-531q0 -43 9 -71.5t32 -51.5q35 -35 90 -35q29 0 51.5 9.5t38.5 25.5q27 27 34 59.5t7 63.5v531h143q37 0 60.5 8 t44.5 28q27 31 27 76q0 49 -27 76q-23 23 -50.5 30t-54.5 7h-143v106q0 31 2 62t9.5 55.5t24.5 39.5t48 15q25 0 45.5 -9t41 -19.5t43 -19.5t48.5 -9q53 0 81 28.5t28 67.5z" />
<glyph unicode="&#xfb04;" horiz-adv-x="1971" d="M1872 135v1096q0 31 -7 63.5t-34 59.5q-34 35 -90 35q-55 0 -90 -35q-22 -23 -31.5 -51.5t-9.5 -71.5v-1096q0 -43 9.5 -71.5t31.5 -51.5q35 -35 90 -35q29 0 51.5 9.5t38.5 25.5q27 27 34 59.5t7 63.5zM1600 1208q0 43 -28 78t-71 59.5t-96 38t-102 13.5 q-170 0 -253 -98.5t-83 -258.5v-149h-78q-27 0 -54.5 -7t-49.5 -30q-27 -27 -27 -76q0 -45 27 -76q20 -20 43.5 -28t60.5 -8h78v-531q0 -43 9 -71.5t32 -51.5q35 -35 90 -35q29 0 51.5 9.5t38.5 25.5q27 27 34 59.5t7 63.5v531h143q37 0 60.5 8t44.5 28q27 31 27 76 q0 49 -27 76q-23 23 -50.5 30t-54.5 7h-143v106q0 31 2 62t9.5 55.5t24.5 39.5t48 15q25 0 45.5 -9t41 -19.5t43 -19.5t48.5 -9q53 0 81 28.5t28 67.5zM844 1208q0 43 -28 78t-71 59.5t-96 38t-102 13.5q-170 0 -253 -98.5t-83 -258.5v-149h-78q-27 0 -54.5 -7t-49.5 -30 q-27 -27 -27 -76q0 -45 27 -76q20 -20 43.5 -28t60.5 -8h78v-531q0 -43 9 -71.5t32 -51.5q35 -35 90 -35q29 0 51.5 9.5t38.5 25.5q27 27 34 59.5t7 63.5v531h143q37 0 60.5 8t44.5 28q27 31 27 76q0 49 -27 76q-23 23 -50.5 30t-54.5 7h-143v106q0 31 2 62t9.5 55.5 t24.5 39.5t48 15q25 0 45.5 -9t41 -19.5t43 -19.5t48.5 -9q53 0 81 28.5t28 67.5z" />
</font>
</defs>
</svg>
