<?xml version="1.0" encoding="utf-8"?>
<!-- Generator: Adobe Illustrator 16.0.4, SVG Export Plug-In . SVG Version: 6.00 Build 0)  -->
<!DOCTYPE svg PUBLIC "-//W3C//DTD SVG 1.1//EN" "http://www.w3.org/Graphics/SVG/1.1/DTD/svg11.dtd">
<svg version="1.1" id="Layer_1" xmlns="http://www.w3.org/2000/svg" xmlns:xlink="http://www.w3.org/1999/xlink" x="0px" y="0px"
	 width="104.838px" height="104.838px" viewBox="-4.153 -3.184 104.838 104.838"
	 enable-background="new -4.153 -3.184 104.838 104.838" xml:space="preserve">
<path d="M85.331,12.169c-20.471-20.471-53.66-20.471-74.131,0c-20.471,20.471-20.471,53.661,0,74.131
	c20.471,20.472,53.661,20.472,74.131,0C105.803,65.83,105.803,32.641,85.331,12.169z M62.682,69.83L48.265,55.414L33.85,69.829
	c-1.706,1.706-4.472,1.707-6.179,0c-1.706-1.705-1.705-4.473,0-6.178l14.416-14.416L27.671,34.82c-1.706-1.706-1.707-4.472,0-6.179
	c1.705-1.706,4.472-1.705,6.178,0.001l14.416,14.415l14.417-14.417c1.705-1.705,4.472-1.706,6.178,0
	c1.707,1.707,1.705,4.473,0,6.178L54.443,49.235L68.86,63.652c1.705,1.705,1.705,4.472,0,6.177
	C67.153,71.537,64.387,71.535,62.682,69.83z"/>
</svg>
